<?xml version="1.0" encoding="UTF-8" standalone="no"?>
<svg width="595px" height="842px" viewBox="0 0 595 842" version="1.1" xmlns="http://www.w3.org/2000/svg" xmlns:xlink="http://www.w3.org/1999/xlink" xmlns:sketch="http://www.bohemiancoding.com/sketch/ns">
    <title>transition-tools-tarantula</title>
    <description>Created with Sketch (http://www.bohemiancoding.com/sketch)</description>
    <defs></defs>
    <g id="Page-1" stroke="none" stroke-width="1" fill="none" fill-rule="evenodd" sketch:type="MSPage">
        <g id="transition-tools-tarantula" sketch:type="MSArtboardGroup">
            <path d="M354,386 C354,349.549205 324.450795,320 288,320 C251.549205,320 222,349.549205 222,386 C222,422.450795 251.549205,452 288,452 C324.450795,452 354,422.450795 354,386 Z" id="Oval-1" fill="#FF5605" sketch:type="MSShapeGroup"></path>
            <path d="M244.50011,348 C235.475758,358.136912 230,371.452364 230,386.035757 C230,400.58488 235.450054,413.872016 244.436552,424 M331.568388,424 C340.554885,413.872016 346.00494,400.58488 346.00494,386.035757 C346.00494,371.452364 340.529181,358.136912 331.504829,348" id="Oval-1" stroke="#FFFFFF" stroke-width="0.5" sketch:type="MSShapeGroup"></path>
            <path d="M244.50011,344 C235.475758,354.136912 230,367.452364 230,382.035757 C230,396.58488 235.450054,409.872016 244.436552,420" id="Oval-1" stroke="#FFFFFF" stroke-width="0.5" sketch:type="MSShapeGroup" transform="translate(237.500000, 382.000000) rotate(5.000000) translate(-237.500000, -382.000000) "></path>
            <path d="M249.488126,427.540478 L248.518961,426.571313 L245.703309,429.386966 L245,428.683657 L247.815652,425.868005 L246.846488,424.89884 L247.496626,424.248702 L250.138263,426.89034 L249.488126,427.540478 Z M252.450677,428.918786 C252.56286,429.129476 252.628851,429.337512 252.648654,429.5429 C252.668456,429.748289 252.646956,429.94546 252.584151,430.134418 C252.521346,430.323375 252.423796,430.493194 252.291497,430.643879 C252.184755,430.765454 252.065246,430.864445 251.932965,430.940855 C251.800684,431.017264 251.663726,431.071372 251.522089,431.103179 C251.380452,431.134987 251.237782,431.14466 251.094076,431.132198 C250.950369,431.119737 250.812219,431.087136 250.67962,431.034394 L250.155619,433.257894 L249.297747,432.504694 L249.79357,430.593036 L249.20282,430.074365 L248.039193,431.3997 L247.294335,430.745723 L250.528135,427.062527 L251.95364,428.314102 C252.172818,428.506537 252.338495,428.708097 252.450677,428.918786 Z M251.6549,429.475467 C251.641554,429.381877 251.605917,429.286912 251.547989,429.190567 C251.49006,429.094222 251.408015,428.999446 251.301851,428.906235 L250.69569,428.374033 L249.784634,429.411698 L250.390794,429.9439 C250.496958,430.03711 250.60193,430.105774 250.705712,430.149893 C250.809494,430.194012 250.909025,430.216205 251.004307,430.216473 C251.099588,430.216741 251.188311,430.196849 251.270478,430.156796 C251.352645,430.116742 251.426051,430.059901 251.490697,429.986271 C251.555343,429.912641 251.602208,429.832498 251.631293,429.745839 C251.660378,429.65918 251.668247,429.569057 251.6549,429.475467 Z M253.739599,434.410615 C253.862887,434.39637 253.984832,434.352615 254.105439,434.27935 C254.226045,434.206085 254.33973,434.098407 254.446499,433.956314 L256.271812,431.527083 L257.05332,432.114305 L255.139717,434.661035 C254.975459,434.879639 254.787323,435.04752 254.575303,435.164682 C254.363283,435.281843 254.140145,435.349319 253.905883,435.367112 C253.671622,435.384904 253.43171,435.35427 253.186141,435.275209 C252.940572,435.196148 252.702113,435.0697 252.470757,434.89586 C252.2394,434.722019 252.051587,434.528169 251.907311,434.314302 C251.763035,434.100435 251.666392,433.878183 251.617378,433.647539 C251.568365,433.416895 251.570625,433.183452 251.624156,432.947203 C251.677687,432.710954 251.786581,432.48353 251.950839,432.264926 L253.864442,429.718195 L254.648682,430.30747 L252.823368,432.736701 C252.7166,432.878794 252.644813,433.017954 252.608005,433.154185 C252.571197,433.290415 252.563106,433.41972 252.583733,433.542102 C252.604359,433.664485 252.651652,433.779825 252.725611,433.888128 C252.799571,433.99643 252.893933,434.093698 253.008701,434.179933 C253.123468,434.266169 253.243153,434.329735 253.367759,434.370635 C253.492365,434.411534 253.61631,434.424861 253.739599,434.410615 Z M256.425403,436.162674 C256.489248,436.268759 256.567355,436.370351 256.659726,436.467454 C256.752097,436.564557 256.86194,436.653131 256.989259,436.733178 C257.226534,436.882357 257.439577,436.946992 257.628392,436.927085 C257.817207,436.907179 257.956487,436.825851 258.046237,436.6831 C258.139625,436.534561 258.155115,436.386844 258.092707,436.239943 C258.030298,436.093042 257.892477,435.921608 257.679238,435.725635 L257.563581,435.620621 C257.40937,435.480601 257.26219,435.331544 257.122036,435.173446 C256.981883,435.015348 256.872075,434.845377 256.792611,434.663528 C256.713147,434.48168 256.676402,434.289683 256.682376,434.087531 C256.688349,433.88538 256.762286,433.671457 256.904188,433.445756 C256.98666,433.314579 257.102009,433.195327 257.250237,433.087996 C257.398465,432.980665 257.573655,432.906438 257.775811,432.865312 C257.977968,432.824185 258.203128,432.827805 258.4513,432.876171 C258.699473,432.924536 258.965341,433.03786 259.248915,433.216147 C259.584573,433.42718 259.849188,433.67093 260.042768,433.947403 C260.236348,434.223876 260.357155,434.503714 260.40519,434.786925 L259.519263,434.956658 C259.484282,434.759711 259.400011,434.569459 259.266447,434.385896 C259.132883,434.202333 258.971579,434.051126 258.78253,433.932268 C258.564545,433.795218 258.368231,433.729661 258.193584,433.735596 C258.018936,433.741531 257.889771,433.81105 257.806086,433.944156 C257.751508,434.030965 257.7258,434.115735 257.728961,434.19847 C257.732122,434.281205 257.757565,434.363818 257.80529,434.446309 C257.853015,434.528801 257.919149,434.614118 258.003694,434.702264 C258.088239,434.790409 258.184357,434.88583 258.292051,434.988529 L258.351326,435.041946 C258.497821,435.177115 258.638194,435.319874 258.772451,435.470227 C258.906707,435.62058 259.012065,435.783715 259.088525,435.959638 C259.164986,436.135561 259.1983,436.323382 259.188468,436.523108 C259.178637,436.722834 259.101558,436.937473 258.957231,437.167033 C258.826245,437.375372 258.667018,437.532307 258.479544,437.637843 C258.292071,437.743378 258.091486,437.807695 257.877784,437.830796 C257.664082,437.853897 257.445785,437.835079 257.222887,437.774342 C256.999988,437.713604 256.787266,437.619563 256.584714,437.492216 C256.380232,437.363655 256.201619,437.227135 256.048869,437.08265 C255.89612,436.938165 255.768865,436.789524 255.667102,436.636721 C255.565339,436.483919 255.483861,436.333105 255.422665,436.184275 C255.36147,436.035445 255.317899,435.889623 255.291953,435.746805 L256.188136,435.535072 C256.203339,435.630762 256.230723,435.732762 256.270288,435.841077 C256.309853,435.949391 256.361557,436.056589 256.425403,436.162674 Z M263.966529,436.818767 L262.754741,436.178355 L260.89419,439.698887 L260.014813,439.234149 L261.875363,435.713616 L260.663575,435.073204 L261.093178,434.260308 L264.396132,436.005872 L263.966529,436.818767 Z M266.899386,439.0066 C266.972792,438.9754 267.051057,438.95834 267.134185,438.955422 C267.217312,438.952503 267.298125,438.96642 267.376626,438.997174 C267.455127,439.027929 267.523358,439.072402 267.58132,439.130595 C267.639282,439.188789 267.684601,439.254264 267.717278,439.327025 C267.749955,439.399785 267.768168,439.476667 267.771918,439.557673 C267.775668,439.638679 267.762166,439.718431 267.731412,439.796932 C267.699826,439.877555 267.654938,439.946846 267.596744,440.004808 C267.538551,440.06277 267.472545,440.107881 267.398724,440.140142 C267.324903,440.172404 267.247168,440.189671 267.165516,440.191945 C267.083865,440.194218 267.00379,440.179978 266.925289,440.149224 C266.846788,440.11847 266.77782,440.074319 266.718381,440.016771 C266.658943,439.959223 266.613094,439.893539 266.580832,439.819718 C266.548571,439.745897 266.530773,439.667954 266.527439,439.585887 C266.524104,439.503821 266.53823,439.422477 266.569815,439.341855 C266.600569,439.263354 266.644835,439.195654 266.702612,439.138752 C266.76039,439.081851 266.825981,439.037801 266.899386,439.0066 Z M273.869835,443.115166 C273.97981,443.057648 274.077948,442.973066 274.164251,442.861417 C274.250554,442.749768 274.318054,442.608479 274.366752,442.437545 L275.199303,439.515253 L276.139433,439.783093 L275.266612,442.846733 C275.191692,443.109708 275.076288,443.333898 274.920399,443.519311 C274.76451,443.704723 274.580422,443.847744 274.368129,443.948377 C274.155836,444.049009 273.9209,444.106465 273.663314,444.120744 C273.405727,444.135024 273.137781,444.102519 272.859466,444.023228 C272.581151,443.943937 272.336304,443.830349 272.124919,443.682461 C271.913534,443.534573 271.743604,443.361773 271.615126,443.164055 C271.486647,442.966338 271.405026,442.747617 271.370258,442.507887 C271.335491,442.268157 271.355567,442.016809 271.430488,441.753834 L272.303309,438.690194 L273.246726,438.95897 L272.414174,441.881262 C272.365476,442.052196 272.348379,442.207845 272.362883,442.348213 C272.377387,442.488582 272.416213,442.612184 272.479363,442.719025 C272.542513,442.825866 272.628029,442.91657 272.735913,442.991138 C272.843797,443.065707 272.966768,443.122657 273.10483,443.16199 C273.242891,443.201323 273.377413,443.217732 273.508397,443.211216 C273.639382,443.204701 273.75986,443.172685 273.869835,443.115166 Z M277.013386,443.789741 C277.111017,443.865888 277.220352,443.932728 277.341393,443.990264 C277.462435,444.0478 277.596729,444.09111 277.744281,444.120196 C278.019265,444.174401 278.241318,444.158368 278.410448,444.072098 C278.579577,443.985828 278.680446,443.859976 278.713057,443.694539 C278.74699,443.522395 278.708497,443.378943 278.597575,443.264177 C278.486653,443.149412 278.296536,443.038779 278.027217,442.932273 L277.881601,442.875699 C277.687445,442.800267 277.496612,442.713878 277.309099,442.61653 C277.121585,442.519182 276.958145,442.399872 276.818772,442.258596 C276.6794,442.11732 276.57627,441.951256 276.50938,441.760399 C276.442489,441.569542 276.434824,441.343332 276.486384,441.081762 C276.516351,440.929739 276.581284,440.777063 276.681184,440.623728 C276.781085,440.470394 276.918022,440.338298 277.091999,440.227436 C277.265976,440.116573 277.47747,440.039237 277.726486,439.995422 C277.975502,439.951608 278.264324,439.962092 278.592963,440.026873 C278.981964,440.103553 279.316372,440.236243 279.596196,440.424946 C279.876021,440.613649 280.089115,440.831581 280.235483,441.078749 L279.469284,441.554789 C279.366027,441.383472 279.219154,441.236074 279.028664,441.112592 C278.838173,440.98911 278.633384,440.905776 278.414292,440.862588 C278.161665,440.812791 277.954898,440.821966 277.793985,440.890114 C277.633073,440.958263 277.537414,441.069465 277.507007,441.223724 C277.487176,441.324328 277.493565,441.41268 277.526175,441.488783 C277.558785,441.564886 277.612151,441.632887 277.686277,441.692788 C277.760402,441.752688 277.852725,441.808627 277.963249,441.860606 C278.073773,441.912585 278.197709,441.967208 278.335061,442.024475 L278.409546,442.053092 C278.59476,442.126762 278.77698,442.209711 278.956212,442.301943 C279.135445,442.394175 279.29228,442.508699 279.426724,442.64552 C279.561168,442.78234 279.659599,442.945736 279.722018,443.135712 C279.784438,443.325688 279.789427,443.553693 279.736985,443.819734 C279.68939,444.061182 279.597004,444.264767 279.459823,444.430494 C279.322642,444.596221 279.158446,444.728169 278.967228,444.826343 C278.776011,444.924517 278.565477,444.985205 278.335619,445.008409 C278.105762,445.031614 277.873466,445.02008 277.638725,444.973807 C277.401747,444.927094 277.186065,444.863677 276.991672,444.783553 C276.79728,444.703429 276.625198,444.610285 276.475421,444.504119 C276.325645,444.397952 276.195518,444.28637 276.085037,444.169369 C275.974556,444.052368 275.881607,443.931858 275.806187,443.807833 L276.566905,443.288908 C276.615401,443.372787 276.67753,443.458192 276.753294,443.545124 C276.829058,443.632057 276.915754,443.713595 277.013386,443.789741 Z M284.259126,441.679968 L281.965322,441.402312 L281.840049,442.437238 L283.954012,442.693125 L283.8464,443.582144 L281.732436,443.326257 L281.591966,444.486731 L284.018104,444.780406 L283.910492,445.669424 L280.500325,445.256637 L281.089317,440.390788 L284.367149,440.787556 L284.259126,441.679968 Z M287.813295,440.955229 C288.032223,441.050335 288.213344,441.172109 288.356663,441.320556 C288.499982,441.469002 288.605856,441.63672 288.674288,441.823713 C288.74272,442.010707 288.772044,442.204342 288.762259,442.404625 C288.754366,442.566217 288.722423,442.718077 288.66643,442.860209 C288.610437,443.002341 288.536905,443.129926 288.445831,443.242968 C288.354757,443.356009 288.249101,443.452367 288.128858,443.532045 C288.008616,443.611723 287.880189,443.672178 287.743574,443.713413 L288.717142,445.779979 L287.5769,445.724277 L286.775341,443.919345 L285.990145,443.880988 L285.90409,445.642559 L284.91406,445.594195 L285.153211,440.698666 L287.047924,440.791224 C287.339245,440.805456 287.594366,440.860123 287.813295,440.955229 Z M287.536827,441.886208 C287.468137,441.821255 287.381142,441.769097 287.275841,441.729732 C287.170539,441.690368 287.047336,441.667239 286.906228,441.660346 L286.100548,441.620988 L286.033172,443.000202 L286.838852,443.03956 C286.97996,443.046454 287.104859,443.034875 287.213551,443.004823 C287.322244,442.974772 287.413964,442.930203 287.488714,442.871117 C287.563463,442.812031 287.620533,442.741246 287.659924,442.658759 C287.699314,442.576272 287.7214,442.486098 287.726181,442.388232 C287.730962,442.290367 287.717771,442.198469 287.686607,442.112535 C287.655444,442.026602 287.605518,441.95116 287.536827,441.886208 Z M290.450409,444.610502 C290.562402,444.663303 290.683763,444.704451 290.814497,444.733947 C290.945231,444.763444 291.085763,444.776147 291.236099,444.772057 C291.51627,444.764435 291.729356,444.699942 291.875361,444.578576 C292.021367,444.45721 292.092076,444.31225 292.08749,444.143691 C292.082719,443.9683 292.013608,443.836831 291.880155,443.749281 C291.746702,443.661732 291.536903,443.595636 291.250751,443.550992 L291.096255,443.527841 C290.89026,443.496973 290.685098,443.454685 290.480761,443.400977 C290.276425,443.347269 290.09074,443.26684 289.923701,443.159689 C289.756662,443.052538 289.619523,442.913232 289.512281,442.741767 C289.405039,442.570303 289.347794,442.351322 289.340544,442.084818 C289.33633,441.929926 289.366082,441.766705 289.4298,441.595149 C289.493518,441.423593 289.598038,441.264606 289.743362,441.118184 C289.888686,440.971762 290.077982,440.849789 290.311257,440.752263 C290.544533,440.654737 290.828585,440.601421 291.163424,440.592312 C291.559764,440.58153 291.915171,440.637396 292.229655,440.759912 C292.54414,440.882428 292.799959,441.048138 292.99712,441.257048 L292.354427,441.889993 C292.216008,441.745591 292.040306,441.634118 291.827316,441.555571 C291.614325,441.477024 291.39622,441.440787 291.172994,441.44686 C290.915601,441.453862 290.715919,441.508302 290.573943,441.610183 C290.431966,441.712064 290.363116,441.841587 290.367392,441.998756 C290.370181,442.101258 290.395851,442.18604 290.444406,442.253104 C290.49296,442.320168 290.55998,442.374762 290.645467,442.416886 C290.730955,442.459011 290.833323,442.493267 290.952575,442.519657 C291.071827,442.546046 291.204743,442.572063 291.351329,442.597709 L291.430285,442.609238 C291.627169,442.640354 291.823174,442.681181 292.018306,442.73172 C292.213438,442.78226 292.391628,442.859473 292.552879,442.963363 C292.714131,443.067252 292.846098,443.204989 292.948784,443.376577 C293.05147,443.548166 293.1065,443.769487 293.113874,444.040546 C293.120566,444.28655 293.075233,444.505473 292.977875,444.69732 C292.880516,444.889167 292.749373,445.054007 292.584439,445.191844 C292.419506,445.329682 292.227482,445.435202 292.008362,445.508408 C291.789242,445.581615 291.5601,445.62147 291.32093,445.627977 C291.079482,445.634545 290.855132,445.620133 290.647874,445.58474 C290.440617,445.549348 290.252259,445.496345 290.082794,445.425732 C289.91333,445.355119 289.761843,445.274899 289.628328,445.185072 C289.494813,445.095245 289.377628,444.998136 289.27677,444.893743 L289.904681,444.220169 C289.970442,444.291324 290.049839,444.360967 290.142872,444.429101 C290.235906,444.497234 290.338417,444.557701 290.450409,444.610502 Z M297.043828,441.913696 C297.091906,441.850055 297.151248,441.796249 297.221854,441.752277 C297.29246,441.708305 297.369453,441.680082 297.452835,441.667607 C297.536217,441.655132 297.617536,441.65967 297.696792,441.68122 C297.776049,441.702771 297.847977,441.736937 297.912576,441.783721 C297.977176,441.830504 298.031293,441.888071 298.074927,441.956423 C298.118562,442.024776 298.146616,442.100642 298.159091,442.184024 C298.171904,442.26966 298.167535,442.352105 298.145984,442.431362 C298.124434,442.510619 298.089704,442.58263 298.041793,442.647399 C297.993883,442.712167 297.935105,442.765889 297.865457,442.808565 C297.79581,442.851242 297.719296,442.878817 297.635914,442.891292 C297.552531,442.903767 297.470734,442.899877 297.390519,442.879622 C297.310304,442.859367 297.237813,442.825285 297.173045,442.777375 C297.108276,442.729464 297.053991,442.67077 297.010188,442.601291 C296.966385,442.531812 296.938078,442.454256 296.925265,442.36862 C296.91279,442.285238 296.917412,442.204483 296.939131,442.126353 C296.96085,442.048223 296.995749,441.977338 297.043828,441.913696 Z M306.114145,442.182447 C305.97451,442.43785 305.775103,442.658209 305.515918,442.84353 C305.256733,443.028851 304.934753,443.169315 304.549967,443.264926 L302.798538,443.700118 L301.616595,438.943396 L303.368024,438.508203 C303.75281,438.412592 304.103088,438.386014 304.41887,438.428469 C304.734653,438.470923 305.014009,438.57232 305.256948,438.732662 C305.499887,438.893004 305.705855,439.107726 305.874859,439.376835 C306.043862,439.645945 306.172596,439.958513 306.261064,440.31455 C306.349531,440.670588 306.38207,441.007059 306.358681,441.323974 C306.335291,441.640888 306.25378,441.927043 306.114145,442.182447 Z M304.673858,439.532621 C304.532523,439.431559 304.365303,439.365692 304.172194,439.33502 C303.979084,439.304347 303.758694,439.319782 303.511016,439.381324 L302.791205,439.560182 L303.547846,442.60528 L304.267657,442.426423 C304.513124,442.36543 304.714001,442.276188 304.870295,442.158697 C305.026588,442.041205 305.143393,441.904177 305.220713,441.74761 C305.298033,441.591043 305.340419,441.419092 305.347872,441.231752 C305.355324,441.044412 305.334324,440.851232 305.28487,440.652205 L305.239538,440.469764 C305.189534,440.268526 305.118088,440.087293 305.025196,439.926061 C304.932305,439.764828 304.815193,439.633683 304.673858,439.532621 Z M309.59125,437.346145 L307.403884,438.090494 L307.739722,439.077398 L309.755594,438.391407 L310.044084,439.239173 L308.028213,439.925164 L308.404792,441.03179 L310.718352,440.244497 L311.006843,441.092263 L307.754915,442.198878 L306.175925,437.558814 L309.301658,436.495143 L309.59125,437.346145 Z M312.421308,439.363097 L314.20931,438.606719 L314.566192,439.450354 L311.865302,440.59291 L309.955715,436.078835 L310.868603,435.692656 L312.421308,439.363097 Z M316.15375,438.552621 L315.266366,438.994265 L313.082515,434.606304 L313.969899,434.164661 L316.15375,438.552621 Z M315.505293,433.309719 L318.097084,436.09451 L318.127112,436.078184 L317.180866,432.398693 L318.144771,431.874608 L319.269867,436.841879 L318.086757,437.485148 L314.529376,433.840334 L315.505293,433.309719 Z M321.717587,430.451067 L319.775583,431.702965 L320.340419,432.579165 L322.130165,431.425418 L322.615368,432.178088 L320.825622,433.331835 L321.458979,434.314328 L323.513021,432.990204 L323.998224,433.742874 L321.111074,435.604055 L318.45542,431.484479 L321.230531,429.695524 L321.717587,430.451067 Z M323.979422,427.625744 C324.20857,427.558913 324.425694,427.536759 324.630802,427.559281 C324.835911,427.581804 325.024546,427.643084 325.196713,427.743124 C325.368881,427.843164 325.515222,427.973313 325.635741,428.133575 C325.732978,428.262878 325.805501,428.400072 325.853312,428.545161 C325.901122,428.69025 325.926146,428.835366 325.928383,428.980514 C325.930621,429.125662 325.910979,429.267304 325.869457,429.405444 C325.827935,429.543584 325.767831,429.672176 325.689143,429.791223 L327.758942,430.757898 L326.846543,431.444033 L325.076275,430.568574 L324.447976,431.041062 L325.507993,432.450638 L324.715789,433.046384 L321.769928,429.129076 L323.286041,427.988941 C323.519151,427.81364 323.750275,427.692576 323.979422,427.625744 Z M324.362016,428.518368 C324.267672,428.512337 324.167432,428.527847 324.061294,428.564898 C323.955157,428.601948 323.845633,428.662929 323.732721,428.74784 L323.088031,429.232654 L323.917967,430.336275 L324.562657,429.851461 C324.675569,429.766549 324.764207,429.677797 324.828574,429.585201 C324.892941,429.492604 324.934976,429.399696 324.954681,429.306474 C324.974385,429.213251 324.973015,429.122336 324.95057,429.033725 C324.928125,428.945114 324.887458,428.861655 324.828568,428.783344 C324.769678,428.705034 324.700784,428.642803 324.621883,428.596647 C324.542982,428.550492 324.45636,428.524399 324.362016,428.518368 Z M326.97792,424.730923 L327.81441,424 L328.493197,427.265013 L329.806609,428.768122 L329.05248,429.427078 L327.739068,427.923968 L324.594565,426.813491 L325.45422,426.062327 L327.446894,426.831191 L326.97792,424.730923 Z" id="TRUST--·--USERS--·--" fill="#FFFFFF" sketch:type="MSShapeGroup"></path>
            <path d="M353.462963,386.176991 C353.462963,349.726196 323.913758,320.176991 287.462963,320.176991 C251.012168,320.176991 221.462963,349.726196 221.462963,386.176991 C221.462963,422.627786 251.012168,452.176991 287.462963,452.176991 C323.913758,452.176991 353.462963,422.627786 353.462963,386.176991 Z" id="Path-303" sketch:type="MSShapeGroup"></path>
            <g id="tarantula" sketch:type="MSLayerGroup" transform="translate(221.000000, 320.000000)">
                <path d="M131.03457,52.1040884 C126.061418,50.7554621 121.059056,50.0082103 119.070716,50.0082103 C115.48804,50.0082103 110.211831,49.9290316 102.578056,51.6831142 C94.9442811,53.4371968 78.6283528,55.1970249 75.7337299,57.623499 C73.2741116,59.6853218 72.9416451,59.9471649 76.3211701,63.0278653 C74.7385182,63.5192248 73.4083417,64.1723926 72.6337343,64.9348548 C70.727749,66.8109553 79.4163561,70.5228356 83.9273654,72.3065869 C86.4961644,73.322346 92.5793767,74.1620031 98.1992357,74.8495347 C101.626734,75.7804404 105.000155,76.2789563 107.935741,76.0747864 C108.112578,76.1031452 108.278427,76.1310446 108.432501,76.1584894 C112.102294,76.812181 125.268314,76.2149485 131.925106,74.7498663 C132.3043,71.8870901 132.5,68.9663991 132.5,66 C132.5,61.2331116 131.994639,56.5842567 131.03457,52.1040884 Z" id="Path-294" fill-opacity="0.0932617188" fill="#000000" sketch:type="MSShapeGroup"></path>
                <path d="M50.1507122,63.921519 C50.8818675,65.7166367 48.3596522,71.9696457 47.5863884,73.4254557 C46.8131247,74.8812657 44.8482659,76.5148114 43.1551792,75.8476332 C41.4620924,75.180455 41.2302227,69.4481692 42.1927009,67.416135 C43.1551792,65.3841009 43.0840915,61.8254704 45.4284918,61.82547 C47.7728921,61.82547 49.4195569,62.1264012 50.1507122,63.921519 Z" id="Path-309" fill="#1A1A1A" sketch:type="MSShapeGroup"></path>
                <path d="M77.4387512,44.1518205 C77.4387512,44.1518205 69.9149405,24.8134564 68.2579467,23.3157095 C66.6009529,21.8179626 64.1706953,18.6209537 61.886997,18.6209537 C59.6032986,18.6209537 56.4413386,21.0418576 58.5801186,24.4322117 C60.7188984,27.8225661 61.2602928,29.8791087 63.196733,32.3904219 C65.1331734,34.901735 67.8735019,44.1518202 69.0858967,44.15182 C70.2982915,44.15182 72.3326199,48.1249341 74.5249925,45.7470566 C76.7173651,43.3691792 77.4387512,44.1518205 77.4387512,44.1518205 Z" id="Path-291" fill="#1A1A1A" sketch:type="MSShapeGroup"></path>
                <path d="M70.5668639,22.0674995 L68.0057509,26.7511564 L67.3194513,26.2026341 L70.5668639,22.0674995 Z" id="Path-886" fill="#1A1A1A" sketch:type="MSShapeGroup"></path>
                <path d="M86.5668639,19.0674995 L84.0057509,23.7511564 L83.3194513,23.2026341 L86.5668639,19.0674995 Z" id="Path-886" fill="#1A1A1A" sketch:type="MSShapeGroup"></path>
                <path d="M19.1648622,44.479457 C16.9424125,45.8656315 13.3558611,48.9300131 14.5061395,50.1361943 C15.6564179,51.3423754 18.927524,51.1271188 21.3637969,50.0179306 C23.8000697,48.908742 28.3866069,46.6499064 25.9990046,43.3148712 C23.6114021,39.9798362 21.3873119,43.0932824 19.1648622,44.479457 Z" id="Path-317" fill="#1A1A1A" sketch:type="MSShapeGroup"></path>
                <path d="M24.7916639,35.3080329 C23.6705955,37.7032298 21.1069035,41.8669661 23.5245832,43.4216275 C25.9422629,44.9762888 29.2557041,42.3812925 30.8087935,40.8730614 C32.3618828,39.3648302 33.3970943,34.0013985 31.6006505,32.0860797 C29.8042068,30.170761 25.9127324,32.9128361 24.7916639,35.3080329 Z" id="Path-316" fill="#1A1A1A" sketch:type="MSShapeGroup"></path>
                <path d="M36.7125876,26.2406214 C32.1856806,29.3112793 25.3632295,31.434398 27.0076456,34.3944904 C28.6520615,37.354583 35.2186945,36.1896084 38.7208024,34.3944906 C42.2229104,32.5993728 48.4580488,28.9506723 48.4580496,27.0580648 C48.4580504,25.1654573 46.4961518,21.9575602 45.0956363,21.9575602 C43.6951208,21.9575602 41.2394945,23.1699634 36.7125876,26.2406214 Z" id="Path-315" fill="#1A1A1A" sketch:type="MSShapeGroup"></path>
                <path d="M54.0980328,17.7227376 C50.2492321,18.5345845 46.3951093,19.3809865 43.8320584,22.2109854 C45.0504684,25.2773241 52.1676074,27.0478922 54.0980329,27.0478919 C56.0284584,27.0478919 62.8486086,25.0466206 62.8486088,21.1773276 C62.8486092,17.3080346 57.9468334,16.9108908 54.0980328,17.7227376 Z" id="Path-293" fill="#56260A" sketch:type="MSShapeGroup"></path>
                <path d="M74.5013563,14.2317517 C75.7071884,18.3862294 79.0009608,35.1058564 81.827147,37.4227345 C84.6533331,39.7396129 87.8087305,36.2855359 88.861988,34.6233094 C89.9152454,32.9610826 87.6612658,29.6774901 86.3976741,24.9779362 C85.1340822,20.2783826 84.6176551,14.6727578 82.869882,11.961019 C81.1221091,9.24928016 79.5445235,5.95874239 77.7480798,5.95874239 C75.951636,5.95874239 73.2955243,10.0772741 74.5013563,14.2317517 Z" id="Path-295" fill="#1A1A1A" sketch:type="MSShapeGroup"></path>
                <path d="M82.8956821,9.07352907 C83.5392027,11.3963984 82.2035591,14.338518 80.3603586,15.1571047 C78.517158,15.9756915 74.81107,13.2034981 73.3856042,10.6562391 C71.9601383,8.10898006 74.7895373,5.50671264 77.0849248,5.50671286 C79.3803124,5.50671313 82.2521615,6.75065975 82.8956821,9.07352907 Z" id="Path-296" fill="#5D3019" sketch:type="MSShapeGroup"></path>
                <path d="M87.3343108,17.2151882 C88.9891718,21.4950408 89.8205124,41.6248679 94.5234216,41.6248686 C99.2263309,41.6248697 99.8164503,24.1119043 98.8648,21.2783033 C97.9131497,18.4447022 97.698745,13.7485953 96.6334021,11.7299047 C95.568059,9.71121417 103.903271,3.31493687 89.7456487,6.69603014 C87.3236322,7.27445094 85.6794496,12.9353356 87.3343108,17.2151882 Z" id="Path-297" fill="#1A1A1A" sketch:type="MSShapeGroup"></path>
                <path d="M101.253597,1.74023438 C103.156917,1.74023438 103.941406,4.43505859 103.941406,5.51171875 L103.941406,13.7749023 C103.941406,15.7270508 106.475586,20.6074219 105.078125,21.9995117 C103.680664,23.3916016 100.379883,21.0532228 99.6835937,18.0351562 C98.9873047,15.0170898 98.8139648,12.4018555 98.8139648,11.1455078 C98.8139649,9.88916016 96.4106445,5.88623024 97.1499023,4.36376953 C97.8891602,2.84130859 99.3502765,1.74023466 101.253597,1.74023438 Z" id="Path-1126" fill="#1A1A1A" sketch:type="MSShapeGroup"></path>
                <path d="M102.055664,1.26025391 C103.700684,3.03857422 102.825684,5.23852536 99.072998,8.37353516 C95.3203125,11.5085449 93.2729492,10.8752441 91.8046875,9.18115234 C90.3364258,7.48706055 92.4331052,3.77026344 95.0842285,1.79345703 C97.7353516,-0.183349609 100.410645,-0.518066499 102.055664,1.26025391 Z" id="Path-1126" fill="#1A1A1A" sketch:type="MSShapeGroup"></path>
                <path d="M96.5219731,4.2143554 C97.6582036,7.12353507 97.2433921,9.20667057 96.5219731,10.0385741 C93.4381113,13.594727 95.3900756,11.8420574 93.546875,12.6606441 C92.5692597,13.0948145 90.2841436,13.9735972 89.152832,13.3398434 C88.1511635,12.7787145 87.246582,11.2978512 87.246582,9.99658188 C87.2465821,8.6953126 90.3931876,3.68811021 93.7209473,2.3096924 C94.856905,1.8391583 95.3857426,1.30517573 96.5219731,4.2143554 Z" id="Path-296" fill="#5D3019" sketch:type="MSShapeGroup"></path>
                <path d="M76.3659438,78.8370367 C77.0845213,82.8646143 76.5425805,88.1181658 74.3195839,89.2640784 C72.0965873,90.409991 71.1291873,87.9776499 70.5440442,84.7387042 C69.9589012,81.4997584 68.8148646,75.6345811 71.5672242,75.0033492 C74.3195839,74.3721169 75.6473664,74.809459 76.3659438,78.8370367 Z" id="Path-320" fill="#1A1A1A" sketch:type="MSShapeGroup"></path>
                <path d="M107.232422,14.5781395 C107.232422,14.5781395 116.430664,11.8071287 121.006348,13.2539063 C125.582031,14.7006837 131.645021,17.6069481 132.654787,22.1801903 C133.664553,26.7534323 128.294683,39.0200633 121.006347,41.8173973 C118.290941,44.8051552 117.138061,51.6616795 113.790912,51.6616795 C106.884037,51.6616795 97.1054687,32.5927738 97.1054687,32.5927738 C97.1054687,32.5927738 100.353631,22.0484268 102.055664,19.5161274 C103.757697,16.9838278 107.232422,14.5781395 107.232422,14.5781395 Z" id="Path-322" fill="#1A1A1A" sketch:type="MSShapeGroup"></path>
                <path d="M20.9619849,48.7360148 C19.4028795,51.5446988 17.2285536,55.596785 17.9897864,56.7917147 C18.7510192,57.9866445 22.2536747,59.7207636 24.1474597,58.7627497 C26.0412448,57.8047363 26.3618577,54.1717826 27.2217427,51.9891458 C28.0816276,49.8065089 32.3593003,44.3760273 28.3729263,40.8156433 C24.3865524,37.2552589 22.5210903,45.9273309 20.9619849,48.7360148 Z" id="Path-313" fill="#1A1A1A" sketch:type="MSShapeGroup"></path>
                <path d="M20.5000682,63.1451054 C18.2937813,65.0736588 14.3658451,68.8310298 12.6702105,67.8338702 C10.974576,66.8367107 13.0165568,62.1620388 14.3557627,60.6762739 C15.6949685,59.1905089 19.5189439,53.5235904 22.8687817,54.924937 C26.2186195,56.3262835 22.7063552,61.2165521 20.5000682,63.1451054 Z" id="Path-314" fill="#1A1A1A" sketch:type="MSShapeGroup"></path>
                <path d="M35.2750206,34.0139796 C33.0339775,35.1304818 24.8179132,39.3459586 24.8179133,40.9411952 C24.8179133,42.5364319 26.6750588,48.2142545 29.1053163,48.2142543 C31.5355739,48.2142543 37.8162343,41.2438094 40.9787223,39.2391558 C44.1412103,37.2345023 57.1395313,32.138976 57.1395314,30.4582316 C57.1395314,28.7774873 53.4421931,24.3076658 52.3763578,24.3076658 C51.3105225,24.3076658 37.5160637,32.8974773 35.2750206,34.0139796 Z" id="Path-312" fill="#1A1A1A" sketch:type="MSShapeGroup"></path>
                <path d="M27.485481,38.8523458 C26.239681,39.3845648 24.8179132,39.3459586 24.8179133,40.9411952 C24.8179133,42.5364319 26.6750588,48.2142545 29.1053163,48.2142543 C31.5355739,48.2142543 31.1594078,47.4393259 32.4252343,46.4151103 C33.6910608,45.3908947 32.1052348,42.5238648 31.3959917,41.4839784 C30.6867485,40.4440921 28.731281,38.3201268 27.485481,38.8523458 Z" id="Path-312" opacity="0.598508523" fill="#9D4518" sketch:type="MSShapeGroup"></path>
                <path d="M129.157475,78.750402 C130.953216,81.662022 133.62874,84.6728319 133.628741,86.6171797 C133.628741,88.5615275 132.800397,93.6217317 131.177152,93.6217317 C129.553908,93.6217317 127.449737,92.0615851 126.416635,90.1223725 C125.383533,88.1831598 122.682859,82.319153 122.138652,80.211758 C121.594446,78.1043631 120.588062,76.0049774 122.138652,75.0115628 C123.689242,74.0181481 127.361735,75.8387821 129.157475,78.750402 Z" id="Path-300" fill="#1A1A1A" sketch:type="MSShapeGroup"></path>
                <path d="M116.011216,42.4219788 C118.288898,45.1733672 116.989968,43.2021745 118.061819,47.1842642 C119.133669,51.1663539 121.117746,55.5429769 121.684428,58.742745 C122.251109,61.942513 122.158727,61.3778609 120.124398,63.6787924 C118.090069,65.9797238 117.773184,66.94582 115.635498,65.2570804 C113.497812,63.5683408 111.892114,58.443656 110.387695,53.8203129 C108.883276,49.1969696 109.494253,51.7803541 109.494254,49.3322186 C109.494254,46.8840832 113.733532,39.6705908 116.011216,42.4219788 Z" id="Path-299" fill="#1A1A1A" sketch:type="MSShapeGroup"></path>
                <path d="M124.259672,65.486702 C125.092175,67.4594457 125.713193,69.169975 126.666004,72.2769021 C127.618815,75.3838292 127.458238,74.8346329 125.719773,77.3660819 C123.981308,79.8975308 122.717584,79.4357483 120.389816,78.0198478 C118.062047,76.6039473 119.188891,76.6050035 117.131663,72.1992768 C115.074436,67.79355 115.431227,67.3498092 115.132568,64.9199218 C115.121249,64.8278276 115.13311,63.9470805 115.132568,63.8483886 C115.118819,61.3431126 118.824779,57.8406798 121.322735,60.2012717 C123.919094,62.6548563 123.42717,63.5139583 124.259672,65.486702 Z" id="Path-299" fill="#1A1A1A" sketch:type="MSShapeGroup"></path>
                <path d="M85.6960804,31.380839 C81.1656818,33.8653937 71.4827056,36.3580867 69.7648404,39.7950442 C68.0469752,43.2320017 68.0775234,43.1378209 71.3895316,50.1761068 C74.7015391,57.2143928 83.3662197,67.1081071 89.0763138,65.8922356 C94.7864079,64.6763645 105.911801,63.4788887 109.484492,57.7431098 C113.057183,52.007331 111.894799,43.7727558 108.719242,38.1087782 C105.543686,32.4448005 97.6101433,29.0084364 95.483941,29.0084364 C93.3577387,29.0084364 90.2264791,28.8962845 85.6960804,31.380839 Z" id="Path-294" fill="#1A1A1A" sketch:type="MSShapeGroup"></path>
                <path d="M118.916577,15.921875 C118.916577,15.921875 126.095392,15.9218752 127.47648,15.921875 C128.857569,15.9218748 132.831543,15.921875 134.984863,16.581543 C137.138182,17.2412109 137.951772,19.7387694 137.951772,20.9897461 C137.951772,22.2407228 136.203964,25.5034179 133.912077,25.503418 C131.62019,25.5034181 127.511597,24.1982421 126.090502,24.1982422 C124.669408,24.1982423 119.624679,23.7416991 118.609866,22.3657227 C117.595053,20.9897462 118.916577,15.921875 118.916577,15.921875 Z" id="Path-1121" fill="#1A1A1A" sketch:type="MSShapeGroup"></path>
                <path d="M141.328483,38.0493031 C141.125413,39.2009704 137.964356,40.283247 136.506129,39.286368 C135.047902,38.2894891 134.931605,31.2348728 134.450699,29.0349346 C133.969793,26.8349963 131.540006,21.2311287 132.560086,20.373258 C133.580166,19.5153875 134.663808,17.4207614 136.309956,18.5003572 C137.956104,19.579953 139.387757,23.4603878 139.591921,26.4008644 C139.796084,29.341341 141.531553,36.8976358 141.328483,38.0493031 Z" id="Path-1122" fill="#1A1A1A" sketch:type="MSShapeGroup"></path>
                <path d="M92.8110352,46.5795898 C92.8110352,46.5795898 95.3178711,44.8774418 97.8847656,44.8774414 C100.45166,44.877441 102.53418,45.1328125 102.53418,45.1328125 C102.53418,45.1328125 103.322753,47.4282227 102.594238,50.0166016 C101.865723,52.6049805 100.479004,55.5463867 100.479004,55.5463867 C100.479004,55.5463867 97.0039062,51.4350586 95.965332,50.1518555 C94.9267578,48.8686523 92.8110352,46.5795898 92.8110352,46.5795898 Z" id="Path-893" opacity="0.597088068" fill="#5D3019" sketch:type="MSShapeGroup"></path>
                <path d="M64.2388363,73.071452 C61.7587667,77.3996002 58.4465143,83.9316081 58.4465144,85.9473258 C58.4465144,87.9630436 60.1015196,88.9819683 61.6528738,89.7342453 C63.204228,90.4865228 65.26532,90.8337284 66.8111818,89.7342462 C68.3570436,88.6347638 72.4003317,80.5967142 73.6461088,76.7366121 C74.8918856,72.8765098 86.7943902,60.5459661 85.5046741,58.0690104 C84.2149581,55.5920547 73.4582463,59.1550913 71.5179301,60.564335 C69.5776139,61.9735787 66.7189057,68.7433036 64.2388363,73.071452 Z" id="Path-303" fill="#1A1A1A" sketch:type="MSShapeGroup"></path>
                <path d="M117.289786,44.2625594 C116.420098,41.6348157 114.18539,37.5563188 113.144228,36.7557074 C112.103067,35.9550959 109.68331,35.1923322 108.026065,36.5074848 C106.368821,37.8226373 105.086806,39.4078847 106.216242,43.0481583 C107.345677,46.6884318 108.422188,47.8766476 109.464032,49.1539354 C111.276313,49.1539359 112.909072,49.1260714 114.373364,48.2165372 C116.731277,46.2139139 117.264581,44.3204161 117.289786,44.2625594 Z" id="Path-298" opacity="0.398650568" fill="#C45218" sketch:type="MSShapeGroup"></path>
                <path d="M73.1742703,82.783851 C77.3328249,81.5252449 78.0467777,77.9101957 77.3935363,73.0626281 C77.1850295,71.5153429 76.8372316,69.8424875 76.4176983,68.080611 C74.6837879,60.7988634 73.3386703,53.7950068 70.2601403,54.7267395 C67.1816103,55.6584722 67.0219427,58.9756626 66.8795987,63.400431 C66.7372549,67.8251995 67.6883552,84.4441897 73.1742703,82.783851 Z" id="Path-319" fill="#1A1A1A" sketch:type="MSShapeGroup"></path>
                <path d="M93.3038755,54.8310154 C95.3113731,56.7902896 103.538054,59.7425397 102.141592,63.1481526 C100.745129,66.5537656 90.1344285,68.220821 87.6527196,67.0487665 C85.1710107,65.876712 76.9711442,64.1193522 74.5612022,61.5927734 C72.1512601,59.0661947 67.5094963,53.808535 68.5277416,51.1511491 C69.5459867,48.4937631 72.3612257,46.7736625 74.5612024,47.0989698 C76.7611791,47.4242771 78.170457,47.2084112 82.7891364,49.358868 C87.4078156,51.509325 91.296378,52.8717409 93.3038755,54.8310154 Z" id="Path-301" fill="#1A1A1A" sketch:type="MSShapeGroup"></path>
                <path d="M123.109325,65.5915934 C123.109325,65.5915934 122.38608,64.0271861 123.041099,63.3616486 C123.696118,62.696111 125.808573,61.7651978 125.808573,61.7651978 C125.808573,61.7651978 123.918743,62.3838145 123.041099,62.6263021 C122.163455,62.8687897 121.461977,61.5472514 121.461977,61.5472514 L121.257808,64.345459 L123.202754,66.0025635 L123.109325,65.5915934 Z" id="Path-884" fill="#1A1A1A" sketch:type="MSShapeGroup"></path>
                <path d="M109.605957,35.9867452 C109.605957,35.9867452 110.311891,35.7727405 111.308421,35.7727407 C112.30495,35.7727408 114.839871,36.1495056 114.839871,36.1495056 C114.839871,36.1495056 113.13868,36.1454366 112.435547,36.3266347 C111.732414,36.5078328 110.654929,37.0064138 110.654929,37.0064138 L109.605957,35.9867452 Z" id="Path-886" fill="#5D3019" sketch:type="MSShapeGroup"></path>
                <path d="M39.0627421,26.9970296 L35.0025416,24.9576925 L39.5359951,26.4021912 L39.0627421,26.9970296 Z" id="Path-887" fill="#1A1A1A" sketch:type="MSShapeGroup"></path>
                <path d="M16.0724986,55.4494656 L20.6154665,54.0351117 L20.5693356,54.7935435 L16.0724986,55.4494656 Z" id="Path-887" fill="#1A1A1A" sketch:type="MSShapeGroup"></path>
                <path d="M29.6268167,28.598871 L34.3754215,28.904844 L34.0602782,29.5963861 L29.6268167,28.598871 Z" id="Path-887" fill="#1A1A1A" sketch:type="MSShapeGroup"></path>
                <path d="M53.941064,54.8817037 L55.5968132,59.0453186 L54.7406809,54.5307515 L53.941064,54.8817037 Z" id="Path-889" fill="#1A1A1A" sketch:type="MSShapeGroup"></path>
                <path d="M55.7502142,126.658177 C53.0629281,126.703696 52.4760376,121.275463 53.3359739,119.371485 C54.1959101,117.467507 56.2944921,110.756094 58.1680157,110.185122 C60.0415393,109.61415 61.8253655,109.453232 61.8482065,109.461784 C63.1478636,109.9484 65.9812069,110.544489 64.6134934,114.585606 C63.221743,118.697745 58.4375003,126.612658 55.7502142,126.658177 Z" id="Path-305" fill="#1A1A1A" sketch:type="MSShapeGroup"></path>
                <path d="M57.7341432,110.573902 C56.1165493,108.133181 57.5091821,101.819415 57.6345813,98.9908248 C57.7599804,96.1622345 57.5339829,87.6576666 59.0457056,87.3911088 C59.9809643,87.2261974 64.060686,85.0571001 65.8589311,85.870315 C66.9673127,86.3715551 65.3975309,91.4668828 65.8589313,92.4643554 C66.6137693,94.0961918 66.6137696,95.2458263 66.6137693,98.9908251 C66.613769,102.735824 66.2018349,110.605864 64.9043532,111.492233 C63.6068714,112.378601 59.3517371,113.014623 57.7341432,110.573902 Z" id="Path-304" fill="#1A1A1A" sketch:type="MSShapeGroup"></path>
                <path d="M59.9747554,89.9179179 C59.9747554,89.9179179 59.838438,91.555186 58.3670004,92.3878072 C56.8955628,93.2204285 56.0336956,93.1586304 56.0336956,93.1586304 C56.0336956,93.1586304 58.7754574,93.167277 59.9747554,92.662974 C61.1740535,92.1586711 59.9747554,89.9179179 59.9747554,89.9179179 Z" id="Path-880" fill="#1A1A1A" sketch:type="MSShapeGroup"></path>
                <path d="M59.1670256,98.6150271 C59.1670256,98.6150271 58.9542017,100.303158 57.4827641,101.135779 C56.0113264,101.9684 56.0960996,101.883714 56.0960996,101.883714 C56.0960996,101.883714 57.9677275,101.640082 59.1670256,101.135779 C60.3663236,100.631476 59.1670256,98.6150271 59.1670256,98.6150271 Z" id="Path-880" fill="#1A1A1A" sketch:type="MSShapeGroup"></path>
                <path d="M61.878921,77.575592 C60.7114591,79.6858825 58.3471342,83.9706463 58.3471343,85.9863641 C58.3471343,88.0020818 60.069499,89.0511641 61.6472368,89.8034411 C63.2249745,90.5557186 65.1449622,90.9029231 66.7171142,89.8034409 C68.2892662,88.7039585 70.1194955,85.1406455 71.2415064,82.3477786 C69.1668797,79.8328755 68.9581679,79.735982 67.2585931,78.6943157 C65.5590183,77.6526492 65.1061785,77.1198629 61.878921,77.575592 Z" id="Path-303" opacity="0.398650568" fill="#C45218" sketch:type="MSShapeGroup"></path>
                <path d="M60.6638538,78.3751526 C59.8771151,78.9490267 59.2135458,79.7247925 59.2135458,79.7247925 C59.2135458,79.7247925 60.7680791,78.6515362 61.4852306,78.3751526 C61.5008199,78.3691446 63.7569153,78.8070435 63.7569153,78.8070435 L61.9330324,77.6459096 C61.9330324,77.6459096 61.4505926,77.8012785 60.6638538,78.3751526 Z" id="Path-882" fill="#5D3019" sketch:type="MSShapeGroup"></path>
                <path d="M71.6961852,42.4777095 C76.1297326,44.9940759 82.8997133,53.5073245 79.9443357,55.4628899 C76.988958,57.4184552 69.8650626,55.1914725 65.6132811,53.3479414 C61.3614995,51.5044104 58.4147774,46.3044998 58.4147775,44.3911047 C58.4147775,42.4777095 62.2864948,37.5154704 65.6132812,38.861141 C68.9400675,40.2068116 67.2626378,39.9613431 71.6961852,42.4777095 Z" id="Path-306" fill="#1A1A1A" sketch:type="MSShapeGroup"></path>
                <path d="M48.5029489,51.9909756 C46.8585329,54.6052248 43.4492404,61.0017222 44.1257095,62.4330236 C44.3835672,62.9786097 45.0160147,63.5551278 45.7849704,64.0228013 C47.0333086,64.7820318 48.6414133,65.2544028 49.5906492,64.8418778 C51.1245989,64.1752443 54.4473453,57.4503995 55.5071655,55.5697738 C56.5669858,53.6891483 67.0199149,45.4741808 63.7467438,42.8712565 C60.4735727,40.2683324 50.1473647,49.3767264 48.5029489,51.9909756 Z" id="Path-308" fill="#1A1A1A" sketch:type="MSShapeGroup"></path>
                <path d="M51.9464769,48.4323222 C51.9464769,48.4323222 50.8635191,48.9508667 50.2057,49.3330994 C49.5478808,49.715332 48.3119241,50.3696798 48.3119241,50.3696798 C48.3119241,50.3696798 51.0223733,49.678711 51.9464769,49.6787109 C52.8705804,49.6787108 53.015433,49.41804 53.015433,49.41804 L51.9464769,48.4323222 Z" id="Path-885" fill="#1A1A1A" sketch:type="MSShapeGroup"></path>
                <path d="M69.8911424,39.5153397 C67.6584316,36.156693 59.8471599,24.256984 58.1496046,24.3106126 C56.4520494,24.3642412 51.0138981,23.4467055 51.2409394,26.6592511 C51.4679807,29.8717966 53.9498957,32.0134517 55.5572989,35.3573602 C57.1647018,38.7012689 61.6272227,47.7102108 64.900061,47.6068158 C68.1728993,47.5034214 72.123853,42.8739865 69.8911424,39.5153397 Z" id="Path-310" fill="#1A1A1A" sketch:type="MSShapeGroup"></path>
                <path d="M54.8193443,30.9583073 C52.2490899,31.890452 49.9889066,33.8982191 48.3023823,33.8982191 C46.6158579,33.8982191 43.8445325,30.0292051 43.4484295,28.8277565 C44.3492254,26.9759217 48.2783203,23.747177 50.3673356,23.7471769 C52.4563508,23.7471769 59.1083879,22.7741042 60.7188984,23.2606406 C62.3294088,23.7471769 63.0966572,27.4454046 62.2867536,28.1365806 C61.47685,28.8277566 57.3895987,30.0261626 54.8193443,30.9583073 Z" id="Path-311" fill="#8B3605" sketch:type="MSShapeGroup"></path>
                <path d="M55.1758987,42.0468048 C53.4341412,43.9818938 51.5337935,46.1174086 51.5337936,48.2523788 C53.5790599,49.2588397 55.1758988,49.4940793 57.5399765,49.4940793 C59.9040542,49.4940793 64.1176496,45.3216965 64.1176497,43.2477255 C64.1176497,41.1737545 62.3020657,38.4685512 60.7188984,38.4685512 C59.1357311,38.4685512 56.9176562,40.1117158 55.1758987,42.0468048 Z" id="Path-307" fill="#8B3605" sketch:type="MSShapeGroup"></path>
                <path d="M53.9528958,17.9170229 L50.5722883,17.3821359 L54.4876517,18.9221356 L56.2543127,17.9170769 C56.2543127,17.9170769 55.3363173,18.1359109 53.9528958,17.9170229 Z" id="Path-878" fill="#56260B" sketch:type="MSShapeGroup"></path>
                <path d="M59.3627262,38.8668416 C59.3627262,38.8668416 56.7029372,39.9517415 55.7676324,40.7192586 C54.8323276,41.4867757 54.0439119,42.7044271 54.0439119,42.7044271 L56.9559837,41.2772217 L59.3627262,38.8668416 Z" id="Path-879" fill="#8B3605" sketch:type="MSShapeGroup"></path>
                <path d="M77.8608545,53.1072573 C76.4051062,56.9774354 75.8998051,58.6941256 74.0667216,59.519248 C72.233638,60.3443704 68.013499,59.8340473 67.3310145,57.584159 C66.6485299,55.3342708 69.7913497,47.8068672 70.8325759,46.8788087 C71.8738024,45.9507502 77.3801626,45.2841167 78.1047553,47.1641975 C78.8293478,49.0442784 79.3166031,49.2370794 77.8608545,53.1072573 Z" id="Path-318" fill="#56260A" sketch:type="MSShapeGroup"></path>
                <path d="M82.6037942,48.5960436 C87.1777532,50.4401785 84.4460234,53.758641 83.7148682,56.3603636 C82.9837128,58.9620862 80.9629234,63.5336509 78.9225789,64.3582287 C76.3837976,64.7201907 75.8508467,64.5846408 74.5415728,64.5846408 C73.2322988,64.5846406 71.8584902,64.296812 70.1411341,63.6767429 C70.3671958,61.1144107 71.6714634,56.7002162 73.7178232,53.8915321 C75.7641832,51.0828481 78.0298352,46.7519083 82.6037942,48.5960436 Z" id="Path-302" fill="#8B3605" sketch:type="MSShapeGroup"></path>
                <path d="M143.647949,36.5813384 C144.338379,38.1799713 143.979492,41.1814361 142.902832,42.3074127 C141.826172,43.4333892 140.883789,43.9607329 137.950684,41.2724605 C135.017578,38.584188 127.259277,37.2283111 125.75293,36.5813384 C124.246582,35.9343658 120.924805,34.100586 120.924805,34.100586 L124.398438,28.5290923 C124.398438,28.5290923 129.853516,29.198526 132.621094,30.3674713 C135.388672,31.5364166 142.95752,34.9827056 143.647949,36.5813384 Z" id="Path-1118" fill="#1A1A1A" sketch:type="MSShapeGroup"></path>
                <path d="M124.588867,26.605957 C120.945312,25.6108398 114.493896,27.272461 114.493896,30.1821289 C114.493896,33.0917969 117.742676,33.5346684 120.194824,34.3120117 C122.646973,35.089355 125.750976,35.0952153 126.566895,34.3120117 C127.382812,33.5288081 130.705078,29.8637695 130.156738,29.3520508 C129.608398,28.840332 128.232422,27.6010741 124.588867,26.605957 Z" id="Path-1124" fill="#5D3019" sketch:type="MSShapeGroup"></path>
                <path d="M143.751953,52.7900387 C145.655273,52.056152 146.133789,53.5742187 146.133789,52.0947266 C146.133789,50.6152344 144.349609,38.5092774 143.751953,37.7749023 C143.154297,37.0405273 140.274414,37.8349609 139.540527,39.4663086 C138.806641,41.0976563 139.540527,49.0917966 139.540527,50.3969723 C139.540527,51.702148 141.848633,53.5239254 143.751953,52.7900387 Z" id="Path-1119" fill="#1A1A1A" sketch:type="MSShapeGroup"></path>
                <path d="M152.649414,57.9257813 C153.026855,56.5900881 148.092285,51.7702637 146.287109,51.079834 C144.481933,50.3894043 141.384766,50.5629882 141.950195,52.6704102 C142.515625,54.777832 144.345703,56.2402345 146.287109,57.4472656 C148.228516,58.6542969 152.271973,59.2614744 152.649414,57.9257813 Z" id="Path-1120" fill="#1A1A1A" sketch:type="MSShapeGroup"></path>
            </g>
            <path d="M249,340.373878 L251.836475,337.942642 L252.434831,338.640732 L251.394184,339.532704 L253.985575,342.556029 L253.230392,343.20332 L250.639002,340.179996 L249.598355,341.071968 L249,340.373878 Z M252.695857,337.458798 L254.221352,336.331247 C254.455904,336.157881 254.688022,336.038733 254.917715,335.9738 C255.147407,335.908867 255.364707,335.88851 255.569622,335.912729 C255.774537,335.936949 255.962659,335.999788 256.133992,336.101248 C256.305326,336.202709 256.450585,336.334064 256.569775,336.495319 C256.665939,336.625422 256.737324,336.763211 256.783932,336.908691 C256.830541,337.05417 256.854363,337.199489 256.855399,337.34465 C256.856435,337.489811 256.835622,337.631286 256.792959,337.769078 C256.750295,337.906869 256.689129,338.034959 256.609458,338.153351 L258.671189,339.137119 L257.753143,339.815681 L255.990179,338.925605 L255.357992,339.392878 L256.40631,340.811176 L255.609204,341.400347 L252.695857,337.458798 Z M255.757253,337.138387 C255.699013,337.059592 255.630636,336.996792 255.552119,336.949986 C255.473603,336.903179 255.387201,336.876371 255.292909,336.869559 C255.198618,336.862748 255.098254,336.877427 254.991813,336.913599 C254.885372,336.94977 254.775348,337.009842 254.661737,337.093816 L254.013058,337.573279 L254.833834,338.683729 L255.482513,338.204266 C255.596124,338.120292 255.685493,338.032276 255.750624,337.940216 C255.815755,337.848155 255.858557,337.755598 255.879033,337.662542 C255.899508,337.569485 255.89889,337.478562 255.877179,337.389768 C255.855468,337.300975 255.815493,337.217182 255.757253,337.138387 L255.757253,337.138387 Z M261.16655,336.723366 L259.623352,337.678643 L259.866487,338.597415 L258.971374,339.151511 L257.754601,334.140268 L258.861867,333.454843 L262.825009,336.766019 L261.883397,337.348899 L261.16655,336.723366 Z M259.389489,336.79433 L260.479318,336.1197 L258.848561,334.693153 L258.836936,334.700349 L259.389489,336.79433 Z M262.634043,332.874027 L264.328408,336.2227 L263.443968,336.67021 L261.231109,332.296807 L262.478474,331.665664 L265.715097,333.716853 L264.229055,330.779903 L265.113495,330.332393 L267.326355,334.705796 L266.353471,335.198057 L262.634043,332.874027 Z M268.171438,333.132191 C268.257266,333.177149 268.355431,333.216106 268.465935,333.249064 C268.576439,333.282023 268.693298,333.304578 268.816516,333.31673 C268.939733,333.328882 269.067865,333.326913 269.200916,333.310822 C269.333967,333.294731 269.470612,333.259533 269.610855,333.205225 C269.872218,333.104016 270.051299,332.971749 270.148104,332.80842 C270.244909,332.645092 270.262866,332.484808 270.201976,332.327566 C270.138617,332.163948 270.029392,332.063299 269.874296,332.025617 C269.719201,331.987934 269.499387,331.996084 269.214849,332.050066 L269.061545,332.080109 C268.857138,332.120166 268.649683,332.149187 268.439172,332.167172 C268.228662,332.185157 268.026754,332.171713 267.833442,332.126837 C267.64013,332.081961 267.464192,331.996761 267.305624,331.871234 C267.147056,331.745706 267.019638,331.558639 266.923366,331.310025 C266.867412,331.165532 266.840659,331.001792 266.843104,330.818802 C266.84555,330.635811 266.890649,330.450968 266.978402,330.264265 C267.066156,330.077563 267.203538,329.899134 267.390551,329.728974 C267.577565,329.558814 267.827249,329.413257 268.139609,329.2923 C268.509342,329.149125 268.862885,329.082471 269.200248,329.092335 C269.53761,329.102199 269.834206,329.172442 270.090045,329.303064 L269.697055,330.114996 C269.518201,330.025425 269.315278,329.979386 269.088279,329.976877 C268.861281,329.974368 268.643664,330.013433 268.435424,330.094071 C268.19531,330.187052 268.025481,330.305351 267.925932,330.448973 C267.826382,330.592594 267.804996,330.737711 267.861772,330.88433 C267.8988,330.97995 267.951436,331.051199 268.019682,331.098078 C268.087927,331.144957 268.169382,331.173891 268.264049,331.184881 C268.358716,331.195872 268.466644,331.193785 268.587836,331.178621 C268.709028,331.163457 268.842967,331.143357 268.989657,331.118318 L269.067903,331.10268 C269.26381,331.065914 269.462149,331.038591 269.662925,331.02071 C269.863702,331.002828 270.05747,331.01576 270.244236,331.059506 C270.431001,331.103251 270.601541,331.188709 270.755859,331.315882 C270.910177,331.443055 271.036293,331.63307 271.134211,331.885933 C271.223078,332.115423 271.253848,332.336862 271.226524,332.550257 C271.199199,332.763651 271.130984,332.962944 271.021877,333.148141 C270.912771,333.333338 270.767299,333.497184 270.585457,333.639685 C270.403615,333.782185 270.20114,333.896632 269.978025,333.983031 C269.752786,334.070252 269.536612,334.131971 269.329497,334.16819 C269.122382,334.204408 268.92716,334.217696 268.743826,334.208053 C268.560492,334.19841 268.390868,334.173685 268.23495,334.133878 C268.079032,334.09407 267.936052,334.041923 267.806008,333.977434 L268.171438,333.132191 Z M271.131548,328.459355 L272.081831,328.177468 L273.475716,332.876456 L272.525432,333.158343 L271.131548,328.459355 Z M272.864155,327.992368 L276.482886,327.064315 L276.711291,327.954927 L275.38365,328.295411 L276.372838,332.152522 L275.409388,332.399606 L274.4202,328.542495 L273.09256,328.88298 L272.864155,327.992368 Z M277.474006,327.010828 L278.449532,326.835192 L279.318023,331.659001 L278.342497,331.834637 L277.474006,327.010828 Z M281.710903,326.318357 C282.071869,326.267119 282.404813,326.286026 282.709744,326.375078 C283.014675,326.464131 283.282898,326.606722 283.514422,326.802857 C283.745945,326.998993 283.935693,327.24133 284.083671,327.529877 C284.231649,327.818423 284.330294,328.136407 284.379611,328.483838 C284.429248,328.833524 284.423069,329.166963 284.361075,329.484164 C284.299081,329.801364 284.184267,330.086933 284.016631,330.340878 C283.848995,330.594823 283.631048,330.806425 283.362784,330.97569 C283.094521,331.144954 282.77991,331.255204 282.418943,331.306442 C282.05572,331.358 281.722293,331.339737 281.41865,331.251652 C281.115007,331.163568 280.847348,331.020896 280.615664,330.823633 C280.383981,330.62637 280.194233,330.384033 280.046415,330.096614 C279.898598,329.809195 279.799872,329.490647 279.750235,329.140961 C279.700919,328.79353 279.707177,328.460656 279.769011,328.142327 C279.830845,327.823998 279.945659,327.53843 280.113455,327.285612 C280.281251,327.032795 280.498634,326.821274 280.76561,326.651041 C281.032585,326.480809 281.34768,326.369915 281.710903,326.318357 L281.710903,326.318357 Z M282.293091,330.419821 C282.505159,330.389719 282.686159,330.323176 282.836098,330.220189 C282.986036,330.117203 283.10619,329.9868 283.196561,329.828978 C283.286932,329.671156 283.346547,329.491235 283.375408,329.289209 C283.404268,329.087183 283.402366,328.871116 283.369702,328.640999 L283.365859,328.613927 C283.333516,328.386067 283.275294,328.178569 283.191192,327.991427 C283.107091,327.804285 282.999681,327.647497 282.86896,327.521058 C282.738239,327.394619 282.586543,327.302805 282.413867,327.245612 C282.241192,327.18842 282.048823,327.174875 281.836755,327.204977 C281.624687,327.235079 281.443123,327.301703 281.292056,327.404849 C281.140989,327.507996 281.020836,327.638398 280.931593,327.796061 C280.84235,327.953723 280.783379,328.134128 280.754679,328.337281 C280.725978,328.540435 280.7278,328.755939 280.760144,328.983799 L280.763986,329.010871 C280.796651,329.240988 280.854953,329.44905 280.938894,329.635063 C281.022835,329.821077 281.129601,329.977381 281.259194,330.10398 C281.388787,330.23058 281.540483,330.322394 281.714286,330.379426 C281.88809,330.436459 282.081023,330.449924 282.293091,330.419821 L282.293091,330.419821 Z M286.345664,327.301395 L286.517868,331.050372 L285.527701,331.095854 L285.302801,326.199649 L286.699278,326.135504 L288.810156,329.333519 L288.659126,326.045482 L289.649292,326 L289.874192,330.896205 L288.785009,330.946235 L286.345664,327.301395 Z M291.899496,326.316033 L295.626079,326.57886 L295.561395,327.496016 L294.194185,327.399589 L293.914044,331.371656 L292.92188,331.301681 L293.202021,327.329614 L291.834812,327.233188 L291.899496,326.316033 Z M298.655766,327.067688 C299.016651,327.119494 299.331007,327.230803 299.598842,327.401617 C299.866678,327.572431 300.084291,327.784376 300.251689,328.037457 C300.419087,328.290538 300.533451,328.576287 300.594784,328.894712 C300.656117,329.213138 300.661852,329.546022 300.611989,329.893375 C300.561802,330.242983 300.462575,330.561375 300.314305,330.84856 C300.166035,331.135746 299.975906,331.377784 299.743912,331.574683 C299.511919,331.771581 299.243471,331.91375 298.938563,332.001195 C298.633654,332.08864 298.300761,332.106459 297.939876,332.054653 C297.576734,332.002523 297.261734,331.891697 296.994864,331.722173 C296.727995,331.552648 296.510946,331.340785 296.343709,331.086576 C296.176473,330.832367 296.062109,330.546618 296.000615,330.22932 C295.93912,329.912022 295.933466,329.578574 295.983653,329.228966 C296.033516,328.881614 296.132662,328.563786 296.281094,328.275472 C296.429526,327.987159 296.619655,327.745121 296.851486,327.54935 C297.083318,327.353579 297.351201,327.211329 297.655144,327.122595 C297.959087,327.033861 298.292625,327.015559 298.655766,327.067688 L298.655766,327.067688 Z M298.067123,331.168232 C298.279144,331.198668 298.471534,331.185425 298.644299,331.128505 C298.817064,331.071584 298.968904,330.980008 299.099824,330.853775 C299.230744,330.727542 299.338319,330.571487 299.422554,330.385606 C299.506788,330.199724 299.565417,329.991755 299.598443,329.76169 L299.602329,329.734624 C299.635031,329.506815 299.637192,329.291314 299.608811,329.088115 C299.58043,328.884917 299.52118,328.704338 299.431057,328.546374 C299.340934,328.38841 299.220987,328.257818 299.07121,328.154596 C298.921434,328.051374 298.740538,327.984545 298.528518,327.954109 C298.316498,327.923673 298.123544,327.936835 297.949651,327.993594 C297.775758,328.050352 297.623918,328.141928 297.494126,328.268323 C297.364333,328.394718 297.257241,328.551418 297.172845,328.738427 C297.088449,328.925436 297.029901,329.132842 296.997198,329.360651 L296.993313,329.387717 C296.960286,329.617782 296.958045,329.833847 296.986587,330.035917 C297.01513,330.237988 297.073898,330.417922 297.162893,330.575724 C297.251888,330.733527 297.371835,330.864118 297.522739,330.967502 C297.673644,331.070886 297.855103,331.137796 298.067123,331.168232 L298.067123,331.168232 Z M304.188648,328.389358 C304.542906,328.475516 304.845146,328.616443 305.095375,328.812142 C305.345605,329.007842 305.541902,329.239669 305.684272,329.507629 C305.826642,329.77559 305.91309,330.070985 305.94362,330.393823 C305.97415,330.716661 305.947952,331.048563 305.865025,331.389536 C305.781559,331.732724 305.652272,332.04014 305.477158,332.311792 C305.302044,332.583444 305.089592,332.806144 304.839794,332.9799 C304.589996,333.153655 304.309158,333.269439 303.997271,333.327256 C303.685385,333.385073 303.352317,333.370903 302.998059,333.284745 C302.641586,333.198048 302.338658,333.057541 302.089266,332.863217 C301.839874,332.668894 301.644131,332.437202 301.50203,332.168134 C301.35993,331.899067 301.273481,331.603672 301.242682,331.28194 C301.211883,330.960209 301.238216,330.627755 301.321681,330.284567 C301.404608,329.943593 301.533761,329.636731 301.709144,329.363972 C301.884527,329.091213 302.09698,328.868512 302.346508,328.695864 C302.596037,328.523216 302.876322,328.407297 303.18737,328.348103 C303.498419,328.28891 303.832175,328.302662 304.188648,328.389358 L304.188648,328.389358 Z M303.209683,332.414601 C303.41781,332.465219 303.610583,332.470478 303.788009,332.430379 C303.965434,332.39028 304.125353,332.31368 304.267769,332.200576 C304.410186,332.087473 304.532223,331.942447 304.633886,331.765495 C304.735549,331.588544 304.813842,331.387151 304.868768,331.161311 L304.87523,331.134742 C304.929617,330.911116 304.952423,330.696815 304.943649,330.491831 C304.934876,330.286848 304.893206,330.101422 304.818639,329.935547 C304.744072,329.769671 304.637193,329.628184 304.498,329.511081 C304.358807,329.393979 304.18515,329.310119 303.977023,329.259502 C303.768896,329.208884 303.575569,329.20349 303.397037,329.24332 C303.218504,329.28315 303.058585,329.35975 302.917276,329.473123 C302.775967,329.586496 302.654348,329.732209 302.552416,329.910268 C302.450484,330.088327 302.372325,330.289166 302.317938,330.512792 L302.311476,330.539361 C302.256551,330.765201 302.23361,330.980056 302.242653,331.183932 C302.251696,331.387808 302.292947,331.572547 302.366407,331.738153 C302.439867,331.903759 302.546745,332.045245 302.687045,332.162618 C302.827345,332.27999 303.001556,332.363984 303.209683,332.414601 L303.209683,332.414601 Z M307.567574,329.612937 L308.50375,329.938626 L307.194254,333.7027 L309.027867,334.340602 L308.726885,335.205757 L305.957096,334.242166 L307.567574,329.612937 Z M313.298894,332.914139 C313.176139,332.859316 313.060163,332.831227 312.950962,332.829872 C312.841762,332.828518 312.741197,332.849737 312.649267,332.893529 C312.557337,332.937322 312.475669,333.000046 312.404261,333.081703 C312.332854,333.163361 312.272527,333.259324 312.223278,333.369595 L311.334015,332.871367 C311.445744,332.626787 311.586769,332.428362 311.757097,332.276087 C311.927424,332.123811 312.115484,332.015644 312.321282,331.951582 C312.527079,331.88752 312.745463,331.866515 312.976439,331.888565 C313.207415,331.910616 313.441493,331.974605 313.678679,332.080536 C313.926269,332.191113 314.136036,332.329094 314.307986,332.494483 C314.479936,332.659871 314.608995,332.841664 314.695166,333.039867 C314.781337,333.23807 314.822891,333.448162 314.819828,333.670149 C314.816766,333.892136 314.765522,334.114438 314.666096,334.33706 C314.557377,334.580489 314.407489,334.786185 314.216426,334.954156 C314.025363,335.122126 313.809544,335.26032 313.568961,335.368741 C313.328379,335.477162 313.070843,335.559291 312.796345,335.615131 C312.521848,335.670971 312.247849,335.708938 311.974342,335.729035 L311.870565,335.735093 L313.73684,336.568598 L313.371659,337.386264 L310.107238,335.928328 L310.469632,335.116904 C310.679045,335.100625 310.894883,335.07973 311.117153,335.05422 C311.339424,335.02871 311.55858,334.996196 311.774629,334.956677 C311.990678,334.917158 312.199972,334.869009 312.402517,334.812229 C312.605062,334.755449 312.79045,334.685393 312.958686,334.60206 C313.126922,334.518727 313.274648,334.421245 313.401869,334.309611 C313.529089,334.197977 313.62615,334.067261 313.693053,333.917459 C313.731151,333.832155 313.75422,333.741389 313.762261,333.645156 C313.770301,333.548924 313.760116,333.455783 313.731706,333.365731 C313.703296,333.27568 313.653707,333.191144 313.582937,333.112121 C313.512167,333.033098 313.417487,332.967105 313.298894,332.914139 L313.298894,332.914139 Z M315.909086,336.222844 C315.809829,336.404903 315.729213,336.586091 315.667235,336.766414 C315.605258,336.946737 315.571422,337.117095 315.565725,337.277494 C315.560029,337.437893 315.589018,337.583461 315.652694,337.714203 C315.71637,337.844946 315.825231,337.952309 315.97928,338.036296 C316.133329,338.120283 316.282547,338.153623 316.426938,338.136318 C316.571328,338.119013 316.70939,338.06452 316.841127,337.972838 C316.972864,337.881157 317.097228,337.760153 317.214223,337.609826 C317.331218,337.459498 317.439342,337.293307 317.5386,337.111249 L317.602408,336.994212 C317.701665,336.812154 317.783054,336.630738 317.846577,336.44996 C317.9101,336.269182 317.944709,336.098596 317.950406,335.938198 C317.956102,335.777799 317.927113,335.632231 317.863437,335.501488 C317.799761,335.370746 317.6909,335.263383 317.536851,335.179396 C317.382802,335.095409 317.233584,335.062068 317.089193,335.079373 C316.944803,335.096678 316.806741,335.151171 316.675004,335.242853 C316.543267,335.334535 316.41813,335.455766 316.29959,335.606548 C316.181049,335.757331 316.072152,335.923749 315.972894,336.105808 L315.909086,336.222844 Z M318.478972,337.549971 C318.382987,337.726027 318.273954,337.896264 318.15187,338.060687 C318.029786,338.225109 317.896517,338.374347 317.752058,338.508404 C317.6076,338.642461 317.452365,338.757015 317.286349,338.852068 C317.120332,338.947121 316.944674,339.01226 316.759369,339.047486 C316.574065,339.082712 316.380527,339.084251 316.17875,339.052102 C315.976974,339.019954 315.767054,338.944435 315.548984,338.825544 C315.332915,338.707744 315.156217,338.57248 315.018885,338.419748 C314.881553,338.267016 314.778,338.103504 314.708223,337.929209 C314.638447,337.754913 314.598266,337.572749 314.587681,337.382711 C314.577095,337.192672 314.589014,337.000632 314.623437,336.806584 C314.65786,336.612537 314.711105,336.41967 314.783173,336.227979 C314.855241,336.036287 314.939812,335.851416 315.036888,335.673359 C315.132873,335.497303 315.241906,335.327066 315.36399,335.162643 C315.486074,334.99822 315.619343,334.848983 315.763802,334.714926 C315.90826,334.580868 316.063495,334.466315 316.229511,334.371262 C316.395527,334.276209 316.570685,334.210797 316.75499,334.175026 C316.939294,334.139254 317.132605,334.136943 317.334926,334.168091 C317.537248,334.199239 317.747441,334.274257 317.96551,334.393148 C318.18358,334.512039 318.360506,334.648076 318.496292,334.801263 C318.632079,334.95445 318.735359,335.118462 318.806136,335.293303 C318.876913,335.468144 318.917321,335.651081 318.927361,335.84212 C318.937401,336.033158 318.92521,336.225698 318.890787,336.419746 C318.856363,336.613794 318.803119,336.806661 318.731051,336.998352 C318.658983,337.190043 318.574957,337.373914 318.478972,337.549971 L318.478972,337.549971 Z M321.914846,337.053247 L319.220042,341.14732 L318.372106,340.589191 L320.153608,337.882649 L319.411308,337.394051 L319.903664,336.646041 L320.086384,336.766311 C320.208198,336.846492 320.31485,336.901006 320.406343,336.929857 C320.497836,336.958708 320.580503,336.964701 320.654348,336.947835 C320.728192,336.93097 320.796217,336.891861 320.858425,336.830508 C320.920632,336.769156 320.984935,336.688042 321.051334,336.587164 L321.098315,336.515789 L321.914846,337.053247 Z M321.728796,343.020188 L322.38069,342.124969 L320.405129,340.686376 L321.026842,339.832602 L324.392988,338.897052 L325.418069,339.64351 L323.711878,341.986554 L324.28935,342.407065 L323.762202,343.130977 L323.18473,342.710466 L322.532836,343.605685 L321.728796,343.020188 Z M322.907839,341.401057 L324.040605,339.845475 L321.675531,340.503697 L322.907839,341.401057 Z" id="TRANSITION-TOOL-2014" fill="#FFFFFF" sketch:type="MSShapeGroup"></path>
        </g>
    </g>
</svg>