<?xml version="1.0" encoding="UTF-8" standalone="no"?>
<svg width="595px" height="842px" viewBox="0 0 595 842" version="1.1" xmlns="http://www.w3.org/2000/svg" xmlns:xlink="http://www.w3.org/1999/xlink" xmlns:sketch="http://www.bohemiancoding.com/sketch/ns">
    <!-- Generator: Sketch 3.4.4 (17249) - http://www.bohemiancoding.com/sketch -->
    <title>A4</title>
    <desc>Created with Sketch.</desc>
    <defs>
        <circle id="path-1" cx="66" cy="66" r="66"></circle>
    </defs>
    <g id="Page-1" stroke="none" stroke-width="1" fill="none" fill-rule="evenodd" sketch:type="MSPage">
        <g id="A4" sketch:type="MSArtboardGroup">
            <g id="Group" sketch:type="MSLayerGroup" transform="translate(232.000000, 355.000000)">
                <g id="Rectangle-2-+-Oval-1">
                    <mask id="mask-2" sketch:name="Mask" fill="white">
                        <use xlink:href="#path-1"></use>
                    </mask>
                    <use id="Mask" fill="#F09F2F" sketch:type="MSShapeGroup" xlink:href="#path-1"></use>
                    <circle id="Oval-5" fill="#FFFFFF" sketch:type="MSShapeGroup" mask="url(#mask-2)" cx="88.1617647" cy="84.1176471" r="38.1764706"></circle>
                    <path d="M-11.6470588,100.132353 C-11.6470588,100.132353 0.64627883,93.2743993 64.1012641,93.2743993 C127.556249,93.2743993 156.588235,100.132353 156.588235,100.132353 L156.588235,180.691176 L-11.6470588,180.691176 L-11.6470588,100.132353 Z" id="Rectangle-2" fill="#222121" sketch:type="MSShapeGroup" mask="url(#mask-2)"></path>
                    <path d="M-46.2647059,105.470588 L85.4155561,106.546071 L-10.1431526,132.772174 L-46.2647059,105.470588 Z" id="Path-209" fill="#000000" sketch:type="MSShapeGroup" mask="url(#mask-2)"></path>
                    <g id="TRUST---USERS---DELI-+-GOV.UK-VERIFY---EIDA" mask="url(#mask-2)" fill="#FFFFFF" sketch:type="MSShapeGroup">
                        <g transform="translate(72.999870, 108.746999) rotate(3.000000) translate(-72.999870, -108.746999) translate(33.205752, 92.894058)" id="TRUST---USERS---DELI">
                            <path d="M1.68950157,18.0321738 L4.95330383,20.1394244 L4.43468497,20.9426841 L3.23726072,20.1695757 L0.991197636,23.6483768 L0.122243877,23.087343 L2.36830696,19.6085419 L1.17088271,18.8354335 L1.68950157,18.0321738 L1.68950157,18.0321738 Z M5.48062892,20.2589577 L7.21220689,21.2040249 C7.47844483,21.3493333 7.69247821,21.5160905 7.85431344,21.7043016 C8.01614866,21.8925128 8.13051216,22.0885572 8.19740736,22.2924408 C8.26430257,22.4963245 8.28741688,22.7012813 8.266751,22.9073176 C8.24608511,23.1133538 8.18580333,23.3078883 8.08590383,23.4909269 C8.0053031,23.6386057 7.9066011,23.7662791 7.78979487,23.8739508 C7.67298865,23.9816225 7.54635578,24.0677313 7.40989247,24.1322796 C7.27342916,24.196828 7.13087465,24.2391531 6.98222466,24.2592562 C6.83357467,24.2793593 6.68597254,24.2777617 6.53941384,24.2544633 L6.5144153,26.6299265 L5.47234856,26.0611834 L5.53981599,24.0085496 L4.82222512,23.6169002 L3.94356801,25.2267997 L3.03877953,24.7329808 L5.48062892,20.2589577 L5.48062892,20.2589577 Z M7.12352762,23.0061708 C7.17234215,22.9167315 7.20163069,22.8247356 7.21139414,22.7301803 C7.22115759,22.6356249 7.20860524,22.5423891 7.17373673,22.4504701 C7.13886822,22.358551 7.08106937,22.2703152 7.00033845,22.1857601 C6.91960753,22.1012049 6.81476414,22.0237366 6.68580514,21.9533529 L5.94949451,21.5514864 L5.26155367,22.8119504 L5.9978643,23.2138168 C6.12682331,23.2842006 6.24897857,23.3299496 6.36433374,23.3510652 C6.47968892,23.3721809 6.58573397,23.3720187 6.68247205,23.3505786 C6.77921014,23.3291385 6.86469938,23.2887374 6.93894233,23.2293739 C7.01318528,23.1700104 7.07471309,23.0956102 7.12352762,23.0061708 L7.12352762,23.0061708 L7.12352762,23.0061708 Z M9.67023512,26.8945471 C9.8068394,26.9547588 9.94306687,26.9908511 10.0789216,27.002825 C10.2147764,27.0147989 10.3434463,26.999006 10.4649354,26.9554457 C10.5864244,26.9118854 10.6995804,26.8387581 10.804407,26.7360617 C10.9092335,26.6333652 10.9989193,26.4974545 11.0734671,26.3283254 L12.3479417,23.4368826 L13.2781472,23.8468935 L11.9420276,26.8781924 C11.8273386,27.138391 11.676482,27.3528633 11.4894531,27.5216158 C11.3024241,27.6903683 11.0923952,27.8114307 10.8593598,27.8848066 C10.6263245,27.9581826 10.3761241,27.983852 10.1087512,27.9618156 C9.84137837,27.9397792 9.57000757,27.8680725 9.29463069,27.7466933 C9.01925381,27.6253142 8.7832449,27.4733808 8.58659688,27.2908886 C8.38994887,27.1083963 8.23955776,26.9061564 8.13541906,26.6841627 C8.03128036,26.462169 7.97840425,26.2252247 7.97678915,25.9733227 C7.97517405,25.7214208 8.03171012,25.4653743 8.14639907,25.2051757 L9.48251867,22.1738768 L10.4159766,22.5853214 L9.14150198,25.4767642 C9.06695417,25.6458933 9.027139,25.8037857 9.02205528,25.9504463 C9.01697156,26.0971069 9.03933357,26.2299671 9.08914199,26.3490309 C9.13895041,26.4680948 9.21409966,26.573726 9.31459199,26.6659279 C9.41508432,26.7581297 9.53363084,26.8343354 9.67023512,26.8945471 L9.67023512,26.8945471 L9.67023512,26.8945471 Z M13.2584876,27.4996445 C13.2973665,27.5925986 13.3501042,27.6889362 13.4167023,27.7886601 C13.4833003,27.8883841 13.5618904,27.9839965 13.6524749,28.0755001 C13.7430595,28.1670037 13.8469507,28.2504631 13.9641517,28.3258808 C14.0813527,28.4012985 14.2141125,28.4638036 14.362435,28.5133982 C14.6388544,28.6058244 14.8700094,28.6187785 15.0559071,28.5522607 C15.2418048,28.485743 15.3625549,28.3693354 15.4181609,28.2030343 C15.4760212,28.0299913 15.4553701,27.8769222 15.356207,27.7438223 C15.2570439,27.6107225 15.0756495,27.471366 14.8120185,27.3257488 L14.6693429,27.2480597 C14.4791077,27.1444738 14.2937562,27.0300287 14.1132827,26.9047211 C13.9328092,26.7794135 13.7800816,26.6346512 13.6550954,26.4704297 C13.5301091,26.3062083 13.445795,26.1212335 13.4021506,25.9154997 C13.3585062,25.7097658 13.3806424,25.4754347 13.46856,25.2124992 C13.5196575,25.059682 13.6069054,24.9108348 13.7303065,24.765953 C13.8537076,24.6210713 14.0124874,24.5030131 14.2066509,24.411775 C14.4008144,24.3205368 14.6292197,24.2688589 14.8918738,24.2567397 C15.1545279,24.2446205 15.4510279,24.2937905 15.7813827,24.4042511 C16.1724149,24.5350004 16.4997015,24.7162678 16.7632522,24.9480587 C17.0268029,25.1798497 17.2176451,25.4329252 17.3357846,25.7072929 L16.4823053,26.0965254 C16.398557,25.9061156 16.2666482,25.7345842 16.0865749,25.5819262 C15.9065016,25.4292681 15.7063496,25.3161206 15.4861131,25.2424802 C15.2321668,25.1575683 15.017689,25.1395719 14.8426731,25.1884903 C14.6676572,25.2374087 14.5542265,25.3393987 14.5023777,25.4944632 C14.4685632,25.5955922 14.4634195,25.6875672 14.4869464,25.7703909 C14.5104733,25.8532147 14.5564849,25.9304382 14.6249825,26.0020637 C14.6934801,26.0736893 14.7812734,26.1436459 14.888365,26.2119354 C14.9954565,26.2802249 15.1160302,26.353022 15.2500895,26.4303287 L15.3231128,26.4697368 C15.5043587,26.570317 15.6812847,26.6800709 15.8538961,26.7990019 C16.0265075,26.9179328 16.1730586,27.0568821 16.2935537,27.2158539 C16.4140488,27.3748258 16.4938701,27.5564245 16.5330199,27.7606555 C16.5721697,27.9648864 16.5470347,28.2007134 16.4576143,28.4681435 C16.3764595,28.7108532 16.254135,28.9085613 16.0906371,29.0612737 C15.9271392,29.2139861 15.7402631,29.3282714 15.5300032,29.4041332 C15.3197433,29.4799949 15.0945385,29.5146286 14.854382,29.5080353 C14.6142255,29.5014421 14.3761669,29.4586959 14.1401992,29.3797954 C13.9019841,29.3001436 13.6879519,29.2060909 13.4980959,29.0976347 C13.30824,28.9891784 13.1431245,28.8702563 13.0027443,28.7408647 C12.8623642,28.6114731 12.7429701,28.4791057 12.6445584,28.3437585 C12.5461467,28.2084114 12.4662835,28.0717722 12.4049664,27.933837 L13.2584876,27.4996445 L13.2584876,27.4996445 Z M17.904769,24.986974 L21.679102,25.9074741 L21.4525562,26.8363813 L20.0678284,26.4986681 L19.0866915,30.5216306 L18.0818142,30.2765569 L19.0629511,26.2535944 L17.6782232,25.9158812 L17.904769,24.986974 L17.904769,24.986974 Z M22.725612,28.32078 L24.2390713,28.533908 L24.116151,29.4067868 L22.6026917,29.1936589 L22.725612,28.32078 L22.725612,28.32078 Z M28.4119664,30.7204908 C28.5608085,30.7319888 28.7012958,30.7208576 28.8334324,30.6870967 C28.9655691,30.6533358 29.0817185,30.5957625 29.1818842,30.5143751 C29.2820499,30.4329877 29.3645482,30.3264704 29.4293817,30.1948202 C29.4942151,30.0631699 29.533749,29.9052068 29.5479847,29.7209261 L29.7913585,26.5704505 L30.8048973,26.6487463 L30.5497518,29.951607 C30.5278507,30.2351158 30.4566637,30.4874816 30.3361884,30.7087121 C30.2157132,30.9299426 30.0577229,31.1138104 29.8622129,31.2603209 C29.6667029,31.4068315 29.4391773,31.5140286 29.1796292,31.5819154 C28.920081,31.6498022 28.6402878,31.672156 28.340241,31.6489774 C28.0401942,31.6257988 27.7671536,31.5607387 27.5211111,31.4537951 C27.2750686,31.3468515 27.0661154,31.2059365 26.8942453,31.0310458 C26.7223751,30.8561552 26.5939077,30.6501586 26.5088391,30.4130499 C26.4237705,30.1759412 26.3921871,29.9156364 26.4140882,29.6321276 L26.6692337,26.3292668 L27.6863163,26.4078363 L27.4429425,29.5583119 C27.4287069,29.7425926 27.4435113,29.9047533 27.4873563,30.044799 C27.5312012,30.1848446 27.5963615,30.3027685 27.6828391,30.398574 C27.7693166,30.4943796 27.8752457,30.5691084 28.0006296,30.6227628 C28.1260134,30.6764171 28.2631243,30.7089928 28.4119664,30.7204908 L28.4119664,30.7204908 L28.4119664,30.7204908 Z M31.9972226,30.1013552 C32.0647178,30.1761645 32.1464098,30.2495717 32.242301,30.321579 C32.3381922,30.3935863 32.4440343,30.4577391 32.5598305,30.5140392 C32.6756267,30.5703394 32.8013104,30.614639 32.9368854,30.6469393 C33.0724605,30.6792396 33.218434,30.6941997 33.3748102,30.6918201 C33.6662388,30.6873855 33.8886171,30.6229779 34.041952,30.4985954 C34.1952868,30.374213 34.2706191,30.2243585 34.2679511,30.0490275 C34.2651749,29.8665885 34.1949483,29.7290209 34.0572692,29.6363205 C33.9195902,29.5436201 33.7022556,29.472277 33.4052592,29.422289 L33.244897,29.3962907 C33.0310798,29.3616262 32.8182701,29.3150977 32.6064616,29.2567037 C32.3946532,29.1983097 32.2025723,29.1123632 32.0302134,28.9988616 C31.8578544,28.8853599 31.7169878,28.7387954 31.6076095,28.5591635 C31.4982311,28.3795316 31.4414337,28.1511128 31.4372153,27.8739003 C31.4347636,27.7127853 31.4677343,27.5434317 31.5361284,27.3658344 C31.6045225,27.1882371 31.715187,27.0242184 31.8681253,26.8737732 C32.0210635,26.7233281 32.2194218,26.5988548 32.4632061,26.5003497 C32.7069904,26.4018446 33.0030244,26.3499428 33.351317,26.3446428 C33.7635818,26.3383694 34.1324525,26.4008895 34.4579402,26.532205 C34.7834279,26.6635206 35.0473746,26.8390203 35.249788,27.0587095 L34.5736028,27.7088651 C34.4314683,27.5569854 34.250155,27.438882 34.0296572,27.3545515 C33.8091595,27.270221 33.5828164,27.2298231 33.3506213,27.2333564 C33.0828862,27.2374305 32.8745704,27.2915522 32.7256678,27.3957232 C32.5767652,27.4998941 32.5035588,27.6337198 32.5060466,27.7972041 C32.507669,27.9038243 32.5333064,27.9923036 32.5829594,28.0626446 C32.6326125,28.1329856 32.7016222,28.1905893 32.7899908,28.2354574 C32.8783593,28.2803254 32.9843792,28.3172222 33.1080534,28.3461488 C33.2317277,28.3750754 33.3696159,28.4037852 33.5217222,28.4322791 L33.6036803,28.4452512 C33.8080202,28.4800599 34.0113256,28.5249557 34.2136027,28.5799399 C34.4158797,28.6349241 34.6002062,28.7174338 34.7665878,28.8274716 C34.9329693,28.9375093 35.0684779,29.0823781 35.1731176,29.2620821 C35.2777572,29.4417861 35.3322215,29.6726102 35.3365119,29.9545614 C35.3404058,30.2104499 35.2905396,30.4375294 35.1869119,30.6358069 C35.0832842,30.8340844 34.9448615,31.0038577 34.7716397,31.145132 C34.5984179,31.2864062 34.3974289,31.3937381 34.1686667,31.4671308 C33.9399046,31.5405236 33.7011368,31.5791122 33.4523564,31.5828979 C33.2012066,31.5867196 32.9680982,31.5689382 32.7530241,31.529553 C32.5379501,31.4901678 32.3427479,31.432707 32.1674118,31.3571689 C31.9920757,31.2816307 31.8355524,31.196328 31.6978373,31.1012583 C31.5601221,31.0061886 31.4394784,30.903751 31.3359023,30.7939424 L31.9972226,30.1013552 L31.9972226,30.1013552 Z M35.972838,26.1505843 L39.3899496,25.8149979 L39.4813152,26.7453296 L37.0900446,26.9801705 L37.1960009,28.0590723 L39.3997903,27.8426434 L39.4908086,28.7694376 L37.2870192,28.9858665 L37.4058292,30.1956514 L39.9350578,29.9472619 L40.0260761,30.8740561 L36.4710065,31.223191 L35.972838,26.1505843 L35.972838,26.1505843 Z M40.151414,25.5290197 L42.0931608,25.1809767 C42.3917131,25.1274636 42.6630091,25.1233717 42.9070569,25.1687009 C43.1511047,25.2140302 43.3630562,25.2952029 43.5429177,25.4122214 C43.7227792,25.52924 43.8691866,25.6745206 43.9821443,25.8480676 C44.0951021,26.0216146 44.169975,26.2110126 44.2067653,26.4162673 C44.2364484,26.5818706 44.2394899,26.743219 44.21589,26.9003175 C44.1922901,27.057416 44.1475229,27.2038623 44.0815871,27.3396606 C44.0156513,27.475459 43.9310463,27.5977504 43.8277695,27.7065386 C43.7244927,27.8153267 43.6084389,27.9065432 43.4796044,27.9801907 L44.9481699,29.8474791 L43.7796232,30.056932 L42.5463902,28.4146795 L41.7417023,28.5589135 L42.0652882,30.3642132 L41.0506818,30.5460735 L40.151414,25.5290197 L40.151414,25.5290197 Z M43.1529476,26.6412664 C43.1349705,26.5409715 43.1001717,26.4509153 43.0485502,26.3710951 C42.9969288,26.2912749 42.9287391,26.2264625 42.8439793,26.1766559 C42.7592195,26.1268492 42.6588933,26.0942778 42.5429975,26.0789406 C42.4271017,26.0636033 42.2968502,26.0688949 42.1522389,26.0948153 L41.3265592,26.242812 L41.5799094,27.6562636 L42.4055891,27.508267 C42.5502004,27.4823466 42.6740764,27.4414858 42.777221,27.3856837 C42.8803656,27.3298815 42.9629241,27.2633257 43.024899,27.1860143 C43.0868739,27.1087029 43.1282028,27.0236583 43.1488869,26.9308779 C43.1695711,26.8380975 43.1709246,26.7415613 43.1529476,26.6412664 L43.1529476,26.6412664 L43.1529476,26.6412664 Z M45.8100435,27.9564554 C45.8937606,28.0125221 45.9909026,28.0637629 46.1014723,28.1101796 C46.2120421,28.1565962 46.3303439,28.1929665 46.4563815,28.2192916 C46.582419,28.2456167 46.7151149,28.2578903 46.8544732,28.2561128 C46.9938316,28.2543354 47.1390401,28.2332038 47.2901032,28.1927174 C47.5716298,28.1172654 47.7715537,28.0005138 47.8898806,27.8424591 C48.0082076,27.6844044 48.0446736,27.5206927 47.9992798,27.3513189 C47.9520456,27.1750786 47.8503575,27.0588197 47.6942122,27.0025385 C47.538067,26.9462574 47.3098912,26.9301349 47.009678,26.9541706 L46.8478213,26.968111 C46.6320113,26.9866984 46.4142818,26.9935349 46.1946263,26.9886205 C45.9749708,26.9837061 45.7677191,26.9472565 45.5728649,26.8792706 C45.3780107,26.8112848 45.2056237,26.7035477 45.0556987,26.5560562 C44.9057737,26.4085647 44.7949272,26.2009253 44.7231558,25.9331316 C44.6814425,25.7774909 44.6720682,25.6052125 44.6950327,25.4162914 C44.7179971,25.2273703 44.785268,25.0412967 44.8968472,24.8580648 C45.0084265,24.6748329 45.1703923,24.5056978 45.3827494,24.3506543 C45.5951066,24.1956109 45.8695104,24.0730038 46.2059691,23.9828295 C46.6042263,23.8760926 46.9771984,23.8466619 47.3248966,23.8945366 C47.6725948,23.9424113 47.9714017,24.0481582 48.2213263,24.2117805 L47.7243374,25.0073501 C47.5494232,24.8947682 47.3447621,24.8245061 47.1103479,24.7965615 C46.8759338,24.768617 46.6465773,24.7847026 46.4222715,24.8448188 C46.1636332,24.9141364 45.9748351,25.0174801 45.8558716,25.1548528 C45.7369081,25.2922256 45.6985903,25.4398745 45.740917,25.5978041 C45.7685214,25.7008017 45.8149849,25.7803441 45.880309,25.8364338 C45.945633,25.8925235 46.0266182,25.9315355 46.123267,25.9534708 C46.2199157,25.9754061 46.3317355,25.9853019 46.4587295,25.9831584 C46.5857235,25.9810148 46.7264483,25.9751908 46.8809084,25.9656861 L46.9635533,25.9582557 C47.170208,25.9421221 47.3783222,25.9360227 47.5879022,25.9399576 C47.7974822,25.9438924 47.9963752,25.9789024 48.1845872,26.0449886 C48.3727991,26.1110749 48.5395763,26.2184755 48.6849236,26.3671938 C48.8302709,26.5159122 48.9394421,26.7264538 49.0124403,26.9988252 C49.0786909,27.2460193 49.0857746,27.4784017 49.0336918,27.6959794 C48.981609,27.913557 48.8888249,28.1119882 48.7553368,28.2912789 C48.6218488,28.4705696 48.4531469,28.6237244 48.2492261,28.7507478 C48.0453054,28.8777712 47.8231845,28.9734865 47.5828569,29.0378967 C47.3402404,29.1029204 47.109845,29.1425899 46.8916637,29.1569063 C46.6734824,29.1712228 46.4701585,29.1631589 46.281686,29.1327145 C46.0932134,29.1022701 45.9206004,29.0577636 45.7638418,28.9991937 C45.6070831,28.9406237 45.4650804,28.8707409 45.3378292,28.7895432 L45.8100435,27.9564554 L45.8100435,27.9564554 Z M50.5316276,25.0039659 L51.9560506,24.4498887 L52.2756114,25.2714164 L50.8511884,25.8254936 L50.5316276,25.0039659 L50.5316276,25.0039659 Z M58.0721929,21.8083542 C58.232373,22.1546061 58.331598,22.4918455 58.3698708,22.8200828 C58.4081436,23.1483201 58.3810262,23.4565436 58.2885178,23.7447626 C58.1960095,24.0329815 58.0355854,24.2971349 57.807241,24.5372304 C57.5788965,24.777326 57.2776238,24.9839277 56.9034138,25.1570417 L55.2001215,25.9450047 L53.0600854,21.3190176 L54.7633778,20.5310546 C55.1375878,20.3579406 55.4900975,20.2620948 55.8209175,20.2435144 C56.1517374,20.2249339 56.4569183,20.2736929 56.7364694,20.3897928 C57.0160204,20.5058928 57.268481,20.6847802 57.4938588,20.9264605 C57.7192366,21.1681408 57.9120127,21.4621024 58.0721929,21.8083542 L58.0721929,21.8083542 L58.0721929,21.8083542 Z M57.0594013,22.1672268 C56.9688647,21.9715192 56.8603533,21.8004484 56.7338638,21.6540092 C56.6073743,21.50757 56.4620512,21.3966077 56.2978903,21.3211189 C56.1337293,21.2456302 55.9500369,21.2111621 55.7468075,21.2177136 C55.5435782,21.2242652 55.3215314,21.2832549 55.0806606,21.3946846 L54.3806332,21.7185254 L55.7506145,24.6799314 L56.4506418,24.3560905 C56.689362,24.2456558 56.8770045,24.1151184 57.0135751,23.9644745 C57.1501456,23.8138306 57.2425566,23.6509811 57.2908108,23.4759212 C57.339065,23.3008612 57.3486254,23.1169426 57.3194922,22.9241598 C57.290359,22.7313769 57.2310225,22.53821 57.1414808,22.3446531 L57.0594013,22.1672268 L57.0594013,22.1672268 Z M57.4234402,18.991127 L60.391454,17.2648117 L60.861455,18.0728735 L58.7844598,19.2809368 L59.329518,20.2180425 L61.2436718,19.1046943 L61.7118856,19.9096835 L59.7977319,21.0230318 L60.4089118,22.0738193 L62.6057336,20.79606 L63.0739475,21.6010492 L59.9861071,23.3970605 L57.4234402,18.991127 L57.4234402,18.991127 Z M60.9604466,16.6890735 L61.8071229,16.1011632 L64.1709278,19.505386 L65.8292455,18.3538927 L66.3725558,19.1363384 L63.8675617,20.875742 L60.9604466,16.6890735 L60.9604466,16.6890735 Z M63.8150159,14.5133642 L64.619563,13.8690015 L67.8058253,17.8473483 L67.0012781,18.491711 L63.8150159,14.5133642 L63.8150159,14.5133642 Z M69.5634044,16.2970555 L65.1318218,13.3965661 L66.0033299,12.6383349 L69.2611176,14.8828141 L69.2879333,14.8594839 L67.4996424,11.3365102 L68.3604243,10.5876111 L70.6199404,15.377846 L69.5634044,16.2970555 L69.5634044,16.2970555 Z M68.57101,10.1065971 L70.9657145,7.64597514 L71.6356354,8.29794954 L69.9598381,10.0198755 L70.7367425,10.7759675 L72.2811534,9.1890446 L72.9485271,9.83854002 L71.4041162,11.4254629 L72.2752681,12.2732775 L74.0477461,10.4520097 L74.7151197,11.1015051 L72.2237346,13.661469 L68.57101,10.1065971 L68.57101,10.1065971 Z M71.3594191,6.93722957 L72.6175359,5.41780328 C72.8109771,5.18418462 73.0155115,5.00590411 73.2311453,4.88295641 C73.4467791,4.76000871 73.6610438,4.6851552 73.873946,4.65839364 C74.0868481,4.63163207 74.2924496,4.64805175 74.4907566,4.70765314 C74.6890637,4.76725454 74.8685209,4.8635492 75.0291338,4.99653999 C75.1587191,5.10383939 75.2652125,5.22509006 75.3486172,5.36029564 C75.4320219,5.49550123 75.4923848,5.63623832 75.5297075,5.78251113 C75.5670303,5.92878394 75.5813759,6.07679545 75.5727447,6.2265501 C75.5641134,6.37630475 75.5343801,6.52088993 75.4835439,6.66030997 L77.8105893,7.13812818 L77.0534523,8.05252166 L75.0514084,7.59461629 L74.5300267,8.22428845 L75.9426825,9.39399712 L75.285288,10.1879316 L71.3594191,6.93722957 L71.3594191,6.93722957 Z M74.369647,5.84873339 C74.2911657,5.78374925 74.2064489,5.73744446 74.115494,5.70981763 C74.0245391,5.68219081 73.9306213,5.67672153 73.8337377,5.69340962 C73.7368541,5.71009772 73.6392105,5.74999766 73.5408042,5.81311062 C73.4423978,5.87622359 73.346347,5.96435827 73.252649,6.07751731 L72.7176659,6.7236157 L73.8236988,7.63943411 L74.3586818,6.99333573 C74.4523799,6.88017669 74.5205976,6.76899565 74.563337,6.65978928 C74.6060764,6.55058291 74.6261524,6.44645543 74.6235656,6.34740372 C74.6209787,6.248352 74.5976327,6.15672434 74.5535268,6.072518 C74.5094209,5.98831165 74.4481283,5.91371753 74.369647,5.84873339 L74.369647,5.84873339 L74.369647,5.84873339 Z M74.4139067,2.79171924 L76.6183877,3.06305104 L76.626496,3.05137217 L75.6139319,1.06324655 L76.2727296,0.114338396 L77.783523,3.2358923 L79.4886379,4.41970103 L78.8947065,5.27517822 L77.1895916,4.09136949 L73.7368654,3.76690484 L74.4139067,2.79171924 L74.4139067,2.79171924 Z"></path>
                        </g>
                    </g>
                    <path d="M-46.2647059,105.470588 L85.4155561,106.546071 L-10.1431526,132.772174 L-46.2647059,105.470588 Z" id="Path-209" opacity="0.574801772" fill="#000000" sketch:type="MSShapeGroup" mask="url(#mask-2)"></path>
                    <path d="M17.4883358,49.318515 C17.698991,49.3746422 17.9086449,49.4023018 18.1173038,49.4014946 C18.3259627,49.4006875 18.5190424,49.3663033 18.6965485,49.298341 C18.8740547,49.2303787 19.0302954,49.1248731 19.1652755,48.9818208 C19.3002555,48.8387686 19.398553,48.6516139 19.4601709,48.4203511 C19.5193485,48.1982472 19.5331213,48.0038982 19.5014896,47.8372981 C19.469858,47.6706981 19.4125508,47.5291386 19.3295664,47.4126153 C19.2465819,47.2960921 19.1479965,47.2036143 19.0338073,47.1351793 C18.9196181,47.0667442 18.8098613,47.0184956 18.7045337,46.9904321 L18.6564496,46.9776205 L18.3206033,48.2381108 L17.5615614,48.035871 L18.1554694,45.8068294 L20.8550482,46.5261079 L20.6226097,47.3984908 L20.0456004,47.2447519 C20.125297,47.3321979 20.1924406,47.4322379 20.2470332,47.5448748 C20.3016258,47.6575117 20.3417187,47.7785451 20.3673132,47.9079785 C20.3929077,48.037412 20.4035831,48.1745167 20.3993397,48.3192967 C20.3950962,48.4640768 20.3725373,48.6131705 20.331662,48.7665825 C20.2358798,49.1260702 20.0855188,49.4280958 19.8805747,49.6726685 C19.6756305,49.9172412 19.4332048,50.1046171 19.1532902,50.2348018 C18.8733756,50.3649865 18.5667418,50.4390041 18.2333795,50.4568569 C17.9000172,50.4747098 17.5558871,50.4363557 17.2009789,50.3417936 C16.8483604,50.2478416 16.5328659,50.104314 16.2544859,49.9112066 C15.9761059,49.7180991 15.7503062,49.4887321 15.57708,49.2230984 C15.4038538,48.9574648 15.2900001,48.6622872 15.2355155,48.3375568 C15.1810308,48.0128264 15.2016793,47.6707224 15.2974616,47.3112347 C15.3596896,47.0776822 15.4456177,46.8633224 15.5552485,46.6681489 C15.6648793,46.4729754 15.7925248,46.3022231 15.938189,46.1558868 C16.0838532,46.0095506 16.2447843,45.888742 16.4209873,45.7934574 C16.5971902,45.6981728 16.7821352,45.6321943 16.9758278,45.5955198 L17.234534,46.5987639 C17.1151746,46.6233641 17.0008182,46.6591055 16.8914615,46.705989 C16.7821047,46.7528726 16.6824451,46.8139869 16.5924796,46.8893338 C16.5025141,46.9646806 16.4227803,47.0568525 16.3532756,47.1658522 C16.283771,47.2748519 16.229497,47.4026212 16.190452,47.549164 C16.1288342,47.7804268 16.1209797,47.9916792 16.1668883,48.1829276 C16.212797,48.374176 16.2958295,48.5434339 16.4159883,48.6907063 C16.5361471,48.8379787 16.6870943,48.9640258 16.8688345,49.0688512 C17.0505747,49.1736767 17.2456246,49.2538468 17.45399,49.3093639 L17.4883358,49.318515 Z M17.2684444,42.0258789 C17.4015905,41.6708892 17.5847903,41.3764369 17.8180495,41.1425132 C18.0513086,40.9085895 18.315137,40.7348535 18.6095427,40.6213001 C18.9039483,40.5077466 19.2197008,40.4553492 19.5568096,40.4641063 C19.8939184,40.4728633 20.2333065,40.5413173 20.5749841,40.6694705 C20.9188803,40.7984557 21.2201281,40.9702851 21.4787364,41.1849639 C21.7373447,41.3996426 21.9407568,41.6467632 22.088979,41.9263332 C22.2372011,42.2059032 22.3217011,42.5102868 22.3424815,42.8394932 C22.3632619,43.1686995 22.3070799,43.5107924 22.1739338,43.8657821 C22.0399555,44.2229905 21.8571023,44.5182055 21.6253686,44.7514359 C21.3936349,44.9846664 21.1300145,45.1578477 20.8344995,45.2709851 C20.5389845,45.3841224 20.223232,45.4365199 19.8872326,45.4281789 C19.5512331,45.4198379 19.2112904,45.3511759 18.8673941,45.2221906 C18.5257165,45.0940375 18.2250234,44.9224161 17.9653058,44.7073213 C17.7055881,44.4922265 17.502176,44.2451058 17.3550632,43.9659519 C17.2079504,43.686798 17.1232424,43.3829691 17.1009366,43.054456 C17.0786308,42.7259429 17.1344661,42.3830873 17.2684444,42.0258789 L17.2684444,42.0258789 Z M21.3019947,43.5387437 C21.380218,43.3301873 21.4096974,43.1318231 21.3904337,42.9436453 C21.37117,42.7554675 21.3120385,42.5808103 21.2130372,42.4196684 C21.114036,42.2585265 20.979536,42.1144412 20.8095331,41.987408 C20.6395302,41.8603749 20.4413788,41.7544196 20.2150729,41.6695389 L20.1884488,41.659553 C19.9643615,41.5755046 19.745961,41.5252236 19.5332406,41.5087086 C19.3205202,41.4921937 19.1238864,41.5120806 18.9433332,41.5683699 C18.76278,41.6246592 18.6033743,41.7173496 18.4651113,41.8464438 C18.3268483,41.9755381 18.2186068,42.1443609 18.1403835,42.3529173 C18.0621602,42.5614738 18.0324727,42.7603926 18.0513203,42.9496798 C18.0701679,43.1389669 18.1292995,43.3136241 18.2287168,43.4736566 C18.3281341,43.6336892 18.4633968,43.7774279 18.634509,43.9048771 C18.8056213,44.0323264 19.003218,44.1380736 19.2273053,44.2221221 L19.2539294,44.232108 C19.4802353,44.3169886 19.6991905,44.3674776 19.9108016,44.3835765 C20.1224126,44.3996754 20.3182837,44.3801351 20.4984208,44.3249552 C20.6785579,44.2697752 20.8379636,44.1770848 20.9766427,44.0468812 C21.1153218,43.9166776 21.2237714,43.7473002 21.3019947,43.5387437 L21.3019947,43.5387437 Z M23.9468412,40.1414501 L18.7402617,39.1702172 L19.2527679,38.1349499 L23.1234829,38.9525274 L23.1392524,38.9206731 L20.1327017,36.3574756 L20.6389002,35.3349501 L24.5681565,38.8863876 L23.9468412,40.1414501 Z M24.8758622,37.3853831 C24.8005291,37.3405285 24.738567,37.2836411 24.6899742,37.2147194 C24.6413813,37.1457976 24.6072976,37.0710369 24.587722,36.9904351 C24.5681464,36.9098333 24.5639033,36.8266411 24.5749924,36.7408559 C24.5860816,36.6550707 24.614053,36.5745127 24.6589076,36.4991796 C24.7037622,36.4238464 24.7609527,36.3613754 24.8304806,36.3117645 C24.9000085,36.2621536 24.9748663,36.2267489 25.0550562,36.2055491 C25.1352461,36.1843494 25.2172144,36.178688 25.3009636,36.1885649 C25.3847128,36.1984417 25.4642527,36.2258071 25.5395859,36.2706617 C25.616955,36.3167286 25.6804441,36.3745251 25.730055,36.444053 C25.7796658,36.5135809 25.8147676,36.5889477 25.8353612,36.6701557 C25.8559548,36.7513636 25.860501,36.8340468 25.849,36.9182079 C25.8374989,37.0023689 25.8093215,37.0821148 25.7644669,37.157448 C25.7196123,37.2327811 25.6626279,37.2960642 25.5935118,37.3472993 C25.5243958,37.3985343 25.4492349,37.4344481 25.368027,37.4550417 C25.286819,37.4756353 25.2038327,37.4806905 25.1190655,37.4702075 C25.0342984,37.4597245 24.9532314,37.43145 24.8758622,37.3853831 L24.8758622,37.3853831 Z M26.8263082,33.7944408 C26.9071576,33.6689436 26.964126,33.5400437 26.9972148,33.4077372 C27.0303037,33.2754307 27.0348434,33.1458746 27.010834,33.0190652 C26.9868247,32.8922558 26.9323085,32.7690491 26.8472839,32.6494415 C26.7622593,32.5298339 26.6420601,32.419982 26.4866827,32.3198827 L23.8303392,30.6085773 L24.3808829,29.7540056 L27.1657109,31.548085 C27.4047532,31.7020841 27.592972,31.8846485 27.7303732,32.0957838 C27.8677744,32.3069192 27.9544734,32.5333072 27.990473,32.7749548 C28.0264726,33.0166023 28.012667,33.2677368 27.9490559,33.5283658 C27.8854448,33.7889948 27.7721498,34.0457987 27.6091675,34.298785 C27.4461853,34.5517714 27.2591867,34.7610929 27.0481662,34.9267559 C26.8371458,35.0924188 26.6138606,35.2093042 26.3783039,35.2774156 C26.1427473,35.3455269 25.9004474,35.3606675 25.651397,35.3228378 C25.4023465,35.285008 25.1583039,35.1890951 24.9192616,35.0350961 L22.1344336,33.2410166 L22.6869023,32.3834569 L25.3432458,34.0947624 C25.4986232,34.1948617 25.6483385,34.2588978 25.792396,34.2868726 C25.9364536,34.3148473 26.0711763,34.3135547 26.1965684,34.2829947 C26.3219604,34.2524346 26.4380515,34.1947437 26.544845,34.1099202 C26.6516386,34.0250967 26.7454587,33.919938 26.8263082,33.7944408 L26.8263082,33.7944408 Z M25.3673284,28.799748 L26.0044264,27.989436 L27.7396117,29.3537044 L27.1292338,26.5588162 L27.9135234,25.5612942 L28.4121546,28.2050225 L31.9906769,28.6222201 L31.2503251,29.5638585 L28.6210467,29.2102525 L28.7930172,30.1819318 L30.0112794,31.1397756 L29.3741814,31.9500876 L25.3673284,28.799748 Z M33.7936137,27.0670692 L29.1359014,24.545665 L29.9412459,23.7174977 L33.3746147,25.6829104 L33.3993945,25.6574283 L31.3239607,22.2955981 L32.1193933,21.4776236 L34.7699392,26.0630756 L33.7936137,27.0670692 Z M32.9445322,20.9785496 L35.5340145,18.7238098 L36.1478826,19.4288138 L34.3357811,21.0066648 L35.0476813,21.824255 L36.7177098,20.3701113 L37.3292437,21.0724346 L35.6592153,22.5265784 L36.4574772,23.4433516 L38.374123,21.7744708 L38.985657,22.4767941 L36.2916303,24.8225637 L32.9445322,20.9785496 Z M36.5983442,18.101264 L38.1852244,16.9293744 C38.4292144,16.749191 38.6706504,16.625389 38.9095395,16.5579645 C39.1484286,16.49054 39.3744116,16.4694658 39.5874952,16.4947415 C39.8005789,16.5200171 39.9961819,16.5854468 40.1743102,16.6910324 C40.3524385,16.7966181 40.5034384,16.9332804 40.6273144,17.1010235 C40.7272598,17.2363617 40.801434,17.3796822 40.8498391,17.5309893 C40.8982443,17.6822964 40.9229536,17.8334257 40.9239678,17.9843816 C40.9249819,18.1353376 40.903276,18.28245 40.8588493,18.4257232 C40.8144226,18.5689965 40.7507588,18.7021725 40.667856,18.8252554 L42.8114512,19.8491941 L41.8564638,20.5544394 L40.0235197,19.628063 L39.3658937,20.113711 L40.4554343,21.5890808 L39.6262537,22.2014195 L36.5983442,18.101264 Z M39.7820787,17.7694044 C39.7215483,17.687439 39.6504693,17.6221026 39.5688394,17.5733933 C39.4872095,17.524684 39.3973699,17.4967675 39.2993181,17.4896428 C39.2012663,17.4825182 39.0968892,17.4977399 38.9861839,17.5353084 C38.8754786,17.5728769 38.7610363,17.6352983 38.6428537,17.7225746 L37.9680721,18.2208917 L38.8211234,19.3760261 L39.4959049,18.8777091 C39.6140875,18.7904328 39.707063,18.6989426 39.774834,18.6032359 C39.842605,18.5075292 39.8871564,18.4112964 39.9084896,18.3145347 C39.9298227,18.2177729 39.92922,18.1232198 39.9066814,18.0308723 C39.8841429,17.9385249 39.842609,17.8513698 39.7820787,17.7694044 L39.7820787,17.7694044 Z M40.7513765,15.3577458 L41.6301867,14.8190511 L44.293939,19.1646161 L43.4151288,19.7033107 L40.7513765,15.3577458 Z M42.6113069,14.2877571 L45.6034202,12.6035576 L46.0619549,13.4181806 L43.968095,14.5967715 L44.4998558,15.5414864 L46.429552,14.4552998 L46.8863432,15.2668253 L44.9566469,16.353012 L46.0097075,18.2238572 L45.111454,18.7294657 L42.6113069,14.2877571 Z M47.1730194,12.0217537 L48.9399404,13.3676169 L48.9528313,13.3616197 L49.0808642,11.1341689 L50.1282452,10.6468969 L49.8589706,14.1043651 L50.734561,15.9864282 L49.7903067,16.4257227 L48.9147163,14.5436596 L46.096634,12.5225195 L47.1730194,12.0217537 Z M52.3317485,12.5674169 L53.7749889,12.0643865 L54.0651088,12.896767 L52.6218684,13.3997974 L52.3317485,12.5674169 Z M56.567166,12.4677701 C56.6146138,12.5724646 56.6782191,12.6626346 56.7579836,12.7382826 C56.8377482,12.8139307 56.9279672,12.8723831 57.0286434,12.9136415 C57.1293196,12.9548999 57.2384141,12.9783171 57.3559302,12.9838936 C57.4734462,12.9894702 57.5925395,12.9748627 57.7132135,12.9400707 C57.8521025,12.900027 57.9946604,12.8299489 58.1408914,12.7298343 C58.2871223,12.6297196 58.4126334,12.5090692 58.5174282,12.3678794 L59.1626882,12.8994829 C59.0332797,13.0921597 58.8572896,13.268671 58.6347126,13.4290224 C58.4121356,13.5893737 58.1608235,13.7099194 57.8807687,13.7906632 C57.6280363,13.8635296 57.3776347,13.8888681 57.1295564,13.8666796 C56.881478,13.844491 56.6501351,13.7755552 56.4355206,13.65987 C56.2209061,13.5441848 56.0314109,13.3830356 55.8670292,13.1764174 C55.7026476,12.9697992 55.5781174,12.7196359 55.4934349,12.4259199 C55.4159733,12.1572494 55.3864551,11.8944893 55.4048794,11.6376317 C55.4233037,11.3807741 55.4847422,11.144811 55.5891968,10.9297352 C55.6936514,10.7146595 55.8389397,10.5278876 56.0250661,10.3694141 C56.2111924,10.2109405 56.4340338,10.0942877 56.6935968,10.0194519 C56.9349448,9.94986785 57.1718495,9.9290372 57.404318,9.95695935 C57.6367865,9.9848815 57.8521044,10.0559715 58.0502781,10.1702314 C58.2484518,10.2844914 58.4226346,10.4395746 58.5728316,10.6354856 C58.7230286,10.8313966 58.8365279,11.0625454 58.913333,11.328939 L59.0364174,11.7558497 L56.567166,12.4677701 Z M56.9265036,10.8401051 C56.7238623,10.8985295 56.5720597,11.0156627 56.4710913,11.1915083 C56.3701229,11.3673539 56.3358259,11.5541846 56.3681994,11.7520061 L57.8436027,11.3266262 C57.7832504,11.1344053 57.6654046,10.990823 57.4900617,10.895875 C57.3147189,10.800927 57.126868,10.7823372 56.9265036,10.8401051 L56.9265036,10.8401051 Z M59.0408286,8.28292619 L60.0497074,8.07158988 L61.094729,13.0603212 L60.0858503,13.2716576 L59.0408286,8.28292619 Z M65.864059,9.68284849 C65.9282677,10.058914 65.9359894,10.410363 65.8872243,10.7372062 C65.8384591,11.0640494 65.7317985,11.3544984 65.5672393,11.6085618 C65.40268,11.8626252 65.1788455,12.0757237 64.895729,12.2478635 C64.6126124,12.4200033 64.2678439,12.540768 63.8614128,12.6101613 L62.0114603,12.926019 L61.1536196,7.90171602 L63.0035722,7.58585838 C63.4100032,7.51646506 63.7753103,7.51599274 64.0995045,7.58444139 C64.4236987,7.65289005 64.7055595,7.77964693 64.9450954,7.96471586 C65.1846314,8.14978478 65.3816216,8.38838894 65.5360719,8.68053548 C65.6905223,8.97268202 65.7998502,9.30678302 65.864059,9.68284849 L65.864059,9.68284849 Z M64.7926958,9.76480773 C64.7564039,9.55224899 64.6963276,9.3587786 64.6124651,9.18439076 C64.5286026,9.01000292 64.4172962,8.86494327 64.2785425,8.74920747 C64.1397888,8.63347167 63.9714698,8.55223325 63.7735806,8.50548976 C63.5756914,8.45874627 63.3459448,8.45770803 63.0843341,8.50237499 L62.3240316,8.63218769 L62.8731932,11.8485825 L63.6334957,11.7187698 C63.8927706,11.6745016 64.1079893,11.5974908 64.2791581,11.487735 C64.4503269,11.3779792 64.5820554,11.2449102 64.6743475,11.0885241 C64.7666396,10.932138 64.8238935,10.7570967 64.846111,10.563395 C64.8683285,10.3696933 64.8614908,10.1677341 64.8255977,9.95751112 L64.7926958,9.76480773 Z M69.5907663,11.2209649 L67.7088763,11.3649032 L67.493913,12.3295769 L66.402346,12.4130665 L67.6757903,7.2037685 L69.0260729,7.10049077 L71.1017548,12.0536274 L69.9534829,12.1414542 L69.5907663,11.2209649 Z M67.9159182,10.4364832 L69.2449365,10.3348319 L68.4214749,8.23755733 L68.4072987,8.23864161 L67.9159182,10.4364832 Z M71.925778,10.8454383 C71.9912221,10.9220484 72.0708957,10.9976414 72.1648013,11.0722197 C72.2587068,11.1467979 72.3627724,11.2137941 72.4770011,11.2732101 C72.5912298,11.3326262 72.7156675,11.3803139 72.8503179,11.4162746 C72.9849683,11.4522354 73.130483,11.471144 73.2868663,11.473001 C73.5783081,11.4764619 73.8023494,11.4181014 73.9589971,11.297918 C74.1156448,11.1777346 74.1950086,11.0299756 74.1970907,10.8546367 C74.1992572,10.6721894 74.1327827,10.53277 73.9976651,10.4363743 C73.8625475,10.3399787 73.6472252,10.2627748 73.3516917,10.2047605 L73.1920926,10.174428 C72.9792927,10.1339846 72.7678215,10.0817088 72.5576724,10.017599 C72.3475234,9.95348926 72.157841,9.86237142 71.9886197,9.74424275 C71.8193984,9.62611409 71.6825535,9.47578766 71.578081,9.29325896 C71.4736084,9.11073026 71.4230189,8.88085682 71.4263109,8.60363176 C71.4282242,8.4425095 71.4657701,8.27411113 71.5389497,8.09843158 C71.6121292,7.92275204 71.7271959,7.76179101 71.8841531,7.61554367 C72.0411103,7.46929633 72.2427674,7.35024163 72.4891304,7.25837601 C72.7354934,7.16651038 73.0328247,7.12264629 73.3811331,7.12678242 C73.7934165,7.13167825 74.1604584,7.20416696 74.4822698,7.34425074 C74.8040811,7.48433452 75.0631772,7.66691933 75.2595657,7.89201066 L74.5660179,8.52361201 C74.4280495,8.367938 74.2500017,8.24496678 74.0318691,8.15469465 C73.8137365,8.06442252 73.5885708,8.01790844 73.3563652,8.01515102 C73.0886179,8.01197155 72.8789126,8.0604308 72.727243,8.16053024 C72.5755733,8.26062968 72.4987689,8.39242327 72.4968275,8.55591498 C72.4955613,8.66254 72.5187926,8.75168125 72.5665221,8.82334141 C72.6142517,8.89500157 72.6816758,8.95445338 72.7687966,9.00169862 C72.8559174,9.04894386 72.9608989,9.08869884 73.0837443,9.12096475 C73.2065896,9.15323065 73.3436496,9.18566489 73.4949283,9.21826844 L73.5765049,9.23345576 C73.779827,9.27378666 73.9818417,9.32417287 74.1825552,9.38461591 C74.3832687,9.44505895 74.5652926,9.53253124 74.7286325,9.64703539 C74.8919725,9.76153954 75.0235073,9.91002561 75.1232409,10.092498 C75.2229746,10.2749705 75.2711666,10.5071852 75.2678183,10.7891491 C75.2647795,11.0450492 75.2087807,11.2706947 75.0998203,11.4660925 C74.9908599,11.6614903 74.8478894,11.8274518 74.6709045,11.9639822 C74.4939195,12.1005126 74.290097,12.202361 74.0594308,12.2695303 C73.8287646,12.3366997 73.5890393,12.3688067 73.3402475,12.3658523 C73.0890864,12.3628698 72.8565451,12.3387807 72.6426168,12.2935843 C72.4286885,12.2483879 72.2351144,12.1856607 72.0618887,12.105401 C71.888663,12.0251412 71.7345078,11.9356302 71.5994183,11.836865 C71.4643288,11.7380999 71.346504,11.632432 71.2459403,11.5198582 L71.925778,10.8454383 Z M77.0690396,9.94654147 L78.5869594,10.1251522 L78.4839467,11.0006037 L76.9660269,10.8219929 L77.0690396,9.94654147 Z M81.6319116,9.45691415 L80.9663891,13.3024821 L79.9507109,13.1267066 L80.8198905,8.1043528 L82.2523471,8.35225689 L83.6789936,12.0729234 L84.2626895,8.7001712 L85.2783678,8.87594671 L84.4091881,13.8983005 L83.2919421,13.7049474 L81.6319116,9.45691415 Z M88.7518609,10.0078778 C89.1166805,10.1110874 89.4253279,10.2692047 89.6778125,10.4822344 C89.9302971,10.6952641 90.1253402,10.9437552 90.2629475,11.2277152 C90.4005549,11.5116752 90.4789899,11.8219865 90.498255,12.1586582 C90.5175201,12.49533 90.4774837,12.8392302 90.3781444,13.190369 C90.2781601,13.543788 90.1319382,13.8582633 89.9394745,14.1338045 C89.7470107,14.4093456 89.5176338,14.632575 89.251337,14.8034994 C88.9850401,14.9744238 88.6887241,15.0839066 88.3623802,15.1319509 C88.0360362,15.1799953 87.6904596,15.152413 87.32564,15.0492034 C86.9585402,14.9453487 86.6491615,14.7876402 86.3974944,14.5760731 C86.1458274,14.364506 85.9513543,14.1161761 85.8140695,13.8310761 C85.6767847,13.545976 85.5983496,13.2356648 85.578762,12.900133 C85.5591744,12.5646013 85.5993721,12.2201312 85.6993564,11.8667122 C85.7986957,11.5155733 85.9447563,11.201668 86.1375426,10.9249868 C86.3303289,10.6483056 86.5597057,10.4250762 86.8256801,10.2552919 C87.0916544,10.0855075 87.3874004,9.9758635 87.7129268,9.92635657 C88.0384533,9.87684963 88.3847612,9.90402311 88.7518609,10.0078778 L88.7518609,10.0078778 Z M87.5791473,14.1531197 C87.7934789,14.2137554 87.9936058,14.2266618 88.1795342,14.1918392 C88.3654626,14.1570167 88.5346067,14.0835866 88.6869714,13.9715468 C88.8393362,13.8595071 88.9717558,13.7135074 89.084234,13.5335433 C89.1967122,13.3535793 89.2858481,13.1473141 89.3516442,12.9147417 L89.3593849,12.8873803 C89.424536,12.6570879 89.4565084,12.4352665 89.455303,12.2219094 C89.4540977,12.0085523 89.4179519,11.8142489 89.3468647,11.6389932 C89.2757775,11.4637375 89.1701709,11.3125789 89.0300418,11.1855128 C88.8899127,11.0584466 88.712685,10.9645971 88.4983535,10.9039614 C88.284022,10.8433258 88.083325,10.8302582 87.8962566,10.8647582 C87.7091881,10.8992582 87.540044,10.9726883 87.3888193,11.0850506 C87.2375946,11.1974129 87.1055838,11.3441438 86.992783,11.5252479 C86.8799823,11.706352 86.7910077,11.9120472 86.7258566,12.1423395 L86.7181159,12.1697009 C86.6523198,12.4022734 86.6201861,12.6246648 86.621714,12.8368818 C86.6232419,13.0490989 86.6589789,13.2426711 86.7289261,13.4176042 C86.7988732,13.5925373 86.9044798,13.743696 87.045749,13.8710847 C87.1870182,13.9984733 87.3648158,14.0924841 87.5791473,14.1531197 L87.5791473,14.1531197 Z M91.1826297,16.5067567 L91.7190207,11.2375966 L92.7932011,11.6625409 L92.2992257,15.5876977 L92.3322774,15.6007729 L94.6374861,12.3921376 L95.6984457,12.8118518 L92.4848668,17.0219199 L91.1826297,16.5067567 Z M98.4403761,15.3978466 C98.3163007,15.3334157 98.197625,15.297154 98.0843453,15.2890603 C97.9710656,15.2809666 97.8653695,15.2968353 97.7672536,15.3366669 C97.6691378,15.3764985 97.5805162,15.4366117 97.5013864,15.5170082 C97.4222566,15.5974047 97.3537534,15.6933303 97.2958748,15.8047878 L96.4032333,15.2331124 C96.5341981,14.9860538 96.6927503,14.7887035 96.8788946,14.6410556 C97.065039,14.4934077 97.2668901,14.3926352 97.4844542,14.3387349 C97.7020183,14.2848347 97.9300111,14.2764028 98.1684394,14.3134389 C98.4068678,14.3504751 98.6459478,14.4312388 98.8856865,14.5557324 C99.1359402,14.6856863 99.3452513,14.841772 99.5136263,15.0239943 C99.6820012,15.2062167 99.8048453,15.4028417 99.8821622,15.6138753 C99.959479,15.824909 99.98975,16.0455524 99.972976,16.2758123 C99.956202,16.5060721 99.8893914,16.7337076 99.7725421,16.9587256 C99.6447724,17.2047733 99.4765744,17.4091297 99.2679433,17.571801 C99.0593121,17.7344724 98.8268045,17.8647157 98.5704134,17.962535 C98.3140223,18.0603542 98.0416415,18.1298416 97.7532628,18.1709992 C97.4648842,18.2121567 97.1781182,18.2347912 96.8929564,18.2389034 L96.7848536,18.2388378 L98.6712097,19.218401 L98.2420365,20.0448648 L94.9424905,18.3314482 L95.3683876,17.5112933 C95.5867784,17.5072185 95.8121223,17.4987461 96.0444258,17.4858757 C96.2767294,17.4730052 96.5062292,17.4526733 96.7329321,17.4248793 C96.9596351,17.3970852 97.1798542,17.3599188 97.3935961,17.313379 C97.6073379,17.2668392 97.8040815,17.2054671 97.9838326,17.129261 C98.1635838,17.0530549 98.3229097,16.9609047 98.4618151,16.8528076 C98.6007206,16.7447105 98.7094854,16.614957 98.788113,16.463543 C98.832887,16.3773212 98.8623937,16.2845079 98.8766341,16.1851003 C98.8908744,16.0856928 98.8860056,15.9883787 98.8620274,15.8931552 C98.8380492,15.7979318 98.7917471,15.7071371 98.7231198,15.6207686 C98.6544924,15.5344 98.5602455,15.4600934 98.4403761,15.3978466 L98.4403761,15.3978466 Z M100.835325,18.9431043 C100.720502,19.1256253 100.625083,19.3084518 100.549065,19.4915893 C100.473047,19.6747268 100.426882,19.8493466 100.41057,20.0154538 C100.394257,20.1815611 100.414906,20.334525 100.472517,20.4743502 C100.530129,20.6141753 100.636153,20.7326652 100.790594,20.8298234 C100.945035,20.9269816 101.097745,20.9712608 101.248729,20.9626622 C101.399713,20.9540637 101.54654,20.9064581 101.689213,20.8198439 C101.831887,20.7332297 101.968809,20.6157053 102.099984,20.4672672 C102.23116,20.318829 102.354157,20.1533519 102.468981,19.9708309 L102.542795,19.8534965 C102.657619,19.6709755 102.753855,19.487963 102.831506,19.3044535 C102.909158,19.1209441 102.956139,18.9461383 102.972452,18.7800311 C102.988765,18.6139238 102.968116,18.4609599 102.910504,18.3211348 C102.852893,18.1813096 102.746869,18.0628197 102.592428,17.9656615 C102.437987,17.8685033 102.285277,17.8242241 102.134293,17.8328227 C101.983308,17.8414212 101.836482,17.8890268 101.693808,17.975641 C101.551135,18.0622552 101.413396,18.1799656 101.280587,18.3287757 C101.147778,18.4775858 101.023963,18.6432489 100.90914,18.8257699 L100.835325,18.9431043 Z M103.416539,20.4871508 C103.305501,20.6636546 103.181299,20.8332726 103.043927,20.9960098 C102.906556,21.1587469 102.75856,21.3049984 102.599936,21.4347685 C102.441311,21.5645387 102.272766,21.6733673 102.094296,21.7612577 C101.915826,21.8491482 101.729288,21.9053654 101.534677,21.9299111 C101.340067,21.9544569 101.139096,21.943505 100.931758,21.8970551 C100.72442,21.8506052 100.511443,21.7586139 100.292819,21.6210782 C100.0762,21.4848044 99.9015771,21.3329576 99.7689443,21.1655333 C99.6363115,20.998109 99.5394368,20.8216872 99.4783175,20.6362626 C99.4171981,20.4508381 99.3873066,20.2591659 99.3886421,20.0612405 C99.3899776,19.863315 99.4147998,19.6647708 99.4631095,19.4656019 C99.5114192,19.2664331 99.5791871,19.0697106 99.6664153,18.8754286 C99.7536434,18.6811465 99.8534059,18.4947535 99.9657056,18.3162439 C100.076744,18.1397401 100.200946,17.9701221 100.338318,17.807385 C100.475689,17.6446478 100.623685,17.4983964 100.782309,17.3686262 C100.940934,17.2388561 101.109479,17.1300274 101.287949,17.042137 C101.466419,16.9542466 101.652455,16.8977139 101.846063,16.8725373 C102.039671,16.8473606 102.240456,16.8574957 102.448425,16.9029427 C102.656393,16.9483897 102.869686,17.0398796 103.088311,17.1774152 C103.306935,17.3149509 103.481744,17.4676145 103.612743,17.6354108 C103.743742,17.8032071 103.840301,17.9801303 103.902423,18.1661858 C103.964545,18.3522412 103.994623,18.5447302 103.992657,18.7436586 C103.99069,18.9425869 103.965552,19.1416325 103.917243,19.3408014 C103.868933,19.5399703 103.801165,19.7366927 103.713937,19.9309748 C103.626709,20.1252568 103.527577,20.3106469 103.416539,20.4871508 L103.416539,20.4871508 Z M106.892629,20.1289215 L103.81679,24.1932452 L102.975016,23.5561992 L105.008416,20.869324 L104.271509,20.3116406 L104.833482,19.5690654 L105.014875,19.7063413 C105.135804,19.7978591 105.242752,19.8617091 105.335721,19.8978932 C105.428691,19.9340774 105.514064,19.9459397 105.591842,19.9334806 C105.66962,19.9210214 105.742878,19.8850839 105.811617,19.8256668 C105.880357,19.7662498 105.95262,19.6864703 106.028408,19.5863261 L106.082032,19.5154697 L106.892629,20.1289215 Z M105.860308,22.9411528 L107.863059,20.9878318 L110.37238,23.0846207 L109.772972,23.8019592 L107.929167,22.2612752 L107.243823,22.9207019 C107.317852,22.9208008 107.396114,22.930614 107.478612,22.9501417 C107.561111,22.9696694 107.644355,22.9975411 107.728348,23.0337577 C107.812341,23.0699743 107.893897,23.1118758 107.973021,23.1594633 C108.052144,23.2070508 108.126253,23.2597127 108.195351,23.3174507 C108.391734,23.481548 108.546977,23.6653085 108.661086,23.8687376 C108.775196,24.0721668 108.844543,24.2829662 108.86913,24.5011422 C108.893717,24.7193182 108.872186,24.939098 108.804535,25.1604882 C108.736885,25.3818783 108.620254,25.5916707 108.454637,25.7898717 C108.273826,26.0062563 108.070562,26.1691345 107.84484,26.2785113 C107.619117,26.387888 107.384667,26.4467365 107.141482,26.4550583 C106.898298,26.4633802 106.65412,26.423006 106.408942,26.3339345 C106.163763,26.2448629 105.932985,26.1099237 105.716601,25.9291128 C105.542038,25.7832485 105.39329,25.620355 105.270351,25.4404274 C105.147412,25.2604998 105.05528,25.0723486 104.993952,24.8759681 C104.932625,24.6795877 104.905741,24.4780226 104.913298,24.271267 C104.920856,24.0645114 104.968759,23.8621361 105.057009,23.6641351 L106.012199,24.0454156 C105.927262,24.2616249 105.904915,24.4675992 105.945157,24.6633446 C105.985399,24.8590901 106.104619,25.0397685 106.30282,25.2053853 C106.421013,25.3041476 106.54228,25.3715113 106.666625,25.4074784 C106.790971,25.4434455 106.910569,25.4546033 107.025423,25.4409522 C107.140277,25.4273011 107.24818,25.3924033 107.349135,25.3362579 C107.45009,25.2801125 107.537032,25.2084002 107.609964,25.1211191 C107.681377,25.0356562 107.734525,24.9387931 107.769408,24.8305266 C107.804292,24.7222601 107.816577,24.6105519 107.806264,24.4953986 C107.79595,24.3802452 107.761744,24.2659719 107.703643,24.1525751 C107.645542,24.0391783 107.559215,23.9346198 107.444658,23.8388963 C107.373742,23.7796389 107.298487,23.7329675 107.218891,23.6988806 C107.139294,23.6647936 107.060596,23.6407204 106.982793,23.6266601 C106.90499,23.6125998 106.830663,23.6091632 106.75981,23.6163501 C106.688957,23.6235369 106.626668,23.6371064 106.572939,23.6570589 L105.860308,22.9411528 Z" id="GOV.UK-VERIFY---eIDA" fill="#FFFFFF" sketch:type="MSShapeGroup" mask="url(#mask-2)">
                        <g transform="translate(62.789131, 28.780800) rotate(7.000000) translate(-62.789131, -28.780800) "></g>
                    </path>
                </g>
                <path d="M15.3676471,64.5346392 L15.3676471,80.3875804 L18.8591739,71.4684053 L15.3676471,64.5346392 Z" id="Path-25" fill="#629A74" sketch:type="MSShapeGroup"></path>
                <path d="M21.6764706,82.3287569 L28.1470588,48.0346392 L37.8529412,83.6228745 L21.6764706,82.3287569 Z" id="Path-1" fill="#64517D" sketch:type="MSShapeGroup"></path>
                <path d="M60.5,51.1645487 L44.3235294,48.3581687 L37.8529412,83.5174899 L60.5,51.1645487 Z" id="Path-2" fill="#904F89" sketch:type="MSShapeGroup"></path>
                <path d="M57.1029412,89.1835363 L70.2058824,83.4611098 L37.8529412,83.4611098 L57.1029412,89.1835363 Z" id="Path-18" fill="#51707D" sketch:type="MSShapeGroup"></path>
                <path d="M37.8529412,83.5590533 L70.3676471,83.5590533 L60.5,51.1081687 L37.8529412,83.5590533 Z" id="Path-3" fill="#64517D" sketch:type="MSShapeGroup"></path>
                <path d="M76.6764706,41.564051 L60.5,51.2699334 L70.2892923,83.6968061 L76.6764706,41.564051 Z" id="Path-4" fill="#51607D" sketch:type="MSShapeGroup"></path>
                <path d="M91.2352941,50.946404 L102.558824,50.946404 L99.3235294,57.5787569 L91.2352941,50.946404 Z" id="Path-9" fill="#64517D" sketch:type="MSShapeGroup"></path>
                <path d="M86.3141085,82.2801011 L76.6082261,41.564051 L70.2058824,83.5742187 L86.3141085,82.2801011 Z" id="Path-5" fill="#4D4F7E" sketch:type="MSShapeGroup"></path>
                <path d="M93.0147059,47.8728745 L86.3823529,82.5252757 L76.5147059,41.564051 L93.0147059,47.8728745 Z" id="Path-6" fill="#7D6C51" sketch:type="MSShapeGroup"></path>
                <path d="M86.3823529,82.0665211 L92.8826402,80.3003791 L92.8826402,47.8728745 L86.3823529,82.0665211 Z" id="Path-7" fill="#64517D" sketch:type="MSShapeGroup"></path>
                <path d="M96.0882353,64.2370175 L109.089442,57.7405216 L109.089442,70.7335133 L96.0882353,64.2370175 Z" id="Path-11" fill="#64517D" sketch:type="MSShapeGroup"></path>
                <path d="M96.0882353,51.052562 L99.3235294,47.8728745 L102.558824,51.052562 L96.0882353,51.052562 Z" id="Path-10" opacity="0.554104478" fill="#5D457B" sketch:type="MSShapeGroup"></path>
                <path d="M96.0882353,80.3352067 L116.540728,62.4316981 L118.735294,76.8635851 L96.0882353,80.3352067 Z" id="Path-12" fill="#517D5E" sketch:type="MSShapeGroup"></path>
                <path d="M116.470588,62.4999426 L121.789867,58.064051 L118.603885,76.9905216 L116.470588,62.4999426 Z" id="Path-12" fill="#6C9D7B" sketch:type="MSShapeGroup"></path>
                <path d="M92.8529412,47.8728745 L92.8529412,80.3875804 L118.735294,77.1522863 L92.8529412,47.8728745 Z" id="Path-8" fill="#51717D" sketch:type="MSShapeGroup"></path>
                <path d="M118.735294,76.9905216 L112.264706,89.9316981 L92.8529412,80.3875804 L118.735294,76.9905216 Z" id="Path-13" fill="#64517D" sketch:type="MSShapeGroup"></path>
                <path d="M15.3676471,64.2111098 L21.8382353,82.2478745 L28.3088235,47.8728745 L15.3676471,64.2111098 Z" id="Path-19" fill="#51547D" sketch:type="MSShapeGroup"></path>
                <path d="M105.414661,72.946404 L103.266331,75.1990501 L102.392204,74.282633 L101.75,74.9560505 L103.266331,76.5460866 L106.056932,73.6198215 L105.414661,72.946404 Z" id="Fill-240" fill="#83BF96" sketch:type="MSShapeGroup"></path>
                <path d="M102.397059,73.0542997 L104.337329,72.8016762 L103.460851,71.814051 L102.397059,73.0542997 Z" id="Path-33" fill="#FFFFFF" sketch:type="MSShapeGroup"></path>
                <path d="M21.7334319,82.1669922 L18.6029412,96.4022863 L28.2668026,96.4022863 L21.7334319,82.1669922 Z" id="Path-15" fill="#7754A5" sketch:type="MSShapeGroup"></path>
                <path d="M37.8529412,83.4611098 L21.6764706,82.1669922 L28.1470588,96.2405216 L37.8529412,83.4611098 Z" id="Path-16" fill="#7D5151" sketch:type="MSShapeGroup"></path>
                <path d="M109.514706,85.3037109 L110.743739,86.9264131 L112.296932,85.2405216 L109.514706,85.3037109 Z" id="Path-29" fill="#413551" sketch:type="MSShapeGroup"></path>
                <path d="M18.6029412,96.4022863 L22.1034233,106.269933 L28.3088235,96.4022863 L18.6029412,96.4022863 Z" id="Path-15" fill="#64517D" sketch:type="MSShapeGroup"></path>
                <path d="M44.3235294,48.4896025 L28.1470588,48.0346392 L37.8529412,83.6228745 L44.3235294,48.4896025 Z" id="Path-2" fill="#7D5178" sketch:type="MSShapeGroup"></path>
                <path d="M28.1470588,96.564051 L22,106.178309 L34.9411765,106.178309 L28.1470588,96.564051 Z" id="Path-17" fill="#583A40" sketch:type="MSShapeGroup"></path>
                <path d="M70.2058824,83.4611098 L73.4411765,96.4022863 L79.9117647,96.4022863 L70.2058824,83.4611098 Z" id="Path-15" fill="#7754A4" sketch:type="MSShapeGroup"></path>
                <path d="M86.3823529,82.1669922 L70.2058824,83.4611098 L79.9117647,96.4022863 L86.3823529,82.1669922 Z" id="Path-16" fill="#517D5F" sketch:type="MSShapeGroup"></path>
                <path d="M73.4411765,96.4022863 L71.8235294,106.108169 L79.9117647,96.4022863 L73.4411765,96.4022863 Z" id="Path-15" fill="#64517D" sketch:type="MSShapeGroup"></path>
                <path d="M79.9117647,96.4022863 L71.5,106.340074 L84.7647059,106.340074 L79.9117647,96.4022863 Z" id="Path-17" fill="#5D242F" sketch:type="MSShapeGroup"></path>
            </g>
        </g>
    </g>
</svg>