<?xml version="1.0" encoding="UTF-8" standalone="no"?>
<svg width="341px" height="362px" viewBox="0 0 341 362" version="1.1" xmlns="http://www.w3.org/2000/svg" xmlns:xlink="http://www.w3.org/1999/xlink">
    <!-- Generator: Sketch 3.7.1 (28215) - http://www.bohemiancoding.com/sketch -->
    <title>Slice 1</title>
    <desc>Created with Sketch.</desc>
    <defs>
        <linearGradient x1="50%" y1="0%" x2="50%" y2="100%" id="linearGradient-1">
            <stop stop-color="#FFC300" offset="0%"></stop>
            <stop stop-color="#F34D10" offset="100%"></stop>
        </linearGradient>
        <path d="M167.308594,341.726077 C249.875164,341.726077 316.808594,274.792647 316.808594,192.226077 C316.808594,109.659506 249.875164,42.7260765 167.308594,42.7260765 C84.7420237,42.7260765 17.8085938,109.659506 17.8085938,192.226077 C17.8085938,274.792647 84.7420237,341.726077 167.308594,341.726077 Z" id="path-2"></path>
        <mask id="mask-3" maskContentUnits="userSpaceOnUse" maskUnits="objectBoundingBox" x="0" y="0" width="299" height="299" fill="white">
            <use xlink:href="#path-2"></use>
        </mask>
        <path d="M17.8085938,250.763186 C17.8085938,250.763186 19.4414063,260.860354 21.3671876,266.72217 C23.2929688,272.583987 28.1538087,285.130862 29.3862305,284.52051 C30.6186524,283.910159 30.6406251,272.724612 30.6406251,264.964358 C30.6406251,257.204104 29.9726563,247.726077 29.9726563,247.726077 L17.8085938,250.763186 Z" id="path-4"></path>
        <mask id="mask-5" maskContentUnits="userSpaceOnUse" maskUnits="objectBoundingBox" x="-5" y="-5" width="22.8320312" height="46.8159232">
            <rect x="12.8085938" y="242.726077" width="22.8320312" height="46.8159232" fill="white"></rect>
            <use xlink:href="#path-4" fill="black"></use>
        </mask>
        <path d="M61.6095862,252.634272 C61.6095862,252.634272 63.4494576,263.229743 65.1681799,268.593257 C66.8869023,273.95677 73.6728253,286.552737 75.0060705,286.052241 C76.3393158,285.551746 75.0060705,274.15321 74.4416174,266.835444 C73.8771643,259.517678 72.7367137,249.12786 72.7367137,249.12786 L61.6095862,252.634272 Z" id="path-6"></path>
        <mask id="mask-7" maskContentUnits="userSpaceOnUse" maskUnits="objectBoundingBox" x="-3" y="-3" width="19.9700421" height="42.9388718">
            <rect x="58.6095862" y="246.12786" width="19.9700421" height="42.9388718" fill="white"></rect>
            <use xlink:href="#path-6" fill="black"></use>
        </mask>
        <path d="M114.741209,333.987074 C109.565876,333.082445 109.623535,328.57178 109.623535,328.57178 C109.623535,328.57178 107.744355,328.704264 102.538465,330.123372 C97.3325746,331.54248 83.1459967,337.941897 83.5366207,339.277346 C83.9272448,340.612796 94.7350499,341.286836 103.153027,339.54191 C104.867006,339.186627 106.215062,338.886471 107.275151,338.633721 C104.911813,340.277675 103.317359,341.653527 103.43553,342.227243 C103.782997,343.914178 114.612691,344.40995 123.123806,341.906483 C131.63492,339.403016 131.238539,338.888177 131.238539,338.888177 C131.238539,338.888177 132.470914,336.995635 131.918331,333.351713 C131.365748,329.707791 129.988668,327.724595 129.988668,327.724595 C129.988668,327.724595 128.097313,327.956238 122.822427,329.937269 C120.936946,330.645378 117.877978,332.201984 114.741209,333.987074 Z" id="path-8"></path>
        <mask id="mask-9" maskContentUnits="userSpaceOnUse" maskUnits="objectBoundingBox" x="-5" y="-5" width="58.5321488" height="25.9143523">
            <rect x="78.5287125" y="322.724595" width="58.5321488" height="25.9143523" fill="white"></rect>
            <use xlink:href="#path-8" fill="black"></use>
        </mask>
        <linearGradient x1="50%" y1="9.79017091%" x2="50%" y2="91.0292676%" id="linearGradient-10">
            <stop stop-color="#FFC300" offset="0%"></stop>
            <stop stop-color="#F46109" offset="100%"></stop>
        </linearGradient>
    </defs>
    <g id="Page-1" stroke="none" stroke-width="1" fill="none" fill-rule="evenodd">
        <use id="Oval-1" stroke="#000000" mask="url(#mask-3)" stroke-width="58" fill="url(#linearGradient-1)" xlink:href="#path-2"></use>
        <path d="M212.973633,195.645057 C243.003761,168.060096 243.135739,157.229041 245.28685,131.060096 C247.437961,104.891151 235.7647,64.7515024 235.7647,64.7515024 C235.7647,64.7515024 254.233048,98.4405368 255.790899,123.971229 C257.348749,149.501921 254.900738,159.086463 254.900738,159.086463 C254.900738,159.086463 241.343168,177.86869 212.973633,195.645057 Z" id="Path-32" fill="#000000" transform="translate(234.641602, 130.198280) scale(-1, 1) rotate(-139.000000) translate(-234.641602, -130.198280) "></path>
        <path d="M57.4023438,249.589358 C57.4023438,249.589358 81.4960938,282.444827 85.1015626,295.60303 C88.7070313,308.761233 95.7109376,340.216311 100.900391,345.210452 C106.089844,350.204592 111.607422,352.179202 123.417969,347.642092 C135.228516,343.104983 153.25,339.651858 153.25,329.272952 C153.25,318.894045 152.380859,256.036623 144.933594,249.589358 C137.486328,243.142092 115.623047,227.726077 109.890625,227.726077 C104.158203,227.726077 57.4023438,249.589358 57.4023438,249.589358 Z" id="Path-2" fill="#1B140B"></path>
        <g id="Path-3">
            <use fill="#FFFFFF" fill-rule="evenodd" xlink:href="#path-4"></use>
            <use stroke="#000000" mask="url(#mask-5)" stroke-width="10" xlink:href="#path-4"></use>
        </g>
        <g id="Path-3" transform="translate(68.594607, 267.597296) rotate(9.000000) translate(-68.594607, -267.597296) ">
            <use fill="#FFFFFF" fill-rule="evenodd" xlink:href="#path-6"></use>
            <use stroke="#000000" mask="url(#mask-7)" stroke-width="6" xlink:href="#path-6"></use>
        </g>
        <path d="M230.688262,347.117826 L231.983336,351.60153 L234.426963,351.636729 L235.178154,354.237446 L221.925761,353.774693 L220.996528,350.557572 L231.94413,343.040852 L232.734344,345.776672 L230.688262,347.117826 Z M229.631464,351.567274 L228.716864,348.400816 L224.05351,351.449372 L224.063266,351.483148 L229.631464,351.567274 Z M219.047694,346.23957 L217.180505,341.562366 C216.939366,340.958326 216.820895,340.373147 216.825088,339.806813 C216.829282,339.240478 216.936809,338.719648 217.147673,338.244308 C217.358537,337.768967 217.664295,337.345653 218.064955,336.974351 C218.465616,336.60305 218.943471,336.30661 219.498534,336.085023 C220.053598,335.863436 220.607487,335.757456 221.160217,335.767081 C221.712947,335.776706 222.234314,335.893482 222.724335,336.117412 C223.214355,336.341343 223.658329,336.667244 224.056269,337.095124 C224.45421,337.523004 224.774831,338.041677 225.018142,338.651159 L225.865384,340.77345 L229.807948,339.199537 L230.752948,341.566708 L219.047694,346.23957 Z M220.432048,338.541951 C220.154517,338.652745 219.92783,338.800021 219.751983,338.983784 C219.576135,339.167548 219.44896,339.38235 219.370452,339.6282 C219.291944,339.874049 219.265375,340.143322 219.290745,340.436029 C219.316116,340.728736 219.393972,341.038338 219.524318,341.364846 L220.192335,343.038192 L223.775743,341.607657 L223.107726,339.934312 C222.97738,339.607804 222.820618,339.329701 222.637436,339.099995 C222.454253,338.870288 222.249549,338.693341 222.023316,338.569148 C221.797083,338.444955 221.556943,338.376788 221.302888,338.364647 C221.048834,338.352505 220.783044,338.40183 220.505512,338.512624 L220.432048,338.541951 Z M214.801057,337.133563 L212.594646,332.783166 C212.255401,332.114273 212.052589,331.474744 211.986206,330.864559 C211.919823,330.254375 211.961167,329.694681 212.110238,329.185461 C212.25931,328.676241 212.499121,328.226123 212.82968,327.835095 C213.160239,327.444066 213.555445,327.131941 214.015309,326.89871 C214.386335,326.710534 214.766251,326.588476 215.155068,326.532532 C215.543884,326.476587 215.922543,326.47835 216.291056,326.537822 C216.65957,326.597293 217.009388,326.710589 217.340521,326.877713 C217.671654,327.044837 217.970271,327.254725 218.236383,327.507386 L221.612816,322.700526 L222.940639,325.318603 L219.92958,329.407992 L220.843949,331.210859 L224.888641,329.159493 L226.041541,331.432673 L214.801057,337.133563 Z M215.298276,329.234036 C215.073569,329.348001 214.885083,329.494512 214.732812,329.673574 C214.58054,329.852636 214.475602,330.060249 214.417994,330.296419 C214.360385,330.532589 214.354672,330.793353 214.400853,331.078717 C214.447033,331.364082 214.552283,331.668757 214.716605,331.992752 L215.654827,333.84265 L218.821602,332.236542 L217.88338,330.386644 C217.719058,330.062649 217.534117,329.798391 217.328552,329.593862 C217.122986,329.389334 216.90661,329.241209 216.679416,329.149483 C216.452222,329.057758 216.221413,329.020427 215.98698,329.037492 C215.752548,329.054556 215.522982,329.12007 215.298276,329.234036 L215.298276,329.234036 Z M209.40836,327.899081 L208.045252,325.745372 L218.69497,319.005038 L220.058078,321.158747 L209.40836,327.899081 Z M206.634487,323.824637 L205.178843,321.732359 L213.591241,315.879666 L210.740187,311.781688 L212.673739,310.436472 L216.980438,316.626727 L206.634487,323.824637 Z M198.746388,310.577648 C198.970878,310.840547 199.209159,311.033878 199.461238,311.157645 C199.713317,311.281411 199.970274,311.343221 200.232118,311.343076 C200.493962,311.34293 200.752887,311.287487 201.0089,311.176747 C201.264913,311.066006 201.510998,310.909807 201.747162,310.708146 L203.261781,312.847347 C202.732178,313.291871 202.185525,313.596858 201.621807,313.762315 C201.058089,313.927772 200.501916,313.971219 199.953272,313.892656 C199.404627,313.814094 198.874317,313.621647 198.362325,313.315311 C197.850333,313.008974 197.377464,312.601825 196.943703,312.09385 C196.490918,311.563596 196.15623,311.011486 195.939631,310.437503 C195.723031,309.863521 195.62415,309.298823 195.642985,308.743394 C195.661819,308.187965 195.797392,307.654212 196.049707,307.142119 C196.302023,306.630026 196.666567,306.170423 197.14335,305.763297 C197.664692,305.318121 198.239957,305.006038 198.869162,304.827039 C199.498366,304.64804 200.152166,304.565532 200.830582,304.579512 C201.508998,304.593492 202.19774,304.687251 202.89683,304.860791 C203.59592,305.034331 204.27411,305.248822 204.931419,305.504269 L205.179091,305.60483 L201.766095,301.607891 L203.517263,300.112565 L209.487151,307.103866 L207.749351,308.587777 C207.245092,308.394264 206.720815,308.204371 206.176504,308.018092 C205.632192,307.831813 205.087375,307.665237 204.542036,307.518359 C203.996698,307.371482 203.457512,307.252105 202.924464,307.160225 C202.391415,307.068345 201.883544,307.026244 201.400835,307.033921 C200.918126,307.041597 200.467415,307.104784 200.048688,307.223483 C199.629961,307.342181 199.26019,307.538505 198.939364,307.812459 C198.756671,307.968461 198.602843,308.153748 198.477875,308.368328 C198.352907,308.582908 198.273676,308.810439 198.240177,309.050929 C198.206679,309.29142 198.228453,309.542496 198.3055,309.804166 C198.382546,310.065836 198.529508,310.323661 198.746388,310.577648 L198.746388,310.577648 Z M195.654072,301.544026 C196.026797,301.162733 196.352779,300.770582 196.632029,300.367562 C196.911278,299.964542 197.113927,299.566541 197.239982,299.173549 C197.366036,298.780557 197.395896,298.400058 197.329561,298.032041 C197.263227,297.664024 197.068747,297.322329 196.746114,297.006946 C196.423481,296.691563 196.077455,296.504898 195.708026,296.446943 C195.338597,296.388989 194.958874,296.427487 194.568848,296.562439 C194.178821,296.697391 193.786576,296.910055 193.392101,297.200439 C192.997625,297.490822 192.614031,297.826656 192.241306,298.207949 L192.001698,298.453065 C191.628973,298.834358 191.300919,299.226532 191.017527,299.629599 C190.734134,300.032666 190.529414,300.43069 190.403359,300.823683 C190.277305,301.216675 190.247445,301.597174 190.31378,301.965191 C190.380114,302.333208 190.574594,302.674903 190.897227,302.990286 C191.21986,303.305668 191.565886,303.492334 191.935315,303.550289 C192.304744,303.608243 192.684466,303.569745 193.074493,303.434793 C193.464519,303.299841 193.858836,303.087153 194.257454,302.796722 C194.656073,302.506292 195.041739,302.170435 195.414464,301.789142 L195.654072,301.544026 Z M190.220213,296.465796 C190.58065,296.097073 190.969317,295.75186 191.386226,295.430145 C191.803135,295.10843 192.237127,294.832104 192.688215,294.601158 C193.139303,294.370212 193.603448,294.195057 194.080665,294.075688 C194.557882,293.95632 195.038081,293.917715 195.521277,293.959875 C196.004473,294.002034 196.484531,294.133313 196.961465,294.353713 C197.438399,294.574114 197.905217,294.907535 198.36193,295.353986 C198.814454,295.796341 199.157349,296.254437 199.390626,296.728288 C199.623902,297.202138 199.766055,297.679089 199.817088,298.159154 C199.868122,298.63922 199.840416,299.118101 199.73397,299.595812 C199.627524,300.073523 199.463986,300.540481 199.24335,300.996701 C199.022713,301.45292 198.75632,301.893079 198.444163,302.317191 C198.132005,302.741302 197.793664,303.139809 197.429131,303.512722 C197.068693,303.881445 196.680026,304.226658 196.263118,304.548373 C195.846209,304.870088 195.412217,305.146414 194.961129,305.37736 C194.510041,305.608306 194.045895,305.783461 193.568678,305.90283 C193.091461,306.022198 192.61231,306.061826 192.131209,306.021715 C191.650108,305.981603 191.170074,305.852397 190.691091,305.634091 C190.212109,305.415785 189.744268,305.083412 189.287554,304.636961 C188.830841,304.19051 188.487922,303.730343 188.258789,303.256445 C188.029655,302.782547 187.888526,302.304548 187.835397,301.822435 C187.782269,301.340322 187.809951,300.85937 187.918445,300.379564 C188.026939,299.899757 188.191502,299.431752 188.412138,298.975532 C188.632774,298.519313 188.899167,298.079154 189.211325,297.655042 C189.523483,297.230931 189.859775,296.834519 190.220213,296.465796 L190.220213,296.465796 Z M181.38939,298.080747 L189.311402,288.27818 L191.341641,289.918931 L186.104495,296.39929 L187.881808,297.835638 L186.434411,299.626623 L185.996919,299.27306 C185.705256,299.037351 185.445967,298.871122 185.219045,298.774371 C184.992123,298.677619 184.782061,298.641576 184.588853,298.666242 C184.395646,298.690907 184.21176,298.773955 184.037191,298.915388 C183.862622,299.056821 183.677742,299.248301 183.482545,299.489834 L183.344435,299.66073 L181.38939,298.080747 Z M183.788681,292.029893 C183.456308,292.490939 183.0931,292.917105 182.699047,293.308404 C182.304994,293.699703 181.887679,294.038106 181.44709,294.323624 C181.0065,294.609142 180.546601,294.833779 180.067378,294.997543 C179.588155,295.161306 179.094817,295.244461 178.587351,295.247009 C178.079884,295.249558 177.561398,295.164702 177.031877,294.99244 C176.502357,294.820177 175.971434,294.542164 175.439092,294.158393 C175.006564,293.846579 174.642297,293.502713 174.346279,293.126787 C174.050261,292.750861 173.821397,292.361951 173.659679,291.960048 C173.497962,291.558144 173.399444,291.151244 173.364123,290.739335 C173.328802,290.327426 173.355574,289.929589 173.444439,289.545809 L175.889693,290.181796 C175.823045,290.624932 175.874393,291.032136 176.043737,291.403422 C176.213082,291.774707 176.478366,292.090553 176.839598,292.35097 C177.191324,292.604533 177.553185,292.758861 177.925191,292.813958 C178.297198,292.869055 178.664445,292.843076 179.026944,292.736018 C179.389442,292.62896 179.737095,292.449809 180.069914,292.198558 C180.402732,291.947308 180.704098,291.644498 180.97402,291.290119 C180.769531,291.323282 180.546225,291.337461 180.304098,291.332655 C180.061971,291.32785 179.81316,291.294748 179.557657,291.233349 C179.302154,291.17195 179.041156,291.083112 178.774655,290.966832 C178.508153,290.850553 178.24895,290.701612 177.997038,290.520006 C177.497968,290.16022 177.091614,289.744481 176.777965,289.272776 C176.464316,288.801071 176.254821,288.305138 176.149475,287.784961 C176.044129,287.264784 176.046775,286.737594 176.157414,286.203377 C176.268053,285.669159 176.498122,285.159652 176.847629,284.674841 C177.217694,284.161511 177.652693,283.750985 178.15264,283.443249 C178.652587,283.135513 179.185742,282.942018 179.752123,282.862757 C180.318504,282.783496 180.902923,282.821983 181.505397,282.978217 C182.10787,283.134451 182.699034,283.421582 183.278907,283.839619 C183.915816,284.298774 184.411924,284.827974 184.767246,285.427236 C185.122569,286.026498 185.331927,286.670408 185.395327,287.358986 C185.458728,288.047564 185.372134,288.768851 185.135542,289.522869 C184.898951,290.276887 184.504826,291.036506 183.953154,291.801747 L183.788681,292.029893 Z M182.683406,288.708563 C182.858159,288.466158 182.97814,288.209553 183.043352,287.938741 C183.108565,287.667929 183.117238,287.397896 183.069373,287.128633 C183.021508,286.85937 182.918433,286.599065 182.760143,286.34771 C182.601854,286.096355 182.38725,285.873024 182.116326,285.677712 C181.835896,285.475547 181.551437,285.339097 181.262939,285.268358 C180.974442,285.197619 180.697279,285.183806 180.431443,285.226917 C180.165606,285.270029 179.916907,285.367026 179.685338,285.517909 C179.453768,285.668792 179.25061,285.865434 179.075857,286.107839 C178.904531,286.345492 178.784743,286.596819 178.716491,286.861828 C178.648239,287.126836 178.635669,287.392255 178.678781,287.658092 C178.721893,287.923928 178.822592,288.18252 178.980881,288.433875 C179.139171,288.68523 179.358527,288.911986 179.638957,289.114152 C179.909881,289.309464 180.189588,289.442488 180.478085,289.513227 C180.766583,289.583966 181.046122,289.599492 181.316711,289.559807 C181.587301,289.520121 181.839896,289.42774 182.074505,289.28266 C182.309115,289.137579 182.512079,288.946216 182.683406,288.708563 L182.683406,288.708563 Z" id="APRIL-2016" fill="#FFFFFF" transform="translate(204.263604, 317.537058) rotate(-248.000000) translate(-204.263604, -317.537058) "></path>
        <g id="Combined-Shape">
            <use fill="#FFFFFF" fill-rule="evenodd" xlink:href="#path-8"></use>
            <use stroke="#000000" mask="url(#mask-9)" stroke-width="10" xlink:href="#path-8"></use>
        </g>
        <path d="M194.109375,95.3393578 C161.968798,94.2170792 126.671875,104.72217 126.671875,104.72217 L60.0156251,109.933108 L121.460938,62.9917015 L180.472656,64.1206078 L275.90625,109.933108 C275.90625,109.933108 226.249952,96.4616363 194.109375,95.3393578 Z" id="Path-31" fill="#000000"></path>
        <path d="M201.28575,24.3612913 C200.747401,24.3335221 200.226069,24.3741024 199.721738,24.4830334 C199.217408,24.5919644 198.767979,24.7741306 198.373437,25.0295374 C197.978894,25.2849442 197.655042,25.6202655 197.401868,26.0355115 C197.148695,26.4507574 197.006867,26.9538799 196.976381,27.544894 C196.947103,28.1125016 197.013429,28.5896916 197.17536,28.9764785 C197.337292,29.3632653 197.548495,29.6763155 197.808974,29.9156386 C198.069454,30.1549617 198.355344,30.3281204 198.666654,30.4351199 C198.977963,30.5421194 199.2682,30.6025606 199.537375,30.6164452 L199.660259,30.6227838 L199.82642,27.4014805 L201.766224,27.5015397 L201.472385,33.1980679 L194.573354,32.842201 L194.688354,30.6127432 L196.162956,30.6888063 C195.925338,30.5181352 195.711628,30.3105635 195.52182,30.0660851 C195.332013,29.8216066 195.172975,29.5493833 195.044702,29.249407 C194.91643,28.9494307 194.820313,28.6232488 194.75635,28.2708514 C194.692386,27.9184539 194.670517,27.5462314 194.69074,27.1541725 C194.738129,26.2354674 194.947003,25.4277803 195.31737,24.731087 C195.687737,24.0343936 196.178097,23.4568422 196.788463,22.9984155 C197.398829,22.5399888 198.102625,22.2037308 198.899873,21.9896316 C199.697121,21.7755325 200.549233,21.6918767 201.456234,21.7386618 C202.357385,21.785145 203.194149,21.9705845 203.966554,22.2949857 C204.738958,22.6193869 205.402761,23.0584576 205.957983,23.612211 C206.513205,24.1659644 206.939953,24.8216245 207.238238,25.5792108 C207.536524,26.3367971 207.661971,27.1749302 207.614582,28.0936352 C207.583794,28.690501 207.485836,29.2530906 207.320705,29.781421 C207.155573,30.3097515 206.934344,30.7882433 206.657009,31.216911 C206.379674,31.6455786 206.052321,32.0203224 205.67494,32.3411535 C205.297558,32.6619846 204.884004,32.9164066 204.434266,33.1044272 L203.294099,30.8102251 C203.570216,30.6895223 203.828519,30.5444343 204.069015,30.3749566 C204.309512,30.2054788 204.519254,30.0065488 204.69825,29.7781604 C204.877246,29.549772 205.022865,29.2859297 205.135113,28.9866256 C205.24736,28.6873215 205.313142,28.3504225 205.33246,27.9759185 C205.362945,27.3849044 205.273637,26.8698594 205.064532,26.4307682 C204.855427,25.9916769 204.567795,25.6248138 204.201626,25.3301679 C203.835456,25.035522 203.405693,24.8080051 202.912321,24.6476105 C202.418949,24.4872158 201.906022,24.3932862 201.373524,24.3658189 L201.28575,24.3612913 Z M205.444311,42.0123339 C205.297427,42.9382605 204.999318,43.7422957 204.549974,44.4244635 C204.10063,45.1066313 203.547438,45.6581118 202.890382,46.0789214 C202.233326,46.4997311 201.494287,46.7829432 200.673242,46.9285663 C199.852196,47.0741893 198.996084,47.0763129 198.10488,46.934937 C197.207889,46.7926431 196.393017,46.5254438 195.660242,46.133331 C194.927467,45.7412182 194.312359,45.2431915 193.8149,44.6392358 C193.317441,44.0352801 192.962081,43.3396719 192.748809,42.5523902 C192.535536,41.7651085 192.502343,40.9085172 192.649227,39.9825905 C192.797029,39.0508769 193.093921,38.2451655 193.539913,37.5654321 C193.985904,36.8856988 194.538866,36.3356651 195.198816,35.9153144 C195.858765,35.4949638 196.597805,35.2117517 197.415956,35.0656696 C198.234108,34.9195875 199.091667,34.9176935 199.988658,35.0599874 C200.879863,35.2013632 201.693287,35.4683331 202.428956,35.8609049 C203.164625,36.2534767 203.779733,36.7515034 204.274298,37.3550001 C204.768864,37.9584967 205.124453,38.6526583 205.341078,39.4375054 C205.557703,40.2223526 205.592113,41.0806202 205.444311,42.0123339 L205.444311,42.0123339 Z M194.923523,40.3433726 C194.837228,40.8873545 194.863981,41.3825197 195.003783,41.828883 C195.143584,42.2752464 195.373281,42.6691225 195.692881,43.0105231 C196.012482,43.3519237 196.409644,43.6344328 196.884378,43.858059 C197.359113,44.0816852 197.891612,44.2403152 198.48189,44.3339538 L198.551334,44.34497 C199.135826,44.4376906 199.689828,44.4514172 200.213357,44.3861503 C200.736887,44.3208835 201.203428,44.1753875 201.612995,43.949658 C202.022562,43.7239286 202.36288,43.4204766 202.633959,43.0392931 C202.905037,42.6581095 203.083721,42.1955337 203.170016,41.6515518 C203.25631,41.1075699 203.229786,40.610958 203.090444,40.1617011 C202.951102,39.7124442 202.721405,39.3185681 202.401345,38.9800611 C202.081286,38.641554 201.682448,38.360262 201.20482,38.1361768 C200.727191,37.9120916 200.196139,37.7536911 199.611648,37.6609706 L199.542204,37.6499543 C198.951926,37.5563158 198.396477,37.5423597 197.875841,37.6080855 C197.355204,37.6738114 196.890339,37.8180902 196.481232,38.0409261 C196.072124,38.263762 195.731806,38.567214 195.460268,38.9512911 C195.18873,39.3353682 195.009817,39.7993907 194.923523,40.3433726 L194.923523,40.3433726 Z M190.097878,49.9135541 L203.193964,49.8054705 L202.44031,52.5606991 L192.659083,52.409188 L192.635894,52.4939643 L201.146343,57.2912148 L200.401964,60.0125329 L189.184217,53.253739 L190.097878,49.9135541 Z M189.086546,57.0916979 C189.290069,57.1663955 189.466576,57.2764285 189.616073,57.4218003 C189.76557,57.5671721 189.882464,57.7333442 189.966757,57.9203217 C190.051051,58.1072992 190.099261,58.3075571 190.111389,58.5211013 C190.123516,58.7346455 190.092231,58.943176 190.017534,59.1466991 C189.942836,59.3502221 189.832298,59.5281045 189.685917,59.6803517 C189.539536,59.8325988 189.37373,59.9527474 189.188493,60.040801 C189.003256,60.1288547 188.806619,60.1799538 188.598576,60.1941001 C188.390532,60.2082464 188.184752,60.1779712 187.981229,60.1032735 C187.772205,60.0265571 187.591572,59.9150099 187.439325,59.7686287 C187.287078,59.6222475 187.167434,59.4550659 187.08039,59.267079 C186.993346,59.0790921 186.944631,58.8802094 186.934245,58.6704249 C186.923858,58.4606404 186.956013,58.2539897 187.030711,58.0504667 C187.105408,57.8469437 187.215076,57.6671814 187.359716,57.5111745 C187.504356,57.3551676 187.670668,57.2336439 187.858654,57.1465997 C188.046641,57.0595555 188.246029,57.0094657 188.456823,56.9963289 C188.667617,56.9831921 188.877522,57.0149814 189.086546,57.0916979 L189.086546,57.0916979 Z M185.937132,66.7386841 C185.796595,67.0800278 185.715658,67.4189736 185.694318,67.7555318 C185.672978,68.09209 185.71984,68.4091993 185.834907,68.7068694 C185.949973,69.0045395 186.137621,69.2798132 186.397858,69.5326987 C186.658095,69.7855842 186.999516,69.9990229 187.422132,70.1730212 L194.647203,73.1477082 L193.690217,75.4720843 L186.115677,72.3535148 C185.465498,72.0858251 184.926155,71.7259496 184.497632,71.2738774 C184.069109,70.8218052 183.757076,70.309978 183.561525,69.7383803 C183.365973,69.1667826 183.287308,68.5498529 183.325526,67.8875729 C183.363744,67.2252928 183.524504,66.5501102 183.807808,65.8620047 C184.091113,65.1738993 184.452341,64.5812531 184.891503,64.0840483 C185.330665,63.5868436 185.821454,63.2027844 186.363887,62.9318593 C186.90632,62.6609342 187.488827,62.5158202 188.111425,62.4965131 C188.734023,62.4772059 189.370402,62.6013953 190.020581,62.869085 L197.595121,65.9876545 L196.634789,68.3201578 L189.409718,65.3454708 C188.987102,65.1714725 188.594374,65.0826495 188.231523,65.078999 C187.868672,65.0753486 187.541604,65.1387044 187.250309,65.2690684 C186.959013,65.3994324 186.702464,65.5916218 186.480652,65.8456423 C186.258841,66.0996629 186.077669,66.3973405 185.937132,66.7386841 L185.937132,66.7386841 Z M191.577011,78.3596549 L190.369255,80.6041709 L185.562895,78.0179085 L188.236943,84.5669025 L186.750154,87.329979 L184.412527,81.1017394 L175.51814,81.6055078 L176.921635,78.9972254 L183.47668,78.7417604 L182.645025,76.4478266 L179.270511,74.6320289 L180.478266,72.387513 L191.577011,78.3596549 Z M171.644706,86.1812237 L184.01872,90.4710847 L182.384758,92.8140414 L173.220712,89.3912334 L173.170436,89.4633243 L179.57937,96.8367179 L177.965518,99.1508382 L169.66384,89.0216082 L171.644706,86.1812237 Z M176.034045,100.76377 L170.569077,107.261323 L168.800074,105.773449 L172.62442,101.226507 L170.572915,99.5010252 L167.048407,103.691477 L165.28613,102.20926 L168.810638,98.0188082 L166.510262,96.084006 L162.465281,100.893272 L160.703004,99.4110551 L166.388607,92.6511776 L176.034045,100.76377 Z M168.06819,109.265095 L164.614478,112.709811 C164.083454,113.239452 163.538118,113.63027 162.978454,113.882277 C162.41879,114.134285 161.873789,114.268227 161.343435,114.284108 C160.813081,114.29999 160.310838,114.211292 159.83669,114.018014 C159.362543,113.824736 158.943411,113.545561 158.579283,113.180482 C158.285498,112.88593 158.051831,112.562459 157.878275,112.210058 C157.704719,111.857657 157.58918,111.497051 157.531656,111.128229 C157.474132,110.759407 157.473575,110.3917 157.529987,110.025098 C157.586398,109.658496 157.69354,109.309574 157.851415,108.978321 L152.235472,107.255711 L154.313921,105.182674 L159.134532,106.779951 L160.5658,105.352411 L157.363144,102.141392 L159.167787,100.34145 L168.06819,109.265095 Z M160.402756,111.237624 C160.580682,111.416015 160.778344,111.54989 160.995747,111.639253 C161.21315,111.728616 161.443049,111.764132 161.685452,111.745804 C161.927855,111.727475 162.177578,111.652188 162.434631,111.51994 C162.691684,111.387692 162.948813,111.193299 163.206028,110.936754 L164.674633,109.471973 L162.167128,106.95792 L160.698522,108.422701 C160.441308,108.679245 160.247279,108.936904 160.11643,109.195686 C159.985581,109.454467 159.911711,109.706068 159.89482,109.950496 C159.877928,110.194925 159.91388,110.425953 160.002675,110.643588 C160.091471,110.861223 160.22483,111.059233 160.402756,111.237624 L160.402756,111.237624 Z M158.773704,117.541485 L156.809082,119.165302 L148.779584,109.450584 L150.744206,107.826766 L158.773704,117.541485 Z M154.511159,120.853376 L147.753096,125.992701 L146.35388,124.152772 L151.083125,120.556309 L149.46046,118.422552 L145.101999,121.737044 L143.708103,119.904112 L148.066565,116.58962 L144.853156,112.364081 L146.881975,110.82122 L154.511159,120.853376 Z M143.985579,127.969533 L139.218452,125.242094 L139.188792,125.260968 L139.595863,130.762899 L137.185968,132.29642 L136.727036,123.733444 L133.971417,119.403048 L136.144031,118.02052 L138.899649,122.350916 L146.46221,126.393545 L143.985579,127.969533 Z M132.735358,134.032466 L130.449177,135.159366 L125.918264,125.967342 L121.440503,128.174511 L120.399093,126.061765 L127.163034,122.727697 L132.735358,134.032466 Z M123.795442,137.928993 L121.432281,138.883977 L116.71005,127.198553 L119.073211,126.243569 L123.795442,137.928993 Z M112.093349,128.785684 L119.685264,139.457234 L116.995293,140.418136 L111.51537,132.314692 L111.432602,132.344259 L112.376818,142.067932 L109.719954,143.017008 L108.832276,129.950594 L112.093349,128.785684 Z M107.163552,143.215215 L98.9402859,145.327553 L98.3651877,143.088714 L104.119772,141.610514 L103.452833,139.014142 L98.1494218,140.376446 L97.5765103,138.146119 L102.879921,136.783815 L102.132075,133.872472 L96.0454958,135.435952 L95.4725843,133.205625 L104.027846,131.008006 L107.163552,143.215215 Z" id="GOV.UK-VERIFY-LIVE" fill="#FFFFFF" transform="translate(151.216460, 83.526815) rotate(-141.000000) translate(-151.216460, -83.526815) "></path>
        <path d="M80.830686,105.939125 C86.9778281,103.927327 98.8116688,101.394045 119.428923,101.394045 C153.624234,101.394045 166.908203,104.020998 187.526581,115.942873 C194.472656,113.078616 212.186736,104.020998 212.186736,104.020998 L233.382048,76.7260765 L232.928925,125.896975 L219.183594,146.317873 L238.003142,191.520998 C238.003142,191.520998 239.003145,216.819827 239.003143,226.657717 C239.003142,236.495608 231.555878,255.022952 227.928923,257.907717 C224.301968,260.792483 220.183594,277.288577 220.183594,277.288577 C220.183594,277.288577 198.774628,284.94092 187.526579,289.804202 C176.278531,294.667483 161.409392,300.673342 161.409392,300.673342 C161.409392,300.673342 160.928923,315.895022 159.6875,326.073733 C158.962552,332.017745 158.780996,340.87752 153.374817,347.286199 C144.934784,352.507327 139.944952,355.956161 129.958984,357.739748 C104.447266,355.956149 101.882813,346.373537 101.882813,346.373537 C101.882813,346.373537 140.443785,349.832522 144.934783,330.362795 C149.42578,310.893069 146.624234,283.44678 144.934783,266.052248 C143.245331,248.657717 115.541016,233.761233 106.746092,233.761233 C97.9511689,233.761233 78.8789063,253.243655 65.1992173,253.243655 L30.7043138,253.243655 C30.7043138,253.243655 17.786345,251.94092 9.81759501,245.187014 C4.47851562,237.569827 4,231.623965 4,222.459902 C4,213.29584 20.7980638,183.07178 20.7980638,183.07178 C20.7980638,183.07178 23.4074388,179.382327 23.4074388,175.214358 C23.4074388,171.046389 27.9250169,160.970217 27.9250169,160.970217 C27.9250169,160.970217 34.5480638,144.301272 39.8984375,136.779787 C45.2488112,129.258303 53.078125,119.626467 59.2218919,115.942873 C60.1984538,115.35736 61.2682708,114.766468 62.3770231,114.1867 L63.1601563,81.0424828 L80.830686,105.939125 Z" id="Combined-Shape" stroke="#000000" stroke-width="7" fill="url(#linearGradient-10)"></path>
        <path d="M81.3971236,275.85303 C83.6139205,292.569827 96.2926314,301.904787 97.6289063,308.424319 C98.9651813,314.94385 108.606108,325.87842 116.268217,322.44678 C123.930327,319.015139 135.27017,303.528811 133.205717,294.823733 C131.141264,286.118655 120.567045,278.649905 120.567045,267.032717 C120.567045,255.41553 120.567047,248.679202 120.567047,248.679202 C120.567047,248.679202 110.787109,246.300295 100.921875,246.300295 C91.0566407,246.300295 83.9400923,251.769045 83.9400923,251.769045 C83.9400923,251.769045 79.1803267,259.136233 81.3971236,275.85303 Z" id="Path-7" fill="#B6560B"></path>
        <path d="M76.8085938,190.397952 L92.1757813,190.44092 L104.292969,193.179202 L113.242188,182.323733 L131.304688,174.116702 C131.304688,174.116702 115.925781,174.65967 111.242188,174.65967 C106.558594,174.65967 105.292969,171.26758 98.2500001,173.726077 C93.6591475,175.32861 94.4338627,178.110754 89.0156251,182.323732 C83.5973874,186.536711 76.8085938,190.397952 76.8085938,190.397952 Z" id="Path-15" fill="#000000"></path>
        <path d="M9.80859383,223.979983 C9.80859383,223.979983 13.7374951,233.137661 15.810547,236.209713 C17.8835988,239.281764 27.0507813,245.085452 27.0507813,245.085452 L31.7851563,254.772952 L44.9023438,254.772952 L33.966797,243.271974 C33.966797,243.271974 46.7294923,234.089357 53.1445313,220.854983 C53.1445313,220.854983 37.050004,217.054317 27.7343751,217.726077 C18.4187462,218.397836 9.80859383,223.979983 9.80859383,223.979983 Z" id="Path-17" fill="#000000"></path>
        <polygon id="Path-19" fill="#000000" points="66.2734376 159.968264 50.8085938 164.788577 75.4843751 148.726077 79.7812501 165.745608"></polygon>
        <polygon id="Path-20" fill="#000000" points="25.7695394 163.726077 36.8867269 175.452639 22.3359456 186.569827"></polygon>
        <path d="M89.8085938,241.593753 C89.8085938,241.593753 106.404017,234.442417 108.868954,222.713311 C111.333891,210.984204 108.868954,204.726077 108.868954,204.726077 C108.868954,204.726077 117.941895,209.62522 117.941895,222.713311 C117.941895,235.801401 103.875244,244.351077 103.875244,244.351077 L89.8085938,241.593753 Z" id="Path-21" fill="#000000"></path>
        <path d="M127.726563,101.954507 L106.46875,110.484014 C106.46875,110.484014 89.3242188,113.01624 69.8701173,118.014162 C88.3603516,115.945803 92.3486329,116.950686 97.9062501,118.014162 C92.3486329,121.911623 91.6894532,123.043151 88.3603516,125.498537 C77.2763673,126.507019 62.7617188,133.456545 62.7617188,133.456545 C62.7617188,133.456545 68.8388673,131.015138 88.3603516,131.015138 C107.881836,131.015138 121.475586,137.438966 121.475586,137.438966 C121.475586,137.438966 111.71875,127.835758 101.632813,126.761539 C101.632813,126.761539 105.498047,123.140376 111.975586,119.855917 C111.975586,119.855917 127.726563,118.014162 153.203125,126.761539 C137.066406,116.969548 124.410156,112.484014 124.410156,112.484014 L148.244141,105.214358 L127.726563,101.954507 Z" id="Path-22" fill="#000000"></path>
        <polygon id="Path-20" fill="#FFFFFF" points="28.4098078 171.726077 31.8867269 175.239233 27.3359456 178.569827"></polygon>
        <path d="M216.605469,143.483889 C216.605469,143.483889 228.433868,149.09717 239.127091,169.15967 C249.820313,189.22217 253.941406,204.952639 255.884842,212.81592 C246.786133,206.403811 239.12709,204.952639 239.12709,204.952639 C239.12709,204.952639 235.865032,188.053225 231.035156,175.562014 C226.20528,163.070803 216.605469,143.483889 216.605469,143.483889 Z" id="Path-24" fill="#000000"></path>
        <path d="M240.472656,199.500491 C240.472656,199.500491 237.917361,197.458743 238.041016,199.500491 C238.496391,207.019471 234.216757,237.471425 225.693359,251.048342 C221.200623,258.204821 217.42087,266.4126 204.075195,269.65967 C200.948242,278.389162 190.833984,284.454592 190.833984,284.454592 C190.833984,284.454592 218.639551,275.892092 221.183594,275.892092 C223.727636,275.892092 223.855469,289.286623 223.855469,289.286623 C223.855469,289.286623 240.60532,269.405764 243.351563,240.688967 C246.097805,211.97217 240.472656,199.500491 240.472656,199.500491 Z" id="Path-25" fill="#000000"></path>
        <polygon id="Path-26" fill="#000000" points="16.5820313 222.468264 35.7929688 175.780764 9.81250008 224.331545"></polygon>
        <polygon id="Path-31" fill="#000000" points="160.414063 300.15967 163.918913 314.835452 179.99223 314.569827 189.689453 291.44092"></polygon>
        <path d="M235.641602,292.244631 C263.809521,264.65967 263.933314,253.828616 265.951032,227.65967 C267.96875,201.490725 257.019364,161.351077 257.019364,161.351077 C257.019364,161.351077 274.342465,195.040111 275.803711,220.570803 C277.264957,246.101495 274.96875,255.686037 274.96875,255.686037 C274.96875,255.686037 262.251904,274.468264 235.641602,292.244631 Z" id="Path-32" fill="#000000"></path>
        <path d="M99.475586,178.451662 C104.166016,177.322756 108.150391,181.633303 108.150391,181.633303 C108.150391,181.633303 107.272461,185.694827 103.374024,187.181155 C99.475586,188.667482 95.4814454,184.335452 95.4814454,184.335452 C95.4814454,184.335452 94.7851563,179.580569 99.475586,178.451662 Z" id="Path-31" fill="#FFFFFF"></path>
        <circle id="Oval-2" fill="#000000" cx="100.808594" cy="183.726077" r="2"></circle>
        <path d="M157.677734,298.163577 C157.677734,298.163577 177.398438,268.804202 172.019531,243.675295 C166.640625,218.546389 152.857422,208.894045 152.857422,208.894045 C152.857422,208.894045 169.735352,203.573733 177.398438,189.37842 C185.061524,175.183108 179.796875,161.511233 172.882813,151.640139 C183.620512,160.492678 191.835938,173.929202 188.335938,189.37842 C184.835938,204.827639 173.179688,215.608889 173.179688,215.608889 L183.620512,231.249514 C183.620512,231.249514 194.682617,226.125491 201.146484,212.772952 C207.610352,199.420412 208.535156,192.273928 206.036133,174.921389 C214.548828,189.37842 218.041016,201.431155 212.289063,219.126467 C206.537109,236.82178 189.420899,248.052248 189.420899,248.052248 C189.420899,248.052248 191.289063,259.519045 188.335938,271.419436 C185.382813,283.319827 179.796875,296.931155 179.796875,296.931155 L157.677734,298.163577 Z" id="Path-55" fill="#000000"></path>
        <path d="M164.435827,236.198403 L167.506322,227.095884 L169.746558,227.851569 L168.620054,231.191102 L178.32219,234.463863 L177.504702,236.887315 L167.802566,233.614554 L166.676062,236.954087 L164.435827,236.198403 Z M168.735196,225.118377 L170.654305,220.633824 C170.949377,219.944303 171.309522,219.378242 171.734751,218.935622 C172.15998,218.493002 172.615654,218.165393 173.101786,217.952784 C173.587919,217.740176 174.086989,217.635083 174.599011,217.637501 C175.111033,217.63992 175.60406,217.742559 176.078105,217.94542 C176.460573,218.109093 176.798054,218.322027 177.090558,218.584228 C177.383062,218.846429 177.624799,219.137889 177.815776,219.458618 C178.006754,219.779346 178.14446,220.120294 178.228901,220.481471 C178.313341,220.842649 178.344118,221.20635 178.321233,221.572586 L184.174362,221.075514 L183.019438,223.774326 L177.950974,224.090945 L177.155667,225.949408 L181.325089,227.733661 L180.322311,230.076941 L168.735196,225.118377 Z M175.111177,220.428323 C174.879542,220.329197 174.646204,220.278736 174.411159,220.276938 C174.176113,220.275141 173.949563,220.327964 173.731502,220.435409 C173.513441,220.542854 173.309838,220.705876 173.120688,220.92448 C172.931539,221.143085 172.765504,221.419376 172.622578,221.753363 L171.806524,223.660308 L175.070956,225.057281 L175.88701,223.150336 C176.029935,222.81635 176.113821,222.504904 176.138671,222.215989 C176.163522,221.927075 176.138185,221.666081 176.062661,221.433 C175.987137,221.199919 175.867586,220.998986 175.704003,220.830195 C175.54042,220.661404 175.342813,220.527448 175.111177,220.428323 L175.111177,220.428323 Z M185.821387,214.579406 C185.996612,214.254502 186.112311,213.925794 186.168486,213.593272 C186.224662,213.260749 186.210984,212.940488 186.127452,212.632478 C186.04392,212.324468 185.885873,212.031196 185.653305,211.752652 C185.420737,211.474109 185.103327,211.226369 184.701065,211.009423 L177.823973,207.300512 L179.017166,205.088084 L186.226896,208.976392 C186.84576,209.310154 187.344814,209.724093 187.724074,210.218222 C188.103334,210.712351 188.360527,211.253815 188.495662,211.84263 C188.630797,212.431445 188.644971,213.053208 188.538183,213.707938 C188.431395,214.362669 188.201388,215.017506 187.848157,215.672471 C187.494925,216.327435 187.074106,216.879364 186.585685,217.328275 C186.097264,217.777185 185.569244,218.1082 185.001609,218.32133 C184.433974,218.53446 183.839547,218.618297 183.21831,218.572845 C182.597073,218.527392 181.977032,218.337787 181.358168,218.004025 L174.148438,214.115718 L175.345803,211.895555 L182.222895,215.604466 C182.625157,215.821411 183.006537,215.950538 183.367047,215.99185 C183.727557,216.033162 184.059436,216.004114 184.362694,215.904705 C184.665953,215.805296 184.941074,215.640788 185.188065,215.411176 C185.435057,215.181563 185.646162,214.904309 185.821387,214.579406 L185.821387,214.579406 Z M189.333124,206.839111 C189.580289,206.807758 189.844656,206.745608 190.126235,206.652659 C190.407813,206.559711 190.687502,206.435472 190.965308,206.279939 C191.243115,206.124406 191.510526,205.931855 191.76755,205.702283 C192.024574,205.47271 192.261087,205.197542 192.477094,204.876772 C192.879653,204.278972 193.062966,203.736635 193.027039,203.249743 C192.991112,202.762851 192.793325,202.398316 192.433674,202.156126 C192.059441,201.904117 191.681034,201.852387 191.298439,202.000932 C190.915844,202.149478 190.46411,202.489868 189.943221,203.022112 L189.663984,203.310898 C189.291666,203.695947 188.896689,204.062196 188.479043,204.409656 C188.061396,204.757116 187.615683,205.025624 187.141891,205.215186 C186.668099,205.404748 186.17167,205.483696 185.65259,205.452031 C185.13351,205.420366 184.589659,205.213075 184.021021,204.830153 C183.69053,204.6076 183.393341,204.301513 183.129444,203.911881 C182.865547,203.52225 182.688907,203.065995 182.599518,202.543102 C182.510129,202.020209 182.5376,201.441802 182.681933,200.807862 C182.826265,200.173922 183.13898,199.49974 183.620088,198.785297 C184.189562,197.939629 184.83739,197.279193 185.563591,196.80397 C186.289793,196.328746 187.01877,196.040836 187.750543,195.940229 L188.115297,198.2309 C187.606289,198.304915 187.110511,198.506154 186.627948,198.834624 C186.145384,199.163094 185.743739,199.56547 185.423001,200.041766 C185.05317,200.590964 184.868839,201.090231 184.87,201.539583 C184.871162,201.988936 185.039416,202.32652 185.374767,202.552345 C185.593474,202.699623 185.809273,202.772537 186.022171,202.771089 C186.235069,202.769641 186.449449,202.710915 186.665317,202.594909 C186.881185,202.478904 187.105801,202.315813 187.33917,202.105631 C187.57254,201.89545 187.825543,201.656111 188.098187,201.387608 L188.24026,201.23957 C188.599486,200.873962 188.977727,200.524699 189.374992,200.19177 C189.772257,199.858841 190.200043,199.60122 190.658363,199.418898 C191.116683,199.236577 191.602103,199.16611 192.114637,199.207496 C192.627171,199.248881 193.172609,199.464304 193.750968,199.853772 C194.275866,200.207239 194.666366,200.629142 194.922481,201.119495 C195.178597,201.609847 195.327717,202.130572 195.369846,202.681685 C195.411975,203.232798 195.345996,203.792338 195.171905,204.360322 C194.997814,204.928307 194.738949,205.467449 194.395301,205.977766 C194.04838,206.492942 193.683088,206.940991 193.299413,207.321924 C192.915738,207.702857 192.523437,208.017928 192.122498,208.267146 C191.721559,208.516364 191.327368,208.713607 190.939914,208.85888 C190.552459,209.004152 190.174157,209.104369 189.804998,209.159532 L189.333124,206.839111 Z M187.943199,193.662068 L193.981386,186.190516 L195.820222,187.676584 L193.604931,190.417748 L201.568662,196.853693 L199.961057,198.842917 L191.997326,192.406972 L189.782035,195.148136 L187.943199,193.662068 Z M204.017291,185.287057 C203.780659,185.043129 203.603584,184.765925 203.486059,184.455434 C203.368534,184.144944 203.310122,183.830177 203.310822,183.511122 C203.311523,183.192068 203.374269,182.880176 203.499063,182.575437 C203.623857,182.270697 203.810318,181.997976 204.058451,181.757265 C204.302379,181.520634 204.579583,181.343558 204.890073,181.226033 C205.200564,181.108508 205.517371,181.052199 205.840505,181.057105 C206.16364,181.062011 206.478592,181.127912 206.785371,181.254809 C207.09215,181.381706 207.363851,181.567115 207.600482,181.811043 C207.837114,182.05497 208.013169,182.331123 208.128654,182.639511 C208.24414,182.947898 208.297388,183.261551 208.288403,183.58048 C208.279417,183.899408 208.211476,184.212258 208.084579,184.519037 C207.957682,184.825816 207.772273,185.097517 207.528346,185.334148 C207.280212,185.574859 207.001956,185.752955 206.693569,185.86844 C206.385182,185.983925 206.073568,186.039277 205.75872,186.034497 C205.443871,186.029717 205.134082,185.96493 204.829342,185.840136 C204.524603,185.715342 204.253922,185.530984 204.017291,185.287057 L204.017291,185.287057 Z M220.75007,176.783668 C221.038902,176.553792 221.274493,176.29702 221.456852,176.013344 C221.639211,175.729669 221.75252,175.429809 221.796782,175.113758 C221.841044,174.797706 221.810995,174.465916 221.706634,174.118378 C221.602274,173.770839 221.407793,173.418275 221.123185,173.060674 L216.257514,166.94711 L218.224307,165.381776 L223.325326,171.791047 C223.763183,172.341202 224.05936,172.917986 224.213864,173.521418 C224.368368,174.12485 224.392025,174.723826 224.284836,175.318363 C224.177648,175.912901 223.946282,176.490188 223.590734,177.050242 C223.235186,177.610297 222.766295,178.122016 222.184048,178.585415 C221.601801,179.048815 220.997906,179.390906 220.372345,179.611698 C219.746784,179.83249 219.131153,179.929311 218.525433,179.902165 C217.919713,179.875018 217.340179,179.718454 216.786812,179.432469 C216.233446,179.146484 215.737842,178.728421 215.299984,178.178266 L210.198965,171.768996 L212.172636,170.198189 L217.038307,176.311752 C217.322914,176.669353 217.62284,176.937996 217.938093,177.117689 C218.253346,177.297382 218.56993,177.401124 218.887853,177.428919 C219.205776,177.456715 219.523416,177.41359 219.840781,177.299545 C220.158146,177.185501 220.461239,177.013543 220.75007,176.783668 L220.75007,176.783668 Z M227.02607,171.039991 C227.265681,171.108254 227.53321,171.154955 227.828665,171.180095 C228.124121,171.205235 228.43013,171.200857 228.746702,171.166962 C229.063275,171.133066 229.38483,171.061046 229.711377,170.950899 C230.037923,170.840752 230.363519,170.680618 230.688172,170.470493 C231.293209,170.078894 231.674837,169.65217 231.833069,169.190308 C231.991302,168.728446 231.95262,168.315518 231.717025,167.951512 C231.471878,167.57275 231.144214,167.376524 230.734023,167.362828 C230.323831,167.349133 229.774694,167.484697 229.086594,167.769526 L228.716359,167.925399 C228.22271,168.13323 227.715609,168.314872 227.195042,168.47033 C226.674474,168.625788 226.159113,168.697614 225.648943,168.685812 C225.138773,168.674009 224.65124,168.551592 224.18633,168.318557 C223.721421,168.085521 223.302724,167.681248 222.930228,167.105726 C222.713735,166.771234 222.560682,166.373006 222.471064,165.911029 C222.381446,165.449052 222.398243,164.960086 222.521454,164.444114 C222.644665,163.928143 222.89715,163.407028 223.278917,162.880752 C223.660684,162.354477 224.213106,161.857343 224.936198,161.389335 C225.792103,160.835367 226.647296,160.48252 227.501803,160.330783 C228.35631,160.179047 229.139785,160.200655 229.852251,160.395607 L229.28781,162.645413 C228.790647,162.513518 228.255672,162.503817 227.682867,162.616309 C227.110062,162.728801 226.582637,162.941046 226.100575,163.253051 C225.544729,163.612812 225.179083,163.999529 225.003627,164.413212 C224.828171,164.826895 224.850281,165.203437 225.069959,165.542847 C225.213226,165.764202 225.383033,165.916029 225.579384,165.998332 C225.775735,166.080636 225.99595,166.110848 226.240036,166.088971 C226.484121,166.067093 226.754748,166.005352 227.051924,165.903745 C227.3491,165.802139 227.675786,165.681431 228.03199,165.54162 L228.220796,165.461296 C228.69477,165.266199 229.179807,165.093603 229.675923,164.943501 C230.172038,164.7934 230.666637,164.724542 231.159735,164.736925 C231.652832,164.749309 232.126909,164.8752 232.581981,165.114603 C233.037053,165.354006 233.454014,165.766381 233.832877,166.351741 C234.17672,166.882993 234.370085,167.424383 234.41298,167.975927 C234.455874,168.527471 234.388444,169.064914 234.210686,169.58827 C234.032928,170.111627 233.752442,170.600264 233.36922,171.054196 C232.985997,171.508128 232.536146,171.902233 232.019651,172.236525 C231.498238,172.574 230.986301,172.842526 230.483825,173.042111 C229.981348,173.241696 229.496813,173.377325 229.030204,173.449002 C228.563595,173.520679 228.12361,173.54721 227.710235,173.528596 C227.29686,173.509981 226.909602,173.453528 226.54845,173.359236 L227.02607,171.039991 Z M231.852208,157.886731 L239.355291,153.913342 L240.437073,155.956107 L235.186468,158.736657 L236.441006,161.105643 L241.279951,158.543095 L242.357619,160.578093 L237.518674,163.14064 L238.925402,165.797012 L244.478926,162.856046 L245.556595,164.891044 L237.750592,169.024849 L231.852208,157.886731 Z M242.373908,152.994059 L246.86176,151.082677 C247.551788,150.788793 248.203418,150.629082 248.816671,150.603538 C249.429924,150.577995 249.985615,150.656571 250.483761,150.839269 C250.981906,151.021968 251.415029,151.291263 251.783143,151.647162 C252.151257,152.003062 252.436332,152.418203 252.638377,152.892597 C252.80139,153.275346 252.897841,153.662556 252.927732,154.054238 C252.957623,154.44592 252.930611,154.823618 252.846697,155.187345 C252.762783,155.551072 252.626411,155.892556 252.437577,156.211807 C252.248742,156.531058 252.019407,156.815013 251.749562,157.063683 L256.320555,160.753158 L253.619758,161.903431 L249.740272,158.626364 L247.880441,159.418469 L249.65751,163.590958 L247.312506,164.589698 L242.373908,152.994059 Z M250.222691,154.01697 C250.123965,153.785164 249.990349,153.587327 249.821841,153.423454 C249.653332,153.25958 249.453179,153.14103 249.221377,153.0678 C248.989574,152.994571 248.729772,152.97148 248.441963,152.998528 C248.154154,153.025576 247.843138,153.110273 247.508906,153.252623 L245.600558,154.065391 L246.991907,157.332224 L248.900255,156.519456 C249.234487,156.377106 249.51049,156.210199 249.728272,156.018731 C249.946054,155.827263 250.108278,155.621246 250.214951,155.400675 C250.321623,155.180104 250.374262,154.952297 250.37287,154.717249 C250.371477,154.4822 250.321418,154.248776 250.222691,154.01697 L250.222691,154.01697 Z M257.621853,157.130359 C257.835576,157.258406 258.081852,157.372864 258.36069,157.473737 C258.639527,157.574611 258.93621,157.649712 259.250747,157.699043 C259.565284,157.748374 259.894516,157.762175 260.238454,157.740447 C260.582391,157.718719 260.938369,157.648466 261.306396,157.529686 C261.992265,157.308323 262.47147,156.99512 262.744025,156.590067 C263.01658,156.185014 263.086268,155.776175 262.953091,155.363538 C262.814514,154.934173 262.548921,154.659712 262.156303,154.540148 C261.763685,154.420583 261.198177,154.409156 260.459763,154.505866 L260.061777,154.560431 C259.531126,154.633185 258.994273,154.677158 258.451201,154.69235 C257.90813,154.707543 257.391767,154.643313 256.902097,154.499658 C256.412428,154.356004 255.973297,154.111385 255.584692,153.765794 C255.196088,153.420203 254.896508,152.921209 254.685943,152.268796 C254.563564,151.889617 254.518979,151.465325 254.552187,150.995909 C254.585395,150.526494 254.728376,150.058597 254.981134,149.592206 C255.233892,149.125815 255.612839,148.687969 256.117985,148.278653 C256.623131,147.869338 257.285543,147.532407 258.105241,147.267852 C259.075495,146.954705 259.992923,146.835619 260.857554,146.91059 C261.722184,146.985562 262.473273,147.209537 263.110843,147.582523 L261.982464,149.609092 C261.53649,149.352822 261.022318,149.204767 260.439933,149.16492 C259.857548,149.125074 259.293132,149.193335 258.746667,149.369705 C258.116559,149.57307 257.663162,149.851777 257.386462,150.205833 C257.109762,150.559889 257.033502,150.92929 257.157681,151.314046 C257.238668,151.564974 257.36331,151.755631 257.531613,151.886022 C257.699915,152.016413 257.904769,152.102681 258.146182,152.144828 C258.387594,152.186974 258.664975,152.197501 258.978332,152.176407 C259.291689,152.155313 259.638498,152.123421 260.018769,152.080731 L260.221944,152.052099 C260.73029,151.986543 261.243489,151.945588 261.761557,151.92923 C262.279624,151.912872 262.775165,151.974587 263.248195,152.114376 C263.721224,152.254165 264.146459,152.498651 264.523911,152.847842 C264.901363,153.197032 265.197167,153.703402 265.411331,154.366967 C265.605698,154.969194 265.652104,155.542203 265.550551,156.086011 C265.448998,156.62982 265.244547,157.131409 264.937193,157.590793 C264.629838,158.050176 264.232268,158.449396 263.74447,158.788463 C263.256672,159.127531 262.720032,159.391545 262.134534,159.580513 C261.54346,159.771281 260.979412,159.897914 260.442374,159.960415 C259.905335,160.022916 259.402204,160.028299 258.932966,159.976563 C258.463727,159.924827 258.031905,159.83639 257.637488,159.711249 C257.24307,159.586109 256.883686,159.431194 256.559325,159.246501 L257.621853,157.130359 Z M272.744256,150.587497 C272.684431,150.252958 272.692589,149.924124 272.768731,149.600986 C272.844873,149.277847 272.972419,148.98421 273.151372,148.720066 C273.330326,148.455923 273.556719,148.232405 273.830558,148.049507 C274.104397,147.866609 274.411465,147.744734 274.751771,147.683878 C275.08631,147.624053 275.415143,147.632211 275.738282,147.708353 C276.061421,147.784495 276.355574,147.914925 276.620749,148.099646 C276.885924,148.284367 277.110215,148.515086 277.293629,148.791809 C277.477043,149.068532 277.59866,149.374159 277.658485,149.708697 C277.718309,150.043235 277.709893,150.370627 277.633235,150.690882 C277.556578,151.011137 277.425375,151.300964 277.239622,151.560371 C277.053869,151.819778 276.822635,152.041185 276.545911,152.224599 C276.269188,152.408013 275.963562,152.52963 275.629024,152.589455 C275.288717,152.650311 274.958442,152.64241 274.638187,152.565753 C274.317932,152.489095 274.028621,152.360776 273.770245,152.180791 C273.511869,152.000806 273.291236,151.773897 273.108338,151.500058 C272.92544,151.226219 272.80408,150.922035 272.744256,150.587497 L272.744256,150.587497 Z M296.783213,148.285487 C296.8572,149.225945 296.797591,150.093147 296.604382,150.887116 C296.411173,151.681086 296.083534,152.37248 295.621454,152.961319 C295.159375,153.550157 294.560489,154.024855 293.82478,154.385426 C293.08907,154.745997 292.213031,154.96626 291.196635,155.046222 L286.570304,155.410183 L285.58182,142.84549 L290.20815,142.481529 C291.224546,142.401567 292.124252,142.48213 292.907295,142.723218 C293.690338,142.964306 294.356087,143.339513 294.904562,143.84885 C295.453036,144.358186 295.884762,144.98984 296.199751,145.743829 C296.51474,146.497818 296.709226,147.345029 296.783213,148.285487 L296.783213,148.285487 Z M294.126553,148.247637 C294.084734,147.716073 293.980074,147.226196 293.812569,146.777989 C293.645064,146.329783 293.403414,145.94766 293.087613,145.631609 C292.771812,145.315558 292.375487,145.077845 291.898625,144.918464 C291.421763,144.759083 290.856225,144.705128 290.201993,144.756598 L288.300641,144.90618 L288.933437,152.949686 L290.834789,152.800104 C291.483179,152.749094 292.030402,152.607596 292.476474,152.375607 C292.922546,152.143617 293.276709,151.845393 293.538972,151.480926 C293.801236,151.116459 293.981388,150.698213 294.079435,150.226177 C294.177482,149.75414 294.205825,149.255268 294.164466,148.729546 L294.126553,148.247637 Z M299.307658,142.571871 L307.796263,142.738199 L307.750979,145.049279 L301.810713,144.932883 L301.758197,147.613033 L307.232733,147.720303 L307.187621,150.022595 L301.713086,149.915326 L301.654199,152.920608 L307.937173,153.043718 L307.892061,155.346011 L299.060748,155.172968 L299.307658,142.571871 Z M310.869536,143.389053 L313.404911,143.650577 L312.353404,153.844536 L317.319243,154.356762 L317.077559,156.699799 L309.576344,155.926048 L310.869536,143.389053 Z M320.460791,144.81334 L322.971558,145.252174 L320.801601,157.667483 L318.290834,157.228649 L320.460791,144.81334 Z M325.574852,158.752778 L324.749716,145.682266 L327.542084,146.283898 L327.926475,156.058743 L328.012394,156.077254 L332.336365,147.316853 L335.094366,147.91108 L328.960062,159.482141 L325.574852,158.752778 Z M337.304613,149.040488 L345.416621,151.546361 L344.73438,153.75491 L339.057654,152.001317 L338.266462,154.562562 L343.498119,156.178669 L342.818473,158.37882 L337.586815,156.762713 L336.699642,159.634667 L342.703872,161.489428 L342.024225,163.689579 L333.584714,161.082537 L337.304613,149.040488 Z M348.199725,153.036592 L352.721976,154.865101 C353.417293,155.146242 353.990484,155.494927 354.441569,155.911166 C354.892653,156.327405 355.229362,156.776397 355.451707,157.258154 C355.674052,157.739912 355.789163,158.236767 355.797045,158.748734 C355.804927,159.260701 355.712226,159.755692 355.518942,160.233722 C355.362996,160.619406 355.156894,160.961102 354.90063,161.258821 C354.644366,161.55654 354.357828,161.804091 354.041006,162.001482 C353.724185,162.198872 353.386076,162.34341 353.02667,162.435099 C352.667264,162.526787 352.304256,162.564874 351.937633,162.549361 L352.552348,168.391307 L349.830849,167.290907 L349.412336,162.229837 L347.53825,161.472076 L345.838231,165.676547 L343.475253,164.72111 L348.199725,153.036592 Z M353.017091,159.316937 C353.111537,159.083354 353.157294,158.849049 353.154363,158.614015 C353.151432,158.37898 353.094062,158.153539 352.982253,157.937683 C352.870443,157.721828 352.703358,157.521546 352.480992,157.336832 C352.258627,157.152118 351.979052,156.991674 351.642258,156.855496 L349.719283,156.077968 L348.38826,159.369841 L350.311235,160.147369 C350.648029,160.283547 350.961099,160.361151 351.250455,160.380184 C351.539811,160.399218 351.800243,160.368636 352.031757,160.288439 C352.263272,160.208242 352.461759,160.084672 352.627225,159.917727 C352.792691,159.750781 352.922645,159.55052 353.017091,159.316937 L353.017091,159.316937 Z M360.451713,158.82415 L360.524883,164.315877 L360.55621,164.331833 L365.088106,161.185585 L367.633423,162.481981 L360.491444,167.228275 L358.16192,171.802014 L355.867219,170.633263 L358.196743,166.059525 L357.835911,157.491854 L360.451713,158.82415 Z" id="TRUST----USERS----" fill="#FFFFFF" transform="translate(266.034625, 189.702871) rotate(-253.500000) translate(-266.034625, -189.702871) "></path>
        <polygon id="Fill-240" fill="#000000" points="219.886364 113.726077 206.943735 127.297154 201.677552 121.776195 197.808594 125.833202 206.943735 135.412381 223.755727 117.783084"></polygon>
    </g>
</svg>