<svg xmlns="http://www.w3.org/2000/svg" width="170.593" height="170.593" viewBox="0 0 45.136 45.136">
  <defs>
    <clipPath id="a">
      <path d="M115 487h129v129H115Zm0 0"/>
    </clipPath>
    <clipPath id="b">
      <path d="M243.004 551.035c0-35.332-28.64-63.972-63.973-63.972-35.328 0-63.969 28.64-63.969 63.972s28.641 63.973 63.97 63.973c35.331 0 63.972-28.64 63.972-63.973m0 0" clip-rule="evenodd"/>
    </clipPath>
    <clipPath id="c">
      <path d="M137 519h92v64h-92zm0 0"/>
    </clipPath>
    <clipPath id="d">
      <path d="M140.559 561.82c1.109 1.746 2.996 5.348 2.996 5.348s-.149 1.789-.235 4.648c-.082 2.856-1.918 3.946-1.918 3.946s-1.68-1.313-2.832-.578c-1.234.789-1.148 1.039-1.148 1.039s.82.554 2.3 1.601c1.481 1.051 2.876.621 2.876.621s2.004-.984 4.816-2.797c2.809-1.812 4.152-2.949 4.152-2.949s8.375 3.625 14.809 3.703c6.434.075 10.656-1.734 13.918-2.195 3.266-.465 11.687-1.21 12-.836.633.758.121.996.875 2.227a82 82 0 0 1 1.902 3.261s-.175-.492-1.906.61c-1.726 1.101-.73 3.414-.73 3.414s2.14-.75 4.52-1.922c2.378-1.172 9.151-4.828 11.98-6.715 5.164-3.45 11.867-9.883 14.828-14.262 6.61-9.773 5.168-20.625-.492-29.332-5.66-8.71-20.813-11.953-21.895-10.828-1.086 1.121 9.555 10.957 11.723 18.739 2.164 7.777 2.336 23.214 1.507 25.421-.828 2.207-1.343 4.926-1.343.86.004-4.07-2.121-14.239-8.098-21.508-2.969-3.613-7.414-6.625-11.984-7.086-13.774-1.39-15.97 3.656-22.09 10.969-6.125 7.312-11.7 7.636-13.918 7.636-1 0-1.82-1.382-2.488-3.168l-15.848 7.008c.434 1.145 1.117 2.172 1.723 3.125m0 0" clip-rule="evenodd"/>
    </clipPath>
    <clipPath id="e">
      <path d="M134 534h22v26h-22zm0 0"/>
    </clipPath>
    <clipPath id="f">
      <path d="M136.54 551.297c.323-2.617.487-3.543.483-4.477 0-.93.524-1.215.059-2.515s-1.027-1.903-1.027-1.903c-.145-.074-1.164-.699-1.414-1.273-.262-.606.644-1.461.644-1.461-.21-.512-1.265-1.75-1.25-2.516.016-.785.383-1.867.383-1.867s.684-.39 2.148-.375c1.465.012 2.387.133 2.387.133s.649-.332 1.266-.469c.742-.164 2.148-.27 3.719-.183 2.87.156 8.695 3.148 10.085 5.363s1.907 3.851 1.594 6.805c-.32 2.972-.73 3.996-.488 5.988l-15.973 7.039c-1.77-4.398-2.82-6.621-2.617-8.29m0 0" clip-rule="evenodd"/>
    </clipPath>
    <clipPath id="g">
      <path d="M138 537h2v1h-2zm0 0"/>
    </clipPath>
    <clipPath id="h">
      <path d="M138.73 537.324s.301.074.504.184.317.336.317.336-.36.164-.531.07c-.176-.094-.29-.59-.29-.59m0 0" clip-rule="evenodd"/>
    </clipPath>
    <clipPath id="i">
      <path d="M144 539h5v7h-5zm0 0"/>
    </clipPath>
    <clipPath id="j">
      <path d="M146.742 539.027s.922 1.309.746 1.641c-.175.332-.57-.137-.941.566-.375.7.226 1.286.031 1.653-.191.367-1.078-.551-1.582-.082-.508.465-.008 2.332-.008 2.332s.844-.735 1.45-.781c1.175-.094 1.585-1.145 1.98-1.887.394-.742.797-1.098-.102-2.285-.781-1.04-1.574-1.157-1.574-1.157zm0 0" clip-rule="evenodd"/>
    </clipPath>
    <clipPath id="k">
      <path d="M134 535h5v16h-5zm0 0"/>
    </clipPath>
    <clipPath id="l">
      <path d="M134.121 536.95s.871-.098 1.145-.184c.496-.157.629-.953 1.015-.75.387.207.774.41.774.41s-.72 1.058-.754 1.914c-.035.86-.14 1.91-.14 1.91s1.429 1.55 1.878 2.797c.453 1.246.898 2.46-.09 4.32s-1.379 3.156-1.379 3.156.563-3.082.41-4.085c-.152-1-.304-1.075-.453-1.864-.144-.789-.574-1.914-.574-1.914s-2.023-.68-1.43-1.789c.028-.059.262-1.262.262-1.262s-.25-.226-.547-1.297c-.293-1.074-.117-1.363-.117-1.363m0 0" clip-rule="evenodd"/>
    </clipPath>
    <clipPath id="m">
      <path d="M138 534h11v14h-11zm0 0"/>
    </clipPath>
    <clipPath id="n">
      <path d="M148.824 536.277s-1.285-.644-3.066-1.175c-1.781-.528-2.547-.25-2.547-.25s1.148 1.808-.012 3.984c-1.156 2.176-4.781 1.66-4.781 1.66s1.43 2.262 1.602 3.734c.175 1.473 1.968 2.926 1.968 2.926s1.102-4.297 2.172-6.308c1.07-2.016 4.664-4.57 4.664-4.57m0 0" clip-rule="evenodd"/>
    </clipPath>
    <clipPath id="o">
      <path d="M134 539h2v3h-2zm0 0"/>
    </clipPath>
    <clipPath id="p">
      <path d="m134.445 540.512.356-.157.535-.488-.277 1.156zm0 0" clip-rule="evenodd"/>
    </clipPath>
    <clipPath id="q">
      <path d="M134 540h2v2h-2zm0 0"/>
    </clipPath>
    <clipPath id="r">
      <path d="m134.852 540.902.468-.144.493-.637-.282 1.156zm0 0" clip-rule="evenodd"/>
    </clipPath>
    <clipPath id="s">
      <path d="M136 575h3v2h-3zm0 0"/>
    </clipPath>
    <clipPath id="t">
      <path d="m136.586 576.422 1.531.015-.125-.703zm0 0" clip-rule="evenodd"/>
    </clipPath>
    <clipPath id="u">
      <path d="M192 582h1v2h-1zm0 0"/>
    </clipPath>
    <clipPath id="v">
      <path d="m192.871 582.543-.629-.316.043 1.234zm0 0" clip-rule="evenodd"/>
    </clipPath>
    <clipPath id="w">
      <path d="M203 519h26v30h-26zm0 0"/>
    </clipPath>
    <clipPath id="x">
      <path d="M210.855 530.125s6.555.645 11.333 6.14c4.78 5.493 6.34 11.934 6.34 11.934s.242-13.77-7.587-20.926c-7.824-7.16-17.66-7.957-17.66-7.957zm0 0" clip-rule="evenodd"/>
    </clipPath>
    <clipPath id="y">
      <path d="M162 549h5v7h-5zm0 0"/>
    </clipPath>
    <clipPath id="z">
      <path d="m162.938 555.094 4.007-5.442-1.21 4.953zm0 0" clip-rule="evenodd"/>
    </clipPath>
    <clipPath id="A">
      <path d="M213 543h4v8h-4zm0 0"/>
    </clipPath>
    <clipPath id="B">
      <path d="m216.605 548.05-1.382 2.497-1.684-6.555zm0 0" clip-rule="evenodd"/>
    </clipPath>
    <clipPath id="C">
      <path d="M167 545h5v6h-5zm0 0"/>
    </clipPath>
    <clipPath id="D">
      <path d="m167.664 550.816 4.004-5.441-1.207 4.953zm0 0" clip-rule="evenodd"/>
    </clipPath>
    <clipPath id="E">
      <path d="M172 539h4v7h-4zm0 0"/>
    </clipPath>
    <clipPath id="F">
      <path d="m175.977 539.45-.336 5.085-2.672.973zm0 0" clip-rule="evenodd"/>
    </clipPath>
    <clipPath id="G">
      <path d="M161 534h33v38h-33zm0 0"/>
    </clipPath>
    <clipPath id="H">
      <path d="M175.465 539.145c-4.215 5.793-6.235 8.16-6.235 8.16s2.993 6.875 0 12.508c-2.992 5.636-8.02 9.289-8.02 9.289s3.692 2.55 12.74 2.55c9.046 0 17.491-1.91 17.491-1.91s-1.03-2.25.496-7.281c1.524-5.035 1.637-3.793 1.637-3.793s-4.851-.883-7.32-4.875c-2.469-3.996-3.512-9.988-2.328-13.887 1.183-3.902 7.515-4.976 7.515-4.976s-11.761-1.582-15.976 4.215m0 0" clip-rule="evenodd"/>
    </clipPath>
    <clipPath id="I">
      <path d="M136 491h86v22h-86zm0 0"/>
    </clipPath>
    <clipPath id="J">
      <path d="M137.992 507.219a1.6 1.6 0 0 1 .633-.164 1.43 1.43 0 0 1 1.078.418q.177.17.277.375a1.4 1.4 0 0 1 .145.847c-.02.145-.059.278-.121.41l2.191.645-.8.816-1.88-.601-.55.558 1.258 1.239-.696.707-3.496-3.434 1.328-1.355c.204-.207.415-.364.633-.461m.512.824a.8.8 0 0 0-.293.09 1.4 1.4 0 0 0-.297.23l-.562.574.984.97.562-.575q.152-.152.227-.305a.9.9 0 0 0 .082-.293.6.6 0 0 0-.047-.27.7.7 0 0 0-.156-.23.8.8 0 0 0-.23-.152.6.6 0 0 0-.27-.04m4.133-3.75-1.746 1.516.683.785 1.61-1.395.586.676-1.61 1.395.766.882 1.847-1.601.586.676-2.593 2.253-3.211-3.703 2.492-2.164zm3.437.934q.263.08.543.039.282-.042.559-.246.265-.199.379-.414a1.1 1.1 0 0 0 .125-.422.9.9 0 0 0-.059-.387 1.1 1.1 0 0 0-.16-.305l-.027-.039-1.008.75-.453-.605 1.781-1.328 1.605 2.156-.699.52-.34-.462c.008.114-.004.23-.027.348a1.714 1.714 0 0 1-.348.672q-.134.163-.32.297a2.2 2.2 0 0 1-.879.414q-.451.093-.887-.012a2.3 2.3 0 0 1-.824-.383 3.1 3.1 0 0 1-.71-.703 3 3 0 0 1-.454-.887 2.4 2.4 0 0 1-.101-.925c.027-.301.117-.594.273-.871q.228-.418.656-.735.283-.21.582-.332c.2-.082.395-.133.594-.156q.294-.036.578.016c.192.03.371.093.54.18l-.407.91a1.7 1.7 0 0 0-.32-.122 1.2 1.2 0 0 0-.336-.043q-.17.007-.348.067-.175.06-.351.191a1.2 1.2 0 0 0-.395.465 1.3 1.3 0 0 0-.117.531q.006.274.117.555.11.28.297.531l.02.027q.185.251.425.438.236.188.496.27m4.906-1.559-.843.516-2.563-4.176.844-.52zm1.09-1.711q.183-.01.38-.062.191-.053.39-.165c.242-.136.398-.296.473-.472a.53.53 0 0 0-.016-.48.46.46 0 0 0-.371-.255q-.236-.018-.649.122l-.144.05c-.2.07-.399.13-.606.18q-.305.07-.605.047a1.3 1.3 0 0 1-.559-.176q-.262-.153-.46-.5a1.34 1.34 0 0 1-.094-1.043q.088-.297.328-.59.24-.292.68-.543a2.7 2.7 0 0 1 1.019-.351q.502-.06.91.082l-.27.86a1.4 1.4 0 0 0-.624-.048 1.6 1.6 0 0 0-.63.211q-.334.188-.452.422a.465.465 0 0 0 .187.629q.112.059.254.05.146-.002.32-.05c.117-.035.25-.074.39-.121l.075-.023a6 6 0 0 1 .578-.168 1.8 1.8 0 0 1 .578-.047q.29.022.543.18c.172.1.325.273.457.507q.18.322.192.645c0 .215-.035.422-.117.62q-.125.3-.36.552-.24.25-.554.425-.314.18-.614.278-.298.1-.574.125-.274.03-.512 0a2.2 2.2 0 0 1-.449-.09l.238-.89q.14.045.309.073.17.023.36.016m4.875-5.676-1.238.582 1.688 3.606-.903.422-1.687-3.606-1.243.578-.39-.832 3.387-1.582zm3.868-1.383-2.157.832.375.973 1.989-.765.32.835-1.985.766.418 1.09 2.282-.879.324.836-3.207 1.238-1.766-4.574 3.082-1.188zm3.425-1.722q.359.023.633.164.276.133.469.367.192.228.277.516.072.233.063.46a1.45 1.45 0 0 1-.278.813 1.4 1.4 0 0 1-.3.3l1.609 1.622-1.09.328-1.363-1.43-.754.23.512 1.688-.946.29-1.425-4.692 1.816-.55c.277-.087.539-.122.777-.106m.051.972a.8.8 0 0 0-.297-.062q-.17 0-.37.062l-.774.235.402 1.32.77-.234a1.2 1.2 0 0 0 .343-.16.7.7 0 0 0 .211-.22.55.55 0 0 0 .09-.257.7.7 0 0 0-.027-.277.7.7 0 0 0-.13-.246.56.56 0 0 0-.218-.16m6.477-1.449-1.344.27.785 3.906-.977.195-.78-3.906-1.345.274-.183-.903 3.664-.738zm4.554-.726q.345.3.563.734.215.436.285.957a3 3 0 0 1-.031 1 2.3 2.3 0 0 1-.356.852 2.1 2.1 0 0 1-.66.629q-.405.248-.95.32a2.4 2.4 0 0 1-1-.067 2.2 2.2 0 0 1-.796-.437q-.343-.3-.559-.734a3 3 0 0 1-.285-.957 3 3 0 0 1 .028-1q.098-.476.355-.852.256-.376.66-.629.405-.25.95-.32c.359-.047.695-.024.996.066q.455.14.8.438m-.351 3.023q.136-.234.183-.539a2.4 2.4 0 0 0 .004-.648l-.004-.028a2.3 2.3 0 0 0-.168-.62 1.5 1.5 0 0 0-.316-.477 1.2 1.2 0 0 0-.453-.282 1.3 1.3 0 0 0-.578-.047q-.318.043-.547.196-.229.151-.363.387-.136.233-.184.539a2.2 2.2 0 0 0 0 .644v.028q.046.346.168.628.123.278.316.473a1.22 1.22 0 0 0 1.031.328c.212-.031.395-.093.544-.195q.227-.152.367-.387m3.781-3.644 1.023 3.664h.036l.847-3.703 1.098-.024-1.281 4.93-1.348.027-1.484-4.871zm7.684 1.011q.28.357.414.825.135.469.105.992-.032.531-.215.98a2.4 2.4 0 0 1-.504.77 2.14 2.14 0 0 1-.765.496 2.4 2.4 0 0 1-.992.14 2.4 2.4 0 0 1-.97-.25 2.1 2.1 0 0 1-.702-.578 2.3 2.3 0 0 1-.418-.824 3 3 0 0 1-.106-.992q.032-.527.215-.977.186-.45.508-.773.316-.321.762-.496a2.4 2.4 0 0 1 .992-.14c.363.019.687.105.969.25q.42.221.707.577m-.907 2.907q.181-.204.282-.497.104-.286.12-.636l.005-.028a2.3 2.3 0 0 0-.051-.644 1.6 1.6 0 0 0-.223-.524 1.2 1.2 0 0 0-.394-.359 1.25 1.25 0 0 0-.559-.152 1.3 1.3 0 0 0-.574.09q-.25.106-.43.312c-.117.137-.21.305-.277.496-.067.195-.11.406-.121.637v.027q-.024.345.047.645.07.3.222.523.154.224.395.36.236.135.558.152.321.016.57-.09.254-.106.43-.312zm5.805-1.774-1.355-.2-.586 3.938-.985-.148.586-3.938-1.355-.203.136-.906 3.696.547zm3.996.988-2.258-.496-.226 1.016 2.082.46-.196.876-2.078-.461-.254 1.14 2.387.528-.191.875-3.356-.742 1.059-4.785 3.223.714zm2.606 5.188 1.066-3.059-.84-.293.293-.843.207.07q.205.07.352.082a.5.5 0 0 0 .242-.047.4.4 0 0 0 .172-.16 2 2 0 0 0 .125-.285l.027-.082.926.324-1.61 4.629zm3.203-.117c.015.16.058.3.14.422q.118.187.36.28a.73.73 0 0 0 .457.048.9.9 0 0 0 .39-.211c.121-.11.23-.242.329-.406.097-.165.187-.34.261-.536l.051-.12q.117-.292.176-.571a1.6 1.6 0 0 0 .043-.52.9.9 0 0 0-.137-.425.77.77 0 0 0-.363-.282.76.76 0 0 0-.457-.043.9.9 0 0 0-.39.211q-.182.16-.333.407-.148.244-.262.535l-.05.12a3.4 3.4 0 0 0-.176.571q-.058.281-.04.52m2.316.96a2.5 2.5 0 0 1-.418.395 1.657 1.657 0 0 1-1.078.332 2 2 0 0 1-.652-.148 2 2 0 0 1-.575-.34 1.65 1.65 0 0 1-.55-.977 2.4 2.4 0 0 1-.035-.578q.018-.293.09-.594a4.324 4.324 0 0 1 .45-1.125q.15-.27.342-.492a2.5 2.5 0 0 1 .422-.398 1.645 1.645 0 0 1 1.074-.332c.203.004.422.055.653.144q.345.14.574.344.23.204.367.45.135.25.188.53c.03.192.043.383.03.579a3.5 3.5 0 0 1-.089.593 4.2 4.2 0 0 1-.45 1.125q-.15.264-.343.493m.723.813a.6.6 0 0 1 .238-.027.6.6 0 0 1 .238.062.55.55 0 0 1 .192.149.7.7 0 0 1 .12.207.7.7 0 0 1 .036.234.55.55 0 0 1-.062.235.656.656 0 0 1-.36.316.7.7 0 0 1-.238.031.6.6 0 0 1-.234-.066.6.6 0 0 1-.196-.149.7.7 0 0 1-.12-.207.7.7 0 0 1-.032-.238.6.6 0 0 1 .062-.238.5.5 0 0 1 .149-.192.7.7 0 0 1 .207-.117m2.664 1.07a.9.9 0 0 0 .09.438.77.77 0 0 0 .328.32.74.74 0 0 0 .449.094.9.9 0 0 0 .414-.164q.195-.14.367-.367a3.6 3.6 0 0 0 .324-.5l.063-.117q.146-.277.238-.547.095-.271.102-.512a.94.94 0 0 0-.09-.438.77.77 0 0 0-.328-.32.74.74 0 0 0-.45-.094.9.9 0 0 0-.413.164 1.7 1.7 0 0 0-.371.368 4 4 0 0 0-.325.5l-.062.117q-.149.276-.238.547-.093.27-.098.511m2.195 1.215c-.144.137-.297.25-.465.348q-.247.146-.523.2c-.188.034-.379.038-.582.007a2 2 0 0 1-.633-.222 1.9 1.9 0 0 1-.531-.403 1.6 1.6 0 0 1-.313-.488 1.6 1.6 0 0 1-.125-.543 2.815 2.815 0 0 1 .187-1.156q.106-.29.247-.559c.098-.176.203-.348.324-.512q.182-.248.398-.449a2.4 2.4 0 0 1 .461-.348c.168-.097.34-.164.528-.199q.274-.059.578-.011.304.041.633.218.326.177.531.407c.14.152.242.312.316.488.07.176.114.355.125.547q.018.288-.035.578-.047.293-.152.582a4.4 4.4 0 0 1-.574 1.066 3.4 3.4 0 0 1-.395.45zm2.035-1.379q.25-.176.524-.289c.183-.074.37-.117.57-.129q.293-.016.61.067c.206.058.421.152.636.293.172.11.32.238.445.375q.184.212.29.441a1.6 1.6 0 0 1 .136.934l-.965-.2a.82.82 0 0 0-.086-.468.94.94 0 0 0-.328-.352.95.95 0 0 0-.855-.105q-.209.074-.395.23-.186.16-.332.371c.078-.015.164-.027.258-.027a1.5 1.5 0 0 1 .293.02q.152.03.309.09.158.057.312.156.3.192.5.457.196.269.274.566.077.301.03.613a1.55 1.55 0 0 1-.237.61 1.75 1.75 0 0 1-.481.504q-.28.197-.61.261a1.8 1.8 0 0 1-.683-.008 2.1 2.1 0 0 1-.707-.3 2.1 2.1 0 0 1-.61-.582 1.8 1.8 0 0 1-.284-.739q-.059-.397.054-.847.116-.447.414-.91l.059-.09q.18-.281.394-.52c.149-.16.301-.3.465-.422zm-.476 2.829a.8.8 0 0 0 .136.296.9.9 0 0 0 .262.246 1 1 0 0 0 .34.145.8.8 0 0 0 .324-.004.7.7 0 0 0 .285-.129.9.9 0 0 0 .223-.242.764.764 0 0 0-.012-.902.9.9 0 0 0-.27-.25 1 1 0 0 0-.331-.141.9.9 0 0 0-.328 0 .8.8 0 0 0-.512.36.8.8 0 0 0-.125.308.7.7 0 0 0 .008.312m2.617 1.96a.6.6 0 0 1 .238.016q.123.03.223.106.1.073.16.183a.65.65 0 0 1 .07.461.6.6 0 0 1-.105.219.62.62 0 0 1-.414.242.614.614 0 0 1-.7-.531.61.61 0 0 1 .301-.621.6.6 0 0 1 .227-.075zm1.09 2.125 2.027-2.527-.695-.555.558-.699.172.137q.17.137.305.191c.086.04.168.051.242.043a.43.43 0 0 0 .215-.097q.104-.084.215-.227l.055-.066.761.613-3.062 3.824zm1.945.223.695-.793 3.438-.629.953.836-1.91 2.18.535.473-.59.671-.535-.468-.73.832-.75-.657.73-.832zm1.281-.066 1.145 1.004 1.27-1.446zm0 0" clip-rule="evenodd"/>
    </clipPath>
    <clipPath id="K">
      <path d="M136 589h86v23h-86zm0 0"/>
    </clipPath>
    <clipPath id="L">
      <path d="m141.188 592.941-.97-.968-2.816 2.812-.703-.703 2.817-2.812-.97-.97.65-.652 2.644 2.641zm2.964 1.38q.166.315.196.62.03.309-.063.594a1.4 1.4 0 0 1-.293.508 1.4 1.4 0 0 1-.36.297 1.4 1.4 0 0 1-.41.164 1.44 1.44 0 0 1-.843-.07l-.524 2.222-.859-.75.496-1.914-.59-.52-1.164 1.329-.742-.657 3.23-3.683 1.426 1.254q.33.288.5.605m-.797.554a.8.8 0 0 0-.109-.285 1.2 1.2 0 0 0-.246-.285l-.605-.532-.91 1.04.605.53c.105.094.21.16.316.208a.8.8 0 0 0 .297.066q.145 0 .266-.058a.8.8 0 0 0 .222-.172.623.623 0 0 0 .164-.512m2.086 4.938a.9.9 0 0 0 .364-.133c.12-.075.234-.18.343-.325l1.825-2.43.78.59-1.913 2.548a1.8 1.8 0 0 1-.567.503q-.315.177-.668.2a1.9 1.9 0 0 1-.718-.09 2.4 2.4 0 0 1-.715-.38 2.4 2.4 0 0 1-.567-.581 2 2 0 0 1-.289-.668 1.6 1.6 0 0 1 .008-.7q.082-.356.329-.683l1.914-2.547.78.59-1.823 2.43a1.2 1.2 0 0 0-.215.418.8.8 0 0 0-.024.386q.03.186.141.348c.074.11.168.203.281.29q.174.133.36.19c.125.044.25.055.375.044zm2.684 1.75q.094.158.234.304.141.148.329.266.358.224.64.195a.53.53 0 0 0 .418-.246.45.45 0 0 0 .047-.441q-.094-.223-.414-.516l-.117-.105q-.23-.212-.442-.446a2 2 0 0 1-.328-.511 1.3 1.3 0 0 1-.11-.575q.007-.306.223-.64.122-.2.344-.36.223-.164.528-.222a1.65 1.65 0 0 1 .675.011q.37.07.797.34.505.315.793.73c.196.278.317.555.363.84l-.886.168a1.35 1.35 0 0 0-.254-.57 1.7 1.7 0 0 0-.48-.453q-.332-.206-.59-.195a.44.44 0 0 0-.387.207.44.44 0 0 0-.078.254.56.56 0 0 0 .074.25q.075.124.2.254.126.134.288.285l.059.054q.222.204.422.43.199.225.316.488c.074.176.11.364.098.563q-.013.3-.23.644-.196.316-.477.473a1.6 1.6 0 0 1-.602.191 1.8 1.8 0 0 1-.656-.054 2.4 2.4 0 0 1-.637-.285 3.3 3.3 0 0 1-.535-.407 2.704 2.704 0 0 1-.629-.898 2.6 2.6 0 0 1-.129-.438l.895-.214a1.7 1.7 0 0 0 .238.628m7.543.656-1.215-.64-1.86 3.519-.878-.465 1.86-3.52-1.212-.64.43-.813 3.305 1.746zm2.93 2.187a.7.7 0 0 1 .238-.05.6.6 0 0 1 .242.042.6.6 0 0 1 .203.133.7.7 0 0 1 .137.196q.047.109.055.23a.6.6 0 0 1-.043.238.59.59 0 0 1-.332.344.6.6 0 0 1-.23.055.7.7 0 0 1-.243-.043.626.626 0 0 1-.344-.332.7.7 0 0 1-.054-.235.6.6 0 0 1 .043-.242.6.6 0 0 1 .132-.203.6.6 0 0 1 .196-.133m6.972 4.11a.9.9 0 0 0 .293-.254c.086-.114.157-.254.203-.426l.832-2.922.942.27-.875 3.062a1.8 1.8 0 0 1-.344.672 1.6 1.6 0 0 1-.555.43q-.315.153-.703.172a2.3 2.3 0 0 1-.804-.098 2.4 2.4 0 0 1-.735-.34 1.9 1.9 0 0 1-.508-.52 1.6 1.6 0 0 1-.246-.656 1.8 1.8 0 0 1 .059-.754l.875-3.062.941.27-.832 2.921a1.3 1.3 0 0 0-.05.469.9.9 0 0 0 .117.367q.093.164.257.274.16.112.368.171c.136.04.273.055.402.047a.8.8 0 0 0 .363-.093m3.145.675q.147.112.328.2.18.087.402.129.412.082.664-.047a.53.53 0 0 0 .305-.38c.031-.171-.004-.316-.117-.429-.11-.113-.3-.227-.57-.332l-.145-.055a6 6 0 0 1-.574-.261 1.9 1.9 0 0 1-.488-.356 1.3 1.3 0 0 1-.31-.5c-.07-.191-.073-.418-.022-.68q.041-.228.195-.457.147-.23.41-.394.258-.17.633-.235.375-.063.867.032.584.116 1.004.398c.277.192.492.406.637.656l-.766.473a1.4 1.4 0 0 0-.437-.441 1.8 1.8 0 0 0-.618-.25q-.375-.075-.62.027a.45.45 0 0 0-.286.336.46.46 0 0 0 .02.265.55.55 0 0 0 .16.204q.11.086.277.168.165.075.371.164l.074.027q.277.11.547.25.27.137.469.344.204.205.297.488.092.286.015.684-.07.362-.277.613-.205.247-.492.394-.286.148-.633.184c-.23.02-.46.012-.695-.035a3.3 3.3 0 0 1-.649-.192 2.5 2.5 0 0 1-.515-.28 2.6 2.6 0 0 1-.39-.333 2 2 0 0 1-.278-.363l.758-.52a1.8 1.8 0 0 0 .449.504zm7.246-2.113-2.297-.277-.125 1.035 2.113.258-.105.886-2.113-.253-.141 1.16 2.426.293-.11.89-3.41-.414.59-4.867 3.277.399zm3.55-.723q.33.14.548.364.21.222.316.504c.066.187.098.382.086.582q-.013.24-.094.457a1.5 1.5 0 0 1-.222.383 1.4 1.4 0 0 1-.7.468l.973 2.067-1.14-.055-.801-1.805-.786-.039-.085 1.762-.993-.047.239-4.898 1.894.093q.438.024.766.164zm-.273.93a.8.8 0 0 0-.261-.156 1.3 1.3 0 0 0-.372-.07l-.804-.04-.067 1.38.805.042q.21.006.375-.035a.7.7 0 0 0 .274-.136.6.6 0 0 0 .171-.211.725.725 0 0 0 .027-.547.6.6 0 0 0-.148-.227m2.914 2.727c.11.05.23.093.364.12q.194.047.422.04c.277-.008.492-.07.636-.191a.54.54 0 0 0 .215-.438.47.47 0 0 0-.207-.395c-.137-.085-.344-.152-.633-.199l-.152-.02a6 6 0 0 1-.617-.128 1.9 1.9 0 0 1-.555-.242 1.3 1.3 0 0 1-.414-.418 1.3 1.3 0 0 1-.172-.657 1.32 1.32 0 0 1 .406-.964q.216-.222.567-.368c.234-.097.515-.152.851-.16.399-.011.75.047 1.067.168s.57.29.765.496l-.64.633a1.4 1.4 0 0 0-.528-.332 1.7 1.7 0 0 0-.656-.11c-.254.009-.457.063-.598.165a.45.45 0 0 0-.207.387.47.47 0 0 0 .078.253.56.56 0 0 0 .2.164q.13.066.308.102.181.042.399.078l.078.012q.297.047.59.125c.195.05.37.125.535.23q.241.158.394.414t.164.664a1.4 1.4 0 0 1-.132.657q-.147.285-.395.496a1.8 1.8 0 0 1-.578.316c-.219.07-.445.113-.688.117a3.4 3.4 0 0 1-.671-.043 2.7 2.7 0 0 1-1.02-.398 2.2 2.2 0 0 1-.352-.293l.63-.672q.098.106.238.207.139.103.308.184zm6.59-2.7a.7.7 0 0 1 .18-.16.582.582 0 0 1 .477-.07.64.64 0 0 1 .374.273q.07.104.086.23a.7.7 0 0 1-.011.247.7.7 0 0 1-.106.215.6.6 0 0 1-.176.16.7.7 0 0 1-.23.086.613.613 0 0 1-.46-.117.6.6 0 0 1-.165-.176.6.6 0 0 1-.086-.23.639.639 0 0 1 .117-.457m9.07.27a1.9 1.9 0 0 1-.597.66 2.7 2.7 0 0 1-.965.422l-1.75.438-1.184-4.758 1.75-.438a2.8 2.8 0 0 1 1.051-.078q.476.065.84.305.365.24.617.644t.387.938.098 1.008a2.1 2.1 0 0 1-.246.86m-1.437-2.648a1.16 1.16 0 0 0-.504-.2 1.6 1.6 0 0 0-.66.047l-.719.18.754 3.043.723-.176a1.7 1.7 0 0 0 .601-.27q.235-.175.352-.41.112-.234.125-.515a2 2 0 0 0-.063-.582l-.043-.18a2.3 2.3 0 0 0-.214-.547q-.14-.24-.352-.39m4.918-2.188-2.188.746.336.985 2.016-.684.285.848-2.015.683.378 1.11 2.313-.79.289.848-3.254 1.106-1.578-4.641 3.125-1.062zm2.828 2.016 1.79-.754.355.844-2.7 1.14-1.91-4.512.914-.386zm3.734-.809-.89.442-2.184-4.387.887-.442zm-.648-5.242 2.59 2.785.031-.02-.945-3.68.96-.523 1.126 4.97-1.184.644-3.555-3.645zm6.211-2.86-1.941 1.25.562.88 1.793-1.157.484.754-1.789 1.152.633.985 2.055-1.324.484.754-2.887 1.859-2.656-4.121 2.774-1.79zm2.262-2.824q.343-.104.652-.066.303.03.566.184a1.486 1.486 0 0 1 .656.8q.07.218.075.434 0 .221-.059.426a1.5 1.5 0 0 1-.18.386l2.07.965-.913.688-1.77-.875-.629.472 1.059 1.41-.793.594-2.945-3.918 1.515-1.136q.351-.264.696-.364m.383.891a.8.8 0 0 0-.301.047q-.159.057-.328.183l-.645.485.828 1.101.645-.484q.17-.124.265-.266a.644.644 0 0 0 .125-.55.7.7 0 0 0-.125-.25.7.7 0 0 0-.207-.188.6.6 0 0 0-.258-.078m2.617-3.785.836-.735.675 3.266 1.317 1.504-.754.66-1.316-1.504-3.145-1.11.86-.753 1.995.77zm0 0" clip-rule="evenodd"/>
    </clipPath>
  </defs>
  <g clip-path="url(#a)" transform="translate(-40.591 -171.825)scale(.35278)">
    <g clip-path="url(#b)">
      <path fill="#d4843d" fill-rule="evenodd" d="M110.063 482.063h137.94v137.945h-137.94Zm0 0"/>
    </g>
  </g>
  <g clip-path="url(#c)" transform="translate(-40.591 -171.825)scale(.35278)">
    <g clip-path="url(#d)">
      <path fill-rule="evenodd" d="m135.824 511.102 98.922 5.183-3.855 73.617-98.922-5.183zm0 0"/>
    </g>
  </g>
  <g clip-path="url(#e)" transform="translate(-40.591 -171.825)scale(.35278)">
    <g clip-path="url(#f)">
      <path fill-rule="evenodd" d="m135.266 523.05 32.129 17.083-16.637 31.285-32.13-17.082zm0 0"/>
    </g>
  </g>
  <g clip-path="url(#g)" transform="translate(-40.591 -171.825)scale(.35278)">
    <g clip-path="url(#h)">
      <path fill="#fff" fill-rule="evenodd" d="m136.7 530.496 9.683 5.152-4.91 9.235-9.684-5.153zm0 0"/>
    </g>
  </g>
  <g clip-path="url(#i)" transform="translate(-40.591 -171.825)scale(.35278)">
    <g clip-path="url(#j)">
      <path fill="#fff" fill-rule="evenodd" d="m144.707 532.207 11.57 6.152-7.644 14.375-11.57-6.152zm0 0"/>
    </g>
  </g>
  <g clip-path="url(#k)" transform="translate(-40.591 -171.825)scale(.35278)">
    <g clip-path="url(#l)">
      <path fill="#fff" fill-rule="evenodd" d="m132.918 528.566 16.363 8.7-10.644 20.02-16.364-8.704zm0 0"/>
    </g>
  </g>
  <g clip-path="url(#m)" transform="translate(-40.591 -171.825)scale(.35278)">
    <g clip-path="url(#n)">
      <path fill="#d4843d" fill-opacity=".36" fill-rule="evenodd" d="m140.39 526.133 15.196 8.078-10.711 20.144-15.195-8.082zm0 0"/>
    </g>
  </g>
  <g clip-path="url(#o)" transform="translate(-40.591 -171.825)scale(.35278)">
    <g clip-path="url(#p)">
      <path fill="#b87538" fill-rule="evenodd" d="m132.84 532.875 9.52 5.063-5.235 9.847-9.52-5.062zm0 0"/>
    </g>
  </g>
  <g clip-path="url(#q)" transform="translate(-40.591 -171.825)scale(.35278)">
    <g clip-path="url(#r)">
      <path fill="#b87538" fill-rule="evenodd" d="m133.32 533.133 9.516 5.058-5.234 9.852-9.516-5.063zm0 0"/>
    </g>
  </g>
  <g clip-path="url(#s)" transform="translate(-40.591 -171.825)scale(.35278)">
    <g clip-path="url(#t)">
      <path fill-rule="evenodd" d="m131.895 570.41 11.515.602-.562 10.746-11.516-.606zm0 0"/>
    </g>
  </g>
  <g clip-path="url(#u)" transform="translate(-40.591 -171.825)scale(.35278)">
    <g clip-path="url(#v)">
      <path fill-rule="evenodd" d="m187.512 576.973 10.629.554-.59 11.215-10.63-.558zm0 0"/>
    </g>
  </g>
  <g clip-path="url(#w)" transform="translate(-40.591 -171.825)scale(.35278)">
    <g clip-path="url(#x)">
      <path fill="#d4843d" fill-opacity=".36" fill-rule="evenodd" d="m198.55 514.063 36.673 1.921-1.961 37.47-36.676-1.923zm0 0"/>
    </g>
  </g>
  <g clip-path="url(#y)" transform="translate(-40.591 -171.825)scale(.35278)">
    <g clip-path="url(#z)">
      <path fill-rule="evenodd" d="m158.504 544.203 13.695.719-.82 15.621-13.695-.715zm0 0"/>
    </g>
  </g>
  <g clip-path="url(#A)" transform="translate(-40.591 -171.825)scale(.35278)">
    <g clip-path="url(#B)">
      <path fill-rule="evenodd" d="m208.809 538.738 13.254.692-.86 16.437-13.254-.695zm0 0"/>
    </g>
  </g>
  <g clip-path="url(#C)" transform="translate(-40.591 -171.825)scale(.35278)">
    <g clip-path="url(#D)">
      <path fill-rule="evenodd" d="m163.227 539.926 13.695.715-.817 15.625-13.699-.72zm0 0"/>
    </g>
  </g>
  <g clip-path="url(#E)" transform="translate(-40.591 -171.825)scale(.35278)">
    <g clip-path="url(#F)">
      <path fill-rule="evenodd" d="m168.563 534.055 12.667.664-.847 16.183-12.668-.664zm0 0"/>
    </g>
  </g>
  <g clip-path="url(#G)" transform="translate(-40.591 -171.825)scale(.35278)">
    <g clip-path="url(#H)">
      <path fill="#d4843d" fill-opacity=".36" fill-rule="evenodd" d="M156.21 529.734h42.364v46.918h-42.363zm0 0"/>
    </g>
  </g>
  <g clip-path="url(#I)" transform="translate(-40.591 -171.825)scale(.35278)">
    <g clip-path="url(#J)">
      <path fill="#fff" fill-rule="evenodd" d="M131.031 486.29h95.301v31.183h-95.3zm0 0"/>
    </g>
  </g>
  <g clip-path="url(#K)" transform="translate(-40.591 -171.825)scale(.35278)">
    <g clip-path="url(#L)">
      <path fill="#fff" fill-rule="evenodd" d="M131.7 584.398h94.808v31.782h-94.809zm0 0"/>
    </g>
  </g>
</svg>
