<?xml version="1.0" encoding="UTF-8"?>
<svg width="185px" height="185px" viewBox="0 0 185 185" version="1.1" xmlns="http://www.w3.org/2000/svg" xmlns:xlink="http://www.w3.org/1999/xlink">
    <title>Group 3</title>
    <defs>
        <circle id="path-1" cx="92.5" cy="92.5" r="92.5"></circle>
        <circle id="path-3" cx="92.5" cy="92.5" r="92.5"></circle>
    </defs>
    <g id="Page-1" stroke="none" stroke-width="1" fill="none" fill-rule="evenodd">
        <g id="tech-code-pig" transform="translate(-17.000000, -17.000000)">
            <g id="Group-3" transform="translate(17.000000, 17.000000)">
                <g id="Group">
                    <mask id="mask-2" fill="white">
                        <use xlink:href="#path-1"></use>
                    </mask>
                    <use id="Oval" fill="#D8D8D8" xlink:href="#path-1"></use>
                    <rect id="Rectangle" fill="#00FFC6" mask="url(#mask-2)" x="-103" y="-98" width="395" height="335"></rect>
                    <mask id="mask-4" fill="white">
                        <use xlink:href="#path-3"></use>
                    </mask>
                    <g id="Oval"></g>
                    <g id="Group-2" mask="url(#mask-4)">
                        <g transform="translate(92.349105, 95.723711) rotate(-22.000000) translate(-92.349105, -95.723711) translate(-36.150895, -12.776289)" id="pig">
                            <g transform="translate(13.852890, -0.385450)">
                                <g id="Group" transform="translate(0.000000, -0.000000)" fill="#FF7BA1">
                                    <path d="M70.0893116,0.379991899 L77.3588596,4.40484515 L72.6064437,11.4335877 L69.9605965,22.1692562 L67.834932,25.3430539 L65.5951809,26.4524302 L72.0148429,38.3196601 L68.5741023,48.9497921 L64.9083194,48.3811387 L66.2230256,40.2126393 L61.9466002,37.7583866 L60.7753445,48.2469944 L57.9807849,48.7461785 L56.1577586,47.634956 L56.1577586,37.3153476 L45.8584769,38.493685 L35.3287537,37.2054539 L35.2803345,41.4753617 L35.2049305,47.30014 L30.8351243,46.4753139 L30.8351243,37.5448287 L25.925898,37.5448287 L26.0579044,46.5973422 L21.4406452,46.8741253 L20.8789196,37.3398247 L16.3241459,35.4626886 L11.4203583,36.9008181 L4.34805781,35.4626886 L-9.47348735e-14,28.5966559 L1.89127503,27.9761594 L3.94047773,24.6916199 L6.97638546,12.0159997 L11.3484902,6.37169345 L54.8573785,0.560623979 L71.3021472,8.98830865 L74.0140448,4.99728615 L70.7697155,3.24594034 L69.485795,5.50112279 L67.6255061,4.47810552 L70.0893116,0.379991899 Z M12.5274489,20.2870768 L10.1144903,20.2870768 L9.54148181,22.9884023 L12.0215985,22.9884023 L12.5274489,20.2870768 Z" id="Combined-Shape"></path>
                                </g>
                                <path d="M18.4526644,5.40849095" id="Path-6" stroke="#979797"></path>
                            </g>
                            <g transform="translate(83.138281, -0.385450)">
                                <g id="Group" transform="translate(0.000000, -0.000000)" fill="#FF7BA1">
                                    <path d="M70.0893116,0.379991899 L77.3588596,4.40484515 L72.6064437,11.4335877 L69.9605965,22.1692562 L67.834932,25.3430539 L65.5951809,26.4524302 L72.0148429,38.3196601 L68.5741023,48.9497921 L64.9083194,48.3811387 L66.2230256,40.2126393 L61.9466002,37.7583866 L60.7753445,48.2469944 L57.9807849,48.7461785 L56.1577586,47.634956 L56.1577586,37.3153476 L45.8584769,38.493685 L35.3287537,37.2054539 L35.2803345,41.4753617 L35.2049305,47.30014 L30.8351243,46.4753139 L30.8351243,37.5448287 L25.925898,37.5448287 L26.0579044,46.5973422 L21.4406452,46.8741253 L20.8789196,37.3398247 L16.3241459,35.4626886 L11.4203583,36.9008181 L4.34805781,35.4626886 L-9.47348735e-14,28.5966559 L1.89127503,27.9761594 L3.94047773,24.6916199 L6.97638546,12.0159997 L11.3484902,6.37169345 L54.8573785,0.560623979 L71.3021472,8.98830865 L74.0140448,4.99728615 L70.7697155,3.24594034 L69.485795,5.50112279 L67.6255061,4.47810552 L70.0893116,0.379991899 Z M12.5274489,20.2870768 L10.1144903,20.2870768 L9.54148181,22.9884023 L12.0215985,22.9884023 L12.5274489,20.2870768 Z" id="Combined-Shape"></path>
                                </g>
                                <path d="M18.4526644,5.40849095" id="Path-6" stroke="#979797"></path>
                            </g>
                            <g transform="translate(48.936250, 63.147535) rotate(-180.000000) translate(-48.936250, -63.147535) translate(10.169425, 38.402752)">
                                <g id="Group" transform="translate(0.000000, 0.000000)" fill="#FF7BA1">
                                    <path d="M70.0893116,0.379991899 L77.3588596,4.40484515 L72.6064437,11.4335877 L69.9605965,22.1692562 L67.834932,25.3430539 L65.5951809,26.4524302 L72.0148429,38.3196601 L68.5741023,48.9497921 L64.9083194,48.3811387 L66.2230256,40.2126393 L61.9466002,37.7583866 L60.7753445,48.2469944 L57.9807849,48.7461785 L56.1577586,47.634956 L56.1577586,37.3153476 L45.8584769,38.493685 L35.3287537,37.2054539 L35.2803345,41.4753617 L35.2049305,47.30014 L30.8351243,46.4753139 L30.8351243,37.5448287 L25.925898,37.5448287 L26.0579044,46.5973422 L21.4406452,46.8741253 L20.8789196,37.3398247 L16.3241459,35.4626886 L11.4203583,36.9008181 L4.34805781,35.4626886 L-9.47348735e-14,28.5966559 L1.89127503,27.9761594 L3.94047773,24.6916199 L6.97638546,12.0159997 L11.3484902,6.37169345 L54.8573785,0.560623979 L71.3021472,8.98830865 L74.0140448,4.99728615 L70.7697155,3.24594034 L69.485795,5.50112279 L67.6255061,4.47810552 L70.0893116,0.379991899 Z M12.5274489,20.2870768 L10.1144903,20.2870768 L9.54148181,22.9884023 L12.0215985,22.9884023 L12.5274489,20.2870768 Z" id="Combined-Shape"></path>
                                </g>
                                <path d="M18.4526644,5.40849095" id="Path-6" stroke="#979797"></path>
                            </g>
                            <g transform="translate(118.448230, 62.586708) rotate(-180.000000) translate(-118.448230, -62.586708) translate(79.681404, 37.841925)">
                                <g id="Group" transform="translate(-0.000000, 0.000000)" fill="#FF7BA1">
                                    <path d="M70.0893116,0.379991899 L77.3588596,4.40484515 L72.6064437,11.4335877 L69.9605965,22.1692562 L67.834932,25.3430539 L65.5951809,26.4524302 L72.0148429,38.3196601 L68.5741023,48.9497921 L64.9083194,48.3811387 L66.2230256,40.2126393 L61.9466002,37.7583866 L60.7753445,48.2469944 L57.9807849,48.7461785 L56.1577586,47.634956 L56.1577586,37.3153476 L45.8584769,38.493685 L35.3287537,37.2054539 L35.2803345,41.4753617 L35.2049305,47.30014 L30.8351243,46.4753139 L30.8351243,37.5448287 L25.925898,37.5448287 L26.0579044,46.5973422 L21.4406452,46.8741253 L20.8789196,37.3398247 L16.3241459,35.4626886 L11.4203583,36.9008181 L4.34805781,35.4626886 L-9.47348735e-14,28.5966559 L1.89127503,27.9761594 L3.94047773,24.6916199 L6.97638546,12.0159997 L11.3484902,6.37169345 L54.8573785,0.560623979 L71.3021472,8.98830865 L74.0140448,4.99728615 L70.7697155,3.24594034 L69.485795,5.50112279 L67.6255061,4.47810552 L70.0893116,0.379991899 Z M12.5274489,20.2870768 L10.1144903,20.2870768 L9.54148181,22.9884023 L12.0215985,22.9884023 L12.5274489,20.2870768 Z" id="Combined-Shape"></path>
                                </g>
                                <path d="M18.4526644,5.40849095" id="Path-6" stroke="#979797"></path>
                            </g>
                            <g transform="translate(21.852890, 83.571637)">
                                <g id="Group" transform="translate(0.000000, 0.000000)" fill="#FF7BA1">
                                    <path d="M70.0893116,0.379991899 L77.3588596,4.40484515 L72.6064437,11.4335877 L69.9605965,22.1692562 L67.834932,25.3430539 L65.5951809,26.4524302 L72.0148429,38.3196601 L68.5741023,48.9497921 L64.9083194,48.3811387 L66.2230256,40.2126393 L61.9466002,37.7583866 L60.7753445,48.2469944 L57.9807849,48.7461785 L56.1577586,47.634956 L56.1577586,37.3153476 L45.8584769,38.493685 L35.3287537,37.2054539 L35.2803345,41.4753617 L35.2049305,47.30014 L30.8351243,46.4753139 L30.8351243,37.5448287 L25.925898,37.5448287 L26.0579044,46.5973422 L21.4406452,46.8741253 L20.8789196,37.3398247 L16.3241459,35.4626886 L11.4203583,36.9008181 L4.34805781,35.4626886 L-9.47348735e-14,28.5966559 L1.89127503,27.9761594 L3.94047773,24.6916199 L6.97638546,12.0159997 L11.3484902,6.37169345 L54.8573785,0.560623979 L71.3021472,8.98830865 L74.0140448,4.99728615 L70.7697155,3.24594034 L69.485795,5.50112279 L67.6255061,4.47810552 L70.0893116,0.379991899 Z M12.5274489,20.2870768 L10.1144903,20.2870768 L9.54148181,22.9884023 L12.0215985,22.9884023 L12.5274489,20.2870768 Z" id="Combined-Shape"></path>
                                </g>
                                <path d="M18.4526644,5.40849095" id="Path-6" stroke="#979797"></path>
                            </g>
                            <g transform="translate(91.138281, 83.571637)">
                                <g id="Group" transform="translate(0.000000, 0.000000)" fill="#FF7BA1">
                                    <path d="M70.0893116,0.379991899 L77.3588596,4.40484515 L72.6064437,11.4335877 L69.9605965,22.1692562 L67.834932,25.3430539 L65.5951809,26.4524302 L72.0148429,38.3196601 L68.5741023,48.9497921 L64.9083194,48.3811387 L66.2230256,40.2126393 L61.9466002,37.7583866 L60.7753445,48.2469944 L57.9807849,48.7461785 L56.1577586,47.634956 L56.1577586,37.3153476 L45.8584769,38.493685 L35.3287537,37.2054539 L35.2803345,41.4753617 L35.2049305,47.30014 L30.8351243,46.4753139 L30.8351243,37.5448287 L25.925898,37.5448287 L26.0579044,46.5973422 L21.4406452,46.8741253 L20.8789196,37.3398247 L16.3241459,35.4626886 L11.4203583,36.9008181 L4.34805781,35.4626886 L-9.47348735e-14,28.5966559 L1.89127503,27.9761594 L3.94047773,24.6916199 L6.97638546,12.0159997 L11.3484902,6.37169345 L54.8573785,0.560623979 L71.3021472,8.98830865 L74.0140448,4.99728615 L70.7697155,3.24594034 L69.485795,5.50112279 L67.6255061,4.47810552 L70.0893116,0.379991899 Z M12.5274489,20.2870768 L10.1144903,20.2870768 L9.54148181,22.9884023 L12.0215985,22.9884023 L12.5274489,20.2870768 Z" id="Combined-Shape"></path>
                                </g>
                                <path d="M18.4526644,5.40849095" id="Path-6" stroke="#979797"></path>
                            </g>
                            <g transform="translate(57.009067, 146.730015) rotate(-180.000000) translate(-57.009067, -146.730015) translate(18.242241, 121.985232)">
                                <g id="Group" transform="translate(-0.000000, 0.000000)" fill="#FF7BA1">
                                    <path d="M70.0893116,0.379991899 L77.3588596,4.40484515 L72.6064437,11.4335877 L69.9605965,22.1692562 L67.834932,25.3430539 L65.5951809,26.4524302 L72.0148429,38.3196601 L68.5741023,48.9497921 L64.9083194,48.3811387 L66.2230256,40.2126393 L61.9466002,37.7583866 L60.7753445,48.2469944 L57.9807849,48.7461785 L56.1577586,47.634956 L56.1577586,37.3153476 L45.8584769,38.493685 L35.3287537,37.2054539 L35.2803345,41.4753617 L35.2049305,47.30014 L30.8351243,46.4753139 L30.8351243,37.5448287 L25.925898,37.5448287 L26.0579044,46.5973422 L21.4406452,46.8741253 L20.8789196,37.3398247 L16.3241459,35.4626886 L11.4203583,36.9008181 L4.34805781,35.4626886 L-9.47348735e-14,28.5966559 L1.89127503,27.9761594 L3.94047773,24.6916199 L6.97638546,12.0159997 L11.3484902,6.37169345 L54.8573785,0.560623979 L71.3021472,8.98830865 L74.0140448,4.99728615 L70.7697155,3.24594034 L69.485795,5.50112279 L67.6255061,4.47810552 L70.0893116,0.379991899 Z M12.5274489,20.2870768 L10.1144903,20.2870768 L9.54148181,22.9884023 L12.0215985,22.9884023 L12.5274489,20.2870768 Z" id="Combined-Shape"></path>
                                </g>
                                <path d="M18.4526644,5.40849095" id="Path-6" stroke="#979797"></path>
                            </g>
                            <g transform="translate(126.294458, 146.730015) rotate(-180.000000) translate(-126.294458, -146.730015) translate(87.527632, 121.985232)">
                                <g id="Group" transform="translate(0.000000, 0.000000)" fill="#FF7BA1">
                                    <path d="M70.0893116,0.379991899 L77.3588596,4.40484515 L72.6064437,11.4335877 L69.9605965,22.1692562 L67.834932,25.3430539 L65.5951809,26.4524302 L72.0148429,38.3196601 L68.5741023,48.9497921 L64.9083194,48.3811387 L66.2230256,40.2126393 L61.9466002,37.7583866 L60.7753445,48.2469944 L57.9807849,48.7461785 L56.1577586,47.634956 L56.1577586,37.3153476 L45.8584769,38.493685 L35.3287537,37.2054539 L35.2803345,41.4753617 L35.2049305,47.30014 L30.8351243,46.4753139 L30.8351243,37.5448287 L25.925898,37.5448287 L26.0579044,46.5973422 L21.4406452,46.8741253 L20.8789196,37.3398247 L16.3241459,35.4626886 L11.4203583,36.9008181 L4.34805781,35.4626886 L-9.47348735e-14,28.5966559 L1.89127503,27.9761594 L3.94047773,24.6916199 L6.97638546,12.0159997 L11.3484902,6.37169345 L54.8573785,0.560623979 L71.3021472,8.98830865 L74.0140448,4.99728615 L70.7697155,3.24594034 L69.485795,5.50112279 L67.6255061,4.47810552 L70.0893116,0.379991899 Z M12.5274489,20.2870768 L10.1144903,20.2870768 L9.54148181,22.9884023 L12.0215985,22.9884023 L12.5274489,20.2870768 Z" id="Combined-Shape"></path>
                                </g>
                                <path d="M18.4526644,5.40849095" id="Path-6" stroke="#979797"></path>
                            </g>
                            <g transform="translate(152.321314, -0.760057)">
                                <g id="Group" transform="translate(0.000000, -0.000000)" fill="#FF7BA1">
                                    <path d="M70.0893116,0.379991899 L77.3588596,4.40484515 L72.6064437,11.4335877 L69.9605965,22.1692562 L67.834932,25.3430539 L65.5951809,26.4524302 L72.0148429,38.3196601 L68.5741023,48.9497921 L64.9083194,48.3811387 L66.2230256,40.2126393 L61.9466002,37.7583866 L60.7753445,48.2469944 L57.9807849,48.7461785 L56.1577586,47.634956 L56.1577586,37.3153476 L45.8584769,38.493685 L35.3287537,37.2054539 L35.2803345,41.4753617 L35.2049305,47.30014 L30.8351243,46.4753139 L30.8351243,37.5448287 L25.925898,37.5448287 L26.0579044,46.5973422 L21.4406452,46.8741253 L20.8789196,37.3398247 L16.3241459,35.4626886 L11.4203583,36.9008181 L4.34805781,35.4626886 L-9.47348735e-14,28.5966559 L1.89127503,27.9761594 L3.94047773,24.6916199 L6.97638546,12.0159997 L11.3484902,6.37169345 L54.8573785,0.560623979 L71.3021472,8.98830865 L74.0140448,4.99728615 L70.7697155,3.24594034 L69.485795,5.50112279 L67.6255061,4.47810552 L70.0893116,0.379991899 Z M12.5274489,20.2870768 L10.1144903,20.2870768 L9.54148181,22.9884023 L12.0215985,22.9884023 L12.5274489,20.2870768 Z" id="Combined-Shape"></path>
                                </g>
                                <path d="M18.4526644,5.40849095" id="Path-6" stroke="#979797"></path>
                            </g>
                            <g transform="translate(187.629840, 62.215625) rotate(-180.000000) translate(-187.629840, -62.215625) translate(148.863014, 37.470843)">
                                <g id="Group" transform="translate(-0.000000, 0.000000)" fill="#FF7BA1">
                                    <path d="M70.0893116,0.379991899 L77.3588596,4.40484515 L72.6064437,11.4335877 L69.9605965,22.1692562 L67.834932,25.3430539 L65.5951809,26.4524302 L72.0148429,38.3196601 L68.5741023,48.9497921 L64.9083194,48.3811387 L66.2230256,40.2126393 L61.9466002,37.7583866 L60.7753445,48.2469944 L57.9807849,48.7461785 L56.1577586,47.634956 L56.1577586,37.3153476 L45.8584769,38.493685 L35.3287537,37.2054539 L35.2803345,41.4753617 L35.2049305,47.30014 L30.8351243,46.4753139 L30.8351243,37.5448287 L25.925898,37.5448287 L26.0579044,46.5973422 L21.4406452,46.8741253 L20.8789196,37.3398247 L16.3241459,35.4626886 L11.4203583,36.9008181 L4.34805781,35.4626886 L-9.47348735e-14,28.5966559 L1.89127503,27.9761594 L3.94047773,24.6916199 L6.97638546,12.0159997 L11.3484902,6.37169345 L54.8573785,0.560623979 L71.3021472,8.98830865 L74.0140448,4.99728615 L70.7697155,3.24594034 L69.485795,5.50112279 L67.6255061,4.47810552 L70.0893116,0.379991899 Z M12.5274489,20.2870768 L10.1144903,20.2870768 L9.54148181,22.9884023 L12.0215985,22.9884023 L12.5274489,20.2870768 Z" id="Combined-Shape"></path>
                                </g>
                                <path d="M18.4526644,5.40849095" id="Path-6" stroke="#979797"></path>
                            </g>
                            <g transform="translate(160.695692, 83.348289)">
                                <g id="Group" transform="translate(0.000000, 0.000000)" fill="#FF7BA1">
                                    <path d="M70.0893116,0.379991899 L77.3588596,4.40484515 L72.6064437,11.4335877 L69.9605965,22.1692562 L67.834932,25.3430539 L65.5951809,26.4524302 L72.0148429,38.3196601 L68.5741023,48.9497921 L64.9083194,48.3811387 L66.2230256,40.2126393 L61.9466002,37.7583866 L60.7753445,48.2469944 L57.9807849,48.7461785 L56.1577586,47.634956 L56.1577586,37.3153476 L45.8584769,38.493685 L35.3287537,37.2054539 L35.2803345,41.4753617 L35.2049305,47.30014 L30.8351243,46.4753139 L30.8351243,37.5448287 L25.925898,37.5448287 L26.0579044,46.5973422 L21.4406452,46.8741253 L20.8789196,37.3398247 L16.3241459,35.4626886 L11.4203583,36.9008181 L4.34805781,35.4626886 L-9.47348735e-14,28.5966559 L1.89127503,27.9761594 L3.94047773,24.6916199 L6.97638546,12.0159997 L11.3484902,6.37169345 L54.8573785,0.560623979 L71.3021472,8.98830865 L74.0140448,4.99728615 L70.7697155,3.24594034 L69.485795,5.50112279 L67.6255061,4.47810552 L70.0893116,0.379991899 Z M12.5274489,20.2870768 L10.1144903,20.2870768 L9.54148181,22.9884023 L12.0215985,22.9884023 L12.5274489,20.2870768 Z" id="Combined-Shape"></path>
                                </g>
                                <path d="M18.4526644,5.40849095" id="Path-6" stroke="#979797"></path>
                            </g>
                            <g transform="translate(29.929606, 167.661355)">
                                <g id="Group" transform="translate(-0.000000, -0.000000)" fill="#FF7BA1">
                                    <path d="M70.0893116,0.379991899 L77.3588596,4.40484515 L72.6064437,11.4335877 L69.9605965,22.1692562 L67.834932,25.3430539 L65.5951809,26.4524302 L72.0148429,38.3196601 L68.5741023,48.9497921 L64.9083194,48.3811387 L66.2230256,40.2126393 L61.9466002,37.7583866 L60.7753445,48.2469944 L57.9807849,48.7461785 L56.1577586,47.634956 L56.1577586,37.3153476 L45.8584769,38.493685 L35.3287537,37.2054539 L35.2803345,41.4753617 L35.2049305,47.30014 L30.8351243,46.4753139 L30.8351243,37.5448287 L25.925898,37.5448287 L26.0579044,46.5973422 L21.4406452,46.8741253 L20.8789196,37.3398247 L16.3241459,35.4626886 L11.4203583,36.9008181 L4.34805781,35.4626886 L-9.47348735e-14,28.5966559 L1.89127503,27.9761594 L3.94047773,24.6916199 L6.97638546,12.0159997 L11.3484902,6.37169345 L54.8573785,0.560623979 L71.3021472,8.98830865 L74.0140448,4.99728615 L70.7697155,3.24594034 L69.485795,5.50112279 L67.6255061,4.47810552 L70.0893116,0.379991899 Z M12.5274489,20.2870768 L10.1144903,20.2870768 L9.54148181,22.9884023 L12.0215985,22.9884023 L12.5274489,20.2870768 Z" id="Combined-Shape"></path>
                                </g>
                                <path d="M18.4526644,5.40849095" id="Path-6" stroke="#979797"></path>
                            </g>
                            <g transform="translate(99.474595, 167.544849)">
                                <g id="Group" transform="translate(0.000000, -0.000000)" fill="#FF7BA1">
                                    <path d="M70.0893116,0.379991899 L77.3588596,4.40484515 L72.6064437,11.4335877 L69.9605965,22.1692562 L67.834932,25.3430539 L65.5951809,26.4524302 L72.0148429,38.3196601 L68.5741023,48.9497921 L64.9083194,48.3811387 L66.2230256,40.2126393 L61.9466002,37.7583866 L60.7753445,48.2469944 L57.9807849,48.7461785 L56.1577586,47.634956 L56.1577586,37.3153476 L45.8584769,38.493685 L35.3287537,37.2054539 L35.2803345,41.4753617 L35.2049305,47.30014 L30.8351243,46.4753139 L30.8351243,37.5448287 L25.925898,37.5448287 L26.0579044,46.5973422 L21.4406452,46.8741253 L20.8789196,37.3398247 L16.3241459,35.4626886 L11.4203583,36.9008181 L4.34805781,35.4626886 L-9.47348735e-14,28.5966559 L1.89127503,27.9761594 L3.94047773,24.6916199 L6.97638546,12.0159997 L11.3484902,6.37169345 L54.8573785,0.560623979 L71.3021472,8.98830865 L74.0140448,4.99728615 L70.7697155,3.24594034 L69.485795,5.50112279 L67.6255061,4.47810552 L70.0893116,0.379991899 Z M12.5274489,20.2870768 L10.1144903,20.2870768 L9.54148181,22.9884023 L12.0215985,22.9884023 L12.5274489,20.2870768 Z" id="Combined-Shape"></path>
                                </g>
                                <path d="M18.4526644,5.40849095" id="Path-6" stroke="#979797"></path>
                            </g>
                            <g transform="translate(169.321314, 168.197030)">
                                <g id="Group" transform="translate(0.000000, -0.000000)" fill="#FF7BA1">
                                    <path d="M70.0893116,0.379991899 L77.3588596,4.40484515 L72.6064437,11.4335877 L69.9605965,22.1692562 L67.834932,25.3430539 L65.5951809,26.4524302 L72.0148429,38.3196601 L68.5741023,48.9497921 L64.9083194,48.3811387 L66.2230256,40.2126393 L61.9466002,37.7583866 L60.7753445,48.2469944 L57.9807849,48.7461785 L56.1577586,47.634956 L56.1577586,37.3153476 L45.8584769,38.493685 L35.3287537,37.2054539 L35.2803345,41.4753617 L35.2049305,47.30014 L30.8351243,46.4753139 L30.8351243,37.5448287 L25.925898,37.5448287 L26.0579044,46.5973422 L21.4406452,46.8741253 L20.8789196,37.3398247 L16.3241459,35.4626886 L11.4203583,36.9008181 L4.34805781,35.4626886 L-9.47348735e-14,28.5966559 L1.89127503,27.9761594 L3.94047773,24.6916199 L6.97638546,12.0159997 L11.3484902,6.37169345 L54.8573785,0.560623979 L71.3021472,8.98830865 L74.0140448,4.99728615 L70.7697155,3.24594034 L69.485795,5.50112279 L67.6255061,4.47810552 L70.0893116,0.379991899 Z M12.5274489,20.2870768 L10.1144903,20.2870768 L9.54148181,22.9884023 L12.0215985,22.9884023 L12.5274489,20.2870768 Z" id="Combined-Shape"></path>
                                </g>
                                <path d="M18.4526644,5.40849095" id="Path-6" stroke="#979797"></path>
                            </g>
                            <g transform="translate(196.404675, 146.730015) rotate(-180.000000) translate(-196.404675, -146.730015) translate(157.637849, 121.985232)">
                                <g id="Group" transform="translate(0.000000, 0.000000)" fill="#FF7BA1">
                                    <path d="M70.0893116,0.379991899 L77.3588596,4.40484515 L72.6064437,11.4335877 L69.9605965,22.1692562 L67.834932,25.3430539 L65.5951809,26.4524302 L72.0148429,38.3196601 L68.5741023,48.9497921 L64.9083194,48.3811387 L66.2230256,40.2126393 L61.9466002,37.7583866 L60.7753445,48.2469944 L57.9807849,48.7461785 L56.1577586,47.634956 L56.1577586,37.3153476 L45.8584769,38.493685 L35.3287537,37.2054539 L35.2803345,41.4753617 L35.2049305,47.30014 L30.8351243,46.4753139 L30.8351243,37.5448287 L25.925898,37.5448287 L26.0579044,46.5973422 L21.4406452,46.8741253 L20.8789196,37.3398247 L16.3241459,35.4626886 L11.4203583,36.9008181 L4.34805781,35.4626886 L-9.47348735e-14,28.5966559 L1.89127503,27.9761594 L3.94047773,24.6916199 L6.97638546,12.0159997 L11.3484902,6.37169345 L54.8573785,0.560623979 L71.3021472,8.98830865 L74.0140448,4.99728615 L70.7697155,3.24594034 L69.485795,5.50112279 L67.6255061,4.47810552 L70.0893116,0.379991899 Z M12.5274489,20.2870768 L10.1144903,20.2870768 L9.54148181,22.9884023 L12.0215985,22.9884023 L12.5274489,20.2870768 Z" id="Combined-Shape"></path>
                                </g>
                                <path d="M18.4526644,5.40849095" id="Path-6" stroke="#979797"></path>
                            </g>
                        </g>
                    </g>
                </g>
                <path d="M149.486624,156.453007 L151.021607,155.157221 L148.256921,153.414265 L149.486624,156.453007 Z M146.387504,152.623597 L147.815777,151.417893 L155.065107,155.658975 L153.694293,156.816174 L152.254597,155.901735 L150.025999,157.78305 L150.657161,159.380028 L149.335598,160.495651 L146.387504,152.623597 Z M150.299735,148.726715 L151.474367,147.524004 L154.955697,150.924054 C155.345075,151.304342 155.674453,151.535937 155.94384,151.618848 C156.401596,151.785628 156.865645,151.62822 157.336,151.146621 C157.803854,150.667583 157.949006,150.201227 157.771461,149.747537 C157.68221,149.480184 157.442899,149.156368 157.053521,148.776081 L153.57219,145.37603 L154.746822,144.173319 L158.228152,147.57337 C158.830151,148.161314 159.207618,148.712653 159.360562,149.227405 C159.635113,150.176249 159.293281,151.141222 158.335058,152.122353 C157.376834,153.103483 156.418953,153.469292 155.461387,153.219792 C154.943166,153.079048 154.383065,152.71471 153.781066,152.126766 L150.299735,148.726715 Z M160.661933,140.256755 C160.16211,140.015442 159.67587,140.017149 159.203198,140.261875 C158.940535,140.399822 158.704827,140.598518 158.496066,140.857968 C158.096503,141.35455 157.955825,141.913506 158.074029,142.534854 C158.192232,143.156201 158.627948,143.769906 159.38119,144.375985 C160.140012,144.986554 160.816209,145.245696 161.409802,145.153418 C162.003395,145.06114 162.477519,144.794612 162.832188,144.353826 C163.180122,143.921409 163.340359,143.466661 163.312902,142.989569 C163.285446,142.512476 163.095275,142.07911 162.742385,141.689458 L161.594207,143.116425 L160.564782,142.288121 L162.632176,139.718742 L165.942239,142.382111 L165.255352,143.235781 L164.380996,142.745961 C164.474141,143.229949 164.501006,143.619236 164.46159,143.913835 C164.396966,144.422544 164.164876,144.925182 163.765312,145.421764 C163.107604,146.239171 162.285716,146.680871 161.299624,146.746879 C160.292783,146.832961 159.295587,146.478688 158.308003,145.684051 C157.30926,144.880434 156.729707,143.961414 156.569327,142.926963 C156.408947,141.892512 156.6924,140.923356 157.419695,140.019466 C158.050467,139.235536 158.755978,138.765687 159.53625,138.609904 C160.316523,138.454121 161.031819,138.58042 161.682162,138.988804 L160.661933,140.256755 Z M160.215302,136.051905 L161.12958,134.641101 L165.21325,137.287542 C165.669998,137.58354 166.038591,137.745605 166.319041,137.773742 C166.800703,137.846939 167.224579,137.601078 167.590681,137.036152 C167.954837,136.474232 168.005134,135.988405 167.741576,135.578657 C167.601336,135.334165 167.302846,135.063924 166.846098,134.767927 L162.762428,132.121485 L163.676706,130.710681 L167.760376,133.357122 C168.466533,133.814751 168.945348,134.280789 169.196836,134.755252 C169.653178,135.631286 169.508432,136.644731 168.762595,137.795617 C168.016759,138.946502 167.149869,139.494091 166.1619,139.438401 C165.626098,139.402657 165.005128,139.155974 164.298971,138.698346 L160.215302,136.051905 Z M169.471165,130.749055 C169.815138,130.871489 170.100412,130.908899 170.326997,130.861285 C170.740009,130.77342 171.096892,130.440422 171.397655,129.862279 C171.577782,129.516028 171.685911,129.215072 171.722045,128.959402 C171.789099,128.473602 171.624091,128.127424 171.227014,127.920856 C170.995122,127.80022 170.762766,127.808503 170.529938,127.945704 C170.333095,128.064722 170.102442,128.274385 169.837974,128.574699 L169.149457,129.388975 C168.604189,130.033663 168.161962,130.445369 167.822765,130.624105 C167.252522,130.928861 166.622748,130.901938 165.933423,130.543336 C165.304455,130.216132 164.900892,129.71558 164.722722,129.041665 C164.544552,128.36775 164.685995,127.587668 165.147055,126.701393 C165.532097,125.961243 166.056688,125.431945 166.720843,125.113481 C167.384998,124.795018 168.096926,124.817254 168.85665,125.180189 L168.122924,126.590596 C167.687215,126.396221 167.291184,126.424298 166.934819,126.67483 C166.698301,126.842402 166.491634,127.096132 166.314812,127.43603 C166.118159,127.814046 166.037408,128.15548 166.072554,128.460341 C166.107701,128.765203 166.261866,128.98869 166.535055,129.130808 C166.786007,129.261359 167.031262,129.247678 167.270828,129.089765 C167.408165,129.002281 167.62097,128.796457 167.909248,128.472288 L168.957691,127.267037 C169.36073,126.802645 169.738893,126.490808 170.092192,126.331517 C170.640695,126.084069 171.227834,126.12312 171.853626,126.448671 C172.495302,126.782484 172.900513,127.305084 173.069272,128.016485 C173.238032,128.727885 173.089405,129.531476 172.623388,130.42728 C172.147455,131.342143 171.564301,131.952981 170.873907,132.259813 C170.183513,132.566644 169.473017,132.530017 168.742397,132.149932 L169.471165,130.749055 Z M169.244422,117.373712 L170.540266,117.90849 L169.636677,120.09802 L175.659125,122.583402 L175.023949,124.122527 L169.001501,121.637145 L168.093813,123.836604 L166.797969,123.301827 L169.244422,117.373712 Z M176.491872,115.156962 L176.322221,115.016508 C175.879913,114.667724 175.487405,114.024372 175.144686,113.086433 L174.973998,112.631172 C174.757903,112.06864 174.587759,111.684041 174.463565,111.477366 C174.220526,111.07961 173.904002,110.826869 173.513984,110.719134 C173.196447,110.631421 172.908101,110.646499 172.648936,110.764367 C172.389772,110.882236 172.214906,111.105112 172.124333,111.433004 C172.000391,111.881697 172.08341,112.233389 172.373395,112.488089 C172.540936,112.634669 172.83286,112.774744 173.249175,112.908316 L172.853038,114.342403 C172.221187,114.141863 171.737135,113.883708 171.40087,113.567931 C170.760585,112.967573 170.579165,112.165215 170.856605,111.160831 C171.075887,110.366989 171.470386,109.796155 172.040114,109.448311 C172.609841,109.100467 173.257101,109.026654 173.981914,109.226868 C174.537604,109.380366 174.985397,109.682369 175.325306,110.132887 C175.551715,110.429463 175.772298,110.874876 175.98706,111.469137 L176.370911,112.520403 C176.468959,112.780232 176.546444,112.970412 176.603366,113.090948 C176.683057,113.259697 176.787689,113.412116 176.917264,113.548209 L177.822515,110.271037 L179.121994,110.629991 L177.701909,115.770958 C177.243664,115.631641 176.840321,115.426977 176.491872,115.156962 L176.491872,115.156962 Z M177.837464,107.136183 C178.331365,107.08405 178.622351,106.834915 178.710434,106.388772 C178.798516,105.942629 178.623525,105.604234 178.185457,105.373576 C177.747388,105.142919 177.089247,104.940898 176.211013,104.767507 C175.290624,104.585794 174.595426,104.520625 174.125401,104.571997 C173.655375,104.62337 173.376325,104.872124 173.288243,105.318267 C173.200161,105.76441 173.363214,106.103185 173.777408,106.334604 C174.191602,106.566024 174.858884,106.772586 175.779273,106.954299 C176.559926,107.108424 177.188735,107.173452 177.665714,107.149385 L177.837464,107.136183 Z M173.481639,103.2295 C174.243993,102.973052 175.255728,102.969322 176.516872,103.21831 C177.778016,103.467298 178.710663,103.854908 179.314841,104.381152 C179.919018,104.907395 180.125046,105.657047 179.932929,106.63013 C179.740813,107.603214 179.265341,108.218317 178.506499,108.475459 C177.747658,108.7326 176.73768,108.736677 175.476536,108.487689 C174.215391,108.2387 173.280988,107.850743 172.673298,107.323807 C172.065607,106.79687 171.857823,106.046871 172.049939,105.073788 C172.228333,104.17021 172.652563,103.575598 173.322641,103.289937 L173.481639,103.2295 Z M174.969088,101.53528 L173.934624,101.410248 L173.959187,101.031633 C173.973928,100.745239 173.974349,100.531645 173.960452,100.390845 C173.92986,100.076963 173.824853,99.8117981 173.645427,99.5953441 C173.522684,99.4470568 173.349864,99.3251797 173.12696,99.229709 C172.993046,99.1738485 172.89232,99.141837 172.824777,99.1336734 L172.977521,97.8699215 L180.709337,98.8044327 L180.521146,100.36146 L175.188859,99.7169699 L174.969088,101.53528 Z M179.428162,93.9675127 C179.703108,93.754191 179.848465,93.4740472 179.864237,93.127073 C179.879684,92.787253 179.763961,92.5140593 179.517064,92.3074838 C179.270166,92.1009083 178.94283,91.9883539 178.535046,91.9698173 C178.08076,91.9491667 177.727857,92.0442409 177.476324,92.2550425 C177.224792,92.4658441 177.09171,92.7322083 177.077076,93.0541431 C177.065206,93.315268 177.133412,93.5495617 177.281697,93.7570312 C177.500547,94.0680728 177.869303,94.2353798 178.387975,94.2589572 C178.746703,94.2752639 179.052687,94.20622 179.305933,94.0518236 L179.428162,93.9675127 Z M175.126944,91.9546874 C175.001747,91.9489963 174.861838,91.9910257 174.707211,92.0807768 C174.456492,92.2342643 174.323573,92.4773374 174.308451,92.8100033 C174.285849,93.3072137 174.548758,93.6740195 175.097185,93.9104316 C175.399608,94.0388812 175.85031,94.1382254 176.449303,94.2084672 C176.232567,94.0086394 176.078025,93.7811744 175.985673,93.5260652 C175.89332,93.270956 175.854462,92.9824383 175.869096,92.6605035 C175.900478,91.9701322 176.160503,91.4147223 176.649179,90.9942572 C177.137854,90.5737921 177.747042,90.3801478 178.476761,90.4133188 C179.202903,90.4463271 179.833348,90.691841 180.368117,91.1498678 C180.902885,91.6078946 181.149534,92.2929721 181.10807,93.2051207 C181.063517,94.1852333 180.621105,94.8891695 179.780822,95.3169504 C179.124106,95.6491269 178.289608,95.7922048 177.277302,95.7461883 C176.683511,95.7191962 176.201754,95.6722062 175.832017,95.6052168 C175.174327,95.485709 174.631356,95.2871841 174.203085,95.0096362 C173.837576,94.7707856 173.548531,94.4664147 173.335941,94.0965143 C173.123351,93.7266138 173.02844,93.2912764 173.051204,92.790489 C173.08405,92.0679242 173.295338,91.5004418 173.685076,91.0880248 C174.074813,90.6756078 174.57852,90.4565585 175.196212,90.4308703 L175.126944,91.9546874 Z" id="Shape" fill="#FDF817"></path>
                <path d="M11.5117913,95.7171692 L10.1106866,95.6712973 L10.1881942,93.3039134 L3.67654647,93.0907234 L3.7310303,91.426576 L10.2426781,91.639766 L10.3205372,89.2616457 L11.721642,89.3075175 L11.5117913,95.7171692 Z M10.7076078,102.563087 L10.5029507,98.3786354 L8.82380544,98.4607606 L9.01167018,102.301872 L7.63831179,102.369042 L7.45044705,98.5279301 L5.41723288,98.6273725 L5.63133571,103.004952 L4.2096952,103.074483 L3.9166157,97.0821344 L11.8241558,96.6953849 L12.1077896,102.494605 L10.7076078,102.563087 Z M11.8542062,104.699828 C12.5882354,105.248766 13.0235905,106.016233 13.1602845,107.00225 C13.3431987,108.32167 13.0442341,109.346379 12.2633818,110.076409 C11.8241785,110.480721 11.3615738,110.729215 10.8755538,110.821898 L10.6483872,109.183273 C11.0095997,109.024747 11.2744111,108.848861 11.4428296,108.655608 C11.7420217,108.310471 11.8510505,107.845296 11.7699192,107.26007 C11.6873128,106.664203 11.381869,106.227568 10.8535786,105.950152 C10.3252883,105.672736 9.62134728,105.595 8.74173439,105.716943 C7.8621215,105.838886 7.22850792,106.111991 6.84087464,106.536266 C6.45324136,106.960541 6.29827173,107.452871 6.3759611,108.013269 C6.4556173,108.587855 6.70432091,108.999822 7.1220794,109.249181 C7.34735862,109.387855 7.66978391,109.484139 8.08936495,109.538036 L8.31431881,111.160701 C7.43986551,111.137329 6.69442193,110.871044 6.07796573,110.361838 C5.46150952,109.852633 5.09010291,109.142274 4.96373475,108.230739 C4.8073726,107.102849 5.04621906,106.166002 5.68028131,105.420172 C6.31789038,104.67385 7.26978911,104.212927 8.53600605,104.037388 C9.81380929,103.860243 10.8624935,104.040785 11.6820858,104.579017 L11.8542062,104.699828 Z M6.38183732,113.286306 L14.0831845,111.45109 L14.4629273,113.044652 L11.5265927,113.744375 L12.2437462,116.753857 L15.1800807,116.054134 L15.5610685,117.652921 L7.8597213,119.488137 L7.47873352,117.88935 L10.9166484,117.070101 L10.1994949,114.06062 L6.76158005,114.879868 L6.38183732,113.286306 Z M17.0114186,123.04601 C17.8524211,123.410492 18.4533238,124.0566 18.8141447,124.984352 C19.2969699,126.225805 19.2428611,127.291864 18.6518166,128.18256 C18.3179171,128.677413 17.9252464,129.02607 17.4737929,129.228543 L16.8741582,127.686747 C17.188968,127.449051 17.405974,127.216737 17.5251828,126.989799 C17.7365327,126.584871 17.7351294,126.107092 17.5209731,125.556448 C17.3029231,124.995792 16.9048571,124.641547 16.3267633,124.493702 C15.7486696,124.345858 15.0458156,124.432876 14.2181805,124.75476 C13.3905453,125.076643 12.8371798,125.488759 12.5580674,125.991118 C12.2789549,126.493478 12.2419347,127.008292 12.4470056,127.535576 C12.6572682,128.076208 12.9944295,128.419563 13.4584998,128.565649 C13.7097245,128.648518 14.0456721,128.667698 14.4663527,128.623189 L15.0601468,130.149968 C14.2039556,130.329277 13.4171567,130.242437 12.6997263,129.889447 C11.9822959,129.536457 11.4568063,128.931136 11.1232416,128.073465 C10.7105039,127.012223 10.7264228,126.045541 11.1709985,125.173388 C11.6189115,124.299938 12.4385528,123.631545 13.6299469,123.168188 C14.8322427,122.700592 15.8942651,122.633942 16.8160417,122.968239 L17.0114186,123.04601 Z M17.6551985,136.343173 C18.2600756,136.469551 18.9606698,136.332232 19.757002,135.931213 C20.5501361,135.531805 21.0768026,135.051096 21.3370173,134.489073 C21.597232,133.927049 21.5799772,133.353418 21.2852523,132.768162 C20.9905274,132.182906 20.5395253,131.824695 19.9322324,131.69352 C19.3249396,131.562345 18.6231375,131.697265 17.8268053,132.098284 C17.0304731,132.499303 16.504215,132.982813 16.2480151,133.548828 C15.9918152,134.114843 16.0110774,134.69047 16.3058023,135.275727 C16.5710547,135.802457 16.9619132,136.143338 17.4783878,136.298376 L17.6551985,136.343173 Z M17.04567,137.807757 C16.2266365,137.55068 15.5626679,136.916848 15.053744,135.906241 C14.5448202,134.895635 14.4309202,133.984798 14.7120405,133.173702 C15.026088,132.117504 15.8179269,131.269729 17.0875811,130.630354 C18.2964709,130.021578 19.3810973,129.866523 20.3414881,130.165187 L20.5453846,130.236132 C21.3644181,130.493209 22.0283867,131.127041 22.5373105,132.137647 C23.0462344,133.148254 23.1601344,134.059091 22.8790141,134.870186 C22.5889411,135.910302 21.7962969,136.756478 20.5010578,137.408738 C19.3160472,138.005489 18.2337143,138.161134 17.254031,137.875678 L17.04567,137.807757 Z M24.6473658,138.411868 L20.2924025,141.192534 L21.1133059,142.478199 C21.5333948,143.136125 22.1507273,143.387704 22.9653221,143.232945 C23.4120166,143.147404 23.8813244,142.947585 24.3732597,142.633482 C25.0523114,142.199904 25.5057383,141.760634 25.7335538,141.315659 C25.9613693,140.870685 25.872942,140.331315 25.4682693,139.697533 L24.6473658,138.411868 Z M27.2916562,140.317617 C27.4364248,140.883686 27.3960818,141.442613 27.170626,141.994415 C26.9870252,142.438774 26.7290543,142.826528 26.3967057,143.15769 C26.0643571,143.488851 25.7231434,143.766195 25.3730545,143.989728 C24.4857603,144.55627 23.6205956,144.85803 22.7775345,144.895015 C21.6392603,144.942063 20.7483254,144.461586 20.104703,143.453572 L18.2692323,140.578934 L24.942014,136.318329 L26.7774847,139.192967 C26.9924553,139.540735 27.1473038,139.859029 27.242033,140.147856 L27.2916562,140.317617 Z M32.0092138,148.113801 L29.4301163,144.81232 L28.1052914,145.847266 L30.4727707,148.877856 L29.3892078,149.724329 L27.0217286,146.693739 L25.4175477,147.946916 L28.1156804,151.400772 L26.9940236,152.277004 L23.3006237,147.549115 L29.5395754,142.675282 L33.11394,147.250795 L32.0092138,148.113801 Z M35.9952005,158.28937 C36.6087453,158.215813 37.2287149,157.861799 37.8551282,157.227317 C38.4790258,156.595383 38.8244476,155.97157 38.8914041,155.35586 C38.9583605,154.74015 38.7586887,154.202115 38.2923824,153.741739 C37.8260762,153.281363 37.2842478,153.08607 36.6668809,153.155853 C36.049514,153.225636 35.4276333,153.577764 34.80122,154.212246 C34.1748067,154.846728 33.830667,155.473065 33.7687906,156.091274 C33.7069142,156.709484 33.909126,157.248768 34.3754323,157.709144 C34.7951079,158.123483 35.2744085,158.321576 35.8133459,158.303428 L35.9952005,158.28937 Z M35.8856906,159.871944 C35.0274512,159.890096 34.1957407,159.501695 33.3905344,158.706729 C32.585328,157.911763 32.1863142,157.085091 32.1934811,156.22669 C32.153518,155.125516 32.6328989,154.069142 33.6316381,153.057538 C34.5825787,152.094348 35.5607734,151.600799 36.5662478,151.576877 L36.7821241,151.57894 C37.6403635,151.560787 38.4720739,151.949188 39.2772803,152.744155 C40.0205477,153.47797 40.4177102,154.2388 40.4687772,155.026664 L40.4743336,155.224194 C40.5318743,156.302467 40.0512194,157.357582 39.0323544,158.389572 C38.1001978,159.333736 37.1243652,159.827113 36.1048311,159.869715 L35.8856906,159.871944 Z M42.8966638,155.955238 L47.2713141,159.471753 L46.3997568,160.555997 L43.3061045,158.069198 L42.1653403,159.488343 L44.8738558,161.665554 L44.0123937,162.737238 L41.3038782,160.560027 L39.2242548,163.147141 L37.9432567,162.117425 L42.8966638,155.955238 Z M53.7790998,165.207815 C53.6872562,164.944603 53.4754083,164.710281 53.1435497,164.504843 L51.832867,163.693458 L50.6058951,165.675466 L51.9165778,166.486851 C52.2484364,166.692289 52.5564056,166.77134 52.8404946,166.724006 C53.1245835,166.676671 53.3749979,166.477944 53.5917452,166.127818 C53.7813991,165.821458 53.8529198,165.548373 53.8063086,165.308557 L53.7790998,165.207815 Z M53.3442537,168.29294 C52.7388159,168.372966 52.0631468,168.182099 51.3172261,167.720333 L49.8878055,166.835443 L48.3894297,169.255868 L46.991977,168.390768 L51.1591581,161.659247 L54.0910686,163.474261 C54.7669642,163.892678 55.1984161,164.399813 55.3854374,164.995683 C55.5724587,165.591552 55.4407426,166.253304 54.9902853,166.980957 C54.5393567,167.709372 54.0407427,168.137546 53.4944305,168.26549 L53.3442537,168.29294 Z M58.3241239,167.067731 L57.3697194,168.968531 L59.0449196,169.80966 C59.3777213,169.976762 59.6465996,170.063687 59.8515624,170.070438 C60.2134474,170.083858 60.4940042,169.89217 60.6932411,169.495368 C60.9085456,169.066566 60.9107523,168.707069 60.6998613,168.416868 C60.581636,168.25333 60.3625258,168.091226 60.0425241,167.930551 L58.3241239,167.067731 Z M62.0199288,167.61321 C62.2308939,167.859374 62.3745453,168.137848 62.4508873,168.448641 C62.5145101,168.704966 62.536492,168.964419 62.5168335,169.22701 C62.4971749,169.4896 62.4174533,169.760091 62.2776661,170.038493 C62.1089574,170.374494 61.8582638,170.662313 61.5255778,170.901957 C61.1928919,171.141601 60.7976121,171.23061 60.3397266,171.168987 C60.6002515,171.464077 60.7378575,171.766561 60.7525486,172.076449 C60.7672397,172.386337 60.6500639,172.789276 60.4010178,173.285279 L60.1624166,173.760479 C60.0001349,174.08368 59.9028741,174.309305 59.8706313,174.43736 C59.8174467,174.639042 59.8395634,174.818429 59.9369819,174.975526 L59.8478077,175.153126 L58.2206075,174.336098 L58.2696549,174.094776 C58.2853881,174.023543 58.3005051,173.961516 58.3150063,173.908696 C58.3762246,173.691014 58.4574519,173.477372 58.5586906,173.267764 L58.879276,172.605344 C59.0994276,172.150928 59.1680606,171.808758 59.0851771,171.578823 C59.0022935,171.348888 58.7432544,171.124665 58.3080522,170.906147 L56.781652,170.139731 L55.3886071,172.914132 L53.9438069,172.188688 L57.4963124,165.113487 L60.9667129,166.855998 C61.3877263,167.077695 61.7057989,167.294804 61.9209374,167.507329 L62.0199288,167.61321 Z M64.8659942,173.556438 L66.7395672,174.280978 L66.9414271,171.018979 L64.8659942,173.556438 Z M66.7376541,168.999486 L68.4809787,169.673657 L68.2404268,178.068994 L66.5672359,177.421946 L66.6783217,175.72001 L63.9581342,174.668071 L62.8601664,175.988364 L61.2470902,175.364563 L66.7376541,168.999486 Z M72.5353417,171.56078 C73.3318261,171.107189 74.2093145,171.014706 75.1678331,171.283329 C76.4504552,171.642781 77.2703893,172.326241 77.6276601,173.333729 C77.8228326,173.897888 77.8658134,174.421247 77.7566037,174.903822 L76.1636778,174.457408 C76.162665,174.062942 76.1072228,173.749913 75.9973496,173.518311 C75.8004871,173.106145 75.4176091,172.820349 74.8487041,172.660915 C74.2694555,172.498582 73.7471507,172.604146 73.2817742,172.977609 C72.8163976,173.351073 72.4638973,173.965336 72.2242627,174.820417 C71.9846281,175.675499 71.9818491,176.365459 72.2159256,176.890318 C72.450002,177.415177 72.8394192,177.753937 73.3841888,177.906607 C73.94275,178.063143 74.4197718,177.999739 74.8152685,177.716393 C75.0323975,177.565277 75.2494787,177.308169 75.4665185,176.945062 L77.0439288,177.387128 C76.6731418,178.179423 76.1312126,178.756403 75.418125,179.118086 C74.7050375,179.47977 73.9054494,179.536445 73.0193369,179.288114 C71.9229019,178.98084 71.1594956,178.387595 70.729095,177.508361 C70.2996607,176.625679 70.2574231,175.568902 70.602381,174.337999 C70.9504953,173.095832 71.5349719,172.206607 72.3558263,171.670301 L72.5353417,171.56078 Z M85.2981165,173.240316 L85.0500443,174.620048 L82.7187739,174.200891 L81.5658562,180.613207 L79.9270947,180.318562 L81.0800124,173.906246 L78.7381693,173.485189 L78.9862414,172.105458 L85.2981165,173.240316 Z M87.0004777,181.098227 L85.3647124,180.938402 L86.1345858,173.058932 L87.7703511,173.218756 L87.0004777,181.098227 Z M90.3121537,174.165511 C90.9929132,173.551753 91.8301892,173.27335 92.8240068,173.330295 C94.1538634,173.406495 95.1012272,173.898339 95.6661267,174.805843 C95.9776778,175.315062 96.1318293,175.817047 96.128636,176.311815 L94.476998,176.21718 C94.3914644,175.832098 94.2702202,175.538225 94.1132619,175.335554 C93.8326362,174.975159 93.397402,174.778065 92.8075462,174.744267 C92.2069658,174.709854 91.7194233,174.924908 91.3449041,175.389435 C90.9703848,175.853963 90.7577285,176.529502 90.7069287,177.416073 C90.6561289,178.302644 90.8012908,178.977167 91.1424189,179.439661 C91.4835469,179.902155 91.93652,180.14958 92.5013515,180.181944 C93.0804826,180.215128 93.5328303,180.050959 93.8584083,179.689433 C94.0381035,179.495292 94.1950353,179.197633 94.3292082,178.796446 L95.9647091,178.890159 C95.7723479,179.743512 95.3666739,180.423234 94.747675,180.929346 C94.1286762,181.435457 93.3598158,181.662188 92.4410708,181.609545 C91.3042579,181.544406 90.4314436,181.128565 89.8226018,180.362008 C89.2139648,179.591877 88.9462139,178.568709 89.019341,177.292476 C89.0931373,176.004565 89.4734478,175.010735 90.160283,174.310961 L90.3121537,174.165511 Z M103.284721,174.473826 L99.0982391,174.631571 L99.1615393,176.311531 L103.004515,176.166729 L103.056288,177.540754 L99.2133119,177.685556 L99.2899598,179.719757 L103.669664,179.554731 L103.723257,180.977062 L97.7279998,181.202961 L97.4299024,173.291583 L103.231938,173.072964 L103.284721,174.473826 Z" id="Shape" fill="#FDF817"></path>
                <path d="M21.9200134,38.5141416 L25.7880887,33.4099265 L27.0442954,34.3619047 L25.6251753,36.2345399 L31.0656242,40.3574198 L30.035789,41.7163646 L24.5953401,37.5934847 L23.1762201,39.4661199 L21.9200134,38.5141416 Z M27.1587894,32.244391 L29.3338856,29.8269222 C29.6683165,29.4552255 30.0172728,29.1754268 30.3807651,28.9875179 C30.7442573,28.799609 31.1022389,28.6908231 31.4547204,28.661157 C31.8072019,28.6314908 32.1447355,28.6724539 32.4673311,28.7840477 C32.7899267,28.8956414 33.0789909,29.0663963 33.3345325,29.2963175 C33.540708,29.4818222 33.7079045,29.6887426 33.836127,29.9170851 C33.9643495,30.1454277 34.0542455,30.3813212 34.1058175,30.6247729 C34.1573896,30.8682247 34.1709983,31.1129847 34.146644,31.3590604 C34.1222897,31.6051362 34.0635284,31.8412688 33.9703581,32.0674653 L37.7708749,33.0120087 L36.4618981,34.4668458 L33.1953414,33.577102 L32.2939502,34.5789359 L34.5415428,36.6011876 L33.405006,37.8643695 L27.1587894,32.244391 Z M32.1906055,30.6553157 C32.0657386,30.5429679 31.9293366,30.4609645 31.7813956,30.4093032 C31.6334545,30.357642 31.4791332,30.3422757 31.318427,30.3632039 C31.1577209,30.3841321 30.9941918,30.443241 30.8278347,30.5405323 C30.6614777,30.6378236 30.4973066,30.7764875 30.3353166,30.9565281 L29.4104108,31.9844968 L31.1701539,33.5678101 L32.0950597,32.5398414 C32.2570497,32.3598008 32.3769372,32.1812932 32.4547259,32.0043133 C32.5325146,31.8273334 32.5726306,31.6571847 32.5750752,31.4938621 C32.5775199,31.3305394 32.5452696,31.1780396 32.4783235,31.036358 C32.4113774,30.8946764 32.3154723,30.7676636 32.1906055,30.6553157 L32.1906055,30.6553157 Z M40.3875896,29.148695 C40.5689613,28.9823609 40.7136735,28.8006205 40.8217303,28.6034684 C40.9297871,28.4063162 40.991169,28.2016191 41.0058778,27.9893709 C41.0205866,27.7771227 40.9851427,27.5578705 40.8995449,27.3316076 C40.8139471,27.1053448 40.6681817,26.879939 40.4622443,26.6553835 L36.9415237,22.8163673 L38.1765728,21.6837171 L41.8675869,25.7084224 C42.1844137,26.0538924 42.4082582,26.4236742 42.539127,26.8177788 C42.6699958,27.2118834 42.7136392,27.6091216 42.6700583,28.0095053 C42.6264775,28.409889 42.4995111,28.8045868 42.2891553,29.1936106 C42.0787995,29.5826345 41.7908147,29.9447952 41.4251923,30.2801036 C41.0595699,30.615412 40.6738983,30.8710543 40.2681659,31.0470383 C39.8624336,31.2230223 39.4575281,31.3160985 39.0534374,31.3262696 C38.6493467,31.3364407 38.25664,31.2593248 37.8753054,31.0949197 C37.4939708,30.9305145 37.1448954,30.6755807 36.8280685,30.3301107 L33.1370544,26.3054054 L34.3764218,25.1687948 L37.8971424,29.0078109 C38.1030798,29.2323664 38.3150593,29.397048 38.5330873,29.5018606 C38.7511152,29.6066731 38.9664888,29.6609139 39.1792143,29.6645844 C39.3919399,29.6682549 39.6011721,29.6247747 39.8069172,29.5341425 C40.0126623,29.4435103 40.2062178,29.3150291 40.3875896,29.148695 L40.3875896,29.148695 Z M44.4816769,24.9309308 C44.6439732,24.9662585 44.8239365,24.9860642 45.021572,24.9903485 C45.2192075,24.9946328 45.422622,24.9788336 45.6318214,24.9429504 C45.8410209,24.9070673 46.0519298,24.8456086 46.2645544,24.7585725 C46.477179,24.6715364 46.6870655,24.5512822 46.8942203,24.3978064 C47.2802815,24.1117831 47.5162224,23.8117977 47.6020501,23.497841 C47.6878779,23.1838843 47.6447529,22.9107778 47.4726739,22.6785134 C47.2936187,22.4368328 47.0673487,22.3200751 46.7938573,22.3282368 C46.5203658,22.3363985 46.1607142,22.4497195 45.7148916,22.6682032 L45.4751252,22.7875021 C45.1554352,22.946568 44.8256924,23.0887756 44.4858872,23.2141291 C44.1460819,23.3394826 43.8062187,23.408974 43.4662875,23.4226055 C43.1263562,23.436237 42.7968283,23.3753194 42.4776939,23.2398508 C42.1585595,23.1043822 41.8629613,22.8530372 41.5908905,22.4858083 C41.4327638,22.2723761 41.314162,22.0138661 41.2350816,21.7102705 C41.1560011,21.406675 41.1465852,21.0806408 41.2068336,20.7321583 C41.2670821,20.3836759 41.4131244,20.0263268 41.6449651,19.6601003 C41.8768058,19.2938739 42.223416,18.9398496 42.6848062,18.598017 C43.2309415,18.1933988 43.7850728,17.9226236 44.3472166,17.7856833 C44.9093604,17.648743 45.4315437,17.630126 45.9137821,17.7298317 L45.6329832,19.2504765 C45.2966488,19.1836586 44.940302,19.1997326 44.5639319,19.2986992 C44.1875618,19.3976657 43.8455852,19.5610908 43.5379917,19.7889792 C43.1833176,20.0517485 42.9563259,20.3244425 42.8570098,20.6070694 C42.7576936,20.8896963 42.7882611,21.1392914 42.9487132,21.3558623 C43.0533558,21.4971042 43.172728,21.5909691 43.3068333,21.6374599 C43.4409386,21.6839506 43.5887277,21.6947784 43.7502051,21.6699438 C43.9116825,21.6451091 44.08914,21.5926339 44.2825829,21.5125167 C44.4760259,21.4323996 44.6882979,21.3383314 44.9194054,21.2303096 L45.0416426,21.1689161 C45.3487778,21.0191517 45.6642219,20.8838916 45.9879842,20.7631316 C46.3117466,20.6423716 46.6379211,20.5757296 46.9665174,20.5632035 C47.2951138,20.5506774 47.6158357,20.6144731 47.9286927,20.7545925 C48.2415497,20.8947118 48.5363346,21.1515208 48.8130562,21.5250272 C49.0641986,21.8640077 49.2156503,22.2160705 49.267416,22.5812259 C49.3191816,22.9463814 49.2969503,23.3068005 49.2007213,23.662494 C49.1044923,24.0181875 48.9384524,24.3551066 48.7025967,24.6732616 C48.466741,24.9914165 48.1840352,25.2725729 47.8544708,25.516739 C47.5217677,25.7632306 47.1924659,25.963449 46.8665557,26.1174002 C46.5406455,26.2713515 46.2239786,26.3819949 45.9165456,26.4493338 C45.6091126,26.5166728 45.317492,26.5528532 45.0416752,26.5578762 C44.7658583,26.5628992 44.5058249,26.5416472 44.2615669,26.4941198 L44.4816769,24.9309308 Z M46.7565435,16.229579 L52.2359698,12.9143255 L53.0518922,14.262876 L51.0415995,15.4791767 L54.5752411,21.3195533 L53.1164002,22.2022054 L49.5827586,16.3618288 L47.5724659,17.5781295 L46.7565435,16.229579 Z M57.5865079,15.1716743 C57.491636,14.9659308 57.4415791,14.7524305 57.4363358,14.531167 C57.4310925,14.3099036 57.4639725,14.0990239 57.5349768,13.8985216 C57.6059811,13.6980194 57.7144228,13.515744 57.8603051,13.3516899 C58.0061873,13.1876359 58.1837712,13.057357 58.3930621,12.9608494 C58.5988056,12.8659774 58.8123059,12.8159206 59.0335694,12.8106773 C59.2548328,12.805434 59.4665304,12.8400876 59.6686684,12.9146392 C59.8708063,12.9891908 60.0543085,13.1002929 60.2191804,13.2479488 C60.3840523,13.3956048 60.5139223,13.5723019 60.6087942,13.7780454 C60.7036661,13.9837889 60.753314,14.1964024 60.7577395,14.4158922 C60.7621649,14.635382 60.7262845,14.8444192 60.6500972,15.0430098 C60.5739099,15.2416005 60.4619899,15.4233291 60.314334,15.5882009 C60.166678,15.7530728 59.989981,15.8829428 59.7842374,15.9778147 C59.5749466,16.0743224 59.3605595,16.1247882 59.1410697,16.1292136 C58.9215799,16.133639 58.7133606,16.0995322 58.5164056,16.0268922 C58.3194507,15.9542522 58.1389489,15.8449927 57.9748949,15.6991104 C57.8108409,15.5532281 57.6813798,15.3774179 57.5865079,15.1716743 L57.5865079,15.1716743 Z M68.4927319,14.014697 C68.7240829,13.9307956 68.927505,13.8185878 69.1030044,13.67807 C69.2785037,13.5375523 69.4138074,13.372139 69.5089195,13.1818253 C69.6040317,12.9915115 69.6555294,12.7754657 69.6634143,12.5336813 C69.6712992,12.2918969 69.6233034,12.0277914 69.5194256,11.7413568 L67.7435229,6.84445085 L69.3189054,6.27312556 L71.1807067,11.4068897 C71.3405188,11.8475584 71.4051434,12.2749558 71.3745824,12.6890948 C71.3440214,13.1032339 71.2317235,13.4867597 71.0376851,13.8396839 C70.8436468,14.1926081 70.5748046,14.5082515 70.2311504,14.7866234 C69.8874963,15.0649953 69.4824881,15.2887452 69.0161138,15.4578796 C68.5497394,15.627014 68.0954566,15.7148931 67.6532517,15.7215193 C67.2110468,15.7281456 66.801453,15.6585426 66.4244582,15.5127082 C66.0474634,15.3668738 65.7145091,15.1448223 65.4255853,14.846547 C65.1366615,14.5482717 64.9122969,14.1788053 64.7524849,13.7381366 L62.8906836,8.60437246 L64.4715745,8.03104953 L66.2474772,12.9279555 C66.351355,13.2143901 66.483811,13.4478654 66.6448491,13.6283885 C66.8058872,13.8089116 66.983901,13.9417232 67.1788957,14.0268274 C67.3738904,14.1119315 67.5837719,14.1521605 67.8085467,14.1475157 C68.0333214,14.1428708 68.2613808,14.0985983 68.4927319,14.014697 L68.4927319,14.014697 Z M73.8931133,11.701079 C74.0292655,11.7962144 74.1877013,11.8838337 74.3684254,11.9639396 C74.5491495,12.0440454 74.7429448,12.1078452 74.9498172,12.155341 C75.1566896,12.2028368 75.3749941,12.2273905 75.6047372,12.2290029 C75.8344803,12.2306152 76.0744962,12.2005195 76.3247923,12.1387147 C76.7912531,12.023533 77.1245652,11.8376232 77.3247386,11.5809798 C77.524912,11.3243365 77.5903496,11.0557013 77.5210532,10.7750664 C77.4489476,10.4830543 77.2851381,10.2881265 77.0296196,10.190277 C76.7741012,10.0924275 76.3985558,10.0584184 75.9029722,10.0882486 L75.6357517,10.1059496 C75.2794559,10.1295511 74.9203795,10.1337224 74.5585118,10.1184638 C74.196644,10.1032052 73.8562474,10.0363757 73.5373117,9.91797327 C73.2183761,9.79957085 72.9377656,9.61638428 72.6954718,9.36840804 C72.453178,9.12043181 72.2772522,8.77459557 72.1676891,8.33088893 C72.1040114,8.07300814 72.0941759,7.78875989 72.1381823,7.47813564 C72.1821887,7.16751139 72.2991264,6.86302414 72.488999,6.56466477 C72.6788716,6.26630539 72.9513299,5.99282192 73.3063822,5.74420615 C73.6614344,5.49559038 74.1176925,5.3024573 74.6751701,5.16480111 C75.3350415,5.00186113 75.9507194,4.96551037 76.5222223,5.05574772 C77.0937251,5.14598508 77.582761,5.33001178 77.9893447,5.60783336 L77.1442973,6.9028637 C76.8596794,6.71160977 76.5246546,6.58913609 76.1392127,6.535439 C75.7537708,6.4817419 75.3752297,6.50077847 75.003578,6.59254926 C74.5750408,6.6983666 74.2605028,6.8625405 74.0599544,7.0850759 C73.859406,7.3076113 73.7914399,7.54971194 73.8560541,7.81138509 C73.8981937,7.98204149 73.9721807,8.11465469 74.0780173,8.20922867 C74.1838538,8.30380265 74.3160591,8.37074012 74.4746371,8.41004307 C74.6332151,8.44934602 74.8171897,8.46930021 75.0265663,8.46990624 C75.235943,8.47051227 75.4680703,8.46549976 75.7229553,8.45486856 L75.8594098,8.44531573 C76.2005361,8.42546001 76.543741,8.4221901 76.8890347,8.43550592 C77.2343283,8.44882173 77.5609953,8.51300616 77.8690454,8.62806112 C78.1770954,8.74311609 78.4484709,8.92556538 78.68318,9.17541449 C78.9178891,9.42526359 79.090959,9.77582857 79.202395,10.2271199 C79.3035301,10.6366953 79.3076316,11.0199302 79.2146994,11.3768361 C79.1217672,11.733742 78.9623768,12.0577649 78.7365234,12.3489145 C78.51067,12.6400641 78.2276303,12.8869898 77.8873958,13.0896989 C77.5471614,13.292408 77.1779505,13.4429232 76.7797523,13.5412491 C76.3777616,13.6405114 75.9967396,13.6983841 75.6366748,13.7148691 C75.2766099,13.731354 74.9417619,13.7114368 74.6321207,13.6551169 C74.3224795,13.598797 74.0394358,13.5198173 73.7829809,13.4181754 C73.526526,13.3165336 73.29476,13.1967273 73.0876758,13.058753 L73.8931133,11.701079 Z M80.0623681,4.4445019 L85.6609043,3.61157856 L85.8876733,5.13581771 L81.9698571,5.7186916 L82.2328401,7.48634537 L85.8434903,6.94917017 L86.069397,8.46761373 L82.4587469,9.00478893 L82.7536328,10.9868794 L86.8974768,10.3703782 L87.1233836,11.8888217 L81.2988195,12.7553724 L80.0623681,4.4445019 Z M88.002401,3.70602427 L91.2489303,3.51828398 C91.7480989,3.48941806 92.1929365,3.53607962 92.5834565,3.65827006 C92.9739765,3.78046051 93.3049144,3.9550035 93.5762801,4.18190429 C93.8476458,4.40880507 94.0586983,4.67538283 94.2094439,4.98164555 C94.3601895,5.28790827 94.4454837,5.61262396 94.465329,5.95580235 C94.4813406,6.23268491 94.4545845,6.49736371 94.38506,6.74984669 C94.3155355,7.00232967 94.2134614,7.23321478 94.0788346,7.44250895 C93.9442078,7.65180311 93.7816816,7.83531847 93.5912509,7.99306053 C93.4008202,8.15080258 93.1929332,8.27727183 92.9675835,8.37247205 L95.0039384,11.7175204 L93.0501712,11.8305029 L91.3547268,8.90005846 L90.0093183,8.97786074 L90.183866,11.9962556 L88.4874813,12.0943541 L88.002401,3.70602427 Z M92.6962822,6.11679442 C92.6865851,5.94910498 92.647342,5.79486486 92.5785517,5.65406943 C92.5097615,5.513274 92.4109022,5.39378325 92.2819711,5.2955936 C92.1530399,5.19740396 91.9952411,5.12436167 91.8085699,5.07646456 C91.6218987,5.02856745 91.407674,5.01161011 91.1658892,5.02559204 L89.785383,5.10542395 L89.9220444,7.46866332 L91.3025506,7.38883141 C91.5443354,7.37484948 91.7551211,7.33233646 91.934914,7.26129106 C92.114707,7.19024566 92.2629216,7.09755087 92.3795622,6.9832039 C92.4962028,6.86885693 92.5805729,6.73779221 92.632675,6.59000581 C92.6847772,6.44221942 92.7059794,6.28448387 92.6962822,6.11679442 L92.6962822,6.11679442 Z M96.8574353,9.7599956 C96.9620863,9.8889775 97.0902295,10.0168774 97.2418686,10.143699 C97.3935077,10.2705207 97.5622065,10.3852714 97.7479703,10.4879547 C97.933734,10.5906381 98.1368112,10.6744197 98.357208,10.7393022 C98.5776048,10.8041847 98.8166174,10.8414195 99.0742528,10.8510078 C99.5543916,10.8688768 99.9260381,10.7820536 100.189203,10.5905355 C100.452369,10.3990175 100.589325,10.15883 100.600075,9.86996607 C100.611262,9.5693914 100.507534,9.33685951 100.28889,9.17236341 C100.070246,9.00786731 99.7186272,8.87165048 99.2340226,8.76370885 L98.9722765,8.70706014 C98.6232799,8.63152816 98.2769666,8.53655241 97.9333263,8.42213003 C97.5896861,8.30770765 97.2809014,8.14963148 97.0069631,7.94789676 C96.7330249,7.74616205 96.5137856,7.49271832 96.3492387,7.18755798 C96.1846919,6.88239764 96.1109183,6.50146451 96.1279157,6.04474716 C96.1377945,5.77930459 96.2066979,5.50335872 96.334628,5.21690128 C96.4625582,4.93044383 96.658902,4.66999035 96.9236655,4.43553303 C97.1884289,4.20107572 97.5257207,4.0132966 97.935551,3.87219006 C98.3453812,3.73108352 98.8372012,3.67120899 99.4110255,3.69256467 C100.090246,3.71784283 100.692089,3.85262258 101.216573,4.09690797 C101.741056,4.34119335 102.160414,4.65290065 102.474657,5.03203921 L101.305356,6.04393965 C101.084488,5.78163646 100.796206,5.57155297 100.440502,5.41368289 C100.084797,5.2558128 99.7156753,5.16976049 99.3331258,5.15552337 C98.8920227,5.1391071 98.5444146,5.21021205 98.2902912,5.36884036 C98.0361678,5.52746868 97.904096,5.74145269 97.8940719,6.01079882 C97.8875345,6.18645934 97.9220976,6.33432998 97.9977625,6.45441516 C98.0734273,6.57450035 98.1820576,6.67528883 98.3236567,6.75678363 C98.4652558,6.83827843 98.6366012,6.90817516 98.8376981,6.96647593 C99.038795,7.02477669 99.2633099,7.08394823 99.5112496,7.14399231 L99.6450504,7.17242562 C99.9784327,7.2473765 100.309241,7.33884352 100.637485,7.44682944 C100.965729,7.55481536 101.262045,7.70656413 101.526442,7.9020803 C101.790839,8.09759647 102.001405,8.3477857 102.158144,8.65265549 C102.314884,8.95752527 102.384609,9.34221664 102.367321,9.80674113 C102.351631,10.2283264 102.249929,10.5978428 102.06221,10.9153014 C101.874492,11.23276 101.631955,11.5002894 101.334592,11.7178976 C101.037229,11.9355058 100.697087,12.0948392 100.314156,12.1959026 C99.9312239,12.296966 99.5348267,12.33987 99.1249522,12.3246159 C98.7111741,12.3092166 98.3289618,12.2598118 97.978304,12.1764 C97.6276461,12.0929883 97.3112629,11.9815363 97.0291449,11.8420407 C96.7470268,11.7025452 96.4967222,11.5485999 96.2782234,11.3802002 C96.0597246,11.2118005 95.8699654,11.0327461 95.70894,10.8430316 L96.8574353,9.7599956 Z M106.212346,8.85599644 C106.247887,8.63223782 106.32499,8.42694971 106.443657,8.24012597 C106.562324,8.05330222 106.706905,7.89630623 106.877403,7.76913329 C107.047902,7.64196034 107.239383,7.55075273 107.451853,7.49550772 C107.664323,7.44026271 107.884363,7.4307172 108.111979,7.46687091 C108.335738,7.50241185 108.541026,7.57951476 108.72785,7.69818197 C108.914673,7.81684917 109.071363,7.96335887 109.197923,8.13771547 C109.324483,8.31207208 109.415231,8.50644677 109.47017,8.72084538 C109.525108,8.93524399 109.534807,9.15431932 109.499266,9.37807795 C109.463725,9.60183657 109.386776,9.80616021 109.268415,9.991055 C109.150054,10.1759498 109.004004,10.329746 108.83026,10.4524483 C108.656516,10.5751505 108.462448,10.6639697 108.248049,10.7189083 C108.033651,10.7738469 107.814575,10.7835456 107.590817,10.7480047 C107.3632,10.711851 107.156948,10.6345948 106.972053,10.516234 C106.787158,10.3978732 106.633055,10.253752 106.50974,10.0838661 C106.386425,9.91398017 106.297147,9.72280525 106.241902,9.51033559 C106.186657,9.29786593 106.176805,9.07975506 106.212346,8.85599644 L106.212346,8.85599644 Z M120.307875,12.1713284 C120.157466,12.7819872 119.937877,13.3182696 119.649101,13.7801919 C119.360326,14.2421142 119.007991,14.6109317 118.592088,14.8866554 C118.176185,15.1623792 117.697645,15.3371818 117.156454,15.4110683 C116.615263,15.4849548 116.014694,15.4406218 115.354727,15.2780678 L112.350756,14.5381704 L114.36025,6.37965862 L117.364221,7.11955595 C118.024187,7.28210996 118.576646,7.52177505 119.021612,7.83855839 C119.466578,8.15534173 119.809191,8.53239953 120.049462,8.96974311 C120.289732,9.40708669 120.430469,9.89735076 120.471676,10.44055 C120.512884,10.9837493 120.458284,11.5606697 120.307875,12.1713284 L120.307875,12.1713284 Z M118.634621,11.5902294 C118.719635,11.2450745 118.756139,10.9131202 118.744135,10.5943568 C118.73213,10.2755933 118.659347,9.98309961 118.525783,9.71686693 C118.392218,9.45063425 118.191267,9.21708851 117.922924,9.01622272 C117.65458,8.81535693 117.30801,8.66261009 116.883204,8.55797762 L115.648618,8.25389103 L114.362205,13.476704 L115.596792,13.7807906 C116.017805,13.8844889 116.393774,13.909708 116.72471,13.8564487 C117.055647,13.8031894 117.342311,13.6887407 117.584712,13.5130992 C117.827113,13.3374577 118.02883,13.1105639 118.18987,12.8324109 C118.350911,12.5542579 118.473469,12.2445051 118.557548,11.903143 L118.634621,11.5902294 Z M123.361474,9.21632657 L128.680287,11.1521963 L128.153233,12.6002791 L124.431165,11.2455711 L123.819943,12.9249066 L127.250193,14.1734023 L126.725143,15.6159791 L123.294894,14.3674833 L122.609524,16.2505415 L126.546327,17.6834058 L126.021277,19.1259825 L120.487729,17.1119565 L123.361474,9.21632657 Z M130.697322,12.3567639 L132.234781,13.0803411 L129.325501,19.2619869 L132.3368,20.6792002 L131.668115,22.1000244 L127.119357,19.9592339 L130.697322,12.3567639 Z M136.636437,15.5095037 L138.11427,16.348166 L133.96723,23.6557947 L132.489397,22.8171324 L136.636437,15.5095037 Z M136.876491,25.5205998 L139.323884,17.1396094 L140.937941,18.1501365 L138.961774,24.365121 L139.011437,24.3962141 L143.709154,19.8851339 L145.303346,20.8832238 L138.833225,26.7456696 L136.876491,25.5205998 Z M146.620887,22.2567347 L151.118562,25.6930527 L150.183002,26.9175752 L147.03556,24.512864 L145.950594,25.9329376 L148.851269,28.1491138 L147.919265,29.3689803 L145.018591,27.1528041 L143.802006,28.745149 L147.131031,31.2885935 L146.199027,32.50846 L141.519769,28.9334086 L146.620887,22.2567347 Z M152.679387,27.4348114 L155.076073,29.6327866 C155.444575,29.9707352 155.721044,30.3223351 155.90549,30.687597 C156.089935,31.0528588 156.195314,31.4118581 156.221628,31.7646057 C156.247943,32.1173533 156.203773,32.4544822 156.089119,32.7760026 C155.974464,33.097523 155.800969,33.3849512 155.568629,33.6382959 C155.381174,33.842699 155.172673,34.0079212 154.943122,34.1339676 C154.713572,34.260014 154.476834,34.3476638 154.232903,34.3969196 C153.988972,34.4461755 153.744094,34.4574572 153.498261,34.4307652 C153.252428,34.4040731 153.016864,34.3430701 152.791564,34.2477541 L151.81094,38.0391217 L150.36861,36.7163763 L151.289361,33.4584239 L150.29614,32.5475513 L148.252617,34.7758216 L147.000295,33.6273301 L152.679387,27.4348114 Z M154.220565,32.4815038 C154.334095,32.3577104 154.417391,32.222094 154.470456,32.0746506 C154.523521,31.9272073 154.540353,31.773039 154.520954,31.6121412 C154.501554,31.4512434 154.444002,31.2871598 154.348296,31.1198856 C154.25259,30.9526113 154.115493,30.7871297 153.937,30.6234359 L152.917869,29.6888014 L151.317901,31.4334161 L152.337033,32.3680506 C152.515526,32.5317445 152.692886,32.6533232 152.869118,32.7327905 C153.045351,32.8122579 153.215111,32.8539893 153.378403,32.8579861 C153.541695,32.861983 153.694494,32.8311836 153.836806,32.7655872 C153.979117,32.6999907 154.107036,32.6052972 154.220565,32.4815038 L154.220565,32.4815038 Z M159.34032,34.352598 L158.072018,37.7873938 L158.087695,37.804817 L161.660422,36.9312314 L162.934127,38.3468663 L157.354452,39.5916668 L154.810665,41.8804167 L153.662371,40.6041675 L156.206158,38.3154175 L158.031343,32.897761 L159.34032,34.352598 Z" id="TRUST-•-USERS-•-DELI" fill="#FDF817"></path>
            </g>
        </g>
    </g>
</svg>