<?xml version="1.0" encoding="UTF-8" standalone="no"?>
<svg
   width="152.20695"
   height="132.177"
   viewBox="0 0 152.20695 132.177"
   version="1.1"
   id="svg14"
   sodipodi:docname="transition-tool-tarantula.svg"
   xmlns:inkscape="http://www.inkscape.org/namespaces/inkscape"
   xmlns:sodipodi="http://sodipodi.sourceforge.net/DTD/sodipodi-0.dtd"
   xmlns="http://www.w3.org/2000/svg"
   xmlns:svg="http://www.w3.org/2000/svg"
   xmlns:sketch="http://www.bohemiancoding.com/sketch/ns">
  <sodipodi:namedview
     id="namedview14"
     pagecolor="#ffffff"
     bordercolor="#000000"
     borderopacity="0.25"
     inkscape:showpageshadow="2"
     inkscape:pageopacity="0.0"
     inkscape:pagecheckerboard="0"
     inkscape:deskcolor="#d1d1d1" />
  <title
     id="title1">transition-tools-tarantula</title>
  <description>Created with Sketch (http://www.bohemiancoding.com/sketch)</description>
  <defs
     id="defs1" />
  <g
     id="Page-1"
     stroke="none"
     stroke-width="1"
     fill="none"
     fill-rule="evenodd"
     sketch:type="MSPage"
     transform="translate(-221.46297,-320)">
    <g
       id="transition-tools-tarantula"
       sketch:type="MSArtboardGroup">
      <path
         d="m 354,386 c 0,-36.4508 -29.5492,-66 -66,-66 -36.4508,0 -66,29.5492 -66,66 0,36.4508 29.5492,66 66,66 36.4508,0 66,-29.5492 66,-66 z"
         id="Oval-1"
         fill="#ff5605"
         sketch:type="MSShapeGroup" />
      <path
         d="M 244.50011,348 C 235.47576,358.13691 230,371.45236 230,386.03576 c 0,14.54912 5.45005,27.83626 14.43655,37.96424 m 87.13184,0 c 8.9865,-10.12798 14.43655,-23.41512 14.43655,-37.96424 0,-14.5834 -5.47576,-27.89885 -14.50011,-38.03576"
         id="path1"
         stroke="#ffffff"
         stroke-width="0.5"
         sketch:type="MSShapeGroup" />
      <path
         d="M 244.50011,344 C 235.47576,354.13691 230,367.45236 230,382.03576 c 0,14.54912 5.45005,27.83626 14.43655,37.96424"
         id="path2"
         stroke="#ffffff"
         stroke-width="0.5"
         sketch:type="MSShapeGroup"
         transform="rotate(5,237.5,382)" />
      <path
         d="m 249.48813,427.54048 -0.96917,-0.96917 -2.81565,2.81566 -0.70331,-0.70331 2.81565,-2.81566 -0.96916,-0.96916 0.65014,-0.65014 2.64163,2.64164 z m 2.96255,1.37831 c 0.11218,0.21069 0.17817,0.41872 0.19797,0.62411 0.0198,0.20539 -0.002,0.40256 -0.0645,0.59152 -0.0628,0.18895 -0.16035,0.35877 -0.29265,0.50946 -0.10675,0.12157 -0.22625,0.22056 -0.35854,0.29697 -0.13228,0.0764 -0.26923,0.13052 -0.41087,0.16233 -0.14164,0.0318 -0.28431,0.0415 -0.42801,0.029 -0.14371,-0.0125 -0.28186,-0.0451 -0.41446,-0.0978 l -0.524,2.2235 -0.85787,-0.7532 0.49582,-1.91165 -0.59075,-0.51868 -1.16363,1.32534 -0.74486,-0.65398 3.2338,-3.68319 1.42551,1.25157 c 0.21918,0.19244 0.38485,0.394 0.49704,0.60469 z m -0.79578,0.55668 c -0.0134,-0.0936 -0.049,-0.18856 -0.10691,-0.2849 -0.0579,-0.0963 -0.13998,-0.19112 -0.24614,-0.28434 l -0.60616,-0.5322 -0.91106,1.03767 0.60616,0.5322 c 0.10617,0.0932 0.21114,0.16187 0.31492,0.20599 0.10378,0.0441 0.20332,0.0663 0.2986,0.0666 0.0953,2.7e-4 0.184,-0.0196 0.26617,-0.0597 0.0822,-0.0401 0.15557,-0.0969 0.22022,-0.17053 0.0646,-0.0736 0.11151,-0.15377 0.14059,-0.24043 0.0291,-0.0867 0.037,-0.17678 0.0236,-0.27037 z m 2.0847,4.93514 c 0.12329,-0.0142 0.24523,-0.058 0.36584,-0.13126 0.1206,-0.0733 0.23429,-0.18094 0.34106,-0.32304 l 1.82531,-2.42923 0.78151,0.58722 -1.9136,2.54674 c -0.16426,0.2186 -0.3524,0.38648 -0.56442,0.50364 -0.21202,0.11716 -0.43516,0.18464 -0.66942,0.20243 -0.23426,0.0178 -0.47417,-0.0128 -0.71974,-0.0919 -0.24557,-0.0791 -0.48403,-0.20551 -0.71538,-0.37935 -0.23136,-0.17384 -0.41917,-0.36769 -0.56345,-0.58156 -0.14428,-0.21387 -0.24092,-0.43612 -0.28993,-0.66676 -0.049,-0.23065 -0.0468,-0.46409 0.007,-0.70034 0.0535,-0.23625 0.16242,-0.46367 0.32668,-0.68227 l 1.9136,-2.54674 0.78424,0.58928 -1.82531,2.42923 c -0.10677,0.14209 -0.17856,0.28125 -0.21537,0.41748 -0.0368,0.13623 -0.0449,0.26554 -0.0243,0.38792 0.0206,0.12239 0.0679,0.23773 0.14188,0.34603 0.074,0.1083 0.16832,0.20557 0.28309,0.2918 0.11477,0.0862 0.23445,0.14981 0.35906,0.1907 0.1246,0.0409 0.24855,0.0542 0.37184,0.04 z m 2.6858,1.75206 c 0.0639,0.10609 0.14196,0.20768 0.23433,0.30478 0.0924,0.0971 0.20221,0.18568 0.32953,0.26573 0.23727,0.14918 0.45032,0.21381 0.63913,0.1939 0.18882,-0.0199 0.3281,-0.10123 0.41785,-0.24398 0.0934,-0.14854 0.10888,-0.29626 0.0465,-0.44316 -0.0624,-0.1469 -0.20023,-0.31833 -0.41347,-0.51431 l -0.11566,-0.10501 c -0.15421,-0.14002 -0.30139,-0.28908 -0.44154,-0.44717 -0.14016,-0.1581 -0.24997,-0.32807 -0.32943,-0.50992 -0.0795,-0.18185 -0.11621,-0.37385 -0.11023,-0.576 0.006,-0.20215 0.0799,-0.41607 0.22181,-0.64177 0.0825,-0.13118 0.19782,-0.25043 0.34605,-0.35776 0.14822,-0.10734 0.32341,-0.18156 0.52557,-0.22269 0.20216,-0.0411 0.42732,-0.0375 0.67549,0.0109 0.24817,0.0484 0.51404,0.16169 0.79761,0.33998 0.33566,0.21103 0.60028,0.45478 0.79386,0.73125 0.19358,0.27648 0.31438,0.55631 0.36242,0.83952 l -0.88593,0.16974 c -0.035,-0.19695 -0.11925,-0.3872 -0.25281,-0.57076 -0.13357,-0.18357 -0.29487,-0.33477 -0.48392,-0.45363 -0.21799,-0.13705 -0.4143,-0.20261 -0.58895,-0.19667 -0.17464,0.006 -0.30381,0.0755 -0.38749,0.20856 -0.0546,0.0868 -0.0803,0.17157 -0.0771,0.25431 0.003,0.0827 0.0286,0.16535 0.0763,0.24784 0.0477,0.0825 0.11386,0.16781 0.1984,0.25595 0.0845,0.0881 0.18067,0.18357 0.28836,0.28627 l 0.0593,0.0534 c 0.14649,0.13517 0.28686,0.27792 0.42112,0.42828 0.13426,0.15035 0.23961,0.31348 0.31607,0.48941 0.0765,0.17592 0.10978,0.36374 0.0999,0.56347 -0.01,0.19972 -0.0869,0.41436 -0.23124,0.64392 -0.13099,0.20834 -0.29021,0.36528 -0.47769,0.47081 -0.18747,0.10554 -0.38805,0.16986 -0.60176,0.19296 -0.2137,0.0231 -0.432,0.004 -0.65489,-0.0565 -0.2229,-0.0607 -0.43562,-0.15478 -0.63818,-0.28212 -0.20448,-0.12857 -0.38309,-0.26509 -0.53584,-0.40957 -0.15275,-0.14448 -0.28001,-0.29313 -0.38177,-0.44593 -0.10176,-0.1528 -0.18324,-0.30362 -0.24444,-0.45244 -0.0612,-0.14884 -0.10476,-0.29466 -0.13071,-0.43748 l 0.89619,-0.21173 c 0.0152,0.0957 0.0426,0.19769 0.0822,0.30601 0.0396,0.10831 0.0913,0.21551 0.15511,0.32159 z m 7.54113,0.6561 -1.21179,-0.64042 -1.86055,3.52054 -0.87938,-0.46474 1.86055,-3.52053 -1.21179,-0.64042 0.42961,-0.81289 3.30295,1.74556 z m 2.93286,2.18783 c 0.0734,-0.0312 0.15167,-0.0483 0.23479,-0.0512 0.0831,-0.003 0.16395,0.011 0.24245,0.0417 0.0785,0.0308 0.14673,0.0752 0.20469,0.13343 0.058,0.0582 0.10328,0.12366 0.13596,0.19642 0.0327,0.0728 0.0509,0.14965 0.0546,0.23065 0.004,0.081 -0.01,0.16076 -0.0405,0.23926 -0.0316,0.0806 -0.0765,0.14992 -0.13467,0.20788 -0.0582,0.058 -0.12419,0.10307 -0.19802,0.13533 -0.0738,0.0323 -0.15155,0.0495 -0.2332,0.0518 -0.0817,0.002 -0.16173,-0.012 -0.24023,-0.0427 -0.0785,-0.0308 -0.14747,-0.0749 -0.20691,-0.13245 -0.0594,-0.0575 -0.10529,-0.12323 -0.13755,-0.19705 -0.0323,-0.0738 -0.0501,-0.15177 -0.0534,-0.23383 -0.003,-0.0821 0.0108,-0.16341 0.0424,-0.24404 0.0308,-0.0785 0.075,-0.1462 0.1328,-0.2031 0.0578,-0.0569 0.12337,-0.10095 0.19678,-0.13215 z m 6.97045,4.10857 c 0.10997,-0.0575 0.20811,-0.1421 0.29441,-0.25375 0.0863,-0.11165 0.1538,-0.25294 0.2025,-0.42388 l 0.83255,-2.92229 0.94013,0.26784 -0.87282,3.06364 c -0.0749,0.26298 -0.19032,0.48717 -0.34621,0.67258 -0.15589,0.18541 -0.33998,0.32843 -0.55227,0.42907 -0.21229,0.10063 -0.44723,0.15809 -0.70482,0.17236 -0.25758,0.0143 -0.52553,-0.0182 -0.80384,-0.0975 -0.27832,-0.0793 -0.52317,-0.19288 -0.73455,-0.34077 -0.21139,-0.14789 -0.38132,-0.32069 -0.50979,-0.5184 -0.12848,-0.19772 -0.2101,-0.41644 -0.24487,-0.65617 -0.0348,-0.23973 -0.0147,-0.49108 0.0602,-0.75406 l 0.87282,-3.06364 0.94342,0.26878 -0.83256,2.92229 c -0.0487,0.17094 -0.0658,0.32659 -0.0513,0.46695 0.0145,0.14037 0.0533,0.26397 0.11648,0.37081 0.0632,0.10685 0.14867,0.19755 0.25655,0.27212 0.10789,0.0746 0.23086,0.13152 0.36892,0.17085 0.13806,0.0393 0.27258,0.0557 0.40357,0.0492 0.13098,-0.007 0.25146,-0.0385 0.36144,-0.0961 z m 3.14355,0.67457 c 0.0976,0.0761 0.20696,0.14299 0.328,0.20052 0.12105,0.0575 0.25534,0.10085 0.40289,0.12994 0.27499,0.0542 0.49704,0.0382 0.66617,-0.0481 0.16913,-0.0863 0.27,-0.21212 0.30261,-0.37756 0.0339,-0.17214 -0.005,-0.3156 -0.11549,-0.43036 -0.11092,-0.11477 -0.30103,-0.2254 -0.57035,-0.33191 l -0.14562,-0.0566 c -0.19415,-0.0754 -0.38499,-0.16182 -0.5725,-0.25917 -0.18752,-0.0974 -0.35096,-0.21666 -0.49033,-0.35793 -0.13937,-0.14128 -0.2425,-0.30734 -0.30939,-0.4982 -0.0669,-0.19086 -0.0746,-0.41707 -0.023,-0.67864 0.03,-0.15202 0.0949,-0.3047 0.1948,-0.45803 0.0999,-0.15334 0.23684,-0.28543 0.41082,-0.39629 0.17398,-0.11087 0.38547,-0.1882 0.63449,-0.23202 0.24901,-0.0438 0.53783,-0.0333 0.86647,0.0314 0.389,0.0767 0.72341,0.20937 1.00324,0.39808 0.27982,0.1887 0.49291,0.40663 0.63928,0.6538 l -0.7662,0.47604 c -0.10325,-0.17132 -0.25013,-0.31872 -0.44062,-0.4422 -0.19049,-0.12348 -0.39528,-0.20681 -0.61437,-0.25 -0.25262,-0.0498 -0.45939,-0.0406 -0.6203,0.0275 -0.16092,0.0682 -0.25658,0.17935 -0.28698,0.33361 -0.0198,0.10061 -0.0134,0.18896 0.0192,0.26506 0.0326,0.0761 0.086,0.14411 0.1601,0.20401 0.0741,0.0599 0.16645,0.11584 0.27697,0.16782 0.11052,0.052 0.23446,0.1066 0.37181,0.16386 l 0.0745,0.0286 c 0.18521,0.0737 0.36743,0.15662 0.54666,0.24885 0.17923,0.0922 0.33607,0.20676 0.47051,0.34358 0.13445,0.13682 0.23288,0.30022 0.2953,0.49019 0.0624,0.18998 0.0674,0.41798 0.015,0.68402 -0.0476,0.24145 -0.13998,0.44504 -0.27716,0.61076 -0.13718,0.16573 -0.30137,0.29768 -0.49259,0.39585 -0.19122,0.0982 -0.40175,0.15886 -0.63161,0.18207 -0.22986,0.0232 -0.46215,0.0117 -0.69689,-0.0346 -0.23698,-0.0467 -0.45267,-0.11013 -0.64706,-0.19026 -0.19439,-0.0801 -0.36647,-0.17327 -0.51625,-0.27943 -0.14978,-0.10617 -0.2799,-0.21775 -0.39038,-0.33475 -0.11048,-0.117 -0.20343,-0.23751 -0.27885,-0.36154 l 0.76072,-0.51892 c 0.0485,0.0839 0.11062,0.16928 0.18638,0.25621 0.0758,0.0869 0.16246,0.16847 0.2601,0.24462 z m 7.24574,-2.10977 -2.29381,-0.27766 -0.12527,1.03493 2.11396,0.25588 -0.10761,0.88902 -2.11396,-0.25588 -0.14047,1.16047 2.42613,0.29368 -0.10761,0.88901 -3.41017,-0.41278 0.589,-4.86585 3.27783,0.39677 z m 3.55416,-0.72474 c 0.21893,0.0951 0.40005,0.21688 0.54337,0.36533 0.14332,0.14844 0.2492,0.31616 0.31763,0.50315 0.0684,0.187 0.0978,0.38063 0.088,0.58091 -0.008,0.1616 -0.0398,0.31346 -0.0958,0.45559 -0.056,0.14213 -0.12953,0.26972 -0.2206,0.38276 -0.0911,0.11304 -0.19673,0.2094 -0.31697,0.28907 -0.12024,0.0797 -0.24867,0.14014 -0.38529,0.18137 l 0.97357,2.06657 -1.14024,-0.0557 -0.80156,-1.80493 -0.7852,-0.0384 -0.0861,1.76157 -0.99003,-0.0484 0.23915,-4.89553 1.89471,0.0926 c 0.29132,0.0142 0.54645,0.0689 0.76537,0.16401 z m -0.27646,0.93098 c -0.0687,-0.065 -0.15569,-0.11711 -0.26099,-0.15648 -0.1053,-0.0394 -0.2285,-0.0625 -0.36961,-0.0694 l -0.80568,-0.0394 -0.0674,1.37921 0.80568,0.0394 c 0.14111,0.007 0.26601,-0.005 0.3747,-0.0347 0.10869,-0.0301 0.20041,-0.0746 0.27516,-0.1337 0.0747,-0.0591 0.13182,-0.12987 0.17121,-0.21236 0.0394,-0.0825 0.0615,-0.17266 0.0663,-0.27053 0.005,-0.0979 -0.008,-0.18976 -0.0396,-0.2757 -0.0312,-0.0859 -0.0811,-0.16137 -0.14978,-0.22632 z m 2.91358,2.72429 c 0.11199,0.0528 0.23335,0.094 0.36409,0.12345 0.13073,0.0295 0.27126,0.0422 0.4216,0.0381 0.28017,-0.008 0.49326,-0.0721 0.63926,-0.19348 0.14601,-0.12137 0.21672,-0.26633 0.21213,-0.43489 -0.005,-0.17539 -0.0739,-0.30686 -0.20734,-0.39441 -0.13345,-0.0876 -0.34325,-0.15364 -0.6294,-0.19829 l -0.1545,-0.0231 c -0.20599,-0.0309 -0.41115,-0.0732 -0.61549,-0.12686 -0.20433,-0.0537 -0.39002,-0.13414 -0.55706,-0.24129 -0.16704,-0.10715 -0.30418,-0.24646 -0.41142,-0.41792 -0.10724,-0.17147 -0.16449,-0.39045 -0.17174,-0.65695 -0.004,-0.15489 0.0255,-0.31812 0.0893,-0.48967 0.0637,-0.17156 0.16824,-0.33054 0.31356,-0.47697 0.14533,-0.14642 0.33462,-0.26839 0.5679,-0.36592 0.23327,-0.0975 0.51732,-0.15084 0.85216,-0.15995 0.39634,-0.0108 0.75175,0.0451 1.06623,0.1676 0.31449,0.12252 0.57031,0.28823 0.76747,0.49714 l -0.64269,0.63294 c -0.13842,-0.1444 -0.31412,-0.25587 -0.52711,-0.33442 -0.213,-0.0786 -0.4311,-0.11478 -0.65433,-0.10871 -0.25739,0.007 -0.45707,0.0614 -0.59905,0.16332 -0.14197,0.10188 -0.21082,0.23141 -0.20655,0.38858 0.003,0.1025 0.0285,0.18728 0.077,0.25434 0.0485,0.0671 0.11557,0.12166 0.20106,0.16379 0.0855,0.0421 0.18785,0.0764 0.30711,0.10277 0.11925,0.0264 0.25216,0.0524 0.39875,0.0781 l 0.079,0.0115 c 0.19688,0.0311 0.39288,0.0719 0.58802,0.12248 0.19513,0.0505 0.37332,0.12775 0.53457,0.23164 0.16125,0.10389 0.29322,0.24163 0.3959,0.41322 0.10269,0.17159 0.15772,0.39291 0.16509,0.66397 0.007,0.246 -0.0386,0.46492 -0.136,0.65677 -0.0974,0.19185 -0.2285,0.35669 -0.39343,0.49452 -0.16493,0.13784 -0.35696,0.24336 -0.57608,0.31657 -0.21912,0.0732 -0.44826,0.11306 -0.68743,0.11957 -0.24145,0.007 -0.4658,-0.008 -0.67306,-0.0432 -0.20725,-0.0354 -0.39561,-0.0884 -0.56508,-0.15901 -0.16946,-0.0706 -0.32095,-0.15083 -0.45446,-0.24066 -0.13352,-0.0898 -0.2507,-0.18693 -0.35156,-0.29133 l 0.62791,-0.67357 c 0.0658,0.0711 0.14516,0.1408 0.23819,0.20893 0.093,0.0681 0.19555,0.1286 0.30754,0.1814 z m 6.59342,-2.6968 c 0.0481,-0.0636 0.10742,-0.11745 0.17802,-0.16142 0.0706,-0.044 0.1476,-0.0722 0.23098,-0.0847 0.0834,-0.0125 0.16471,-0.008 0.24396,0.0136 0.0793,0.0215 0.15119,0.0557 0.21579,0.1025 0.0646,0.0468 0.11871,0.10435 0.16235,0.1727 0.0436,0.0684 0.0717,0.14422 0.0842,0.2276 0.0128,0.0856 0.008,0.16808 -0.0131,0.24734 -0.0215,0.0793 -0.0563,0.15127 -0.10419,0.21604 -0.0479,0.0648 -0.10668,0.11849 -0.17633,0.16116 -0.0696,0.0427 -0.14616,0.0703 -0.22955,0.0827 -0.0834,0.0125 -0.16518,0.009 -0.24539,-0.0117 -0.0802,-0.0202 -0.15271,-0.0543 -0.21748,-0.10225 -0.0648,-0.0479 -0.11905,-0.1066 -0.16285,-0.17608 -0.0438,-0.0695 -0.0721,-0.14703 -0.0849,-0.23267 -0.0125,-0.0834 -0.008,-0.16414 0.0139,-0.24227 0.0217,-0.0781 0.0566,-0.14901 0.1047,-0.21265 z m 9.07031,0.26875 c -0.13963,0.2554 -0.33904,0.47576 -0.59822,0.66108 -0.25919,0.18532 -0.58117,0.32578 -0.96595,0.4214 l -1.75143,0.43519 -1.18194,-4.75672 1.75142,-0.4352 c 0.38479,-0.0956 0.73507,-0.12219 1.05085,-0.0797 0.31578,0.0424 0.59514,0.14385 0.83808,0.30419 0.24294,0.16034 0.4489,0.37507 0.61791,0.64418 0.169,0.2691 0.29774,0.58167 0.3862,0.93771 0.0885,0.35604 0.12101,0.69251 0.0976,1.00942 -0.0234,0.31692 -0.1049,0.60307 -0.24454,0.85848 z m -1.44028,-2.64983 c -0.14134,-0.10106 -0.30856,-0.16693 -0.50167,-0.1976 -0.19311,-0.0307 -0.4135,-0.0152 -0.66117,0.0463 l -0.71982,0.17886 0.75665,3.0451 0.71981,-0.17886 c 0.24546,-0.061 0.44634,-0.15023 0.60263,-0.26772 0.1563,-0.1175 0.2731,-0.25452 0.35042,-0.41109 0.0773,-0.15657 0.11971,-0.32852 0.12716,-0.51586 0.007,-0.18734 -0.0136,-0.38052 -0.063,-0.57955 l -0.0453,-0.18244 c -0.05,-0.20123 -0.12145,-0.38247 -0.21434,-0.5437 -0.0929,-0.16123 -0.21001,-0.29238 -0.35134,-0.39344 z m 4.91739,-2.18648 -2.18737,0.74435 0.33584,0.98691 2.01587,-0.68599 0.28849,0.84776 -2.01587,0.68599 0.37658,1.10663 2.31356,-0.78729 0.28849,0.84776 -3.25193,1.10662 -1.57899,-4.64007 3.12574,-1.06367 z m 2.83006,2.01696 1.788,-0.75638 0.35688,0.84363 -2.70089,1.14256 -1.90959,-4.51407 0.91289,-0.38618 z m 3.73244,-0.81048 -0.88738,0.44164 -2.18386,-4.38796 0.88739,-0.44164 z m -0.64846,-5.2429 2.59179,2.78479 0.03,-0.0163 -0.94624,-3.67949 0.9639,-0.52408 1.1251,4.96727 -1.18311,0.64327 -3.55738,-3.64482 z m 6.2123,-2.85865 -1.94201,1.25189 0.56484,0.8762 1.78974,-1.15374 0.48521,0.75267 -1.78975,1.15374 0.63336,0.9825 2.05404,-1.32413 0.4852,0.75267 -2.88715,1.86119 -2.65565,-4.11958 2.77511,-1.78896 z m 2.26183,-2.82533 c 0.22915,-0.0668 0.44627,-0.089 0.65138,-0.0665 0.20511,0.0225 0.39375,0.0838 0.56591,0.18384 0.17217,0.10004 0.31851,0.23019 0.43903,0.39045 0.0972,0.12931 0.16976,0.2665 0.21757,0.41159 0.0478,0.14509 0.0728,0.29021 0.0751,0.43535 0.002,0.14515 -0.0174,0.28679 -0.0589,0.42493 -0.0415,0.13814 -0.10163,0.26674 -0.18032,0.38578 l 2.0698,0.96668 -0.9124,0.68613 -1.77027,-0.87546 -0.62829,0.47249 1.06001,1.40958 -0.7922,0.59574 -2.94586,-3.9173 1.51611,-1.14014 c 0.23311,-0.1753 0.46423,-0.29636 0.69338,-0.3632 z m 0.3826,0.89263 c -0.0943,-0.006 -0.19459,0.009 -0.30073,0.0465 -0.10613,0.037 -0.21566,0.098 -0.32857,0.18294 l -0.64469,0.48481 0.82994,1.10362 0.64469,-0.48481 c 0.11291,-0.0849 0.20155,-0.17366 0.26591,-0.26626 0.0644,-0.0926 0.10641,-0.1855 0.12611,-0.27873 0.0197,-0.0932 0.0183,-0.18413 -0.004,-0.27275 -0.0224,-0.0886 -0.0631,-0.17207 -0.122,-0.25038 -0.0589,-0.0783 -0.12779,-0.14054 -0.20669,-0.18669 -0.0789,-0.0462 -0.16552,-0.0722 -0.25986,-0.0783 z m 2.6159,-3.78745 0.83649,-0.73092 0.67879,3.26501 1.31341,1.50311 -0.75413,0.65896 -1.31341,-1.50311 -3.14451,-1.11048 0.85966,-0.75116 1.99267,0.76886 z"
         id="TRUST--·--USERS--·--"
         fill="#ffffff"
         sketch:type="MSShapeGroup" />
      <path
         d="m 353.46296,386.17699 c 0,-36.45079 -29.5492,-66 -66,-66 -36.45079,0 -66,29.54921 -66,66 0,36.4508 29.54921,66 66,66 36.4508,0 66,-29.5492 66,-66 z"
         id="Path-303"
         sketch:type="MSShapeGroup" />
      <g
         id="tarantula"
         sketch:type="MSLayerGroup"
         transform="translate(221,320)">
        <path
           d="m 131.03457,52.104088 c -4.97315,-1.348626 -9.97551,-2.095878 -11.96385,-2.095878 -3.58268,0 -8.85889,-0.07918 -16.49266,1.674904 -7.633779,1.754083 -23.949707,3.513911 -26.84433,5.940385 -2.459618,2.061823 -2.792085,2.323666 0.58744,5.404366 -1.582652,0.49136 -2.912828,1.144528 -3.687436,1.90699 -1.905985,1.8761 6.782622,5.587981 11.293631,7.371732 2.568799,1.015759 8.652012,1.855416 14.271871,2.542948 3.427494,0.930905 6.800924,1.429421 9.736504,1.225251 0.17684,0.02836 0.34269,0.05626 0.49676,0.0837 3.66979,0.653692 16.83581,0.05646 23.49261,-1.408623 C 132.3043,71.88709 132.5,68.966399 132.5,66 c 0,-4.766888 -0.50536,-9.415743 -1.46543,-13.895912 z"
           id="Path-294"
           fill-opacity="0.0932617"
           fill="#000000"
           sketch:type="MSShapeGroup" />
        <path
           d="m 50.150712,63.921519 c 0.731155,1.795118 -1.79106,8.048127 -2.564324,9.503937 -0.773263,1.45581 -2.738122,3.089355 -4.431209,2.422177 -1.693087,-0.667178 -1.924956,-6.399464 -0.962478,-8.431498 0.962478,-2.032034 0.89139,-5.590665 3.235791,-5.590665 2.3444,0 3.991065,0.300931 4.72222,2.096049 z"
           id="Path-309"
           fill="#1a1a1a"
           sketch:type="MSShapeGroup" />
        <path
           d="m 77.438751,44.15182 c 0,0 -7.523811,-19.338364 -9.180804,-20.836111 -1.656994,-1.497746 -4.087252,-4.694755 -6.37095,-4.694755 -2.283698,0 -5.445658,2.420904 -3.306878,5.811258 2.138779,3.390354 2.680174,5.446897 4.616614,7.95821 1.93644,2.511313 4.676769,11.761398 5.889164,11.761398 1.212395,0 3.246723,3.973114 5.439095,1.595237 2.192373,-2.377878 2.913759,-1.595237 2.913759,-1.595237 z"
           id="Path-291"
           fill="#1a1a1a"
           sketch:type="MSShapeGroup" />
        <path
           d="m 70.566864,22.067499 -2.561113,4.683657 -0.6863,-0.548522 z"
           id="Path-886"
           fill="#1a1a1a"
           sketch:type="MSShapeGroup" />
        <path
           d="m 86.566864,19.067499 -2.561113,4.683657 -0.6863,-0.548522 z"
           id="path3"
           fill="#1a1a1a"
           sketch:type="MSShapeGroup" />
        <path
           d="m 19.164862,44.479457 c -2.22245,1.386174 -5.809001,4.450556 -4.658722,5.656737 1.150278,1.206181 4.421384,0.990925 6.857657,-0.118263 2.436273,-1.109189 7.02281,-3.368025 4.635208,-6.70306 -2.387603,-3.335035 -4.611693,-0.221589 -6.834143,1.164586 z"
           id="Path-317"
           fill="#1a1a1a"
           sketch:type="MSShapeGroup" />
        <path
           d="m 24.791664,35.308033 c -1.121069,2.395197 -3.68476,6.558933 -1.267081,8.113594 2.41768,1.554662 5.731121,-1.040335 7.28421,-2.548566 1.55309,-1.508231 2.588301,-6.871663 0.791857,-8.786981 -1.796443,-1.915319 -5.687918,0.826756 -6.808986,3.221953 z"
           id="Path-316"
           fill="#1a1a1a"
           sketch:type="MSShapeGroup" />
        <path
           d="m 36.712588,26.240621 c -4.526907,3.070658 -11.349359,5.193777 -9.704942,8.153869 1.644415,2.960093 8.211048,1.795118 11.713156,1e-6 3.502108,-1.795118 9.737247,-5.443819 9.737248,-7.336426 0,-1.892608 -1.961898,-5.100505 -3.362414,-5.100505 -1.400515,0 -3.856142,1.212403 -8.383048,4.283061 z"
           id="Path-315"
           fill="#1a1a1a"
           sketch:type="MSShapeGroup" />
        <path
           d="m 54.098033,17.722738 c -3.848801,0.811846 -7.702924,1.658248 -10.265975,4.488247 1.21841,3.066339 8.335549,4.836907 10.265975,4.836907 1.930425,0 8.750576,-2.001271 8.750576,-5.870564 0,-3.869293 -4.901776,-4.266437 -8.750576,-3.45459 z"
           id="Path-293"
           fill="#56260a"
           sketch:type="MSShapeGroup" />
        <path
           d="m 74.501356,14.231752 c 1.205832,4.154477 4.499605,20.874104 7.325791,23.190982 2.826186,2.316879 5.981583,-1.137198 7.034841,-2.799425 C 89.915245,32.961083 87.661266,29.67749 86.397674,24.977936 85.134082,20.278383 84.617655,14.672758 82.869882,11.961019 81.122109,9.2492802 79.544523,5.9587424 77.74808,5.9587424 c -1.796444,0 -4.452556,4.1185316 -3.246724,8.2730096 z"
           id="Path-295"
           fill="#1a1a1a"
           sketch:type="MSShapeGroup" />
        <path
           d="m 82.895682,9.0735291 c 0.643521,2.3228689 -0.692123,5.2649889 -2.535323,6.0835759 -1.843201,0.818587 -5.549289,-1.953607 -6.974755,-4.500866 -1.425466,-2.5472589 1.403933,-5.1495264 3.699321,-5.1495261 2.295387,2e-7 5.167236,1.2439468 5.810757,3.5668162 z"
           id="Path-296"
           fill="#5d3019"
           sketch:type="MSShapeGroup" />
        <path
           d="m 87.334311,17.215188 c 1.654861,4.279853 2.486201,24.40968 7.189111,24.409681 4.702909,1e-6 5.293028,-17.512965 4.341378,-20.346566 C 97.91315,18.444702 97.698745,13.748595 96.633402,11.729905 95.568059,9.7112142 103.90327,3.3149369 89.745649,6.6960301 87.323632,7.2744509 85.67945,12.935336 87.334311,17.215188 Z"
           id="Path-297"
           fill="#1a1a1a"
           sketch:type="MSShapeGroup" />
        <path
           d="m 101.2536,1.7402344 c 1.90332,0 2.68781,2.6948242 2.68781,3.7714843 v 8.2631833 c 0,1.952149 2.53418,6.83252 1.13672,8.22461 -1.39747,1.39209 -4.69825,-0.946289 -5.394536,-3.964356 -0.696289,-3.018066 -0.869629,-5.6333 -0.869629,-6.889648 0,-1.2563478 -2.40332,-5.2592778 -1.664063,-6.7817385 0.739258,-1.5224609 2.200375,-2.6235348 4.103698,-2.6235351 z"
           id="Path-1126"
           fill="#1a1a1a"
           sketch:type="MSShapeGroup" />
        <path
           d="m 102.05566,1.2602539 c 1.64502,1.7783203 0.77002,3.9782715 -2.982662,7.1132813 -3.752686,3.1350098 -5.800049,2.5017088 -7.268311,0.8076171 -1.468261,-1.6940918 0.628418,-5.4108889 3.279541,-7.3876953 2.651124,-1.97680661 5.326422,-2.3115235 6.971432,-0.5332031 z"
           id="path4"
           fill="#1a1a1a"
           sketch:type="MSShapeGroup" />
        <path
           d="m 96.521973,4.2143554 c 1.136231,2.9091797 0.721419,4.9923152 0,5.8242186 -3.083862,3.556153 -1.131897,1.803483 -2.975098,2.62207 -0.977615,0.434171 -3.262731,1.312953 -4.394043,0.679199 -1.001669,-0.561128 -1.90625,-2.041992 -1.90625,-3.3432611 0,-1.3012693 3.146606,-6.3084717 6.474365,-7.6868895 1.135958,-0.4705341 1.664796,-1.0045167 2.801026,1.904663 z"
           id="path5"
           fill="#5d3019"
           sketch:type="MSShapeGroup" />
        <path
           d="m 76.365944,78.837037 c 0.718577,4.027577 0.176636,9.281129 -2.04636,10.427041 -2.222997,1.145913 -3.190397,-1.286428 -3.77554,-4.525374 -0.585143,-3.238946 -1.729179,-9.104123 1.02318,-9.735355 2.75236,-0.631232 4.080142,-0.19389 4.79872,3.833688 z"
           id="Path-320"
           fill="#1a1a1a"
           sketch:type="MSShapeGroup" />
        <path
           d="m 107.23242,14.57814 c 0,0 9.19824,-2.771011 13.77393,-1.324234 4.57568,1.446778 10.63867,4.353042 11.64844,8.926284 1.00976,4.573242 -4.36011,16.839873 -11.64844,19.637207 -2.71541,2.987758 -3.86829,9.844282 -7.21544,9.844282 -6.90687,0 -16.685441,-19.068905 -16.685441,-19.068905 0,0 3.248161,-10.544347 4.950191,-13.076647 1.70204,-2.532299 5.17676,-4.937987 5.17676,-4.937987 z"
           id="Path-322"
           fill="#1a1a1a"
           sketch:type="MSShapeGroup" />
        <path
           d="m 20.961985,48.736015 c -1.559106,2.808684 -3.733431,6.86077 -2.972199,8.0557 0.761233,1.194929 4.263889,2.929049 6.157674,1.971035 1.893785,-0.958014 2.214398,-4.590967 3.074283,-6.773604 0.859885,-2.182637 5.137557,-7.613119 1.151183,-11.173503 -3.986374,-3.560384 -5.851836,5.111688 -7.410941,7.920372 z"
           id="Path-313"
           fill="#1a1a1a"
           sketch:type="MSShapeGroup" />
        <path
           d="m 20.500068,63.145105 c -2.206287,1.928554 -6.134223,5.685925 -7.829857,4.688765 -1.695635,-0.997159 0.346346,-5.671831 1.685552,-7.157596 1.339206,-1.485765 5.163181,-7.152684 8.513019,-5.751337 3.349837,1.401347 -0.162427,6.291615 -2.368714,8.220168 z"
           id="Path-314"
           fill="#1a1a1a"
           sketch:type="MSShapeGroup" />
        <path
           d="m 35.275021,34.01398 c -2.241044,1.116502 -10.457108,5.331979 -10.457108,6.927215 0,1.595237 1.857146,7.27306 4.287403,7.273059 2.430258,0 8.710918,-6.970445 11.873406,-8.975098 3.162488,-2.004654 16.160809,-7.10018 16.160809,-8.780924 0,-1.680745 -3.697338,-6.150566 -4.763173,-6.150566 -1.065836,0 -14.860294,8.589811 -17.101337,9.706314 z"
           id="Path-312"
           fill="#1a1a1a"
           sketch:type="MSShapeGroup" />
        <path
           d="m 27.485481,38.852346 c -1.2458,0.532219 -2.667568,0.493613 -2.667568,2.088849 0,1.595237 1.857146,7.27306 4.287403,7.273059 2.430258,0 2.054092,-0.774928 3.319918,-1.799144 1.265827,-1.024215 -0.319999,-3.891245 -1.029242,-4.931132 -0.709244,-1.039886 -2.664711,-3.163851 -3.910511,-2.631632 z"
           id="path6"
           opacity="0.598509"
           fill="#9d4518"
           sketch:type="MSShapeGroup" />
        <path
           d="m 129.15747,78.750402 c 1.79575,2.91162 4.47127,5.92243 4.47127,7.866778 0,1.944347 -0.82834,7.004552 -2.45159,7.004552 -1.62324,0 -3.72741,-1.560147 -4.76051,-3.49936 -1.03311,-1.939212 -3.73378,-7.803219 -4.27799,-9.910614 -0.5442,-2.107395 -1.55059,-4.206781 0,-5.200195 1.55059,-0.993415 5.22308,0.827219 7.01882,3.738839 z"
           id="Path-300"
           fill="#1a1a1a"
           sketch:type="MSShapeGroup" />
        <path
           d="m 116.01122,42.421979 c 2.27768,2.751388 0.97875,0.780195 2.0506,4.762285 1.07185,3.98209 3.05593,8.358713 3.62261,11.558481 0.56668,3.199768 0.4743,2.635116 -1.56003,4.936047 -2.03433,2.300932 -2.35122,3.267028 -4.4889,1.578288 -2.13769,-1.688739 -3.74339,-6.813424 -5.24781,-11.436767 -1.50441,-4.623343 -0.89344,-2.039959 -0.89344,-4.488094 0,-2.448136 4.23928,-9.661628 6.51697,-6.91024 z"
           id="Path-299"
           fill="#1a1a1a"
           sketch:type="MSShapeGroup" />
        <path
           d="m 124.25967,65.486702 c 0.8325,1.972744 1.45352,3.683273 2.40633,6.7902 0.95281,3.106927 0.79224,2.557731 -0.94623,5.08918 -1.73846,2.531449 -3.00219,2.069666 -5.32995,0.653766 -2.32777,-1.415901 -1.20093,-1.414845 -3.25816,-5.820571 -2.05722,-4.405727 -1.70043,-4.849468 -1.99909,-7.279355 -0.0113,-0.09209 5.4e-4,-0.972842 0,-1.071533 -0.0138,-2.505276 3.69221,-6.007709 6.19016,-3.647117 2.59636,2.453584 2.10444,3.312686 2.93694,5.28543 z"
           id="path7"
           fill="#1a1a1a"
           sketch:type="MSShapeGroup" />
        <path
           d="m 85.69608,31.380839 c -4.530398,2.484555 -14.213374,4.977248 -15.93124,8.414205 -1.717865,3.436958 -1.687317,3.342777 1.624692,10.381063 3.312007,7.038286 11.976688,16.932 17.686782,15.716129 5.710094,-1.215871 16.835486,-2.413347 20.408176,-8.149126 3.57269,-5.735779 2.41031,-13.970354 -0.76525,-19.634332 -3.17555,-5.663978 -11.109097,-9.100342 -13.235299,-9.100342 -2.126202,0 -5.257462,-0.112152 -9.787861,2.372403 z"
           id="path8"
           fill="#1a1a1a"
           sketch:type="MSShapeGroup" />
        <path
           d="m 118.91658,15.921875 c 0,0 7.17881,0 8.5599,0 1.38109,0 5.35506,0 7.50838,0.659668 2.15332,0.659668 2.96691,3.157226 2.96691,4.408203 0,1.250977 -1.74781,4.513672 -4.03969,4.513672 -2.29189,0 -6.40048,-1.305176 -7.82158,-1.305176 -1.42109,0 -6.46582,-0.456543 -7.48063,-1.832519 -1.01482,-1.375977 0.30671,-6.443848 0.30671,-6.443848 z"
           id="Path-1121"
           fill="#1a1a1a"
           sketch:type="MSShapeGroup" />
        <path
           d="m 141.32848,38.049303 c -0.20307,1.151667 -3.36412,2.233944 -4.82235,1.237065 -1.45823,-0.996879 -1.57453,-8.051495 -2.05543,-10.251433 -0.48091,-2.199939 -2.91069,-7.803806 -1.89061,-8.661677 1.02008,-0.857871 2.10372,-2.952497 3.74987,-1.872901 1.64614,1.079596 3.0778,4.960031 3.28196,7.900507 0.20416,2.940477 1.93963,10.496772 1.73656,11.648439 z"
           id="Path-1122"
           fill="#1a1a1a"
           sketch:type="MSShapeGroup" />
        <path
           d="m 92.811035,46.57959 c 0,0 2.506836,-1.702148 5.073731,-1.702149 2.566894,0 4.649414,0.255371 4.649414,0.255371 0,0 0.78857,2.295411 0.0601,4.88379 -0.72852,2.588379 -2.11524,5.529785 -2.11524,5.529785 0,0 -3.475094,-4.111328 -4.513668,-5.394531 -1.038574,-1.283204 -3.154297,-3.572266 -3.154297,-3.572266 z"
           id="Path-893"
           opacity="0.597088"
           fill="#5d3019"
           sketch:type="MSShapeGroup" />
        <path
           d="m 64.238836,73.071452 c -2.480069,4.328148 -5.792322,10.860156 -5.792322,12.875874 0,2.015718 1.655006,3.034642 3.20636,3.786919 1.551354,0.752278 3.612446,1.099483 5.158308,10e-7 1.545862,-1.099482 5.58915,-9.137532 6.834927,-12.997634 C 74.891886,72.87651 86.79439,60.545966 85.504674,58.06901 84.214958,55.592055 73.458246,59.155091 71.51793,60.564335 c -1.940316,1.409244 -4.799024,8.178969 -7.279094,12.507117 z"
           id="path9"
           fill="#1a1a1a"
           sketch:type="MSShapeGroup" />
        <path
           d="m 117.28979,44.262559 c -0.86969,-2.627743 -3.1044,-6.70624 -4.14556,-7.506852 -1.04116,-0.800611 -3.46092,-1.563375 -5.11816,-0.248222 -1.65725,1.315152 -2.93926,2.9004 -1.80983,6.540673 1.12944,3.640274 2.20595,4.82849 3.24779,6.105777 1.81228,1e-6 3.44504,-0.02786 4.90933,-0.937398 2.35792,-2.002623 2.89122,-3.896121 2.91643,-3.953978 z"
           id="Path-298"
           opacity="0.398651"
           fill="#c45218"
           sketch:type="MSShapeGroup" />
        <path
           d="m 73.17427,82.783851 c 4.158555,-1.258606 4.872508,-4.873655 4.219266,-9.721223 -0.208507,-1.547285 -0.556304,-3.22014 -0.975838,-4.982017 -1.73391,-7.281748 -3.079028,-14.285604 -6.157558,-13.353872 -3.07853,0.931733 -3.238197,4.248924 -3.380541,8.673692 -0.142344,4.424768 0.808756,21.043759 6.294671,19.38342 z"
           id="Path-319"
           fill="#1a1a1a"
           sketch:type="MSShapeGroup" />
        <path
           d="m 93.303876,54.831015 c 2.007497,1.959275 10.234174,4.911525 8.837714,8.317138 -1.39646,3.405613 -12.007162,5.072668 -14.48887,3.900613 -2.481709,-1.172054 -10.681576,-2.929414 -13.091518,-5.455993 -2.409942,-2.526578 -7.051706,-7.784238 -6.03346,-10.441624 1.018245,-2.657386 3.833484,-4.377487 6.03346,-4.052179 2.199977,0.325307 3.609255,0.109441 8.227934,2.259898 4.61868,2.150457 8.507242,3.512873 10.51474,5.472147 z"
           id="Path-301"
           fill="#1a1a1a"
           sketch:type="MSShapeGroup" />
        <path
           d="m 123.10932,65.591593 c 0,0 -0.72324,-1.564407 -0.0682,-2.229944 0.65502,-0.665538 2.76747,-1.596451 2.76747,-1.596451 0,0 -1.88983,0.618616 -2.76747,0.861104 -0.87764,0.242488 -1.57912,-1.079051 -1.57912,-1.079051 l -0.20417,2.798208 1.94494,1.657104 z"
           id="Path-884"
           fill="#1a1a1a"
           sketch:type="MSShapeGroup" />
        <path
           d="m 109.60596,35.986745 c 0,0 0.70593,-0.214005 1.70246,-0.214004 0.99653,0 3.53145,0.376765 3.53145,0.376765 0,0 -1.70119,-0.0041 -2.40432,0.177129 -0.70314,0.181198 -1.78062,0.679779 -1.78062,0.679779 z"
           id="path10"
           fill="#5d3019"
           sketch:type="MSShapeGroup" />
        <path
           d="m 39.062742,26.99703 -4.0602,-2.039338 4.533453,1.444499 z"
           id="Path-887"
           fill="#1a1a1a"
           sketch:type="MSShapeGroup" />
        <path
           d="m 16.072499,55.449466 4.542967,-1.414354 -0.04613,0.758431 z"
           id="path11"
           fill="#1a1a1a"
           sketch:type="MSShapeGroup" />
        <path
           d="m 29.626817,28.598871 4.748605,0.305973 -0.315144,0.691542 z"
           id="path12"
           fill="#1a1a1a"
           sketch:type="MSShapeGroup" />
        <path
           d="m 53.941064,54.881704 1.655749,4.163615 -0.856132,-4.514568 z"
           id="Path-889"
           fill="#1a1a1a"
           sketch:type="MSShapeGroup" />
        <path
           d="m 55.750214,126.65818 c -2.687286,0.0455 -3.274176,-5.38272 -2.41424,-7.28669 0.859936,-1.90398 2.958518,-8.6154 4.832042,-9.18637 1.873523,-0.57097 3.657349,-0.73189 3.680191,-0.72334 1.299657,0.48662 4.133,1.08271 2.765286,5.12383 -1.39175,4.11213 -6.175993,12.02705 -8.863279,12.07257 z"
           id="Path-305"
           fill="#1a1a1a"
           sketch:type="MSShapeGroup" />
        <path
           d="m 57.734143,110.5739 c -1.617594,-2.44072 -0.224961,-8.75448 -0.09956,-11.583075 0.125399,-2.828591 -0.100598,-11.333158 1.411125,-11.599716 0.935258,-0.164912 5.01498,-2.334009 6.813225,-1.520794 1.108382,0.50124 -0.4614,5.596568 0,6.59404 0.754838,1.631837 0.754839,2.781471 0.754838,6.52647 0,3.744995 -0.411934,11.615035 -1.709416,12.501405 -1.297482,0.88637 -5.552616,1.52239 -7.17021,-0.91833 z"
           id="Path-304"
           fill="#1a1a1a"
           sketch:type="MSShapeGroup" />
        <path
           d="m 59.974755,89.917918 c 0,0 -0.136317,1.637268 -1.607755,2.469889 -1.471437,0.832621 -2.333304,0.770823 -2.333304,0.770823 0,0 2.741761,0.0086 3.941059,-0.495656 1.199298,-0.504303 0,-2.745056 0,-2.745056 z"
           id="Path-880"
           fill="#1a1a1a"
           sketch:type="MSShapeGroup" />
        <path
           d="m 59.167026,98.615027 c 0,0 -0.212824,1.688133 -1.684262,2.520753 -1.471438,0.83262 -1.386664,0.74793 -1.386664,0.74793 0,0 1.871628,-0.24363 3.070926,-0.74793 1.199298,-0.5043 0,-2.520753 0,-2.520753 z"
           id="path13"
           fill="#1a1a1a"
           sketch:type="MSShapeGroup" />
        <path
           d="m 61.878921,77.575592 c -1.167462,2.110291 -3.531787,6.395054 -3.531787,8.410772 0,2.015718 1.722365,3.0648 3.300103,3.817077 1.577738,0.752278 3.497725,1.099482 5.069877,0 1.572152,-1.099483 3.402381,-4.662795 4.524392,-7.455662 -2.074626,-2.514904 -2.283338,-2.611797 -3.982913,-3.653463 -1.699575,-1.041667 -2.152415,-1.574453 -5.379672,-1.118724 z"
           id="path14"
           opacity="0.398651"
           fill="#c45218"
           sketch:type="MSShapeGroup" />
        <path
           d="m 60.663854,78.375153 c -0.786739,0.573874 -1.450308,1.34964 -1.450308,1.34964 0,0 1.554533,-1.073257 2.271685,-1.34964 0.01559,-0.006 2.271684,0.431891 2.271684,0.431891 L 61.933032,77.64591 c 0,0 -0.482439,0.155368 -1.269178,0.729243 z"
           id="Path-882"
           fill="#5d3019"
           sketch:type="MSShapeGroup" />
        <path
           d="m 71.696185,42.47771 c 4.433548,2.516366 11.203528,11.029615 8.248151,12.98518 -2.955378,1.955565 -10.079273,-0.271417 -14.331055,-2.114949 -4.251782,-1.843531 -7.198504,-7.043441 -7.198504,-8.956836 0,-1.913395 3.871718,-6.875635 7.198504,-5.529964 3.326786,1.345671 1.649357,1.100202 6.082904,3.616569 z"
           id="Path-306"
           fill="#1a1a1a"
           sketch:type="MSShapeGroup" />
        <path
           d="m 48.502949,51.990976 c -1.644416,2.614249 -5.053709,9.010746 -4.37724,10.442048 0.257858,0.545586 0.890306,1.122104 1.659261,1.589777 1.248339,0.759231 2.856443,1.231602 3.805679,0.819077 1.53395,-0.666634 4.856696,-7.391478 5.916516,-9.272104 1.059821,-1.880626 11.51275,-10.095593 8.239579,-12.698518 -3.273171,-2.602924 -13.599379,6.50547 -15.243795,9.11972 z"
           id="Path-308"
           fill="#1a1a1a"
           sketch:type="MSShapeGroup" />
        <path
           d="m 51.946477,48.432322 c 0,0 -1.082958,0.518545 -1.740777,0.900777 -0.657819,0.382233 -1.893776,1.036581 -1.893776,1.036581 0,0 2.710449,-0.690969 3.634553,-0.690969 0.924103,0 1.068956,-0.260671 1.068956,-0.260671 z"
           id="Path-885"
           fill="#1a1a1a"
           sketch:type="MSShapeGroup" />
        <path
           d="M 69.891142,39.51534 C 67.658432,36.156693 59.84716,24.256984 58.149605,24.310613 c -1.697556,0.05363 -7.135707,-0.863908 -6.908666,2.348638 0.227042,3.212546 2.708957,5.354201 4.31636,8.698109 1.607403,3.343909 6.069924,12.352851 9.342762,12.249456 3.272838,-0.103395 7.223792,-4.73283 4.991081,-8.091476 z"
           id="Path-310"
           fill="#1a1a1a"
           sketch:type="MSShapeGroup" />
        <path
           d="m 54.819344,30.958307 c -2.570254,0.932145 -4.830437,2.939912 -6.516962,2.939912 -1.686524,0 -4.45785,-3.869014 -4.853952,-5.070463 0.900795,-1.851834 4.82989,-5.080579 6.918906,-5.080579 2.089015,0 8.741052,-0.973073 10.351562,-0.486536 1.610511,0.486536 2.377759,4.184764 1.567856,4.87594 -0.809904,0.691176 -4.897155,1.889582 -7.46741,2.821726 z"
           id="Path-311"
           fill="#8b3605"
           sketch:type="MSShapeGroup" />
        <path
           d="m 55.175899,42.046805 c -1.741758,1.935089 -3.642105,4.070604 -3.642105,6.205574 2.045266,1.006461 3.642105,1.2417 6.006183,1.2417 2.364077,0 6.577673,-4.172382 6.577673,-6.246353 0,-2.073972 -1.815584,-4.779175 -3.398752,-4.779175 -1.583167,0 -3.801242,1.643165 -5.542999,3.578254 z"
           id="Path-307"
           fill="#8b3605"
           sketch:type="MSShapeGroup" />
        <path
           d="m 53.952896,17.917023 -3.380608,-0.534887 3.915364,1.54 1.766661,-1.005059 c 0,0 -0.917996,0.218834 -2.301417,-5.4e-5 z"
           id="Path-878"
           fill="#56260b"
           sketch:type="MSShapeGroup" />
        <path
           d="m 59.362726,38.866842 c 0,0 -2.659789,1.084899 -3.595094,1.852417 -0.935304,0.767517 -1.72372,1.985168 -1.72372,1.985168 l 2.912072,-1.427205 z"
           id="Path-879"
           fill="#8b3605"
           sketch:type="MSShapeGroup" />
        <path
           d="m 77.860855,53.107257 c -1.455749,3.870178 -1.96105,5.586869 -3.794133,6.411991 -1.833084,0.825122 -6.053223,0.314799 -6.735708,-1.935089 -0.682484,-2.249888 2.460336,-9.777292 3.501562,-10.70535 1.041226,-0.928059 6.547587,-1.594692 7.272179,0.285388 0.724593,1.880081 1.211848,2.072882 -0.2439,5.94306 z"
           id="Path-318"
           fill="#56260a"
           sketch:type="MSShapeGroup" />
        <path
           d="m 82.603794,48.596044 c 4.573959,1.844135 1.842229,5.162597 1.111074,7.76432 -0.731155,2.601722 -2.751945,7.173287 -4.792289,7.997865 -2.538781,0.361962 -3.071732,0.226412 -4.381006,0.226412 -1.309274,0 -2.683083,-0.287829 -4.400439,-0.907898 0.226062,-2.562332 1.530329,-6.976527 3.576689,-9.785211 2.04636,-2.808684 4.312012,-7.139624 8.885971,-5.295488 z"
           id="Path-302"
           fill="#8b3605"
           sketch:type="MSShapeGroup" />
        <path
           d="m 143.64795,36.581338 c 0.69043,1.598633 0.33154,4.600098 -0.74512,5.726075 -1.07666,1.125976 -2.01904,1.65332 -4.95215,-1.034953 -2.9331,-2.688272 -10.6914,-4.044149 -12.19775,-4.691122 -1.50635,-0.646972 -4.82812,-2.480752 -4.82812,-2.480752 l 3.47363,-5.571494 c 0,0 5.45508,0.669434 8.22265,1.838379 2.76758,1.168946 10.33643,4.615235 11.02686,6.213867 z"
           id="Path-1118"
           fill="#1a1a1a"
           sketch:type="MSShapeGroup" />
        <path
           d="m 124.58887,26.605957 c -3.64356,-0.995117 -10.09497,0.666504 -10.09497,3.576172 0,2.909668 3.24878,3.352539 5.70092,4.129883 2.45215,0.777343 5.55616,0.783203 6.37208,0 0.81591,-0.783204 4.13818,-4.448243 3.58984,-4.959961 -0.54834,-0.511719 -1.92432,-1.750977 -5.56787,-2.746094 z"
           id="Path-1124"
           fill="#5d3019"
           sketch:type="MSShapeGroup" />
        <path
           d="m 143.75195,52.790039 c 1.90332,-0.733887 2.38184,0.78418 2.38184,-0.695312 0,-1.479493 -1.78418,-13.58545 -2.38184,-14.319825 -0.59765,-0.734375 -3.47754,0.06006 -4.21142,1.691407 -0.73389,1.631347 0,9.625488 0,10.930663 0,1.305176 2.3081,3.126953 4.21142,2.393067 z"
           id="Path-1119"
           fill="#1a1a1a"
           sketch:type="MSShapeGroup" />
        <path
           d="m 152.64941,57.925781 c 0.37744,-1.335693 -4.55713,-6.155517 -6.3623,-6.845947 -1.80518,-0.69043 -4.90234,-0.516846 -4.33692,1.590576 0.56543,2.107422 2.39551,3.569824 4.33692,4.776856 1.94141,1.207031 5.98486,1.814208 6.3623,0.478515 z"
           id="Path-1120"
           fill="#1a1a1a"
           sketch:type="MSShapeGroup" />
      </g>
      <path
         d="m 249,340.37388 2.83647,-2.43124 0.59836,0.69809 -1.04065,0.89197 2.59139,3.02333 -0.75518,0.64729 -2.59139,-3.02332 -1.04065,0.89197 z m 3.69586,-2.91508 1.52549,-1.12755 c 0.23455,-0.17337 0.46667,-0.29252 0.69636,-0.35745 0.2297,-0.0649 0.447,-0.0853 0.65191,-0.0611 0.20492,0.0242 0.39304,0.0871 0.56437,0.18852 0.17134,0.10146 0.31659,0.23281 0.43578,0.39407 0.0962,0.1301 0.16755,0.26789 0.21416,0.41337 0.0466,0.14548 0.0704,0.2908 0.0715,0.43596 10e-4,0.14516 -0.0198,0.28664 -0.0624,0.42443 -0.0427,0.13779 -0.10383,0.26588 -0.1835,0.38427 l 2.06173,0.98377 -0.91805,0.67856 -1.76296,-0.89007 -0.63219,0.46727 1.04832,1.4183 -0.79711,0.58917 z m 3.06139,-0.32041 c -0.0582,-0.0788 -0.12661,-0.1416 -0.20513,-0.1884 -0.0785,-0.0468 -0.16492,-0.0736 -0.25921,-0.0804 -0.0943,-0.007 -0.19466,0.008 -0.3011,0.044 -0.10644,0.0362 -0.21646,0.0962 -0.33007,0.18022 l -0.64868,0.47946 0.82077,1.11045 0.64868,-0.47946 c 0.11361,-0.084 0.20298,-0.17199 0.26811,-0.26405 0.0651,-0.0921 0.10794,-0.18462 0.12841,-0.27768 0.0205,-0.0931 0.0199,-0.18398 -0.002,-0.27277 -0.0217,-0.0888 -0.0617,-0.17259 -0.11993,-0.25138 z m 5.4093,-0.41502 -1.5432,0.95527 0.24314,0.91877 -0.89512,0.5541 -1.21677,-5.01124 1.10727,-0.68543 3.96314,3.31118 -0.94161,0.58288 z m -1.77706,0.071 1.08983,-0.67463 -1.63076,-1.42655 -0.0116,0.007 z m 3.24455,-3.9203 1.69437,3.34867 -0.88444,0.44751 -2.21286,-4.3734 1.24736,-0.63115 3.23663,2.05119 -1.48604,-2.93695 0.88443,-0.44751 2.21286,4.37341 -0.97288,0.49226 z m 5.5374,0.25816 c 0.0858,0.045 0.18399,0.0839 0.29449,0.11687 0.11051,0.033 0.22737,0.0555 0.35059,0.0677 0.12321,0.0122 0.25134,0.0102 0.3844,-0.006 0.13305,-0.0161 0.26969,-0.0513 0.40994,-0.1056 0.26136,-0.1012 0.44044,-0.23347 0.53724,-0.3968 0.0968,-0.16333 0.11477,-0.32361 0.0539,-0.48085 -0.0634,-0.16362 -0.17259,-0.26427 -0.32768,-0.30195 -0.1551,-0.0377 -0.37491,-0.0295 -0.65945,0.0245 l -0.1533,0.03 c -0.20441,0.0401 -0.41187,0.0691 -0.62238,0.0871 -0.21051,0.018 -0.41242,0.005 -0.60573,-0.0403 -0.19331,-0.0449 -0.36925,-0.13008 -0.52782,-0.25561 -0.15856,-0.12552 -0.28598,-0.31259 -0.38225,-0.56121 -0.056,-0.14449 -0.0827,-0.30823 -0.0803,-0.49122 0.002,-0.18299 0.0476,-0.36783 0.1353,-0.55453 0.0878,-0.18671 0.22514,-0.36514 0.41215,-0.5353 0.18701,-0.17016 0.4367,-0.31571 0.74906,-0.43667 0.36973,-0.14317 0.72327,-0.20983 1.06064,-0.19997 0.33736,0.01 0.63396,0.0801 0.88979,0.21073 l -0.39299,0.81194 c -0.17885,-0.0896 -0.38177,-0.13561 -0.60877,-0.13812 -0.227,-0.003 -0.44462,0.0366 -0.65286,0.11719 -0.24011,0.093 -0.40994,0.21128 -0.50949,0.3549 -0.0996,0.14362 -0.12093,0.28874 -0.0642,0.43536 0.037,0.0956 0.0897,0.16687 0.15791,0.21375 0.0682,0.0469 0.1497,0.0758 0.24437,0.0868 0.0947,0.011 0.20259,0.009 0.32379,-0.006 0.12119,-0.0152 0.25513,-0.0353 0.40182,-0.0603 l 0.0782,-0.0156 c 0.19591,-0.0368 0.39425,-0.0641 0.59502,-0.082 0.20078,-0.0179 0.39455,-0.005 0.58132,0.0388 0.18676,0.0437 0.3573,0.1292 0.51162,0.25637 0.15432,0.12718 0.28043,0.31719 0.37835,0.57005 0.0889,0.22949 0.11964,0.45093 0.0923,0.66433 -0.0273,0.21339 -0.0955,0.41268 -0.20464,0.59788 -0.10911,0.1852 -0.25458,0.34904 -0.43642,0.49154 -0.18185,0.14251 -0.38432,0.25695 -0.60744,0.34335 -0.22523,0.0872 -0.44141,0.14894 -0.64852,0.18516 -0.20712,0.0362 -0.40234,0.0495 -0.58567,0.0399 -0.18334,-0.01 -0.35296,-0.0344 -0.50888,-0.0742 -0.15592,-0.0398 -0.2989,-0.092 -0.42894,-0.15645 z m 2.96011,-4.67283 0.95028,-0.28189 1.39389,4.69899 -0.95029,0.28188 z m 1.7326,-0.46699 3.61874,-0.92805 0.2284,0.89061 -1.32764,0.34048 0.98919,3.85711 -0.96345,0.24709 -0.98919,-3.85712 -1.32764,0.34049 z m 4.60986,-0.98154 0.97552,-0.17564 0.86849,4.82381 -0.97552,0.17564 z m 4.23689,-0.69247 c 0.36097,-0.0512 0.69391,-0.0323 0.99884,0.0567 0.30493,0.089 0.57316,0.23164 0.80468,0.42778 0.23152,0.19613 0.42127,0.43847 0.56925,0.72702 0.14798,0.28854 0.24662,0.60653 0.29594,0.95396 0.0496,0.34968 0.0435,0.68312 -0.0185,1.00032 -0.062,0.3172 -0.17681,0.60277 -0.34445,0.85672 -0.16764,0.25394 -0.38558,0.46554 -0.65385,0.63481 -0.26826,0.16926 -0.58287,0.27951 -0.94384,0.33075 -0.36322,0.0516 -0.69665,0.0333 -1.00029,-0.0548 -0.30364,-0.0881 -0.5713,-0.23075 -0.80299,-0.42802 -0.23168,-0.19726 -0.42143,-0.4396 -0.56924,-0.72702 -0.14782,-0.28742 -0.24655,-0.60596 -0.29619,-0.95565 -0.0493,-0.34743 -0.043,-0.6803 0.0188,-0.99863 0.0618,-0.31833 0.17665,-0.6039 0.34444,-0.85672 0.1678,-0.25281 0.38518,-0.46434 0.65216,-0.63457 0.26697,-0.17023 0.58207,-0.28113 0.94529,-0.33268 z m 0.58219,4.10146 c 0.21207,-0.0301 0.39307,-0.0966 0.54301,-0.19963 0.14994,-0.10299 0.27009,-0.23339 0.36046,-0.39121 0.0904,-0.15782 0.14999,-0.33774 0.17885,-0.53977 0.0289,-0.20203 0.027,-0.41809 -0.006,-0.64821 l -0.004,-0.0271 c -0.0323,-0.22786 -0.0906,-0.43536 -0.17467,-0.6225 -0.0841,-0.18715 -0.19151,-0.34393 -0.32223,-0.47037 -0.13072,-0.12644 -0.28242,-0.21826 -0.45509,-0.27545 -0.17268,-0.0572 -0.36505,-0.0707 -0.57712,-0.0406 -0.21206,0.0301 -0.39363,0.0967 -0.54469,0.19987 -0.15107,0.10315 -0.27122,0.23355 -0.36047,0.39121 -0.0892,0.15766 -0.14821,0.33807 -0.17691,0.54122 -0.0287,0.20315 -0.0269,0.41866 0.005,0.64652 l 0.004,0.0271 c 0.0327,0.23012 0.091,0.43818 0.1749,0.62419 0.0839,0.18602 0.19071,0.34232 0.3203,0.46892 0.1296,0.1266 0.28129,0.21841 0.4551,0.27545 0.1738,0.057 0.36673,0.0705 0.5788,0.0404 z m 4.05257,-3.11842 0.17221,3.74897 -0.99017,0.0455 -0.2249,-4.8962 1.39648,-0.0642 2.11088,3.19802 -0.15103,-3.28804 0.99016,-0.0455 0.2249,4.8962 -1.08918,0.05 z m 5.55384,-0.98537 3.72658,0.26283 -0.0647,0.91716 -1.36721,-0.0964 -0.28014,3.97207 -0.99216,-0.07 0.28014,-3.97207 -1.36721,-0.0964 z m 6.75627,0.75166 c 0.36088,0.0518 0.67524,0.16311 0.94307,0.33393 0.26784,0.17081 0.48545,0.38276 0.65285,0.63584 0.1674,0.25308 0.28176,0.53883 0.34309,0.85725 0.0613,0.31843 0.0671,0.65131 0.0172,0.99866 -0.0502,0.34961 -0.14941,0.668 -0.29769,0.95519 -0.14826,0.28719 -0.33839,0.52922 -0.57039,0.72612 -0.23199,0.1969 -0.50044,0.33907 -0.80535,0.42651 -0.30491,0.0874 -0.6378,0.10527 -0.99868,0.0535 -0.36315,-0.0521 -0.67815,-0.16295 -0.94502,-0.33248 -0.26686,-0.16952 -0.48391,-0.38139 -0.65115,-0.63559 -0.16724,-0.25421 -0.2816,-0.53996 -0.3431,-0.85726 -0.0615,-0.3173 -0.0671,-0.65075 -0.017,-1.00035 0.0499,-0.34736 0.14901,-0.66518 0.29744,-0.9535 0.14844,-0.28831 0.33857,-0.53035 0.5704,-0.72612 0.23183,-0.19577 0.49971,-0.33802 0.80365,-0.42676 0.30395,-0.0887 0.63748,-0.10703 1.00063,-0.0549 z m -0.58865,4.10054 c 0.21202,0.0304 0.40441,0.0172 0.57718,-0.0397 0.17276,-0.0569 0.3246,-0.1485 0.45552,-0.27474 0.13092,-0.12623 0.2385,-0.28228 0.32273,-0.46816 0.0842,-0.18589 0.14287,-0.39386 0.17589,-0.62392 l 0.004,-0.0271 c 0.0327,-0.2278 0.0349,-0.44331 0.006,-0.6465 -0.0284,-0.2032 -0.0876,-0.38378 -0.17775,-0.54175 -0.0901,-0.15796 -0.21007,-0.28855 -0.35985,-0.39177 -0.14978,-0.10323 -0.33067,-0.17005 -0.54269,-0.20049 -0.21202,-0.0304 -0.40498,-0.0173 -0.57887,0.0395 -0.17389,0.0568 -0.32573,0.14834 -0.45552,0.27473 -0.1298,0.1264 -0.23689,0.2831 -0.32129,0.47011 -0.0844,0.18701 -0.14294,0.39441 -0.17564,0.62222 l -0.004,0.0271 c -0.033,0.23006 -0.0353,0.44613 -0.007,0.6482 0.0285,0.20207 0.0873,0.382 0.1763,0.5398 0.089,0.15781 0.20894,0.2884 0.35985,0.39178 0.1509,0.10339 0.33236,0.1703 0.54438,0.20073 z m 6.12153,-2.77887 c 0.35426,0.0862 0.6565,0.22708 0.90672,0.42278 0.25023,0.1957 0.44653,0.42753 0.5889,0.69549 0.14237,0.26796 0.22882,0.56335 0.25935,0.88619 0.0305,0.32284 0.004,0.65474 -0.0786,0.99572 -0.0835,0.34318 -0.21275,0.6506 -0.38786,0.92225 -0.17512,0.27165 -0.38757,0.49435 -0.63737,0.66811 -0.24979,0.17376 -0.53063,0.28954 -0.84252,0.34736 -0.31189,0.0578 -0.64495,0.0436 -0.99921,-0.0425 -0.35647,-0.0867 -0.6594,-0.2272 -0.90879,-0.42152 -0.2494,-0.19433 -0.44514,-0.42602 -0.58724,-0.69509 -0.1421,-0.26906 -0.22855,-0.56446 -0.25935,-0.88619 -0.0308,-0.32173 -0.004,-0.65419 0.079,-0.99737 0.0829,-0.34098 0.21208,-0.64784 0.38746,-0.9206 0.17539,-0.27276 0.38784,-0.49546 0.63737,-0.66811 0.24953,-0.17264 0.52981,-0.28856 0.84086,-0.34776 0.31105,-0.0592 0.6448,-0.0454 1.00128,0.0413 z m -0.97897,4.02524 c 0.20813,0.0506 0.4009,0.0559 0.57833,0.0158 0.17742,-0.0401 0.33734,-0.1167 0.47976,-0.2298 0.14242,-0.11311 0.26445,-0.25813 0.36612,-0.43509 0.10166,-0.17695 0.17995,-0.37834 0.23488,-0.60418 l 0.006,-0.0266 c 0.0544,-0.22362 0.0772,-0.43792 0.0684,-0.64291 -0.009,-0.20498 -0.0504,-0.39041 -0.12501,-0.55628 -0.0746,-0.16588 -0.18145,-0.30737 -0.32064,-0.42447 -0.13919,-0.1171 -0.31285,-0.20096 -0.52098,-0.25158 -0.20812,-0.0506 -0.40145,-0.056 -0.57998,-0.0162 -0.17854,0.0398 -0.33846,0.11643 -0.47976,0.2298 -0.14131,0.11338 -0.26293,0.25909 -0.36486,0.43715 -0.10194,0.17806 -0.1801,0.3789 -0.23448,0.60252 l -0.006,0.0266 c -0.0549,0.22584 -0.0779,0.4407 -0.0688,0.64457 0.009,0.20388 0.0503,0.38862 0.12376,0.55422 0.0735,0.16561 0.18033,0.3071 0.32063,0.42447 0.1403,0.11737 0.31452,0.20136 0.52264,0.25198 z m 4.35789,-2.80166 0.93618,0.32569 -1.3095,3.76407 1.83362,0.6379 -0.30099,0.86516 -2.76978,-0.96359 z m 5.73132,3.3012 c -0.12275,-0.0548 -0.23873,-0.0829 -0.34793,-0.0843 -0.1092,-10e-4 -0.20976,0.0199 -0.30169,0.0637 -0.0919,0.0438 -0.1736,0.10652 -0.24501,0.18817 -0.0714,0.0817 -0.13173,0.17762 -0.18098,0.28789 l -0.88926,-0.49822 c 0.11172,-0.24458 0.25275,-0.44301 0.42308,-0.59528 0.17032,-0.15228 0.35838,-0.26045 0.56418,-0.32451 0.2058,-0.0641 0.42418,-0.0851 0.65516,-0.063 0.23098,0.022 0.46505,0.086 0.70224,0.19197 0.24759,0.11057 0.45736,0.24855 0.62931,0.41394 0.17195,0.16539 0.301,0.34718 0.38718,0.54539 0.0862,0.1982 0.12772,0.40829 0.12466,0.63028 -0.003,0.22199 -0.0543,0.44429 -0.15373,0.66691 -0.10872,0.24343 -0.25861,0.44912 -0.44967,0.6171 -0.19107,0.16797 -0.40689,0.30616 -0.64747,0.41458 -0.24058,0.10842 -0.49812,0.19055 -0.77262,0.24639 -0.27449,0.0558 -0.54849,0.0938 -0.822,0.1139 l -0.10378,0.006 1.86628,0.83351 -0.36518,0.81766 -3.26442,-1.45793 0.36239,-0.81143 c 0.20941,-0.0163 0.42525,-0.0372 0.64752,-0.0627 0.22227,-0.0255 0.44143,-0.058 0.65748,-0.0975 0.21605,-0.0395 0.42534,-0.0877 0.62789,-0.14445 0.20254,-0.0568 0.38793,-0.12684 0.55617,-0.21017 0.16823,-0.0833 0.31596,-0.18082 0.44318,-0.29245 0.12722,-0.11163 0.22428,-0.24235 0.29118,-0.39215 0.0381,-0.0853 0.0612,-0.17607 0.0692,-0.2723 0.008,-0.0962 -0.002,-0.18938 -0.0306,-0.27943 -0.0284,-0.09 -0.078,-0.17459 -0.14877,-0.25361 -0.0708,-0.079 -0.16545,-0.14502 -0.28405,-0.19798 z m 2.6102,3.3087 c -0.0993,0.18206 -0.17988,0.36325 -0.24186,0.54357 -0.062,0.18033 -0.0958,0.35068 -0.10151,0.51108 -0.006,0.1604 0.0233,0.30597 0.087,0.43671 0.0637,0.13075 0.17254,0.23811 0.32659,0.3221 0.15405,0.084 0.30327,0.11732 0.44766,0.10002 0.14439,-0.0173 0.28245,-0.0718 0.41419,-0.16348 0.13173,-0.0917 0.2561,-0.21269 0.37309,-0.36301 0.117,-0.15033 0.22512,-0.31652 0.32438,-0.49858 l 0.0638,-0.11704 c 0.0992,-0.18206 0.18064,-0.36347 0.24417,-0.54425 0.0635,-0.18078 0.0981,-0.35136 0.10383,-0.51176 0.006,-0.1604 -0.0233,-0.30597 -0.087,-0.43671 -0.0637,-0.13074 -0.17254,-0.23811 -0.32659,-0.32209 -0.15405,-0.084 -0.30327,-0.11733 -0.44766,-0.10003 -0.14439,0.0173 -0.28245,0.0718 -0.41419,0.16348 -0.13173,0.0917 -0.25687,0.21292 -0.37541,0.3637 -0.11854,0.15078 -0.22744,0.3172 -0.3267,0.49926 z m 2.56988,1.32713 c -0.096,0.17606 -0.20502,0.34629 -0.3271,0.51072 -0.12208,0.16442 -0.25535,0.31366 -0.39981,0.44771 -0.14446,0.13406 -0.2997,0.24862 -0.46571,0.34367 -0.16602,0.095 -0.34168,0.16019 -0.52698,0.19542 -0.1853,0.0352 -0.37884,0.0368 -0.58062,0.005 -0.20178,-0.0322 -0.4117,-0.10767 -0.62977,-0.22656 -0.21606,-0.1178 -0.39276,-0.25306 -0.5301,-0.40579 -0.13733,-0.15273 -0.24088,-0.31625 -0.31066,-0.49054 -0.0698,-0.1743 -0.10995,-0.35646 -0.12054,-0.5465 -0.0106,-0.19004 0.001,-0.38208 0.0358,-0.57613 0.0344,-0.19404 0.0877,-0.38691 0.15973,-0.5786 0.0721,-0.19169 0.15664,-0.37656 0.25372,-0.55462 0.096,-0.17606 0.20502,-0.34629 0.3271,-0.51072 0.12208,-0.16442 0.25535,-0.31366 0.39981,-0.44771 0.14446,-0.13406 0.29969,-0.24862 0.46571,-0.34367 0.16602,-0.0951 0.34118,-0.16046 0.52548,-0.19623 0.1843,-0.0358 0.37761,-0.0381 0.57994,-0.007 0.20232,0.0311 0.41251,0.10617 0.63058,0.22506 0.21807,0.11889 0.395,0.25493 0.53078,0.40811 0.13579,0.15319 0.23907,0.3172 0.30985,0.49204 0.0708,0.17484 0.11118,0.35778 0.12122,0.54882 0.01,0.19104 -0.002,0.38358 -0.0366,0.57763 -0.0344,0.19404 -0.0877,0.38691 -0.15974,0.5786 -0.0721,0.19169 -0.15609,0.37556 -0.25208,0.55162 z m 3.43588,-0.49672 -2.69481,4.09407 -0.84793,-0.55813 1.7815,-2.70654 -0.7423,-0.4886 0.49235,-0.74801 0.18272,0.12027 c 0.12182,0.0802 0.22847,0.1347 0.31996,0.16355 0.0915,0.0288 0.17416,0.0348 0.24801,0.018 0.0738,-0.0169 0.14187,-0.056 0.20407,-0.11732 0.0622,-0.0614 0.12651,-0.14247 0.19291,-0.24335 l 0.047,-0.0714 z m -0.18605,5.96694 0.65189,-0.89522 -1.97556,-1.43859 0.62171,-0.85378 3.36615,-0.93555 1.02508,0.74646 -1.70619,2.34304 0.57747,0.42051 -0.52715,0.72392 -0.57747,-0.42051 -0.65189,0.89521 z m 1.17904,-1.61913 1.13277,-1.55558 -2.36508,0.65822 z"
         id="TRANSITION-TOOL-2014"
         fill="#ffffff"
         sketch:type="MSShapeGroup" />
    </g>
  </g>
</svg>
