<svg width="320" height="320" viewBox="0 0 320 320" fill="none" xmlns="http://www.w3.org/2000/svg">
<g clip-path="url(#clip0_1_2)">
<g clip-path="url(#clip1_1_2)">
<mask id="mask0_1_2" style="mask-type:luminance" maskUnits="userSpaceOnUse" x="17" y="0" width="300" height="300">
<path d="M167.309 299.726C249.875 299.726 316.809 232.793 316.809 150.226C316.809 67.6595 249.875 0.726078 167.309 0.726078C84.742 0.726078 17.8086 67.6595 17.8086 150.226C17.8086 232.793 84.742 299.726 167.309 299.726Z" fill="white"/>
</mask>
<g mask="url(#mask0_1_2)">
<path d="M167.309 299.726C249.875 299.726 316.809 232.793 316.809 150.226C316.809 67.6595 249.875 0.726078 167.309 0.726078C84.742 0.726078 17.8086 67.6595 17.8086 150.226C17.8086 232.793 84.742 299.726 167.309 299.726Z" fill="url(#paint0_linear_1_2)" stroke="black" stroke-width="58"/>
</g>
<path fill-rule="evenodd" clip-rule="evenodd" d="M175.352 53.0204C216.113 54.1375 223.318 62.2253 242.11 80.5639C260.902 98.9026 278.426 136.855 278.426 136.855C278.426 136.855 270.262 99.313 254.688 79.0227C239.115 58.7324 230.979 53.1049 230.979 53.1049C230.979 53.1049 208.425 47.8243 175.352 53.0204Z" fill="black"/>
<path fill-rule="evenodd" clip-rule="evenodd" d="M57.4023 207.589C57.4023 207.589 81.4961 240.445 85.1016 253.603C88.707 266.761 95.7109 298.216 100.9 303.21C106.09 308.205 111.607 310.179 123.418 305.642C135.229 301.105 153.25 297.652 153.25 287.273C153.25 276.894 152.381 214.037 144.934 207.589C137.486 201.142 115.623 185.726 109.891 185.726C104.158 185.726 57.4023 207.589 57.4023 207.589Z" fill="#1B140B"/>
<path d="M17.8086 208.763C17.8086 208.763 19.4414 218.86 21.3672 224.722C23.293 230.584 28.1538 243.131 29.3862 242.521C30.6187 241.91 30.6406 230.725 30.6406 222.964C30.6406 215.204 29.9727 205.726 29.9727 205.726L17.8086 208.763Z" fill="white"/>
<mask id="mask1_1_2" style="mask-type:luminance" maskUnits="userSpaceOnUse" x="12" y="200" width="24" height="48">
<path d="M35.6406 200.726H12.8086V247.542H35.6406V200.726Z" fill="white"/>
<path d="M17.8086 208.763C17.8086 208.763 19.4414 218.86 21.3672 224.722C23.293 230.584 28.1538 243.131 29.3862 242.521C30.6187 241.91 30.6406 230.725 30.6406 222.964C30.6406 215.204 29.9727 205.726 29.9727 205.726L17.8086 208.763Z" fill="black"/>
</mask>
<g mask="url(#mask1_1_2)">
<path d="M17.8086 208.763C17.8086 208.763 19.4414 218.86 21.3672 224.722C23.293 230.584 28.1538 243.131 29.3862 242.521C30.6187 241.91 30.6406 230.725 30.6406 222.964C30.6406 215.204 29.9727 205.726 29.9727 205.726L17.8086 208.763Z" stroke="black" stroke-width="10"/>
</g>
<path d="M64.0363 209.726C64.0363 209.726 64.196 220.479 65.0546 226.045C65.9131 231.611 70.645 245.114 72.0401 244.828C73.4353 244.542 73.9016 233.075 74.4888 225.76C75.0761 218.444 75.575 208.003 75.575 208.003L64.0363 209.726Z" fill="white"/>
<mask id="mask2_1_2" style="mask-type:luminance" maskUnits="userSpaceOnUse" x="55" y="202" width="27" height="47">
<path d="M81.8153 205.954L62.0911 202.83L55.374 245.24L75.0981 248.364L81.8153 205.954Z" fill="white"/>
<path d="M64.0363 209.726C64.0363 209.726 64.196 220.479 65.0546 226.045C65.9131 231.611 70.645 245.114 72.0401 244.828C73.4353 244.542 73.9016 233.075 74.4888 225.76C75.0761 218.444 75.575 208.003 75.575 208.003L64.0363 209.726Z" fill="black"/>
</mask>
<g mask="url(#mask2_1_2)">
<path d="M64.0363 209.726C64.0363 209.726 64.196 220.479 65.0546 226.045C65.9131 231.611 70.645 245.114 72.0401 244.828C73.4353 244.542 73.9016 233.075 74.4888 225.76C75.0761 218.444 75.575 208.003 75.575 208.003L64.0363 209.726Z" stroke="black" stroke-width="6"/>
</g>
<path fill-rule="evenodd" clip-rule="evenodd" d="M166.938 288.956L162.296 288.478L161.348 290.73L158.655 290.452L164.048 278.338L167.379 278.682L170.248 291.648L167.415 291.356L166.938 288.956ZM163.208 286.31L166.487 286.648L165.407 281.182L165.372 281.179L163.208 286.31ZM172.113 278.492L177.149 278.513C177.799 278.516 178.386 278.625 178.91 278.841C179.433 279.058 179.876 279.352 180.238 279.726C180.599 280.099 180.877 280.542 181.072 281.052C181.266 281.563 181.362 282.117 181.359 282.714C181.357 283.312 181.247 283.865 181.031 284.374C180.815 284.883 180.512 285.323 180.121 285.693C179.73 286.064 179.261 286.353 178.715 286.562C178.169 286.771 177.568 286.874 176.912 286.871L174.627 286.861L174.609 291.106L172.061 291.096L172.113 278.492ZM178.731 282.66C178.733 282.361 178.681 282.095 178.576 281.864C178.472 281.632 178.32 281.433 178.122 281.268C177.923 281.104 177.684 280.978 177.403 280.892C177.122 280.806 176.806 280.762 176.454 280.761L174.652 280.753L174.636 284.611L176.438 284.619C176.79 284.62 177.106 284.579 177.388 284.495C177.669 284.412 177.91 284.288 178.11 284.125C178.31 283.962 178.463 283.764 178.57 283.533C178.676 283.302 178.73 283.038 178.731 282.739L178.731 282.66ZM182.147 277.966L187.007 277.55C187.754 277.486 188.423 277.538 189.014 277.705C189.604 277.872 190.108 278.12 190.524 278.449C190.94 278.778 191.268 279.169 191.507 279.622C191.745 280.075 191.887 280.558 191.931 281.072C191.966 281.486 191.937 281.884 191.843 282.266C191.749 282.647 191.606 282.998 191.413 283.317C191.219 283.636 190.983 283.918 190.704 284.163C190.425 284.407 190.119 284.605 189.785 284.757L192.977 289.689L190.052 289.939L187.388 285.615L185.374 285.788L185.761 290.306L183.222 290.524L182.147 277.966ZM189.285 281.386C189.263 281.135 189.198 280.906 189.089 280.698C188.98 280.489 188.827 280.314 188.629 280.172C188.432 280.03 188.192 279.927 187.911 279.863C187.629 279.799 187.307 279.783 186.945 279.814L184.878 279.991L185.181 283.528L187.248 283.352C187.61 283.321 187.924 283.248 188.19 283.134C188.457 283.02 188.676 282.875 188.846 282.699C189.016 282.522 189.137 282.322 189.209 282.099C189.281 281.875 189.306 281.638 189.285 281.386ZM192.729 276.426L195.236 275.968L197.496 288.368L194.989 288.825L192.729 276.426ZM197.546 275.38L200.031 274.814L202.306 284.806L207.174 283.698L207.697 285.995L200.344 287.669L197.546 275.38ZM212.783 273.029C212.455 273.138 212.187 273.287 211.977 273.474C211.768 273.662 211.615 273.877 211.517 274.119C211.419 274.362 211.373 274.623 211.38 274.902C211.387 275.181 211.439 275.468 211.538 275.762L208.987 276.365C208.773 275.707 208.695 275.086 208.753 274.502C208.811 273.917 208.979 273.385 209.257 272.906C209.536 272.427 209.913 272.007 210.389 271.647C210.864 271.287 211.419 271.001 212.053 270.789C212.714 270.568 213.351 270.465 213.964 270.479C214.578 270.493 215.138 270.613 215.646 270.838C216.154 271.064 216.598 271.39 216.979 271.815C217.359 272.241 217.648 272.751 217.847 273.346C218.065 273.996 218.139 274.646 218.069 275.297C217.999 275.947 217.831 276.584 217.564 277.208C217.297 277.832 216.952 278.435 216.529 279.018C216.106 279.602 215.653 280.15 215.17 280.664L214.984 280.856L219.968 279.189L220.699 281.372L211.98 284.289L211.255 282.121C211.624 281.726 211.996 281.311 212.373 280.877C212.749 280.442 213.108 279.999 213.448 279.548C213.789 279.098 214.102 278.642 214.386 278.183C214.671 277.723 214.901 277.268 215.074 276.817C215.248 276.367 215.358 275.925 215.405 275.493C215.452 275.06 215.408 274.644 215.275 274.243C215.198 274.016 215.084 273.804 214.932 273.607C214.78 273.411 214.599 273.252 214.388 273.131C214.178 273.01 213.937 272.936 213.665 272.91C213.394 272.883 213.1 272.923 212.783 273.029ZM222.317 273.546C222.531 274.034 222.773 274.483 223.042 274.893C223.311 275.303 223.604 275.64 223.921 275.904C224.238 276.168 224.58 276.338 224.946 276.415C225.312 276.491 225.702 276.439 226.115 276.258C226.528 276.077 226.831 275.826 227.023 275.505C227.215 275.184 227.322 274.818 227.343 274.405C227.364 273.993 227.313 273.55 227.192 273.075C227.07 272.601 226.903 272.119 226.689 271.631L226.551 271.317C226.337 270.829 226.097 270.378 225.829 269.964C225.562 269.55 225.269 269.211 224.952 268.947C224.635 268.683 224.293 268.513 223.927 268.436C223.561 268.36 223.172 268.412 222.758 268.593C222.345 268.774 222.042 269.025 221.85 269.346C221.658 269.667 221.551 270.033 221.531 270.446C221.51 270.858 221.559 271.303 221.679 271.781C221.799 272.26 221.966 272.743 222.18 273.232L222.317 273.546ZM229.061 270.41C229.268 270.882 229.443 271.372 229.585 271.879C229.727 272.386 229.82 272.892 229.866 273.396C229.911 273.901 229.899 274.397 229.831 274.884C229.763 275.372 229.619 275.831 229.399 276.263C229.179 276.696 228.877 277.092 228.494 277.451C228.111 277.811 227.627 278.119 227.042 278.375C226.463 278.629 225.909 278.775 225.383 278.814C224.856 278.853 224.36 278.806 223.896 278.673C223.432 278.541 222.998 278.336 222.595 278.058C222.192 277.781 221.821 277.454 221.48 277.078C221.14 276.703 220.831 276.291 220.555 275.843C220.279 275.395 220.036 274.932 219.827 274.454C219.62 273.982 219.446 273.492 219.304 272.985C219.161 272.478 219.068 271.972 219.023 271.467C218.978 270.962 218.989 270.466 219.057 269.979C219.125 269.492 219.268 269.033 219.485 268.602C219.703 268.171 220.002 267.774 220.384 267.412C220.766 267.049 221.249 266.74 221.834 266.484C222.42 266.228 222.975 266.082 223.5 266.047C224.025 266.012 224.521 266.061 224.988 266.192C225.455 266.323 225.891 266.529 226.295 266.809C226.699 267.09 227.071 267.418 227.412 267.793C227.752 268.169 228.06 268.58 228.337 269.029C228.613 269.477 228.854 269.937 229.061 270.41ZM230.872 261.617L236.993 272.634L234.711 273.902L230.665 266.619L228.667 267.728L227.549 265.716L228.04 265.442C228.368 265.26 228.62 265.082 228.794 264.908C228.969 264.734 229.081 264.552 229.131 264.364C229.18 264.176 229.172 263.974 229.106 263.759C229.041 263.544 228.932 263.301 228.781 263.03L228.675 262.838L230.872 261.617ZM235.583 266.108C235.28 265.627 235.021 265.131 234.806 264.619C234.591 264.107 234.434 263.593 234.334 263.078C234.234 262.562 234.198 262.052 234.226 261.546C234.254 261.041 234.361 260.552 234.549 260.08C234.737 259.609 235.01 259.16 235.368 258.734C235.726 258.307 236.183 257.919 236.738 257.569C237.189 257.285 237.644 257.076 238.104 256.942C238.563 256.809 239.009 256.742 239.443 256.743C239.876 256.744 240.29 256.805 240.685 256.926C241.08 257.048 241.439 257.222 241.762 257.448L240.256 259.477C239.87 259.249 239.473 259.144 239.066 259.162C238.658 259.18 238.266 259.307 237.889 259.545C237.522 259.776 237.243 260.054 237.053 260.378C236.863 260.702 236.749 261.052 236.713 261.429C236.676 261.805 236.712 262.194 236.82 262.597C236.928 263 237.096 263.393 237.324 263.776C237.37 263.574 237.44 263.361 237.535 263.139C237.63 262.916 237.754 262.698 237.907 262.484C238.06 262.27 238.24 262.061 238.447 261.858C238.655 261.654 238.89 261.469 239.153 261.304C239.674 260.976 240.211 260.755 240.766 260.641C241.321 260.527 241.859 260.518 242.381 260.615C242.903 260.713 243.391 260.913 243.844 261.215C244.298 261.518 244.685 261.922 245.003 262.428C245.34 262.963 245.558 263.52 245.656 264.099C245.754 264.678 245.734 265.245 245.595 265.8C245.457 266.354 245.202 266.882 244.831 267.382C244.461 267.882 243.973 268.323 243.368 268.704C242.704 269.122 242.027 269.384 241.339 269.489C240.65 269.594 239.975 269.547 239.312 269.348C238.65 269.148 238.014 268.798 237.403 268.296C236.793 267.794 236.236 267.144 235.733 266.346L235.583 266.108ZM239.077 266.328C239.236 266.58 239.429 266.788 239.656 266.95C239.883 267.112 240.13 267.221 240.397 267.277C240.665 267.334 240.945 267.336 241.237 267.283C241.53 267.231 241.817 267.115 242.1 266.937C242.392 266.753 242.625 266.54 242.799 266.299C242.972 266.058 243.089 265.806 243.149 265.544C243.208 265.281 243.212 265.014 243.158 264.743C243.105 264.472 242.999 264.21 242.84 263.957C242.684 263.709 242.495 263.504 242.275 263.341C242.055 263.179 241.814 263.068 241.551 263.008C241.289 262.948 241.011 262.945 240.719 262.998C240.426 263.05 240.134 263.169 239.841 263.353C239.559 263.531 239.331 263.74 239.157 263.981C238.983 264.222 238.864 264.476 238.8 264.742C238.735 265.007 238.726 265.276 238.773 265.548C238.819 265.82 238.921 266.08 239.077 266.328Z" fill="white"/>
<path d="M114.741 291.987C109.566 291.082 109.624 286.572 109.624 286.572C109.624 286.572 107.744 286.704 102.538 288.123C97.3326 289.542 83.146 295.942 83.5366 297.277C83.9272 298.613 94.735 299.287 103.153 297.542C104.867 297.187 106.215 296.886 107.275 296.634C104.912 298.278 103.317 299.654 103.436 300.227C103.783 301.914 114.613 302.41 123.124 299.906C131.635 297.403 131.239 296.888 131.239 296.888C131.239 296.888 132.471 294.996 131.918 291.352C131.366 287.708 129.989 285.725 129.989 285.725C129.989 285.725 128.097 285.956 122.822 287.937C120.937 288.645 117.878 290.202 114.741 291.987Z" fill="white"/>
<mask id="mask3_1_2" style="mask-type:luminance" maskUnits="userSpaceOnUse" x="78" y="280" width="60" height="27">
<path d="M137.061 280.725H78.5287V306.639H137.061V280.725Z" fill="white"/>
<path d="M114.741 291.987C109.566 291.082 109.624 286.572 109.624 286.572C109.624 286.572 107.744 286.704 102.538 288.123C97.3326 289.542 83.146 295.942 83.5366 297.277C83.9272 298.613 94.735 299.287 103.153 297.542C104.867 297.187 106.215 296.886 107.275 296.634C104.912 298.278 103.317 299.654 103.436 300.227C103.783 301.914 114.613 302.41 123.124 299.906C131.635 297.403 131.239 296.888 131.239 296.888C131.239 296.888 132.471 294.996 131.918 291.352C131.366 287.708 129.989 285.725 129.989 285.725C129.989 285.725 128.097 285.956 122.822 287.937C120.937 288.645 117.878 290.202 114.741 291.987Z" fill="black"/>
</mask>
<g mask="url(#mask3_1_2)">
<path d="M114.741 291.987C109.566 291.082 109.624 286.572 109.624 286.572C109.624 286.572 107.744 286.704 102.538 288.123C97.3326 289.542 83.146 295.942 83.5366 297.277C83.9272 298.613 94.735 299.287 103.153 297.542C104.867 297.187 106.215 296.886 107.275 296.634C104.912 298.278 103.317 299.654 103.436 300.227C103.783 301.914 114.613 302.41 123.124 299.906C131.635 297.403 131.239 296.888 131.239 296.888C131.239 296.888 132.471 294.996 131.918 291.352C131.366 287.708 129.989 285.725 129.989 285.725C129.989 285.725 128.097 285.956 122.822 287.937C120.937 288.645 117.878 290.202 114.741 291.987Z" stroke="black" stroke-width="10"/>
</g>
<path fill-rule="evenodd" clip-rule="evenodd" d="M194.109 53.3394C161.969 52.2171 126.672 62.7222 126.672 62.7222L60.0156 67.9331L121.461 20.9917L180.473 22.1206L275.906 67.9331C275.906 67.9331 226.25 54.4616 194.109 53.3394Z" fill="black"/>
<path fill-rule="evenodd" clip-rule="evenodd" d="M75.0712 55.9974C75.4721 56.3578 75.9028 56.6544 76.3633 56.8871C76.8238 57.1198 77.2877 57.2611 77.7551 57.3109C78.2224 57.3607 78.6851 57.3039 79.1432 57.1405C79.6013 56.9771 80.0281 56.6754 80.4238 56.2353C80.8037 55.8126 81.0525 55.4 81.1701 54.9975C81.2876 54.595 81.3205 54.2188 81.2687 53.8689C81.2168 53.519 81.1036 53.2045 80.929 52.9254C80.7545 52.6464 80.5669 52.4167 80.3665 52.2366L80.275 52.1543L78.1186 54.5532L76.6741 53.2546L80.4874 49.0125L85.625 53.6308L84.1326 55.291L83.0344 54.3039C83.1117 54.5861 83.1471 54.8819 83.1408 55.1913C83.1345 55.5008 83.0867 55.8124 82.9976 56.1263C82.9085 56.4401 82.778 56.7541 82.6059 57.0682C82.4338 57.3823 82.2166 57.6854 81.9542 57.9773C81.3392 58.6615 80.6685 59.1577 79.9423 59.4661C79.216 59.7744 78.4714 59.9147 77.7086 59.8868C76.9458 59.859 76.1872 59.6774 75.4329 59.342C74.6786 59.0067 73.9637 58.5355 73.2883 57.9283C72.6172 57.3251 72.0836 56.6544 71.6875 55.9162C71.2914 55.178 71.0518 54.419 70.9688 53.6392C70.8858 52.8595 70.9668 52.0814 71.2118 51.3049C71.4567 50.5284 71.8867 49.7981 72.5017 49.114C72.9012 48.6695 73.3314 48.2939 73.7922 47.9873C74.253 47.6806 74.7261 47.448 75.2114 47.2894C75.6967 47.1308 76.1869 47.0455 76.6821 47.0337C77.1773 47.0219 77.6588 47.0844 78.1266 47.2213L77.5689 49.7218C77.2784 49.6418 76.9863 49.592 76.6928 49.5724C76.3992 49.5527 76.111 49.5753 75.8282 49.6402C75.5453 49.705 75.2661 49.8184 74.9905 49.9804C74.715 50.1424 74.4518 50.3628 74.2011 50.6417C73.8055 51.0818 73.5508 51.5382 73.4369 52.0111C73.3231 52.4839 73.3158 52.95 73.4149 53.4095C73.5141 53.8689 73.7049 54.3161 73.9873 54.7513C74.2698 55.1864 74.6093 55.5822 75.0059 55.9387L75.0712 55.9974ZM82.9476 39.6629C83.6445 39.0358 84.3821 38.5985 85.1606 38.3512C85.9391 38.1038 86.7161 38.0234 87.4916 38.1098C88.267 38.1963 89.0196 38.4413 89.7493 38.8448C90.479 39.2484 91.1457 39.7855 91.7493 40.4562C92.3568 41.1313 92.822 41.8517 93.1447 42.6176C93.4674 43.3835 93.632 44.1576 93.6385 44.9401C93.645 45.7225 93.4834 46.4867 93.1537 47.2328C92.824 47.9788 92.3107 48.6654 91.6139 49.2925C90.9127 49.9236 90.1749 50.3629 89.4005 50.6105C88.6262 50.8581 87.8503 50.9375 87.0729 50.8489C86.2954 50.7603 85.5429 50.5153 84.8151 50.1139C84.0874 49.7126 83.4197 49.1743 82.8122 48.4993C82.2086 47.8285 81.7444 47.1092 81.4198 46.3411C81.0951 45.5731 80.9305 44.7989 80.9259 44.0187C80.9214 43.2384 81.0819 42.4752 81.4074 41.7289C81.733 40.9826 82.2464 40.294 82.9476 39.6629ZM90.0735 47.5809C90.4829 47.2125 90.7737 46.8108 90.946 46.3759C91.1182 45.9411 91.1876 45.4904 91.1541 45.024C91.1205 44.5575 90.9897 44.088 90.7615 43.6155C90.5333 43.1429 90.2193 42.6845 89.8195 42.2403L89.7724 42.188C89.3765 41.7481 88.9546 41.3888 88.5067 41.1101C88.0588 40.8313 87.6046 40.6508 87.1443 40.5685C86.6839 40.4861 86.2285 40.5078 85.7779 40.6334C85.3274 40.7591 84.8974 41.0061 84.488 41.3746C84.0786 41.743 83.7867 42.1456 83.6123 42.5825C83.4378 43.0193 83.3684 43.47 83.4041 43.9344C83.4399 44.3989 83.5728 44.8685 83.803 45.3433C84.0331 45.818 84.3461 46.2753 84.742 46.7152L84.7891 46.7674C85.1889 47.2117 85.6117 47.5721 86.0577 47.8487C86.5037 48.1252 86.9558 48.3057 87.4139 48.3899C87.8721 48.4742 88.3275 48.4526 88.7803 48.325C89.233 48.1974 89.6641 47.9493 90.0735 47.5809ZM99.8464 43.1803L89.6008 35.0227L91.9204 33.3558L99.4265 39.6291L99.4979 39.5778L95.9031 30.4938L98.1941 28.8474L102.659 41.1595L99.8464 43.1803ZM105.15 38.2383C105.039 38.0522 104.971 37.8556 104.946 37.6486C104.921 37.4415 104.935 37.2388 104.987 37.0404C105.039 36.8421 105.128 36.6561 105.253 36.4825C105.378 36.3089 105.533 36.1666 105.719 36.0554C105.906 35.9443 106.103 35.8756 106.313 35.8494C106.523 35.8232 106.727 35.8342 106.926 35.8823C107.126 35.9304 107.311 36.0145 107.481 36.1344C107.652 36.2543 107.793 36.4074 107.904 36.5935C108.018 36.7847 108.088 36.985 108.114 37.1946C108.141 37.4042 108.128 37.6094 108.078 37.8103C108.027 38.0111 107.94 38.1963 107.816 38.3659C107.692 38.5355 107.537 38.6759 107.351 38.787C107.165 38.8982 106.966 38.9689 106.756 38.9991C106.545 39.0293 106.339 39.0191 106.139 38.9684C105.938 38.9177 105.751 38.8312 105.579 38.7088C105.407 38.5863 105.264 38.4295 105.15 38.2383ZM113.668 32.7232C113.992 32.5464 114.269 32.3339 114.497 32.0858C114.725 31.8377 114.888 31.5617 114.986 31.258C115.084 30.9542 115.112 30.6222 115.069 30.2619C115.026 29.9016 114.894 29.5209 114.676 29.1197L110.933 22.261L113.139 21.0569L117.063 28.2473C117.4 28.8645 117.593 29.4836 117.641 30.1046C117.69 30.7256 117.61 31.3197 117.402 31.887C117.195 32.4543 116.867 32.9832 116.421 33.4739C115.974 33.9645 115.425 34.3881 114.771 34.7445C114.118 35.101 113.464 35.3343 112.81 35.4443C112.156 35.5543 111.533 35.5439 110.941 35.4131C110.349 35.2823 109.805 35.0285 109.309 34.6517C108.813 34.2749 108.396 33.7779 108.06 33.1607L104.136 25.9703L106.35 24.7619L110.093 31.6206C110.312 32.0218 110.561 32.3379 110.841 32.5691C111.12 32.8003 111.415 32.9569 111.723 33.0389C112.031 33.1209 112.352 33.133 112.684 33.0752C113.016 33.0174 113.344 32.9 113.668 32.7232ZM116.599 20.1427L118.95 19.1585L121.057 24.1931L123.101 17.4208L125.995 16.2091L123.892 22.5205L131.121 27.7264L128.389 28.8702L123.134 24.9435L122.337 27.2496L123.817 30.7844L121.466 31.7686L116.599 20.1427ZM137.011 26.608L130.094 15.487L132.839 14.6944L137.807 23.1216L137.891 23.0972L137.551 13.3337L140.261 12.5509L140.338 25.6472L137.011 26.608ZM142.777 12.513L151.113 10.9026L151.552 13.1722L145.718 14.2991L146.227 16.9311L151.603 15.8926L152.04 18.1535L146.663 19.192L147.233 22.1433L153.404 20.9514L153.84 23.2124L145.168 24.8877L142.777 12.513ZM154.318 10.9193L159.17 10.4157C159.916 10.3383 160.585 10.3778 161.179 10.5341C161.773 10.6905 162.28 10.9294 162.703 11.2508C163.125 11.5722 163.459 11.9572 163.706 12.4058C163.953 12.8544 164.103 13.3351 164.156 13.848C164.199 14.2618 164.177 14.6602 164.09 15.0433C164.003 15.4264 163.866 15.7794 163.679 16.1022C163.491 16.425 163.26 16.7111 162.986 16.9605C162.711 17.2099 162.408 17.4137 162.077 17.5718L165.358 22.4447L162.438 22.7477L159.697 18.4727L157.686 18.6814L158.154 23.1923L155.619 23.4554L154.318 10.9193ZM161.516 14.2103C161.49 13.9597 161.421 13.7313 161.308 13.525C161.196 13.3188 161.039 13.1465 160.839 13.0082C160.639 12.8699 160.398 12.7712 160.115 12.7122C159.832 12.6532 159.51 12.6425 159.148 12.68L157.085 12.8941L157.452 16.4259L159.515 16.2118C159.876 16.1743 160.189 16.0962 160.454 15.9774C160.718 15.8587 160.934 15.7096 161.101 15.5303C161.268 15.351 161.385 15.1488 161.453 14.9238C161.521 14.6988 161.542 14.4609 161.516 14.2103ZM166.75 10.3365L169.298 10.3109L169.425 22.9138L166.876 22.9394L166.75 10.3365ZM172.146 10.4452L180.633 10.7042L180.562 13.0146L174.624 12.8334L174.542 15.5128L180.015 15.6798L179.945 17.9815L174.471 17.8145L174.31 23.1206L171.762 23.0428L172.146 10.4452ZM184.805 11.5389L186.793 16.6585L186.828 16.6625L189.974 12.1306L192.812 12.4554L187.78 19.3989L187.196 24.4984L184.638 24.2055L185.221 19.106L181.888 11.205L184.805 11.5389ZM197.363 13.9071L199.849 14.4701L197.586 24.465L202.454 25.5676L201.934 27.8649L194.579 26.1993L197.363 13.9071ZM206.763 16.505L209.201 17.25L205.516 29.3031L203.079 28.5581L206.763 16.505ZM210.103 30.975L210.919 17.9039L213.614 18.85L212.773 28.5962L212.856 28.6253L218.242 20.4744L220.904 21.4088L213.371 32.122L210.103 30.975ZM223.015 22.8636L230.735 26.3971L229.773 28.4989L224.371 26.0262L223.255 28.4637L228.234 30.7425L227.276 32.8363L222.297 30.5575L221.046 33.2907L226.76 35.906L225.801 37.9999L217.77 34.3237L223.015 22.8636Z" fill="white"/>
<path fill-rule="evenodd" clip-rule="evenodd" d="M80.8307 63.9391C86.9778 61.9273 98.8117 59.394 119.429 59.394C153.624 59.394 166.908 62.021 187.527 73.9429C194.473 71.0786 212.187 62.021 212.187 62.021L233.382 34.7261L232.929 83.897L219.184 104.318L238.003 149.521C238.003 149.521 239.003 174.82 239.003 184.658C239.003 194.496 231.556 213.023 227.929 215.908C224.302 218.792 220.184 235.289 220.184 235.289C220.184 235.289 198.775 242.941 187.527 247.804C176.279 252.667 161.409 258.673 161.409 258.673C161.409 258.673 160.929 273.895 159.688 284.074C158.963 290.018 158.781 298.878 153.375 305.286C144.935 310.507 139.945 313.956 129.959 315.74C104.447 313.956 101.883 304.374 101.883 304.374C101.883 304.374 140.444 307.833 144.935 288.363C149.426 268.893 146.624 241.447 144.935 224.052C143.245 206.658 115.541 191.761 106.746 191.761C97.9512 191.761 78.8789 211.244 65.1992 211.244H30.7043C30.7043 211.244 17.7863 209.941 9.8176 203.187C4.47852 195.57 4 189.624 4 180.46C4 171.296 20.7981 141.072 20.7981 141.072C20.7981 141.072 23.4074 137.382 23.4074 133.214C23.4074 129.046 27.925 118.97 27.925 118.97C27.925 118.97 34.5481 102.301 39.8984 94.7798C45.2488 87.2583 53.0781 77.6265 59.2219 73.9429C60.1985 73.3574 61.2683 72.7665 62.377 72.1867L63.1602 39.0425L80.8307 63.9391Z" fill="url(#paint1_linear_1_2)" stroke="black" stroke-width="7"/>
<path fill-rule="evenodd" clip-rule="evenodd" d="M81.3971 233.853C83.6139 250.57 96.2926 259.905 97.6289 266.424C98.9652 272.944 108.606 283.878 116.268 280.447C123.93 277.015 135.27 261.529 133.206 252.824C131.141 244.119 120.567 236.65 120.567 225.033C120.567 213.416 120.567 206.679 120.567 206.679C120.567 206.679 110.787 204.3 100.922 204.3C91.0566 204.3 83.9401 209.769 83.9401 209.769C83.9401 209.769 79.1803 217.136 81.3971 233.853Z" fill="#B6560B"/>
<path fill-rule="evenodd" clip-rule="evenodd" d="M76.8086 148.398L92.1758 148.441L104.293 151.179L113.242 140.324L131.305 132.117C131.305 132.117 115.926 132.66 111.242 132.66C106.559 132.66 105.293 129.268 98.25 131.726C93.6591 133.329 94.4339 136.111 89.0156 140.324C83.5974 144.537 76.8086 148.398 76.8086 148.398Z" fill="black"/>
<path fill-rule="evenodd" clip-rule="evenodd" d="M9.80859 181.98C9.80859 181.98 13.7375 191.138 15.8105 194.21C17.8836 197.282 27.0508 203.085 27.0508 203.085L31.7852 212.773H44.9023L33.9668 201.272C33.9668 201.272 46.7295 192.089 53.1445 178.855C53.1445 178.855 37.05 175.054 27.7344 175.726C18.4187 176.398 9.80859 181.98 9.80859 181.98Z" fill="black"/>
<path fill-rule="evenodd" clip-rule="evenodd" d="M66.2734 117.968L50.8086 122.789L75.4844 106.726L79.7812 123.746L66.2734 117.968Z" fill="black"/>
<path fill-rule="evenodd" clip-rule="evenodd" d="M25.7695 121.726L36.8867 133.453L22.3359 144.57L25.7695 121.726Z" fill="black"/>
<path fill-rule="evenodd" clip-rule="evenodd" d="M89.8086 199.594C89.8086 199.594 106.404 192.442 108.869 180.713C111.334 168.984 108.869 162.726 108.869 162.726C108.869 162.726 117.942 167.625 117.942 180.713C117.942 193.801 103.875 202.351 103.875 202.351L89.8086 199.594Z" fill="black"/>
<path fill-rule="evenodd" clip-rule="evenodd" d="M127.727 59.9545L106.469 68.484C106.469 68.484 89.3242 71.0162 69.8701 76.0142C88.3604 73.9458 92.3486 74.9507 97.9062 76.0142C92.3486 79.9116 91.6895 81.0432 88.3604 83.4985C77.2764 84.507 62.7617 91.4565 62.7617 91.4565C62.7617 91.4565 68.8389 89.0151 88.3604 89.0151C107.882 89.0151 121.476 95.439 121.476 95.439C121.476 95.439 111.719 85.8358 101.633 84.7615C101.633 84.7615 105.498 81.1404 111.976 77.8559C111.976 77.8559 127.727 76.0142 153.203 84.7615C137.066 74.9695 124.41 70.484 124.41 70.484L148.244 63.2144L127.727 59.9545Z" fill="black"/>
<path fill-rule="evenodd" clip-rule="evenodd" d="M28.4098 129.726L31.8867 133.239L27.3359 136.57L28.4098 129.726Z" fill="white"/>
<path fill-rule="evenodd" clip-rule="evenodd" d="M216.605 101.484C216.605 101.484 228.434 107.097 239.127 127.16C249.82 147.222 253.941 162.953 255.885 170.816C246.786 164.404 239.127 162.953 239.127 162.953C239.127 162.953 235.865 146.053 231.035 133.562C226.205 121.071 216.605 101.484 216.605 101.484Z" fill="black"/>
<path fill-rule="evenodd" clip-rule="evenodd" d="M240.473 157.5C240.473 157.5 237.917 155.459 238.041 157.5C238.496 165.019 234.217 195.471 225.693 209.048C221.201 216.205 217.421 224.413 204.075 227.66C200.948 236.389 190.834 242.455 190.834 242.455C190.834 242.455 218.64 233.892 221.184 233.892C223.728 233.892 223.855 247.287 223.855 247.287C223.855 247.287 240.605 227.406 243.352 198.689C246.098 169.972 240.473 157.5 240.473 157.5Z" fill="black"/>
<path fill-rule="evenodd" clip-rule="evenodd" d="M16.582 180.468L35.793 133.781L9.8125 182.332L16.582 180.468Z" fill="black"/>
<path fill-rule="evenodd" clip-rule="evenodd" d="M160.414 258.16L163.919 272.835L179.992 272.57L189.689 249.441L160.414 258.16Z" fill="black"/>
<path fill-rule="evenodd" clip-rule="evenodd" d="M235.642 250.245C263.81 222.66 263.933 211.829 265.951 185.66C267.969 159.491 257.019 119.351 257.019 119.351C257.019 119.351 274.342 153.04 275.804 178.571C277.265 204.101 274.969 213.686 274.969 213.686C274.969 213.686 262.252 232.468 235.642 250.245Z" fill="black"/>
<path fill-rule="evenodd" clip-rule="evenodd" d="M99.4756 136.452C104.166 135.323 108.15 139.633 108.15 139.633C108.15 139.633 107.272 143.695 103.374 145.181C99.4756 146.667 95.4814 142.335 95.4814 142.335C95.4814 142.335 94.7852 137.581 99.4756 136.452Z" fill="white"/>
<path d="M100.809 143.726C101.913 143.726 102.809 142.831 102.809 141.726C102.809 140.622 101.913 139.726 100.809 139.726C99.704 139.726 98.8086 140.622 98.8086 141.726C98.8086 142.831 99.704 143.726 100.809 143.726Z" fill="black"/>
<path fill-rule="evenodd" clip-rule="evenodd" d="M157.678 256.164C157.678 256.164 177.398 226.804 172.02 201.675C166.641 176.546 152.857 166.894 152.857 166.894C152.857 166.894 169.735 161.574 177.398 147.378C185.062 133.183 179.797 119.511 172.883 109.64C183.621 118.493 191.836 131.929 188.336 147.378C184.836 162.828 173.18 173.609 173.18 173.609L183.621 189.25C183.621 189.25 194.683 184.125 201.146 170.773C207.61 157.42 208.535 150.274 206.036 132.921C214.549 147.378 218.041 159.431 212.289 177.126C206.537 194.822 189.421 206.052 189.421 206.052C189.421 206.052 191.289 217.519 188.336 229.419C185.383 241.32 179.797 254.931 179.797 254.931L157.678 256.164Z" fill="black"/>
<path fill-rule="evenodd" clip-rule="evenodd" d="M250.309 37.0825L258.165 42.6118L256.804 44.5452L253.922 42.5166L248.029 50.8897L245.937 49.4175L251.831 41.0445L248.949 39.0159L250.309 37.0825ZM259.712 44.3517L263.467 47.4655C264.044 47.9442 264.485 48.4503 264.788 48.9838C265.092 49.5172 265.277 50.0471 265.342 50.5736C265.408 51.1001 265.367 51.6085 265.219 52.0987C265.072 52.589 264.833 53.0326 264.504 53.4295C264.239 53.7497 263.939 54.0128 263.604 54.2188C263.27 54.4248 262.921 54.5738 262.56 54.6658C262.198 54.7578 261.832 54.793 261.462 54.7714C261.091 54.7498 260.734 54.676 260.389 54.5501L259.203 60.3033L256.944 58.4295L258.08 53.4798L256.524 52.1894L253.629 55.6804L251.667 54.0534L259.712 44.3517ZM262.398 51.7972C262.559 51.6032 262.674 51.3938 262.742 51.169C262.811 50.9441 262.824 50.7119 262.783 50.4723C262.742 50.2327 262.644 49.9912 262.488 49.7477C262.332 49.5043 262.114 49.2666 261.834 49.0347L260.238 47.7107L257.971 50.4439L259.568 51.768C259.847 51.9999 260.122 52.1688 260.392 52.2746C260.662 52.3805 260.92 52.4304 261.165 52.4241C261.41 52.4179 261.636 52.3604 261.844 52.2515C262.053 52.1426 262.237 51.9911 262.398 51.7972ZM264.964 63.7275C265.226 63.9878 265.508 64.1921 265.811 64.3404C266.114 64.4887 266.425 64.5666 266.744 64.5739C267.063 64.5813 267.389 64.5131 267.722 64.3692C268.056 64.2253 268.383 63.9913 268.705 63.6673L274.215 58.1268L275.997 59.8992L270.221 65.7077C269.726 66.2063 269.187 66.5672 268.606 66.7905C268.024 67.0138 267.432 67.1066 266.829 67.069C266.226 67.0313 265.626 66.8683 265.028 66.5799C264.431 66.2916 263.868 65.8851 263.341 65.3604C262.813 64.8357 262.403 64.2754 262.112 63.6796C261.82 63.0838 261.652 62.4835 261.609 61.8787C261.566 61.2739 261.655 60.6802 261.875 60.0974C262.095 59.5147 262.453 58.974 262.948 58.4755L268.724 52.667L270.513 54.4456L265.003 59.9861C264.681 60.3102 264.449 60.6392 264.307 60.9731C264.165 61.307 264.099 61.6335 264.108 61.9525C264.117 62.2715 264.197 62.582 264.347 62.884C264.497 63.1861 264.703 63.4672 264.964 63.7275ZM271.388 69.293C271.348 69.5389 271.333 69.81 271.342 70.1064C271.351 70.4028 271.391 70.7062 271.461 71.0168C271.531 71.3273 271.64 71.6384 271.787 71.9501C271.934 72.2617 272.131 72.5666 272.377 72.8648C272.836 73.4206 273.304 73.7504 273.781 73.8542C274.258 73.9581 274.664 73.872 274.998 73.5959C275.346 73.3087 275.503 72.9605 275.469 72.5515C275.435 72.1425 275.237 71.6127 274.875 70.9621L274.677 70.6123C274.414 70.146 274.175 69.6632 273.96 69.1641C273.746 68.665 273.615 68.1614 273.568 67.6532C273.521 67.1451 273.586 66.6467 273.764 66.158C273.942 65.6693 274.295 65.2067 274.823 64.7702C275.131 64.5166 275.509 64.3185 275.957 64.1762C276.406 64.0338 276.893 63.994 277.42 64.0568C277.947 64.1196 278.494 64.3102 279.06 64.6287C279.627 64.9471 280.185 65.4384 280.733 66.1026C281.382 66.8888 281.832 67.6976 282.081 68.5288C282.33 69.3601 282.399 70.1408 282.288 70.8711L279.988 70.5702C280.062 70.0611 280.01 69.5286 279.832 68.9726C279.654 68.4166 279.382 67.9173 279.016 67.4745C278.595 66.9639 278.169 66.6453 277.737 66.5188C277.306 66.3923 276.935 66.4578 276.623 66.7152C276.42 66.883 276.288 67.0692 276.229 67.2738C276.17 67.4783 276.166 67.7006 276.216 67.9405C276.266 68.1804 276.358 68.4421 276.493 68.7255C276.629 69.009 276.786 69.3196 276.966 69.6572L277.068 69.8355C277.316 70.2838 277.544 70.7456 277.75 71.2211C277.957 71.6966 278.082 72.1799 278.127 72.6711C278.171 73.1623 278.101 73.6478 277.916 74.1275C277.731 74.6072 277.369 75.0689 276.831 75.5129C276.343 75.9158 275.828 76.1704 275.285 76.2767C274.742 76.383 274.201 76.378 273.66 76.2619C273.12 76.1458 272.602 75.9236 272.107 75.5954C271.612 75.2671 271.168 74.8658 270.777 74.3914C270.381 73.9124 270.055 73.4349 269.799 72.9588C269.543 72.4828 269.352 72.0171 269.227 71.5619C269.102 71.1067 269.025 70.6727 268.996 70.26C268.966 69.8472 268.978 69.456 269.03 69.0864L271.388 69.293ZM284.418 71.7028L289.867 79.6144L287.919 80.9554L285.92 78.0528L277.488 83.8607L276.037 81.7543L284.47 75.9465L282.471 73.0438L284.418 71.7028ZM287.882 89.4936C288.184 89.336 288.5 89.2449 288.831 89.2204C289.162 89.1959 289.48 89.2293 289.786 89.3206C290.092 89.4119 290.373 89.5606 290.63 89.7669C290.886 89.9731 291.095 90.2293 291.255 90.5356C291.413 90.8367 291.504 91.1527 291.528 91.4838C291.553 91.8149 291.517 92.1347 291.42 92.4431C291.324 92.7515 291.171 93.0348 290.962 93.2929C290.754 93.551 290.499 93.7589 290.198 93.9165C289.897 94.0741 289.582 94.1644 289.253 94.1876C288.925 94.2107 288.609 94.1727 288.306 94.0735C288.002 93.9743 287.722 93.8203 287.464 93.6115C287.206 93.4027 286.998 93.1478 286.84 92.8467C286.68 92.5404 286.588 92.223 286.565 91.8945C286.542 91.5661 286.577 91.2515 286.671 90.951C286.765 90.6505 286.915 90.3719 287.122 90.1151C287.328 89.8584 287.581 89.6512 287.882 89.4936ZM291.283 107.952C291.422 108.295 291.601 108.593 291.821 108.849C292.041 109.104 292.297 109.298 292.587 109.43C292.878 109.562 293.204 109.628 293.567 109.627C293.93 109.625 294.323 109.539 294.747 109.368L301.991 106.439L302.933 108.769L295.339 111.84C294.687 112.103 294.05 112.223 293.427 112.2C292.805 112.177 292.224 112.029 291.684 111.758C291.145 111.486 290.657 111.1 290.221 110.6C289.785 110.1 289.427 109.505 289.148 108.816C288.87 108.126 288.713 107.45 288.679 106.787C288.645 106.125 288.727 105.507 288.925 104.934C289.123 104.361 289.438 103.849 289.869 103.4C290.301 102.951 290.842 102.594 291.494 102.331L299.088 99.26L300.034 101.599L292.79 104.528C292.366 104.699 292.024 104.91 291.762 105.161C291.5 105.413 291.31 105.687 291.194 105.984C291.077 106.281 291.028 106.597 291.047 106.934C291.066 107.271 291.145 107.61 291.283 107.952ZM295.008 115.601C294.874 115.812 294.754 116.055 294.646 116.331C294.538 116.607 294.455 116.902 294.398 117.215C294.34 117.528 294.318 117.857 294.331 118.201C294.344 118.546 294.405 118.903 294.514 119.274C294.718 119.966 295.018 120.453 295.416 120.736C295.814 121.019 296.221 121.099 296.637 120.976C297.07 120.849 297.351 120.59 297.481 120.201C297.61 119.811 297.636 119.246 297.559 118.506L297.514 118.107C297.455 117.574 297.425 117.036 297.424 116.493C297.423 115.95 297.5 115.435 297.656 114.949C297.813 114.464 298.068 114.031 298.424 113.651C298.779 113.272 299.286 112.985 299.944 112.791C300.326 112.679 300.751 112.645 301.219 112.691C301.688 112.736 302.152 112.891 302.612 113.155C303.071 113.42 303.499 113.81 303.895 114.326C304.292 114.841 304.611 115.512 304.855 116.338C305.143 117.316 305.238 118.237 305.141 119.099C305.044 119.961 304.801 120.706 304.411 121.334L302.415 120.154C302.682 119.715 302.843 119.205 302.898 118.623C302.953 118.042 302.899 117.476 302.737 116.925C302.55 116.29 302.283 115.83 301.936 115.544C301.589 115.258 301.222 115.173 300.834 115.287C300.581 115.361 300.388 115.481 300.253 115.646C300.118 115.811 300.027 116.014 299.978 116.254C299.93 116.494 299.912 116.771 299.925 117.085C299.938 117.399 299.961 117.746 299.994 118.127L300.018 118.331C300.07 118.841 300.098 119.355 300.101 119.873C300.104 120.392 300.029 120.886 299.877 121.355C299.726 121.824 299.47 122.243 299.111 122.611C298.753 122.98 298.239 123.262 297.57 123.459C296.963 123.638 296.389 123.67 295.848 123.554C295.307 123.439 294.811 123.221 294.359 122.902C293.908 122.583 293.519 122.176 293.193 121.679C292.866 121.183 292.616 120.64 292.442 120.049C292.267 119.454 292.155 118.886 292.106 118.348C292.058 117.81 292.065 117.306 292.129 116.839C292.193 116.371 292.292 115.942 292.428 115.55C292.563 115.159 292.727 114.804 292.92 114.485L295.008 115.601ZM306.249 123.964L307.928 132.287L305.662 132.744L304.487 126.92L301.859 127.45L302.942 132.817L300.685 133.273L299.602 127.905L296.655 128.5L297.898 134.66L295.641 135.115L293.894 126.456L306.249 123.964ZM307.952 135.442L308.51 140.288C308.596 141.033 308.564 141.704 308.414 142.299C308.264 142.894 308.031 143.405 307.715 143.83C307.398 144.256 307.017 144.595 306.571 144.847C306.125 145.099 305.646 145.254 305.134 145.313C304.72 145.361 304.322 145.343 303.938 145.26C303.554 145.178 303.199 145.045 302.874 144.861C302.549 144.677 302.261 144.449 302.008 144.178C301.756 143.906 301.549 143.605 301.387 143.276L296.551 146.611L296.215 143.695L300.459 140.906L300.228 138.898L295.723 139.416L295.431 136.884L307.952 135.442ZM304.742 142.677C304.992 142.649 305.22 142.577 305.425 142.462C305.63 142.347 305.8 142.188 305.936 141.987C306.072 141.785 306.168 141.543 306.224 141.259C306.28 140.976 306.287 140.653 306.245 140.292L306.008 138.232L302.481 138.638L302.718 140.699C302.76 141.06 302.841 141.372 302.963 141.635C303.085 141.898 303.236 142.112 303.417 142.277C303.598 142.442 303.802 142.557 304.028 142.623C304.253 142.688 304.492 142.706 304.742 142.677ZM299.655 148.888C299.472 149.056 299.292 149.26 299.116 149.499C298.94 149.737 298.784 150 298.647 150.288C298.511 150.576 298.404 150.887 298.327 151.223C298.25 151.559 298.216 151.92 298.226 152.307C298.243 153.028 298.407 153.576 298.718 153.952C299.029 154.329 299.402 154.512 299.835 154.501C300.286 154.49 300.625 154.314 300.851 153.971C301.077 153.629 301.249 153.09 301.366 152.354L301.426 151.957C301.507 151.428 301.618 150.9 301.757 150.375C301.897 149.85 302.105 149.373 302.382 148.945C302.659 148.516 303.018 148.164 303.46 147.89C303.901 147.616 304.465 147.47 305.15 147.453C305.549 147.444 305.968 147.521 306.409 147.687C306.849 147.852 307.257 148.122 307.633 148.497C308.008 148.871 308.32 149.359 308.569 149.96C308.818 150.56 308.953 151.291 308.974 152.152C308.999 153.171 308.853 154.085 308.535 154.893C308.218 155.7 307.79 156.357 307.251 156.862L305.628 155.205C306.001 154.85 306.289 154.399 306.492 153.852C306.696 153.305 306.791 152.744 306.777 152.17C306.761 151.508 306.622 150.994 306.361 150.629C306.1 150.263 305.768 150.085 305.364 150.095C305.1 150.101 304.882 150.166 304.709 150.291C304.536 150.415 304.395 150.587 304.286 150.806C304.177 151.026 304.089 151.289 304.02 151.595C303.951 151.902 303.883 152.243 303.816 152.62L303.786 152.823C303.704 153.329 303.598 153.833 303.466 154.334C303.335 154.835 303.135 155.293 302.867 155.707C302.598 156.121 302.243 156.459 301.801 156.722C301.359 156.985 300.789 157.124 300.092 157.141C299.46 157.156 298.897 157.038 298.405 156.786C297.912 156.535 297.489 156.196 297.136 155.771C296.783 155.346 296.513 154.851 296.326 154.287C296.14 153.723 296.039 153.134 296.024 152.519C296.009 151.898 296.048 151.321 296.141 150.788C296.233 150.256 296.371 149.772 296.554 149.336C296.737 148.901 296.944 148.512 297.176 148.17C297.408 147.827 297.659 147.526 297.928 147.268L299.655 148.888ZM301.634 165.246C301.971 165.283 302.284 165.384 302.573 165.549C302.861 165.714 303.106 165.92 303.308 166.166C303.511 166.413 303.661 166.693 303.759 167.008C303.856 167.322 303.886 167.652 303.847 167.995C303.81 168.333 303.709 168.646 303.544 168.934C303.379 169.222 303.17 169.467 302.918 169.669C302.666 169.871 302.381 170.02 302.063 170.118C301.746 170.215 301.418 170.245 301.08 170.207C300.743 170.169 300.431 170.068 300.146 169.904C299.861 169.739 299.62 169.531 299.424 169.28C299.228 169.028 299.081 168.743 298.984 168.426C298.887 168.108 298.857 167.781 298.895 167.443C298.933 167.099 299.034 166.785 299.199 166.5C299.363 166.214 299.569 165.973 299.815 165.777C300.06 165.58 300.341 165.433 300.655 165.335C300.97 165.238 301.296 165.208 301.634 165.246ZM297.013 188.948C296.091 188.752 295.276 188.449 294.57 188.038C293.863 187.627 293.293 187.117 292.86 186.506C292.427 185.896 292.142 185.187 292.005 184.379C291.868 183.572 291.906 182.669 292.118 181.672L293.083 177.133L305.411 179.753L304.446 184.293C304.234 185.29 303.901 186.13 303.447 186.812C302.994 187.494 302.445 188.026 301.801 188.407C301.157 188.788 300.428 189.023 299.616 189.111C298.804 189.199 297.936 189.145 297.013 188.948ZM297.804 186.412C298.326 186.523 298.825 186.562 299.302 186.528C299.78 186.495 300.215 186.372 300.608 186.159C301 185.946 301.341 185.633 301.629 185.221C301.917 184.809 302.13 184.282 302.266 183.64L302.663 181.775L294.771 180.097L294.374 181.963C294.239 182.599 294.219 183.164 294.315 183.657C294.411 184.151 294.596 184.575 294.871 184.93C295.146 185.285 295.496 185.577 295.92 185.805C296.345 186.033 296.816 186.202 297.331 186.311L297.804 186.412ZM301.775 192.992L299.204 201.083L297.001 200.384L298.8 194.721L296.245 193.91L294.587 199.128L292.393 198.431L294.05 193.212L291.186 192.302L289.283 198.292L287.089 197.594L289.763 189.176L301.775 192.992ZM297.707 203.845L296.737 206.202L287.261 202.299L285.36 206.914L283.182 206.017L286.054 199.045L297.707 203.845ZM293.618 212.637L292.484 214.92L281.196 209.313L282.33 207.03L293.618 212.637ZM278.8 213.582L291.566 216.503L290.197 219.009L280.715 216.601L280.673 216.679L287.844 223.313L286.491 225.788L277.139 216.62L278.8 213.582ZM284.781 227.587L280.074 234.653L278.15 233.372L281.444 228.427L279.213 226.941L276.177 231.498L274.261 230.221L277.296 225.664L274.795 223.998L271.311 229.228L269.394 227.951L274.291 220.6L284.781 227.587ZM277.855 236.898L274.817 240.715C274.35 241.302 273.853 241.752 273.326 242.067C272.799 242.381 272.273 242.576 271.747 242.653C271.222 242.729 270.713 242.698 270.22 242.56C269.727 242.422 269.279 242.193 268.875 241.872C268.55 241.613 268.281 241.318 268.068 240.988C267.855 240.658 267.699 240.313 267.6 239.953C267.501 239.593 267.458 239.228 267.472 238.857C267.487 238.486 267.553 238.128 267.672 237.78L261.896 236.711L263.724 234.414L268.696 235.45L269.955 233.868L266.406 231.044L267.993 229.05L277.855 236.898ZM270.465 239.733C270.662 239.89 270.874 240.001 271.1 240.065C271.326 240.129 271.559 240.138 271.797 240.092C272.036 240.046 272.275 239.943 272.516 239.782C272.756 239.621 272.989 239.399 273.215 239.114L274.507 237.491L271.729 235.28L270.437 236.903C270.211 237.187 270.048 237.466 269.947 237.738C269.847 238.01 269.802 238.268 269.813 238.513C269.824 238.758 269.887 238.983 270 239.189C270.113 239.395 270.268 239.577 270.465 239.733ZM268.826 247.002L263.539 245.512L263.515 245.538L265.245 250.777L263.279 252.849L260.757 244.653L257.033 241.12L258.805 239.252L262.529 242.785L270.846 244.872L268.826 247.002Z" fill="white"/>
<path fill-rule="evenodd" clip-rule="evenodd" d="M219.886 71.7261L206.944 85.2972L201.678 79.7762L197.809 83.8332L206.944 93.4124L223.756 75.7831L219.886 71.7261Z" fill="black"/>
</g>
</g>
<defs>
<linearGradient id="paint0_linear_1_2" x1="167.309" y1="0.726078" x2="167.309" y2="299.726" gradientUnits="userSpaceOnUse">
<stop stop-color="#FFC300"/>
<stop offset="1" stop-color="#F34D10"/>
</linearGradient>
<linearGradient id="paint1_linear_1_2" x1="121.502" y1="62.2378" x2="121.502" y2="290.531" gradientUnits="userSpaceOnUse">
<stop stop-color="#FFC300"/>
<stop offset="1" stop-color="#F46109"/>
</linearGradient>
<clipPath id="clip0_1_2">
<rect width="320" height="320" fill="white"/>
</clipPath>
<clipPath id="clip1_1_2">
<rect width="341" height="362" fill="white" transform="translate(0 -42)"/>
</clipPath>
</defs>
</svg>
